<?xml version="1.0" encoding="utf-8"?>
<!-- Generator: Adobe Illustrator 26.0.1, SVG Export Plug-In . SVG Version: 6.00 Build 0)  -->
<svg version="1.1" id="Layer_1" xmlns="http://www.w3.org/2000/svg" xmlns:xlink="http://www.w3.org/1999/xlink" x="0px" y="0px"
	 viewBox="0 0 356 324" style="enable-background:new 0 0 356 324;" xml:space="preserve">
<style type="text/css">
	.st0{fill:#72B5E8;}
	.st1{fill:#A8CFF0;}
	.st2{fill:#D1EBFF;}
	.st3{fill:#FFFFFF;}
	.st4{fill:#EB4680;}
	.st5{fill:#D62D69;}
	.st6{opacity:0.7;fill:#FFFFFF;}
	.st7{fill:#FFCC00;}
	.st8{fill:#FFD70F;}
	.st9{fill:#D99F00;}
	.st10{fill:#B08100;}
	.st11{fill:#3F92D1;}
	.st12{fill:#4F9FDB;}
	.st13{fill:#03336E;}
	.st14{fill:#001A46;}
	.st15{fill:#0FBAB8;}
	.st16{fill:#2672AB;}
	.st17{fill:#084C94;}
	.st18{fill:#0BA19F;}
	.st19{fill:#FFDE17;}
	.st20{fill:#3ECFCD;}
	.st21{fill:#F76195;}
	.st22{opacity:0.2;fill:#92B4D1;}
	
	@keyframes vertical-ani {
  0% {
    transform: translateY(0);
  }
  50% {
    transform: translateY(5px);
  }
  100% {
    transform: translateY(0);
  }
}
@keyframes vertical-ani1 {
  0% {
    transform: translateY(0);
  }
  50% {
    transform: translateY(3px);
  }
  100% {
    transform: translateY(0);
  }
}
@keyframes vertical-ani2 {
  0% {
    transform: translateY(0);
  }
  50% {
    transform: translateY(6px);
  }
  100% {
    transform: translateY(0);
  }
}

@keyframes magnifier-ani {
  0% {
    transform: translateX(0px);
    
	
  }

  50% {
    transform: translateX(6px);
	
  }

  100% {
    transform: translateX(0px);
	
  }
  
}


@keyframes magnifier-ani2 {
  0% {
    transform: translateX(0px);
    transform: translateY(0px);
	opacity:0;
  }
  20% {
    transform: translateX(5px);
    transform: translateY(0px);
	opacity:1;
  }

  40% {
    transform: translateY(-10px);
	transform: translateX(10px)
  }

  60% {
    transform: translateX(0px);
    transform: translateY(5px);
  }

  80% {
    transform: translateX(0px);
    transform: translateY(0px);
  }

  100% {
    transform: translateX(0px);
    transform: translateY(0px);
  }
}

.vertical-animation {
  animation: vertical-ani 2s infinite;
  
}
.vertical-animation1 {
  animation: vertical-ani1 1s infinite;
  
}
.vertical-animation2 {
  animation: vertical-ani2 3s infinite;
  
}

.magnifier-animation{

	animation: magnifier-ani 3s infinite;
  

}



</style>
<g>
	<g class="vertical-animation2">
		<g>
			<path class="st0" d="M295.6,185.3c-7.7-4.4-13.9-15.2-13.9-24c0-3.3,0.9-5.8,2.3-7.5c-4.2,0.3-7.1,3.8-7.1,9.8
				c0,8.8,6.2,19.5,13.9,24c4.8,2.8,9,2.4,11.5-0.4C300.4,187.3,298.1,186.7,295.6,185.3z"/>
			<path class="st1" d="M309.1,182.4c0-1.1-0.1-2.2-0.2-3.4l5.6-0.7c-0.6-2.8-1.4-5.7-2.5-8.5l-6.4-1.9c-1.1-2.4-2.5-4.7-4-6.9
				l1.5-6.5c-1.9-2.4-4-4.5-6.1-6.5l-3.4,4.5c-0.9-0.7-1.9-1.3-2.8-1.9c-1-0.6-1.9-1-2.8-1.4l-3.4-8.4c-2.2-0.6-4.2-0.8-6.1-0.6
				l1.5,8.2c-1.5,0.4-2.9,1.2-4,2.3l-6.4-5.5c-1.1,1.5-2,3.4-2.5,5.6l5.6,7.2c-0.1,1-0.2,2-0.2,3.1c0,1.1,0.1,2.2,0.2,3.4l-5.6,0.7
				c0.6,2.8,1.4,5.7,2.5,8.5l6.4,1.9c1.1,2.4,2.5,4.7,4,6.9l-1.5,6.5c1.9,2.4,4,4.5,6.1,6.5l3.4-4.5c0.9,0.7,1.9,1.3,2.8,1.9
				c1,0.6,1.9,1,2.8,1.4l3.4,8.4c2.2,0.6,4.2,0.8,6.1,0.6l-1.5-8.2c1.5-0.4,2.9-1.2,4-2.3l6.4,5.5c1.1-1.5,2-3.4,2.5-5.6l-5.6-7.2
				C309,184.5,309.1,183.5,309.1,182.4z M290.9,187.6c-7.7-4.4-13.9-15.2-13.9-24c0-8.8,6.2-12.3,13.9-7.9
				c7.7,4.4,13.9,15.2,13.9,24C304.7,188.5,298.5,192,290.9,187.6z"/>
			<polygon class="st0" points="293.2,146.2 289.8,137.8 284.4,140.9 287.9,149.3 			"/>
			<path class="st2" d="M287.9,149.3c0.9,0.4,1.9,0.8,2.8,1.4c1,0.6,1.9,1.2,2.8,1.9l3.4-4.5l0,0c0,0-0.6-0.4-0.9-0.5
				c-1-0.6-1.9-1-2.8-1.4L287.9,149.3z"/>
			<path class="st2" d="M289.8,137.8c-2.2-0.6-4.2-0.8-6.1-0.6l-5.4,3.1c1.9-0.2,4,0,6.1,0.6L289.8,137.8z"/>
			<path class="st2" d="M308.4,151.5c-1.9-2.4-4-4.5-6.1-6.5l-5.4,3.1c2.2,1.9,4.2,4.1,6.1,6.5L308.4,151.5z"/>
			<polygon class="st0" points="303.1,154.5 301.5,161 306.9,157.9 308.4,151.5 			"/>
			<path class="st0" d="M301.5,161c1.5,2.2,2.9,4.5,4,6.9l5.4-3.1c-1.1-2.4-2.5-4.7-4-6.9L301.5,161z"/>
			<polygon class="st2" points="305.5,167.9 311.9,169.8 317.3,166.7 310.9,164.8 			"/>
			<path class="st0" d="M311.9,169.8c1.1,2.8,2,5.7,2.5,8.5l5.4-3.1c-0.6-2.8-1.4-5.7-2.5-8.5L311.9,169.8z"/>
			<path class="st0" d="M279.8,148.5l-0.4-2.4l-4.6-3.9l-5.4,3.1l6.4,5.5C277,149.6,278.3,148.9,279.8,148.5z"/>
			<path class="st0" d="M314.5,192.7c-0.6,2.2-1.4,4-2.5,5.6l5.4-3.1c1.1-1.5,2-3.4,2.5-5.6L314.5,192.7z"/>
			<path class="st0" d="M314.2,182.4c0.1-1,0.2-2,0.2-3.1c0-0.3,0-0.7,0-1l-5.6,0.7c0.1,1.1,0.2,2.3,0.2,3.4c0,1.1-0.1,2.1-0.2,3.1
				L314.2,182.4z"/>
			<polygon class="st2" points="308.8,185.5 314.5,192.7 319.8,189.6 314.2,182.4 			"/>
			<path class="st0" d="M305.5,192.8c-1.1,1.1-2.5,1.9-4,2.3l1.5,8.2l5.4-3.1l-1.1-5.8L305.5,192.8z"/>
			<path class="st2" d="M272.3,162l-5.4,3.2l5.6-0.7C272.4,163.7,272.4,162.8,272.3,162z"/>
			<path class="st0" d="M287.9,191l-3.4,4.5l5.4-3.1C289.2,191.9,288.5,191.5,287.9,191z"/>
			<g>
				<path class="st3" d="M279.2,148.8L279.2,148.8c-0.3,0-0.5,0.1-0.8,0.3C278.7,149,278.9,148.9,279.2,148.8z"/>
				<path class="st3" d="M271.8,164.6l-4.7,0.6c0,0.1,0,0.2,0.1,0.3l4.6-0.6C271.9,164.8,271.9,164.7,271.8,164.6z"/>
				<path class="st3" d="M302.8,154.9l-1.5,6.5c1.5,2.2,2.9,4.5,4,6.9l6.4,1.9c1.1,2.7,1.9,5.5,2.5,8.2l0.6-0.1
					c-0.6-2.8-1.4-5.7-2.5-8.5l-6.4-1.9c-1.1-2.4-2.5-4.7-4-6.9l1.5-6.5c-1.9-2.4-4-4.5-6.1-6.5l-0.2,0.7
					C299,150.6,301,152.7,302.8,154.9z"/>
				<path class="st3" d="M290.9,187.5c-7.7-4.4-13.9-15.2-13.9-24c0-3.9,1.2-6.7,3.2-8.3c-2.3,1.5-3.8,4.5-3.8,8.7
					c0,8.8,6.2,19.5,13.9,24c3.9,2.2,7.4,2.4,9.9,1c-0.2,0.1-0.4,0.1-0.6,0.1C297.3,189.8,294.2,189.4,290.9,187.5z"/>
				<path class="st3" d="M302.6,194.8c0.9-0.3,1.8-0.8,2.5-1.4l-0.2-0.2C304.2,193.8,303.4,194.3,302.6,194.8z"/>
				<path class="st3" d="M275.6,150.9c-0.2,0,0-0.2,0.2-0.4l-6.2-5.2c-0.2,0.2-0.3,0.5,0,0.5L275.6,150.9z"/>
				<path class="st3" d="M301.4,195.4l1.5,7.9c-0.2,0,0.2,0,0.5,0l-1.5-8.1C301.5,195.2,301.2,195.3,301.4,195.4z"/>
				<path class="st3" d="M309.3,182.4c0-1-0.1-2-0.2-3.1l-0.6,0c0.1,1.1,0.2,2.3,0.2,3.4c0,1.1-0.1,2.1-0.2,3.1l5.6,7.2
					c-0.5,1.8-1.2,3.4-2,4.8l0,0.4c1.1-1.5,2-3.4,2.5-5.6l-5.6-7.2C309.3,184.5,309.3,183.5,309.3,182.4z"/>
				<path class="st3" d="M284.2,141.1l3.4,8.4c0.9,0.4,1.9,0.8,2.8,1.4c1,0.6,1.9,1.2,2.8,1.9l0.1-0.5c-0.8-0.6-1.6-1.1-2.4-1.6
					c-1-0.6-1.9-1-2.8-1.4l-3.4-8.4c-2.2-0.6-4.2-0.8-6.1-0.6l0.1,0.4C280.3,140.5,282.4,140.6,284.2,141.1z"/>
				<path class="st3" d="M287.2,191.3l-2.9,3.7c0.1,0.1,0.2,0.2,0.4,0.3l2.9-3.8C287.5,191.5,287.3,191.4,287.2,191.3z"/>
			</g>
		</g>
		<g>
			<path class="st0" d="M293.6,119.2c-11.5-6.7-20.9-22.8-20.9-36c0-4.9,1.3-8.7,3.5-11.2c-6.3,0.5-10.6,5.8-10.6,14.7
				c0,13.2,9.4,29.4,20.9,36c7.2,4.2,13.6,3.6,17.4-0.7C300.8,122.3,297.3,121.4,293.6,119.2z"/>
			<path class="st1" d="M313.9,114.9c0-1.7-0.1-3.4-0.4-5.1l8.4-1.1c-0.9-4.3-2.2-8.5-3.8-12.8l-9.6-2.9c-1.7-3.6-3.7-7.1-6-10.3
				l2.3-9.7c-2.9-3.6-5.9-6.8-9.2-9.7l-5.2,6.7c-1.4-1-2.8-2-4.2-2.9c-1.4-0.8-2.8-1.5-4.2-2l-5.2-12.7c-3.3-0.9-6.4-1.2-9.2-0.9
				l2.3,12.4c-2.3,0.6-4.3,1.8-6,3.4l-9.6-8.2c-1.7,2.3-3,5.1-3.8,8.4l8.4,10.8c-0.2,1.5-0.4,3-0.4,4.7c0,1.7,0.1,3.4,0.4,5.1
				l-8.4,1.1c0.9,4.3,2.2,8.5,3.8,12.8l9.6,2.9c1.7,3.6,3.7,7.1,6,10.3l-2.3,9.7c2.9,3.6,5.9,6.8,9.2,9.7l5.2-6.7
				c1.4,1,2.8,2,4.2,2.9c1.4,0.8,2.8,1.5,4.2,2l5.2,12.7c3.3,0.9,6.4,1.2,9.2,0.9l-2.3-12.4c2.3-0.6,4.3-1.8,6-3.4l9.6,8.2
				c1.7-2.3,3-5.1,3.8-8.4l-8.4-10.8C313.7,118.1,313.9,116.5,313.9,114.9z M286.5,122.7c-11.5-6.7-20.9-22.8-20.9-36
				s9.4-18.6,20.9-11.9c11.5,6.7,20.9,22.8,20.9,36S298,129.4,286.5,122.7z"/>
			<polygon class="st0" points="290.1,60.5 284.9,47.8 276.8,52.4 282,65.1 			"/>
			<path class="st2" d="M282,65.1c1.4,0.6,2.8,1.2,4.2,2c1.4,0.8,2.8,1.8,4.2,2.9l5.2-6.7l0,0c0,0-0.9-0.5-1.3-0.8
				c-1.4-0.8-2.8-1.5-4.2-2L282,65.1z"/>
			<path class="st2" d="M284.9,47.8c-3.3-0.9-6.4-1.2-9.2-0.9l-8.1,4.6c2.9-0.3,5.9,0,9.2,0.9L284.9,47.8z"/>
			<path class="st2" d="M312.9,68.4c-2.9-3.6-5.9-6.8-9.2-9.7l-8.1,4.6c3.3,2.9,6.4,6.2,9.2,9.7L312.9,68.4z"/>
			<polygon class="st0" points="304.8,73 302.5,82.7 310.6,78.1 312.9,68.4 			"/>
			<path class="st0" d="M302.5,82.7c2.3,3.2,4.3,6.7,6,10.3l8.1-4.6c-1.7-3.6-3.7-7.1-6-10.3L302.5,82.7z"/>
			<polygon class="st2" points="308.5,93 318.1,96 326.2,91.3 316.6,88.4 			"/>
			<path class="st0" d="M318.1,96c1.7,4.2,3,8.5,3.8,12.8l8.1-4.6c-0.9-4.3-2.2-8.5-3.8-12.8L318.1,96z"/>
			<path class="st0" d="M269.9,63.9l-0.7-3.6l-6.8-5.8l-8.1,4.6l9.6,8.2C265.6,65.6,267.6,64.5,269.9,63.9z"/>
			<path class="st0" d="M322,130.3c-0.9,3.3-2.2,6.1-3.8,8.4l8.1-4.6c1.7-2.3,3-5.1,3.8-8.4L322,130.3z"/>
			<path class="st0" d="M321.6,114.9c0.2-1.5,0.4-3,0.4-4.7c0-0.5,0-1-0.1-1.5l-8.4,1.1c0.2,1.7,0.4,3.4,0.4,5.1
				c0,1.7-0.1,3.2-0.4,4.7L321.6,114.9z"/>
			<polygon class="st2" points="313.5,119.5 322,130.3 330.1,125.7 321.6,114.9 			"/>
			<path class="st0" d="M308.5,130.5c-1.7,1.7-3.7,2.8-6,3.4l2.3,12.4l8.1-4.6l-1.6-8.8L308.5,130.5z"/>
			<path class="st2" d="M258.6,84.3l-8.1,4.8l8.4-1.1C258.7,86.7,258.7,85.5,258.6,84.3z"/>
			<path class="st0" d="M282,127.8l-5.2,6.7l8.2-4.6C284,129.2,283,128.5,282,127.8z"/>
			<g>
				<path class="st3" d="M268.9,64.4l0-0.1c-0.4,0.1-0.8,0.3-1.1,0.5C268.1,64.7,268.5,64.5,268.9,64.4z"/>
				<path class="st3" d="M257.9,88.1l-7,0.9c0,0.1,0.1,0.3,0.1,0.4l7-0.9C257.9,88.4,257.9,88.3,257.9,88.1z"/>
				<path class="st3" d="M304.4,73.5l-2.3,9.7c2.3,3.2,4.3,6.7,6,10.3l9.6,2.9c1.6,4.1,2.9,8.3,3.7,12.4l1-0.2
					c-0.9-4.3-2.2-8.5-3.8-12.8l-9.6-2.9c-1.7-3.6-3.7-7.1-6-10.3l2.3-9.7c-2.9-3.6-5.9-6.8-9.2-9.7l-0.3,1.1
					C298.8,67.1,301.7,70.2,304.4,73.5z"/>
				<path class="st3" d="M286.6,122.6c-11.5-6.7-20.9-22.8-20.9-36c0-5.8,1.8-10.1,4.9-12.5c-3.5,2.3-5.7,6.8-5.7,13.1
					c0,13.2,9.4,29.4,20.9,36c5.8,3.4,11.1,3.7,14.9,1.4c-0.3,0.1-0.6,0.1-0.9,0.2C296.2,126.1,291.6,125.5,286.6,122.6z"/>
				<path class="st3" d="M304.1,133.5c1.4-0.5,2.7-1.2,3.8-2.1l-0.4-0.3C306.5,132.1,305.4,132.9,304.1,133.5z"/>
				<path class="st3" d="M263.6,67.5c-0.4,0,0-0.3,0.4-0.6l-9.3-7.9c-0.3,0.4-0.5,0.8-0.1,0.8L263.6,67.5z"/>
				<path class="st3" d="M302.3,134.5l2.2,11.8c-0.3,0,0.2,0,0.7-0.1L303,134C302.5,134.2,302,134.3,302.3,134.5z"/>
				<path class="st3" d="M314.3,114.8c0-1.5-0.1-3.1-0.3-4.6l-0.8,0.1c0.2,1.7,0.4,3.4,0.4,5.1c0,1.7-0.1,3.2-0.4,4.7l8.4,10.8
					c-0.7,2.7-1.8,5.1-3.1,7.2l0.1,0.7c1.7-2.3,3-5.1,3.8-8.4l-8.4-10.8C314.2,118,314.3,116.5,314.3,114.8z"/>
				<path class="st3" d="M276.5,52.8l5.2,12.7c1.4,0.6,2.8,1.2,4.2,2c1.4,0.8,2.8,1.8,4.2,2.9l0.2-0.8c-1.2-0.9-2.4-1.7-3.6-2.4
					c-1.4-0.8-2.8-1.5-4.2-2l-5.2-12.7c-3.3-0.9-6.4-1.2-9.2-0.9l0.1,0.5C270.5,51.9,273.7,52,276.5,52.8z"/>
				<path class="st3" d="M281,128.3l-4.3,5.6c0.2,0.2,0.4,0.3,0.5,0.5l4.4-5.7C281.4,128.6,281.2,128.5,281,128.3z"/>
			</g>
		</g>
		<path class="st4" d="M296.7,46.8c0.1-1.3,1-1.9,2.1-1.3c1.1,0.6,1.9,2.2,1.8,3.5s-1,1.9-2.1,1.3C297.4,49.8,296.6,48.2,296.7,46.8
			z"/>
		<path class="st4" d="M290.7,206.9c0-0.9,0.7-1.3,1.4-0.9c0.7,0.4,1.3,1.5,1.2,2.4c0,0.9-0.7,1.3-1.4,0.9
			C291.2,208.8,290.6,207.8,290.7,206.9z"/>
		<g>
			<path class="st4" d="M329.8,142.2c-0.2,0-0.3-0.1-0.4-0.2c-0.1-0.2-0.1-0.4,0-0.6l2.4-4.1c0.1-0.2,0.4-0.3,0.7-0.2
				c0.2,0.1,0.3,0.4,0.2,0.7l-1.8,3l3.5-1.1c0.3-0.1,0.5,0.1,0.6,0.3c0.1,0.3-0.1,0.5-0.3,0.6l-4.8,1.5
				C329.9,142.2,329.8,142.2,329.8,142.2z"/>
		</g>
		<g>
			<path class="st5" d="M288.3,160.3c1.9,1.1,3.5,3.2,4.5,5.4c0,0,1.1-0.3,1.5-0.5c0.9-0.4,2.1-0.2,3.4,0.5c2.9,1.7,5.3,5.8,5.3,9.1
				c0,6.1-10.5,8.2-10.5,8.2s-10-13.3-10-19.5c0-1.7-0.7-2.2,0.2-2.7c0.1,0,2-1.1,2.1-1.1C285.7,159.4,286.9,159.5,288.3,160.3z"/>
			<path class="st4" d="M286.5,161.3c2,1.2,3.8,3.5,4.7,6c0.9-1.4,2.6-1.7,4.7-0.6c2.9,1.7,5.3,5.8,5.3,9.1c0,6.1-10,7.9-10,7.9
				s-10-13.3-10-19.5C281.2,160.9,283.6,159.6,286.5,161.3z"/>
			<g>
				<path class="st6" d="M286.2,161.4c2,1.2,4,3.5,4.9,6c0.2-0.3-0.1-0.2,0.2-0.4c-0.9-2.3-2.6-4.5-4.6-5.6
					c-1.6-0.9-2.8-1.1-3.8-0.6C283.9,160.5,285,160.7,286.2,161.4z"/>
				<path class="st6" d="M296,166.6c-1.6-0.9-2.8-0.9-3.6-0.4c0.9-0.3,2-0.1,3.2,0.6c2.9,1.7,5.3,5.8,5.3,9.1c0,2.8-2.2,4.8-4.5,6
					c2.6-1.2,4.9-3,4.9-6.1C301.3,172.4,298.9,168.3,296,166.6z"/>
			</g>
		</g>
		<g>
			<path class="st4" d="M331.3,141.5l-0.7-0.7c5.4-4.9,8.2-12.9,8.2-23c0-25.3-18-56.3-40.1-69.1l0.5-0.9
				c22.4,12.9,40.6,44.3,40.6,69.9C339.9,128.2,336.9,136.4,331.3,141.5z"/>
		</g>
		<g>
			<g>
				<g>
					<path class="st1" d="M347.2,124.4C347.2,124.4,347.2,124.4,347.2,124.4c-0.3,0-0.5-0.2-0.5-0.5c0-0.3,0-0.7,0-1
						c0-0.3,0.2-0.5,0.5-0.5c0.3,0,0.5,0.2,0.5,0.5c0,0.3,0,0.7,0,1C347.7,124.2,347.5,124.4,347.2,124.4z"/>
				</g>
				<g>
					<path class="st1" d="M319.7,159.1c-0.3,0-0.5-0.2-0.5-0.5c0-0.3,0.2-0.5,0.5-0.5c0.7,0,1.3,0,2-0.1c0.3,0,0.5,0.2,0.5,0.5
						c0,0.3-0.2,0.5-0.5,0.5C321,159,320.3,159.1,319.7,159.1C319.7,159.1,319.7,159.1,319.7,159.1z M316.7,159
						C316.7,159,316.7,159,316.7,159c-0.7-0.1-1.4-0.1-2-0.2c-0.3,0-0.5-0.3-0.4-0.6c0-0.3,0.3-0.5,0.6-0.4c0.7,0.1,1.3,0.2,1.9,0.2
						c0.3,0,0.5,0.3,0.5,0.5C317.2,158.8,316.9,159,316.7,159z M324.6,158.6c-0.2,0-0.4-0.2-0.5-0.4c0-0.3,0.1-0.5,0.4-0.6
						c0.6-0.1,1.3-0.3,1.9-0.4c0.3-0.1,0.5,0.1,0.6,0.4c0.1,0.3-0.1,0.5-0.4,0.6C326,158.3,325.4,158.5,324.6,158.6
						C324.7,158.6,324.6,158.6,324.6,158.6z M329.4,157.3c-0.2,0-0.4-0.1-0.5-0.3c-0.1-0.3,0-0.5,0.3-0.6c0.6-0.2,1.2-0.5,1.8-0.8
						c0.2-0.1,0.5,0,0.7,0.2c0.1,0.2,0,0.5-0.2,0.7c-0.6,0.3-1.2,0.6-1.8,0.8C329.5,157.3,329.4,157.3,329.4,157.3z M333.8,155
						c-0.2,0-0.3-0.1-0.4-0.2c-0.2-0.2-0.1-0.5,0.1-0.7c0.5-0.4,1.1-0.7,1.6-1.1c0.2-0.2,0.5-0.1,0.7,0.1c0.2,0.2,0.1,0.5-0.1,0.7
						c-0.5,0.4-1.1,0.8-1.6,1.2C333.9,155,333.8,155,333.8,155z M337.6,151.8c-0.1,0-0.3,0-0.4-0.1c-0.2-0.2-0.2-0.5,0-0.7
						c0.5-0.5,0.9-0.9,1.3-1.4c0.2-0.2,0.5-0.2,0.7-0.1c0.2,0.2,0.2,0.5,0.1,0.7c-0.4,0.5-0.9,1-1.4,1.5
						C337.8,151.8,337.7,151.8,337.6,151.8z M340.7,148c-0.1,0-0.2,0-0.3-0.1c-0.2-0.2-0.3-0.5-0.1-0.7c0.4-0.5,0.7-1.1,1-1.6
						c0.1-0.2,0.4-0.3,0.7-0.2c0.2,0.1,0.3,0.4,0.2,0.7c-0.3,0.6-0.7,1.1-1.1,1.7C341.1,148,340.9,148,340.7,148z M343.2,143.7
						c-0.1,0-0.1,0-0.2,0c-0.2-0.1-0.4-0.4-0.2-0.7c0.3-0.6,0.5-1.2,0.8-1.8c0.1-0.3,0.4-0.4,0.7-0.3c0.3,0.1,0.4,0.4,0.3,0.7
						c-0.3,0.6-0.5,1.2-0.8,1.8C343.6,143.6,343.4,143.7,343.2,143.7z M345,139.1c0,0-0.1,0-0.2,0c-0.3-0.1-0.4-0.4-0.3-0.6
						c0.2-0.6,0.4-1.2,0.5-1.9c0.1-0.3,0.3-0.4,0.6-0.4c0.3,0.1,0.4,0.3,0.4,0.6c-0.2,0.7-0.4,1.3-0.6,1.9
						C345.4,139,345.2,139.1,345,139.1z M346.2,134.3C346.2,134.3,346.1,134.3,346.2,134.3c-0.4-0.1-0.5-0.3-0.5-0.6
						c0.1-0.6,0.2-1.3,0.3-1.9c0-0.3,0.3-0.5,0.6-0.4c0.3,0,0.5,0.3,0.4,0.6c-0.1,0.7-0.2,1.3-0.3,2
						C346.7,134.1,346.4,134.3,346.2,134.3z M346.9,129.4C346.9,129.4,346.9,129.4,346.9,129.4c-0.3,0-0.5-0.3-0.5-0.5
						c0.1-0.6,0.1-1.3,0.2-2c0-0.3,0.2-0.5,0.5-0.5c0.3,0,0.5,0.3,0.5,0.5c0,0.7-0.1,1.3-0.2,2C347.4,129.2,347.2,129.4,346.9,129.4
						z"/>
				</g>
				<g>
					<path class="st1" d="M311.7,158.2c0,0-0.1,0-0.1,0c-0.3-0.1-0.7-0.1-1-0.2c-0.3-0.1-0.4-0.3-0.4-0.6c0.1-0.3,0.3-0.4,0.6-0.4
						c0.3,0.1,0.6,0.2,1,0.2c0.3,0.1,0.4,0.3,0.4,0.6C312.2,158,312,158.2,311.7,158.2z"/>
				</g>
			</g>
			<g>
				<g>
					<path class="st1" d="M247.7,79.1c-0.2,0-0.4-0.2-0.5-0.4c-0.1-0.3-0.1-0.7-0.2-1c0-0.3,0.1-0.5,0.4-0.6c0.3,0,0.5,0.1,0.6,0.4
						c0.1,0.3,0.1,0.7,0.2,1C248.2,78.7,248.1,79,247.7,79.1C247.8,79,247.7,79.1,247.7,79.1z"/>
				</g>
				<g>
					<path class="st1" d="M339.9,89.2c-0.2,0-0.4-0.1-0.5-0.3c-0.3-0.6-0.5-1.2-0.8-1.9c-0.1-0.3,0-0.5,0.3-0.7
						c0.3-0.1,0.5,0,0.7,0.3c0.3,0.6,0.5,1.3,0.8,1.9c0.1,0.3,0,0.5-0.3,0.7C340,89.2,340,89.2,339.9,89.2z M337.9,84.6
						c-0.2,0-0.4-0.1-0.5-0.3c-0.3-0.6-0.6-1.2-0.9-1.8c-0.1-0.2,0-0.5,0.2-0.7c0.2-0.1,0.5,0,0.7,0.2c0.3,0.6,0.6,1.2,0.9,1.8
						c0.1,0.3,0,0.5-0.2,0.7C338,84.5,338,84.6,337.9,84.6z M335.7,80c-0.2,0-0.4-0.1-0.4-0.3c-0.3-0.6-0.6-1.2-0.9-1.8
						c-0.1-0.2,0-0.5,0.2-0.7c0.2-0.1,0.5,0,0.7,0.2c0.3,0.6,0.6,1.2,0.9,1.8c0.1,0.2,0,0.5-0.2,0.7C335.8,80,335.8,80,335.7,80z
						 M333.3,75.5c-0.2,0-0.3-0.1-0.4-0.3c-0.3-0.6-0.7-1.2-1-1.8c-0.1-0.2-0.1-0.5,0.2-0.7c0.2-0.1,0.5-0.1,0.7,0.2
						c0.3,0.6,0.7,1.2,1,1.8c0.1,0.2,0,0.5-0.2,0.7C333.5,75.5,333.4,75.5,333.3,75.5z M247.1,75.1c-0.2,0-0.5-0.2-0.5-0.4
						c-0.1-0.7-0.2-1.4-0.2-2c0-0.3,0.2-0.5,0.4-0.6c0.3,0,0.5,0.2,0.6,0.4c0.1,0.7,0.2,1.3,0.2,2C247.6,74.8,247.4,75,247.1,75.1
						C247.1,75.1,247.1,75.1,247.1,75.1z M330.7,71.2c-0.2,0-0.3-0.1-0.4-0.2c-0.4-0.6-0.7-1.1-1.1-1.7c-0.1-0.2-0.1-0.5,0.2-0.7
						c0.2-0.1,0.5-0.1,0.7,0.2c0.4,0.6,0.7,1.1,1.1,1.7c0.1,0.2,0.1,0.5-0.2,0.7C330.9,71.1,330.8,71.2,330.7,71.2z M246.6,70
						c-0.3,0-0.5-0.2-0.5-0.5c0-0.7-0.1-1.4-0.1-2c0-0.3,0.2-0.5,0.5-0.5c0,0,0,0,0,0c0.3,0,0.5,0.2,0.5,0.5c0,0.7,0.1,1.3,0.1,2
						C247.1,69.8,246.9,70,246.6,70C246.6,70,246.6,70,246.6,70z M328,66.9c-0.2,0-0.3-0.1-0.4-0.2c-0.4-0.6-0.8-1.1-1.1-1.7
						c-0.2-0.2-0.1-0.5,0.1-0.7c0.2-0.2,0.5-0.1,0.7,0.1c0.4,0.6,0.8,1.1,1.1,1.7c0.2,0.2,0.1,0.5-0.1,0.7
						C328.2,66.9,328.1,66.9,328,66.9z M246.4,65C246.4,65,246.4,65,246.4,65c-0.3,0-0.5-0.2-0.5-0.5c0-0.7,0-1.4,0-2
						c0-0.3,0.2-0.5,0.5-0.5c0,0,0,0,0,0c0.3,0,0.5,0.2,0.5,0.5c0,0.7,0,1.3,0,2C246.9,64.7,246.7,65,246.4,65z M325.1,62.8
						c-0.2,0-0.3-0.1-0.4-0.2c-0.4-0.5-0.8-1.1-1.2-1.6c-0.2-0.2-0.1-0.5,0.1-0.7c0.2-0.2,0.5-0.1,0.7,0.1c0.4,0.5,0.8,1.1,1.2,1.6
						c0.2,0.2,0.1,0.5-0.1,0.7C325.3,62.7,325.2,62.8,325.1,62.8z M246.6,59.9C246.6,59.9,246.6,59.9,246.6,59.9
						c-0.3,0-0.5-0.3-0.5-0.5c0.1-0.7,0.1-1.4,0.2-2c0-0.3,0.3-0.5,0.6-0.4c0.3,0,0.5,0.3,0.4,0.6c-0.1,0.7-0.1,1.3-0.2,2
						C247.1,59.7,246.9,59.9,246.6,59.9z M322,58.8c-0.1,0-0.3-0.1-0.4-0.2c-0.4-0.5-0.8-1-1.3-1.6c-0.2-0.2-0.1-0.5,0.1-0.7
						c0.2-0.2,0.5-0.1,0.7,0.1c0.4,0.5,0.9,1,1.3,1.6c0.2,0.2,0.1,0.5-0.1,0.7C322.2,58.7,322.1,58.8,322,58.8z M318.7,54.9
						c-0.1,0-0.3-0.1-0.4-0.2c-0.4-0.5-0.9-1-1.3-1.5c-0.2-0.2-0.2-0.5,0-0.7c0.2-0.2,0.5-0.2,0.7,0c0.5,0.5,0.9,1,1.4,1.5
						c0.2,0.2,0.2,0.5,0,0.7C319,54.9,318.8,54.9,318.7,54.9z M247.3,54.9C247.3,54.9,247.2,54.9,247.3,54.9
						c-0.4-0.1-0.5-0.3-0.5-0.6c0.1-0.7,0.3-1.3,0.4-2c0.1-0.3,0.3-0.4,0.6-0.4c0.3,0.1,0.4,0.3,0.4,0.6c-0.1,0.6-0.3,1.3-0.4,2
						C247.7,54.7,247.5,54.9,247.3,54.9z M315.3,51.2c-0.1,0-0.3-0.1-0.4-0.2c-0.5-0.5-0.9-1-1.4-1.4c-0.2-0.2-0.2-0.5,0-0.7
						c0.2-0.2,0.5-0.2,0.7,0c0.5,0.5,1,1,1.4,1.4c0.2,0.2,0.2,0.5,0,0.7C315.5,51.1,315.4,51.2,315.3,51.2z M248.5,50
						c0,0-0.1,0-0.1,0c-0.3-0.1-0.4-0.4-0.3-0.6c0.2-0.7,0.4-1.3,0.6-1.9c0.1-0.3,0.4-0.4,0.6-0.3c0.3,0.1,0.4,0.4,0.3,0.6
						c-0.2,0.6-0.4,1.3-0.6,1.9C248.9,49.8,248.7,50,248.5,50z M311.7,47.6c-0.1,0-0.2,0-0.3-0.1c-0.5-0.5-1-0.9-1.5-1.4
						c-0.2-0.2-0.2-0.5,0-0.7c0.2-0.2,0.5-0.2,0.7,0c0.5,0.5,1,0.9,1.5,1.4c0.2,0.2,0.2,0.5,0,0.7C311.9,47.6,311.8,47.6,311.7,47.6
						z M250.3,45.2c-0.1,0-0.1,0-0.2,0c-0.3-0.1-0.4-0.4-0.2-0.7c0.3-0.6,0.6-1.2,0.9-1.8c0.1-0.2,0.4-0.3,0.7-0.2
						c0.2,0.1,0.3,0.4,0.2,0.7c-0.3,0.6-0.6,1.2-0.9,1.8C250.6,45.1,250.5,45.2,250.3,45.2z M307.9,44.3c-0.1,0-0.2,0-0.3-0.1
						c-0.5-0.4-1-0.9-1.6-1.3c-0.2-0.2-0.3-0.5-0.1-0.7c0.2-0.2,0.5-0.3,0.7-0.1c0.5,0.4,1.1,0.9,1.6,1.3c0.2,0.2,0.2,0.5,0.1,0.7
						C308.2,44.2,308,44.3,307.9,44.3z M303.9,41.2c-0.1,0-0.2,0-0.3-0.1c-0.5-0.4-1.1-0.8-1.6-1.2c-0.2-0.2-0.3-0.5-0.1-0.7
						c0.2-0.2,0.5-0.3,0.7-0.1c0.6,0.4,1.1,0.8,1.7,1.2c0.2,0.2,0.3,0.5,0.1,0.7C304.2,41.1,304,41.2,303.9,41.2z M252.7,40.8
						c-0.1,0-0.2,0-0.3-0.1c-0.2-0.2-0.3-0.5-0.1-0.7c0.4-0.6,0.8-1.1,1.2-1.7c0.2-0.2,0.5-0.3,0.7-0.1c0.2,0.2,0.3,0.5,0.1,0.7
						c-0.4,0.5-0.8,1.1-1.2,1.6C253,40.8,252.9,40.8,252.7,40.8z M299.7,38.3c-0.1,0-0.2,0-0.3-0.1c-0.6-0.4-1.1-0.7-1.7-1.1
						c-0.2-0.1-0.3-0.5-0.2-0.7c0.1-0.2,0.5-0.3,0.7-0.2c0.6,0.3,1.2,0.7,1.7,1.1c0.2,0.1,0.3,0.5,0.2,0.7
						C300.1,38.2,299.9,38.3,299.7,38.3z M255.9,36.9c-0.1,0-0.3,0-0.4-0.1c-0.2-0.2-0.2-0.5,0-0.7c0.5-0.5,1-1,1.5-1.4
						c0.2-0.2,0.5-0.2,0.7,0.1c0.2,0.2,0.2,0.5-0.1,0.7c-0.5,0.4-1,0.9-1.4,1.4C256.2,36.9,256,36.9,255.9,36.9z M295.4,35.7
						c-0.1,0-0.2,0-0.2-0.1c-0.6-0.3-1.2-0.6-1.8-0.9c-0.2-0.1-0.3-0.4-0.2-0.7c0.1-0.2,0.4-0.3,0.7-0.2c0.6,0.3,1.2,0.6,1.8,0.9
						c0.2,0.1,0.3,0.4,0.2,0.7C295.7,35.6,295.5,35.7,295.4,35.7z M259.8,33.7c-0.2,0-0.3-0.1-0.4-0.2c-0.2-0.2-0.1-0.5,0.1-0.7
						c0.6-0.4,1.2-0.7,1.8-1.1c0.2-0.1,0.5,0,0.7,0.2c0.1,0.2,0,0.5-0.2,0.7c-0.6,0.3-1.1,0.7-1.7,1C260,33.7,259.9,33.7,259.8,33.7
						z M290.8,33.5c-0.1,0-0.1,0-0.2,0c-0.6-0.3-1.2-0.5-1.8-0.8c-0.3-0.1-0.4-0.4-0.3-0.6c0.1-0.3,0.4-0.4,0.7-0.3
						c0.6,0.2,1.3,0.5,1.9,0.8c0.3,0.1,0.4,0.4,0.3,0.7C291.2,33.4,291,33.5,290.8,33.5z M286.1,31.6c-0.1,0-0.1,0-0.2,0
						c-0.6-0.2-1.3-0.4-1.9-0.6c-0.3-0.1-0.4-0.4-0.3-0.6c0.1-0.3,0.3-0.4,0.6-0.3c0.6,0.2,1.3,0.4,2,0.6c0.3,0.1,0.4,0.4,0.3,0.6
						C286.5,31.5,286.3,31.6,286.1,31.6z M264.3,31.4c-0.2,0-0.4-0.1-0.5-0.3c-0.1-0.3,0-0.5,0.3-0.6c0.6-0.2,1.3-0.5,2-0.7
						c0.3-0.1,0.5,0.1,0.6,0.3c0.1,0.3-0.1,0.5-0.3,0.6c-0.6,0.2-1.3,0.4-1.9,0.6C264.4,31.4,264.4,31.4,264.3,31.4z M281.2,30.3
						c0,0-0.1,0-0.1,0c-0.7-0.1-1.3-0.3-2-0.3c-0.3,0-0.5-0.3-0.4-0.6c0-0.3,0.3-0.5,0.6-0.4c0.7,0.1,1.3,0.2,2,0.4
						c0.3,0.1,0.4,0.3,0.4,0.6C281.7,30.2,281.5,30.3,281.2,30.3z M269.2,30c-0.2,0-0.4-0.2-0.5-0.4c0-0.3,0.1-0.5,0.4-0.6
						c0.7-0.1,1.4-0.2,2-0.3c0.3,0,0.5,0.2,0.5,0.4c0,0.3-0.2,0.5-0.4,0.5C270.6,29.8,269.9,29.9,269.2,30
						C269.2,30,269.2,30,269.2,30z M276.2,29.7C276.2,29.7,276.2,29.7,276.2,29.7c-0.7,0-1.4-0.1-2-0.1c-0.3,0-0.5-0.2-0.5-0.5
						c0-0.3,0.2-0.5,0.5-0.5c0.7,0,1.4,0,2.1,0.1c0.3,0,0.5,0.3,0.5,0.5C276.7,29.4,276.5,29.7,276.2,29.7z"/>
				</g>
				<g>
					<path class="st1" d="M341.4,93c-0.2,0-0.4-0.1-0.5-0.3l-0.3-0.9c-0.1-0.3,0-0.5,0.3-0.6c0.3-0.1,0.5,0,0.6,0.3l0.3,0.9
						c0.1,0.3,0,0.5-0.3,0.6C341.5,93,341.4,93,341.4,93z"/>
				</g>
			</g>
		</g>
		<g>
			<g>
				<path class="st4" d="M323.2,167.6c-0.2,0-0.4-0.1-0.5-0.3c-0.1-0.3-0.2-0.6-0.4-0.9c-0.1-0.3,0-0.5,0.3-0.7
					c0.3-0.1,0.5,0,0.7,0.3c0.1,0.3,0.3,0.6,0.4,0.9c0.1,0.3,0,0.5-0.3,0.7C323.4,167.6,323.3,167.6,323.2,167.6z"/>
			</g>
			<g>
				<path class="st4" d="M309.4,214.2C309.4,214.2,309.4,214.2,309.4,214.2c-0.7,0-1.3,0-2-0.1c-0.3,0-0.5-0.3-0.5-0.5
					c0-0.3,0.3-0.5,0.5-0.5c0.6,0.1,1.3,0.1,1.9,0.1c0.3,0,0.5,0.2,0.5,0.5C309.9,214,309.7,214.2,309.4,214.2z M312.4,214
					c-0.2,0-0.5-0.2-0.5-0.4c0-0.3,0.1-0.5,0.4-0.6c0.6-0.1,1.3-0.2,1.9-0.4c0.3-0.1,0.5,0.1,0.6,0.4c0.1,0.3-0.1,0.5-0.4,0.6
					C313.8,213.7,313.1,213.9,312.4,214C312.4,214,312.4,214,312.4,214z M304.5,213.6c0,0-0.1,0-0.1,0c-0.6-0.1-1.3-0.3-2-0.5
					c-0.3-0.1-0.4-0.4-0.3-0.6c0.1-0.3,0.4-0.4,0.6-0.3c0.6,0.2,1.3,0.3,1.9,0.5c0.3,0.1,0.4,0.3,0.4,0.6
					C305,213.5,304.7,213.6,304.5,213.6z M317.1,212.6c-0.2,0-0.4-0.1-0.5-0.3c-0.1-0.2,0-0.5,0.2-0.7c0.6-0.3,1.1-0.6,1.7-0.9
					c0.2-0.1,0.5-0.1,0.7,0.2c0.1,0.2,0.1,0.5-0.2,0.7c-0.6,0.4-1.2,0.7-1.8,1C317.3,212.5,317.2,212.6,317.1,212.6z M299.8,212.2
					c-0.1,0-0.1,0-0.2,0c-0.6-0.2-1.2-0.5-1.8-0.8c-0.3-0.1-0.4-0.4-0.2-0.7c0.1-0.3,0.4-0.4,0.7-0.2c0.6,0.3,1.2,0.5,1.8,0.8
					c0.3,0.1,0.4,0.4,0.3,0.6C300.2,212.1,300,212.2,299.8,212.2z M321.2,209.8c-0.1,0-0.3-0.1-0.4-0.2c-0.2-0.2-0.2-0.5,0-0.7
					c0.5-0.4,0.9-0.9,1.3-1.4c0.2-0.2,0.5-0.2,0.7-0.1c0.2,0.2,0.2,0.5,0.1,0.7c-0.4,0.5-0.9,1-1.4,1.5
					C321.4,209.8,321.3,209.8,321.2,209.8z M324.3,206c-0.1,0-0.2,0-0.3-0.1c-0.2-0.1-0.3-0.5-0.2-0.7c0.3-0.5,0.6-1.1,0.9-1.7
					c0.1-0.2,0.4-0.3,0.7-0.2c0.2,0.1,0.4,0.4,0.2,0.7c-0.3,0.6-0.6,1.2-1,1.8C324.6,205.9,324.5,206,324.3,206z M326.4,201.5
					c-0.1,0-0.1,0-0.2,0c-0.3-0.1-0.4-0.4-0.3-0.6c0.2-0.6,0.4-1.2,0.6-1.9c0.1-0.3,0.3-0.4,0.6-0.4c0.3,0.1,0.4,0.3,0.4,0.6
					c-0.2,0.7-0.4,1.3-0.6,1.9C326.8,201.4,326.6,201.5,326.4,201.5z M327.6,196.7C327.5,196.7,327.5,196.7,327.6,196.7
					c-0.4-0.1-0.5-0.3-0.5-0.6c0.1-0.6,0.2-1.3,0.3-1.9c0-0.3,0.3-0.5,0.5-0.4c0.3,0,0.5,0.3,0.4,0.5c-0.1,0.7-0.2,1.3-0.3,2
					C328,196.5,327.8,196.7,327.6,196.7z M328,191.8C328,191.8,328,191.8,328,191.8c-0.3,0-0.5-0.2-0.5-0.5c0-0.4,0-0.9,0-1.4l0-0.6
					c0-0.3,0.2-0.5,0.5-0.5c0.3,0,0.5,0.2,0.5,0.5l0,0.6c0,0.5,0,0.9,0,1.4C328.5,191.5,328.3,191.8,328,191.8z M327.9,186.8
					c-0.3,0-0.5-0.2-0.5-0.5c0-0.6-0.1-1.3-0.2-2c0-0.3,0.2-0.5,0.4-0.6c0.3,0,0.5,0.2,0.6,0.4c0.1,0.7,0.1,1.3,0.2,2
					C328.4,186.5,328.2,186.8,327.9,186.8C327.9,186.8,327.9,186.8,327.9,186.8z M327.3,181.9c-0.2,0-0.5-0.2-0.5-0.4
					c-0.1-0.6-0.2-1.3-0.4-1.9c-0.1-0.3,0.1-0.5,0.4-0.6c0.3-0.1,0.5,0.1,0.6,0.4c0.1,0.7,0.3,1.3,0.4,2
					C327.9,181.6,327.7,181.8,327.3,181.9C327.4,181.9,327.4,181.9,327.3,181.9z M326.3,177c-0.2,0-0.4-0.2-0.5-0.4
					c-0.2-0.6-0.3-1.3-0.5-1.9c-0.1-0.3,0.1-0.5,0.3-0.6c0.3-0.1,0.5,0.1,0.6,0.3c0.2,0.6,0.4,1.3,0.5,1.9c0.1,0.3-0.1,0.5-0.4,0.6
					C326.4,177,326.4,177,326.3,177z M324.9,172.3c-0.2,0-0.4-0.1-0.5-0.3c-0.2-0.6-0.4-1.2-0.6-1.9c-0.1-0.3,0-0.5,0.3-0.6
					c0.3-0.1,0.5,0,0.6,0.3c0.2,0.6,0.4,1.3,0.6,1.9c0.1,0.3-0.1,0.5-0.3,0.6C325,172.3,325,172.3,324.9,172.3z"/>
			</g>
			<g>
				<path class="st4" d="M295.3,210.1c-0.1,0-0.2,0-0.2-0.1c-0.3-0.2-0.6-0.3-0.9-0.5c-0.2-0.1-0.3-0.4-0.2-0.7
					c0.1-0.2,0.4-0.3,0.7-0.2c0.3,0.2,0.6,0.3,0.9,0.5c0.2,0.1,0.3,0.4,0.2,0.7C295.6,210,295.5,210.1,295.3,210.1z"/>
			</g>
		</g>
		<g>
			<path class="st4" d="M322,168.1C322,168.1,322,168.1,322,168.1c-0.3,0-0.5-0.3-0.5-0.5l0.2-2.7c0-0.2,0.1-0.3,0.3-0.4
				c0.2-0.1,0.4-0.1,0.5,0.1l2.2,1.7c0.2,0.2,0.3,0.5,0.1,0.7c-0.2,0.2-0.5,0.3-0.7,0.1l-1.5-1.1l-0.1,1.7
				C322.5,167.9,322.3,168.1,322,168.1z"/>
		</g>
		<g>
			<g>
				<path class="st7" d="M302.7,104.8c0,3.8-1.3,6.5-3.5,7.8c-0.1,0-3.7,2.3-3.7,2.3c-2.2,1.2-0.8-1.6-4.2-3.5
					c-6.8-3.9-12.4-13.5-12.4-21.3c0-3.9-3.6-3.9-1.4-5.2c0.1,0,4.1-2.3,4.2-2.4c2.2-1.2,5.3-1,8.6,1
					C297.2,87.4,302.7,97,302.7,104.8z"/>
				<path class="st3" d="M286.9,85.6c-3.3-1.9-6.2-2.1-8.5-1c2.1-0.6,4.6-0.1,7.4,1.5c6.8,3.9,12.4,13.5,12.4,21.3
					c0,4.1-1.5,6.9-3.9,8.1c3-0.8,5-3.8,5-8.5C299.3,99.1,293.7,89.5,286.9,85.6z"/>
				
					<ellipse transform="matrix(0.8633 -0.5047 0.5047 0.8633 -11.362 158.1771)" class="st8" cx="286.3" cy="100.1" rx="10.1" ry="17.4"/>
			</g>
			<path class="st9" d="M284.1,95c0,1.1-0.8,1.5-1.7,1c-1-0.6-1.7-1.9-1.7-3c0-1.1,0.8-1.5,1.7-1C283.3,92.5,284.1,93.9,284.1,95z"
				/>
			<path class="st9" d="M291.1,99c0,1.1-0.8,1.5-1.7,1c-1-0.6-1.7-1.9-1.7-3c0-1.1,0.8-1.5,1.7-1C290.3,96.6,291.1,97.9,291.1,99z"
				/>
			<path class="st9" d="M279.3,99.5l1.6,0.3c0.7,2.8,2.7,5.6,5,6.9c2.2,1.2,4.1,0.8,4.9-1l1.6,1.6c-1,2.5-3.7,3-6.5,1.4
				C283,107,280.3,103.3,279.3,99.5z"/>
			<path class="st10" d="M282.9,95.6c-1-0.6-1.7-1.9-1.7-3c0-0.4,0.1-0.6,0.2-0.8c-0.4,0.1-0.7,0.5-0.7,1.2c0,1.1,0.8,2.4,1.7,3
				c0.6,0.4,1.2,0.3,1.5-0.1C283.6,95.9,283.2,95.8,282.9,95.6z"/>
			<path class="st10" d="M289.9,99.7c-1-0.6-1.7-1.9-1.7-3c0-0.4,0.1-0.6,0.2-0.8c-0.4,0.1-0.7,0.5-0.7,1.2c0,1.1,0.8,2.4,1.7,3
				c0.6,0.4,1.2,0.3,1.5-0.1C290.6,99.9,290.3,99.9,289.9,99.7z"/>
			<g>
				<path class="st10" d="M291,105.9l-0.2-0.2c-0.2,0.4-0.4,0.8-0.7,1.1C290.5,106.5,290.8,106.2,291,105.9z"/>
				<path class="st10" d="M286.4,108.3c-2.8-1.6-5.4-5.1-6.5-8.7l-0.6-0.1c1,3.8,3.6,7.4,6.6,9.1c2.2,1.2,4.2,1.2,5.5,0.1
					C290.1,109.5,288.3,109.4,286.4,108.3z"/>
			</g>
		</g>
	</g>
	<path class="st3" d="M140.6,79.5c0-3.3-4.6-6-10.3-6c-5.7,0-10.3,2.6-10.3,5.9c0,3,3.9,5.5,8.9,5.9l0,1.7c-1,0.1-1.7,0.6-1.6,1.2
		l0,5.7c0,0.7,1,1.3,2.2,1.3l1.7,0c1.2,0,2.2-0.6,2.2-1.3l0-5.7c0-0.6-0.7-1.1-1.7-1.2l0-1.7C136.7,85,140.6,82.5,140.6,79.5z"/>
	<g>
		<g>
			<path class="st2" d="M265.2,311.9L86.4,208.6c-6.9-4-12.5-14.7-12.5-23.9V22.1c0-9.2,5.6-13.5,12.5-9.5l178.8,103.3
				c6.9,4,12.5,14.7,12.5,23.9v162.6C277.7,311.7,272.1,315.9,265.2,311.9z"/>
			<path class="st11" d="M270.2,113.3L91.4,10c-2.7-1.6-5.3-1.9-7.3-1.1c-0.3,0.1-5.2,2.6-5.4,2.8c0,0,0,0,0,0
				c2.1-1,4.8-0.8,7.8,0.9l178.8,103.3c6.9,4,12.5,14.7,12.5,23.9v162.6c0,5.8-2.2,9.6-5.5,10.7c0.3,0,0.6-0.1,1.1-0.4
				c0.2-0.1,5.4-2.9,5.5-3c2.4-1.7,3.9-5.1,3.9-9.8V137.3C282.7,128,277.1,117.3,270.2,113.3z"/>
			<path class="st12" d="M268.8,114L90,10.7c-2.7-1.6-5.3-1.9-7.3-1.1c-0.3,0.1-3.8,2-4,2.1c0,0,0,0,0,0c2.1-1,4.8-0.8,7.8,0.9
				l178.8,103.3L268.8,114z"/>
			<path class="st3" d="M265.8,115.6L87,12.3c-2.8-1.6-5.4-1.9-7.5-1c1.8-0.3,3.9,0.1,6,1.4L264.3,116c6.9,4,12.5,14.7,12.5,23.9
				v162.6c0,5.4-2,9.1-5,10.4c3.9-0.6,6.5-4.6,6.5-10.9V139.5C278.3,130.3,272.7,119.6,265.8,115.6z"/>
			<path class="st13" d="M80.9,36.5v148.2c0,7.2,3.4,14.3,9,17.9l176.9,102.2c0.1,0,0.2,0.1,0.3,0.2c1.6,0.9,3.6-0.2,3.6-2.1V146.2
				L80.9,36.5z"/>
			<path class="st14" d="M270.4,303.5c-0.1-0.1-0.2-0.1-0.3-0.2L93.3,201.2c-5.6-3.5-9-10.6-9-17.9V38.5l-3.3-1.9v148.2
				c0,7.2,3.4,14.3,9,17.9l176.9,102.2c0.1,0,0.2,0.1,0.3,0.2c1.4,0.8,3,0.1,3.4-1.3C270.5,303.6,270.5,303.6,270.4,303.5z"/>
			<g>
				<path class="st7" d="M260.7,128.4c0,2.2,1.5,4.8,3.4,5.9c1.9,1.1,3.4,0.2,3.4-2c0-2.2-1.5-4.8-3.4-5.9
					C262.3,125.3,260.7,126.2,260.7,128.4z"/>
				<path class="st4" d="M251.8,123.2c0,2.2,1.5,4.8,3.4,5.9c1.9,1.1,3.4,0.2,3.4-2c0-2.2-1.5-4.8-3.4-5.9
					C253.4,120.1,251.8,121,251.8,123.2z"/>
				<path class="st15" d="M243,118c0,2.2,1.5,4.8,3.4,5.9c1.9,1.1,3.4,0.2,3.4-2s-1.5-4.8-3.4-5.9C244.5,115,243,115.8,243,118z"/>
			</g>
		</g>
		<path class="st0" d="M197.6,113.1l-13-7.5c-1.3-0.8-2.4-0.2-2.4,1.4c0,1.5,1.1,3.3,2.4,4.1l13,7.5c1.3,0.8,2.4,0.2,2.4-1.4
			C200,115.7,198.9,113.8,197.6,113.1z M218.9,125.4l-13-7.5c-1.3-0.8-2.4-0.2-2.4,1.4c0,1.5,1.1,3.3,2.4,4.1l13,7.5
			c1.3,0.8,2.4,0.2,2.4-1.4C221.3,128,220.3,126.2,218.9,125.4z M240.3,137.7l-13-7.5c-1.3-0.8-2.4-0.2-2.4,1.4
			c0,1.5,1.1,3.3,2.4,4.1l13,7.5c1.3,0.8,2.4,0.2,2.4-1.4C242.7,140.3,241.6,138.5,240.3,137.7z M261.7,150.1l-13-7.5
			c-1.3-0.8-2.4-0.2-2.4,1.4c0,1.5,1.1,3.3,2.4,4.1l13,7.5c1.3,0.8,2.4,0.2,2.4-1.4C264,152.7,263,150.8,261.7,150.1z"/>
	</g>
	<g class="vertical-animation1">
		<g>
			<polygon class="st16" points="146.1,123.8 146.1,179.6 152.2,176 152.2,120.1 			"/>
			<polygon class="st11" points="146.1,123.8 146.1,179.6 24.3,109.8 24.3,53.8 			"/>
			<polygon class="st0" points="24.3,53.8 146.1,123.8 152.2,120.1 30.4,50.1 			"/>
			<polygon class="st6" points="24.3,53.8 146.1,123.8 152.2,120.1 146.1,122.9 			"/>
		</g>
		<g>
			<polygon class="st3" points="128.3,159.4 128.3,157 89.9,135.1 89.9,137.5 			"/>
			<polygon class="st3" points="73.2,91.1 73.2,93.4 137.8,130.4 137.8,128 			"/>
			<polygon class="st3" points="96,123.9 73.2,110.8 73.2,113.1 96,126.3 			"/>
			<polygon class="st3" points="111.4,142.6 111.4,145 120.8,150.1 120.8,147.7 			"/>
			<polygon class="st3" points="109.9,122.1 73.2,100.9 73.2,103.3 109.9,124.5 			"/>
			<polygon class="st3" points="86.7,113.6 73.2,105.8 73.2,108.2 86.7,116 			"/>
			<polygon class="st3" points="83.2,128.8 109,143.7 109,141.3 83.2,126.4 			"/>
			<polygon class="st3" points="89,114.9 89,117.3 125.2,137.9 125.2,135.5 			"/>
			<polygon class="st3" points="98.3,125.2 98.3,127.6 116.4,138.1 116.4,135.7 			"/>
			<polygon class="st3" points="80.9,125.1 73.2,120.6 73.2,123 80.9,127.4 			"/>
			<polygon class="st3" points="112.2,125.8 137.8,140.2 137.8,137.9 112.2,123.4 			"/>
			<polygon class="st3" points="127.5,139.2 137.8,145.2 137.8,142.8 127.5,136.9 			"/>
			<polygon class="st3" points="73.2,98.4 137.8,135.3 137.8,133 73.2,96 			"/>
			<polygon class="st3" points="118.7,139.4 137.8,150.1 137.8,147.7 118.7,137 			"/>
			<polygon class="st3" points="87.5,133.8 73.2,125.5 73.2,127.9 87.5,136.2 			"/>
			<polygon class="st3" points="130.6,160.7 137.8,164.9 137.8,162.5 130.6,158.3 			"/>
			<polygon class="st3" points="123.1,151.4 137.8,159.9 137.8,157.6 123.1,149.1 			"/>
			<polygon class="st3" points="73.2,118.1 137.8,155 137.8,152.7 73.2,115.7 			"/>
		</g>
		<path class="st16" d="M59.7,81.7L38.5,69.4c-3.7-2.1-6.7,0.1-6.7,5.1v24.6c0,5,3,10.7,6.7,12.8l21.2,12.3c3.7,2.1,6.7-0.1,6.7-5.1
			V94.5C66.4,89.6,63.4,83.8,59.7,81.7z"/>
		<path class="st17" d="M62.3,122.2l-21.2-12.3c-3.7-2.1-6.7-7.9-6.7-12.8V72.5c0-1.6,0.3-2.9,0.8-3.8c-2.1,0.3-3.5,2.5-3.5,5.8
			v24.6c0,5,3,10.7,6.7,12.8l21.2,12.3c2.5,1.5,4.7,0.9,5.9-1.2C64.6,123.1,63.5,122.9,62.3,122.2z"/>
	</g>
	<g class="vertical-animation">
		<path class="st15" d="M43.2,88.6L22,76.3c-3.7-2.1-6.7,0.1-6.7,5.1v24.6c0,5,3,10.7,6.7,12.8l21.2,12.3c3.7,2.1,6.7-0.1,6.7-5.1
			v-24.6C49.9,96.5,46.9,90.7,43.2,88.6z"/>
		<path class="st18" d="M46.7,86.5L25.4,74.2c-1.6-0.9-3-1-4.2-0.5l0,0l-3.7,2.2l0,0c1.2-0.7,2.7-0.7,4.4,0.3l21.2,12.3
			c3.7,2.1,6.7,7.9,6.7,12.8V126c0,2.4-0.7,4.2-1.9,5.1l2-1.3c1.7-1,3.3-2.5,3.3-5.8V99.4C53.4,94.4,50.4,88.7,46.7,86.5z"/>
		<path class="st6" d="M43.6,88.2L22.4,76c-1.8-1.1-3.5-1-4.7-0.1c1.1-0.4,2.5-0.3,3.9,0.6l21.2,12.3c3.7,2.1,6.7,7.9,6.7,12.8v24.6
			c0,2.5-0.8,4.3-2,5.2c1.7-0.6,2.8-2.7,2.8-5.7v-24.6C50.3,96.1,47.3,90.4,43.6,88.2z"/>
		<path class="st3" d="M20.9,83.1v28.1l23,13.3V96.4L20.9,83.1z M42.4,122l-20.1-11.6V85.6l20.1,11.6V122z"/>
		<path class="st3" d="M38.9,101.4c0,1.8-1.3,2.6-2.9,1.7c-1.6-0.9-2.9-3.2-2.9-5c0-1.8,1.3-2.6,2.9-1.7
			C37.6,97.3,38.9,99.5,38.9,101.4z"/>
		<polygon class="st3" points="21.7,103.7 27.7,96 33.7,111.4 38.2,107.8 43.1,121.1 43,122.4 21.8,111.1 		"/>
	</g>
	<g class="vertical-animation1">
		<g>
			<polygon class="st16" points="296.6,227.6 296.6,295.8 302.7,292.2 302.7,223.9 			"/>
			<polygon class="st11" points="296.7,227.6 296.7,295.8 163.4,219.3 163.4,151 			"/>
			<polygon class="st0" points="163.4,151 296.7,227.6 302.7,223.9 169.4,147.3 			"/>
			<polygon class="st6" points="163.4,151 296.7,227.6 302.7,223.9 296.6,226.7 			"/>
		</g>
		
			<ellipse transform="matrix(0.8633 -0.5047 0.5047 0.8633 -87.2455 168.6211)" class="st16" cx="267.7" cy="245.4" rx="17" ry="29.5"/>
		<path class="st17" d="M269.7,267.6c-11.6-6.7-20.9-22.8-20.9-36.1c0-4.9,1.3-8.8,3.5-11.3c-3.4,2.3-5.5,6.8-5.5,13.1
			c0,13.3,9.4,29.4,20.9,36.1c7.2,4.2,13.6,3.6,17.4-0.6C281.2,271.3,275.7,271.1,269.7,267.6z"/>
		<g>
			<path class="st16" d="M208.9,188.4l-4.5-2.6v50.7l4.5,2.6V188.4z M215.4,185.9l-4.5-2.6v56.9l4.5,2.6V185.9z M222.1,197.3
				l-4.5-2.6V244l4.5,2.6V197.3z M191.1,200.9v27.8l4.5,2.6v-27.8L191.1,200.9z M202.3,193.2l-4.5-2.6v41.9l4.5,2.6V193.2z
				 M228.6,211.4l-4.5-2.6v39l4.5,2.6V211.4z M235,227.5l-4.5-2.6v26.7l4.5,2.6V227.5z M188.9,196.1l-4.5-2.6v31.2l4.5,2.6V196.1z
				 M171.1,197.9v18.9l4.5,2.6v-18.9L171.1,197.9z M182.3,190.5l-4.5-2.6v32.7l4.5,2.6V190.5z"/>
			<path class="st1" d="M208.9,208.3l-4.5-2.6v30.8l4.5,2.6V208.3z M215.4,194.3l-4.5-2.6v48.5l4.5,2.6V194.3z M222.1,206.3
				l-4.5-2.6V244l4.5,2.6V206.3z M191.1,207.7v21l4.5,2.6v-21L191.1,207.7z M202.3,206.8l-4.5-2.6v28.3l4.5,2.6V206.8z M188.9,198.6
				l-4.5-2.6v28.6l4.5,2.6V198.6z M171.1,211.3v5.5l4.5,2.6v-5.5L171.1,211.3z M182.3,211.4l-4.5-2.6v11.9l4.5,2.6V211.4z
				 M228.6,218.7l-4.5-2.6v31.7l4.5,2.6V218.7z M235,231.5l-4.5-2.6v22.7l4.5,2.6V231.5z"/>
			<g>
				<polygon class="st3" points="222.1,206.9 217.6,204.3 217.6,203.7 222.1,206.3 				"/>
				<polygon class="st3" points="215.4,194.9 210.9,192.3 210.9,191.7 215.4,194.3 				"/>
				<polygon class="st3" points="235,232 230.5,229.4 230.5,228.9 235,231.5 				"/>
				<polygon class="st3" points="208.9,208.9 204.4,206.3 204.4,205.7 208.9,208.3 				"/>
				<polygon class="st3" points="228.6,219.2 224.1,216.6 224.1,216.1 228.6,218.7 				"/>
				<polygon class="st3" points="182.3,211.9 177.8,209.3 177.8,208.8 182.3,211.4 				"/>
				<polygon class="st3" points="188.9,199.2 184.4,196.6 184.4,196 188.9,198.6 				"/>
				<polygon class="st3" points="175.6,213.9 175.6,214.5 171.1,211.9 171.1,211.3 				"/>
				<polygon class="st3" points="202.3,207.4 197.8,204.8 197.8,204.2 202.3,206.8 				"/>
				<polygon class="st3" points="195.6,210.8 191.1,208.2 191.1,207.7 195.6,210.3 				"/>
			</g>
		</g>
		<g>
			<g>
				<path class="st7" d="M247.1,236.5c0.3-10,7.6-14,16.5-8.8c4.6,2.7,8.8,7.2,11.8,12.5l3.3-0.8c-3.8-6.8-9.1-12.8-15.1-16.2
					c-11.2-6.5-20.4-1.4-20.5,11.4l2.6,2.4L247.1,236.5z"/>
				<path class="st7" d="M271.8,267.8c-2.4,0.2-5.3-0.5-8.3-2.2c-8.5-4.9-15.5-16.3-16.4-26.2l-4-2c0,0.1-1.3,0.3-1.3,0.4
					c1.2,12.4,11.2,26.4,21.8,32.5c3.8,2.2,6.4,3.4,9.5,3c0.1,0,1.3-0.3,1.4-0.4L271.8,267.8z"/>
				<path class="st7" d="M276.9,243.1c2,4.3,3.2,8.8,3.2,13c0,6-2.4,9.9-6.2,11.2l2.6,5.1c4.7-1.6,7.7-6.5,7.7-13.9
					c0-5.2-1.5-10.8-4-16.2L276.9,243.1z"/>
			</g>
			<path class="st7" d="M269.2,251.4c-1.1-0.9-2.1-2.1-2.9-3.5c-0.5-0.8-0.5-1.7,0-1.9c0.6-0.4,1.1-0.9,1.5-1.6
				c0.5,0.1,1.1,0,1.1-0.7c0-0.7-0.3-1.5-0.7-1.9c-0.1-3-1.2-6.2-4.7-8.2c-1.2-0.7-2.1-0.9-2.8-0.8c-0.2,0-1.5,0.4-1.7,0.5
				c-0.9,0.5-0.1,1.5-0.1,3.1c-0.4-0.1-0.7,0.3-0.7,1c0,0.7,0.6,1.6,1.1,2.1c0.3,1.1,0.9,2.3,1.5,3.4c0.5,0.8,0.5,1.7,0,1.9
				c-0.8,0.4-1.8,0.5-2.9,0.1c-0.4-0.1-0.9-0.1-1.2,0c-0.1,0-1.3,0.4-1.4,0.4c-0.7,0.3,0.1,0.8,0.1,1.9v3.1c0,0.6,0.4,1.3,1,1.7
				l13.4,8.9c0.2,0.1,1.6-0.3,1.7-0.4c0.2-0.1,0.3-0.3,0.3-0.6v-3.1C271.8,254.8,270.7,252.7,269.2,251.4z"/>
			<g>
				<path class="st3" d="M246.2,236.8c0.3-10,7.6-14,16.5-8.8c4.6,2.7,8.8,7.2,11.8,12.5l3.3-0.8c-3.8-6.8-9.1-12.8-15.1-16.2
					c-11.2-6.5-20.4-1.4-20.5,11.4L246.2,236.8z"/>
				<path class="st3" d="M270.9,268c-2.4,0.2-5.3-0.5-8.3-2.2c-8.5-4.9-15.5-16.3-16.4-26.2l-4-2c1.1,12.5,9.8,26.8,20.4,32.9
					c4,2.3,7.7,3.1,10.9,2.7L270.9,268z"/>
				<path class="st3" d="M276,243.4c2,4.3,3.2,8.8,3.2,13c0,6-2.4,9.9-6.2,11.2l2.6,5.1c4.7-1.6,7.7-6.5,7.7-13.9
					c0-5.2-1.5-10.8-4-16.2L276,243.4z"/>
			</g>
			<path class="st3" d="M268.3,251.7c-1.1-0.9-2.1-2.1-2.9-3.5c-0.5-0.8-0.5-1.7,0-1.9c0.6-0.4,1.1-0.9,1.5-1.6
				c0.5,0.1,1.1,0,1.1-0.7c0-0.7-0.3-1.5-0.7-1.9c-0.1-3-1.2-6.2-4.7-8.2c-3.5-2-4.5-0.1-4.7,2.8c-0.4-0.1-0.7,0.3-0.7,1
				c0,0.7,0.6,1.6,1.1,2.1c0.3,1.1,0.9,2.3,1.5,3.4c0.5,0.8,0.5,1.7,0,1.9c-0.8,0.4-1.8,0.5-2.9,0.1c-1.5-0.4-2.6,0.4-2.6,2.2v3.1
				c0,0.6,0.4,1.3,1,1.7l14.5,8.4c0.5,0.3,1,0.1,1-0.5v-3.1C270.9,255.1,269.8,253,268.3,251.7z"/>
			<g>
				<path class="st19" d="M245.7,236.9c0.3-10,7.6-14,16.5-8.8c4.6,2.7,8.8,7.2,11.8,12.5l3.3-0.8c-3.8-6.8-9.1-12.8-15.1-16.2
					c-11.2-6.5-20.4-1.4-20.5,11.4L245.7,236.9z"/>
				<path class="st19" d="M270.4,268.2c-2.4,0.2-5.3-0.5-8.3-2.2c-8.5-4.9-15.5-16.3-16.4-26.2l-4-2c1.1,12.5,9.8,26.8,20.4,32.9
					c4,2.3,7.7,3.1,10.9,2.7L270.4,268.2z"/>
				<path class="st19" d="M275.5,243.5c2,4.3,3.2,8.8,3.2,13c0,6-2.4,9.9-6.2,11.2l2.6,5.1c4.7-1.6,7.7-6.5,7.7-13.9
					c0-5.2-1.5-10.8-4-16.2L275.5,243.5z"/>
			</g>
			<path class="st19" d="M267.8,251.8c-1.1-0.9-2.1-2.1-2.9-3.5c-0.5-0.8-0.5-1.7,0-1.9c0.6-0.4,1.1-0.9,1.5-1.6
				c0.5,0.1,1.1,0,1.1-0.7c0-0.7-0.3-1.5-0.7-1.9c-0.1-3-1.2-6.2-4.7-8.2c-3.5-2-4.5-0.1-4.7,2.8c-0.4-0.1-0.7,0.3-0.7,1
				c0,0.7,0.6,1.6,1.1,2.1c0.3,1.1,0.9,2.3,1.5,3.4c0.5,0.8,0.5,1.7,0,1.9c-0.8,0.4-1.8,0.5-2.9,0.1c-1.5-0.4-2.6,0.4-2.6,2.2v3.1
				c0,0.6,0.4,1.3,1,1.7l14.5,8.4c0.5,0.3,1,0.1,1-0.5V257C270.4,255.2,269.3,253.1,267.8,251.8z"/>
		</g>
	</g>
	<g class="vertical-animation2">
		<g>
			<polygon class="st18" points="164.1,210.5 164.1,239 168.9,236.4 168.9,207.7 			"/>
			<polygon class="st15" points="164.1,210.5 164.1,239 58.5,178 58.5,149.3 			"/>
			<polygon class="st20" points="58.5,149.3 164.1,210.5 168.9,207.7 63.2,146.6 			"/>
			<polygon class="st6" points="58.5,149.3 164.1,210.5 168.9,207.7 164.2,209.7 			"/>
		</g>
		<polygon class="st3" points="158.8,230.4 63.7,174.9 63.7,158.1 158.8,213.5 		"/>
		<g>
			<path class="st17" d="M67.7,162.8l1.9,1.1l0.9,9.2l0,0l0.9-8.1l2.2,1.3l0.9,9.2l0,0l0.9-8.2l1.7,1L76,179.6l-2.5-1.4l-0.9-7.8
				l0,0l-0.9,6.8l-2.6-1.5L67.7,162.8z"/>
			<path class="st17" d="M79.1,169.4l1.9,1.1l0.9,9.2l0,0l0.9-8.1l2.2,1.3l0.9,9.2l0,0l0.9-8.2l1.7,1l-1.3,11.3l-2.5-1.4l-0.9-7.8
				l0,0l-0.9,6.8l-2.6-1.5L79.1,169.4z"/>
			<path class="st17" d="M90.5,176l1.9,1.1l0.9,9.2l0,0l0.9-8.1l2.2,1.3l0.9,9.2l0,0l0.9-8.2l1.7,1l-1.3,11.3l-2.5-1.4l-0.9-7.8l0,0
				l-0.9,6.8l-2.6-1.5L90.5,176z"/>
		</g>
	</g>
	<g class="vertical-animation2">
		<g>
			<polygon class="st7" points="106.4,63.5 106.4,83.4 109.5,81.8 109.5,61.7 			"/>
			<polygon class="st8" points="106.5,63.5 106.5,83.4 88.7,73.2 88.7,53.1 			"/>
			<polygon class="st19" points="88.7,53.1 106.5,63.5 109.5,61.7 91.7,51.4 			"/>
			<polygon class="st3" points="88.7,53.1 106.5,63.5 109.5,61.7 106.3,62.6 			"/>
		</g>
		<g>
			<polygon class="st5" points="122,56.9 122,89.1 126.9,86.5 126.9,54 			"/>
			<polygon class="st21" points="93.4,40.1 122.1,56.9 126.9,54 98.1,37.2 			"/>
			<polygon class="st6" points="93.4,40.1 122.1,56.9 126.9,54 122.2,56.2 			"/>
		</g>
		<polygon class="st4" points="93.4,40.1 93.4,53.4 108.6,62.3 108.6,81.3 122.1,89.1 122.1,56.9 		"/>
	</g>
	<g class="vertical-animation">
		<g>
			<polygon class="st18" points="183.4,134.7 183.4,157 186.7,155.1 186.7,132.7 			"/>
			<polygon class="st15" points="183.4,134.7 183.4,157 163.6,145.6 163.6,123.1 			"/>
			<polygon class="st20" points="163.6,123.1 183.4,134.7 186.7,132.7 166.9,121.2 			"/>
			<polygon class="st6" points="163.6,123.1 183.4,134.7 186.7,132.7 183.2,133.7 			"/>
		</g>
		<g>
			<polygon class="st18" points="209.4,149.7 209.4,172 212.7,170.1 212.7,147.7 			"/>
			<polygon class="st15" points="209.4,149.7 209.4,172 189.6,160.6 189.6,138.1 			"/>
			<polygon class="st20" points="189.6,138.1 209.4,149.7 212.7,147.7 192.9,136.2 			"/>
			<polygon class="st6" points="189.6,138.1 209.4,149.7 212.7,147.7 209.2,148.7 			"/>
		</g>
		<g>
			<polygon class="st18" points="235.2,164.6 235.2,186.8 238.6,185 238.6,162.6 			"/>
			<polygon class="st15" points="235.2,164.6 235.2,186.8 215.4,175.4 215.4,153 			"/>
			<polygon class="st20" points="215.4,153 235.2,164.6 238.6,162.6 218.7,151 			"/>
			<polygon class="st6" points="215.4,153 235.2,164.6 238.6,162.6 235.1,163.5 			"/>
		</g>
		<g>
			<polygon class="st18" points="260.7,179.1 260.7,201.3 264.1,199.5 264.1,177.1 			"/>
			<polygon class="st15" points="260.7,179.1 260.7,201.3 240.9,189.9 240.9,167.5 			"/>
			<polygon class="st20" points="240.9,167.5 260.7,179.1 264.1,177.1 244.2,165.5 			"/>
			<polygon class="st6" points="240.9,167.5 260.7,179.1 264.1,177.1 260.6,178 			"/>
		</g>
		<path class="st3" d="M229.3,174c-0.7-0.6-1.3-1.4-1.8-2.2c-0.3-0.5-0.3-1.1,0-1.2c0.4-0.2,0.7-0.6,0.9-1c0.3,0.1,0.7,0,0.7-0.5
			c0-0.4-0.2-0.9-0.5-1.2c-0.1-1.9-0.7-3.9-2.9-5.2c-2.2-1.3-2.9-0.1-2.9,1.8c-0.3-0.1-0.5,0.2-0.5,0.7c0,0.4,0.4,1,0.7,1.3
			c0.2,0.7,0.6,1.5,0.9,2.1c0.3,0.5,0.3,1.1,0,1.2c-0.5,0.3-1.1,0.3-1.8,0.1c-0.9-0.3-1.6,0.3-1.6,1.4v2c0,0.4,0.3,0.9,0.6,1
			l9.2,5.3c0.3,0.2,0.6,0,0.6-0.3v-2C230.9,176.1,230.2,174.8,229.3,174z"/>
		<path class="st3" d="M244.5,188.3l3.2,1.9v-5.8l-3.2-1.9V188.3z M249.6,191.3l3.2,1.9v-10.6l-3.2-1.9V191.3z M254.7,178.8v15.4
			l3.2,1.9v-15.4L254.7,178.8z"/>
		<path class="st3" d="M204.7,158.3c0-0.3,0-0.6-0.1-0.9l1.5-0.2c-0.2-0.8-0.4-1.5-0.7-2.3l-1.7-0.5c-0.3-0.6-0.7-1.3-1.1-1.9
			l0.4-1.7c-0.5-0.6-1.1-1.2-1.7-1.7l-0.9,1.2c-0.2-0.2-0.5-0.4-0.8-0.5c-0.3-0.1-0.5-0.3-0.8-0.4l-0.9-2.3
			c-0.6-0.2-1.1-0.2-1.7-0.2l0.4,2.2c-0.4,0.1-0.8,0.3-1.1,0.6l-1.7-1.5c-0.3,0.4-0.5,0.9-0.7,1.5l1.5,1.9c0,0.3-0.1,0.5-0.1,0.8
			c0,0.3,0,0.6,0.1,0.9l-1.5,0.2c0.2,0.8,0.4,1.5,0.7,2.3l1.7,0.5c0.3,0.6,0.7,1.3,1.1,1.9l-0.4,1.7c0.5,0.6,1.1,1.2,1.7,1.7
			l0.9-1.2c0.2,0.2,0.5,0.4,0.8,0.5c0.3,0.1,0.5,0.3,0.8,0.4l0.9,2.3c0.6,0.2,1.1,0.2,1.7,0.2l-0.4-2.2c0.4-0.1,0.8-0.3,1.1-0.6
			l1.7,1.5c0.3-0.4,0.5-0.9,0.7-1.5l-1.5-1.9C204.6,158.9,204.7,158.6,204.7,158.3z M199.7,157.7c-1.1-0.6-2-2.2-2-3.4
			c0-1.3,0.9-1.8,2-1.1c1.1,0.6,2,2.2,2,3.4C201.7,157.9,200.8,158.4,199.7,157.7z"/>
		<g>
			<path class="st3" d="M167.3,132l6.4,10l6.4-2.6c0,0,0,0,0,0c-0.2-0.3-0.5-0.6-0.8-0.7l-11.3-6.5
				C167.7,131.9,167.5,131.9,167.3,132C167.3,132,167.3,132,167.3,132z"/>
			<path class="st3" d="M180,139.4l-6.4,3.6l-1.8-3.1l-4.6,1.9c0,0,0,0,0,0l4.2-2.4l-4.2-7.3c-0.3,0.1-0.5,0.4-0.5,0.8v7.6
				c0,0.8,0.6,1.8,1.2,2.2l11.3,6.5c0.7,0.4,1.3,0.1,1.3-0.7v-7.6C180.5,140.3,180.3,139.8,180,139.4z M180,149.1l-4.6-7.1l0.3-0.2
				L180,149.1C180,149.1,180,149.1,180,149.1z"/>
		</g>
	</g>
	<g class="vertical-animation1">
		<g>
			<polygon class="st16" points="83.6,199.8 83.6,228.4 88.1,225.8 88.1,197.1 			"/>
			<polygon class="st11" points="83.6,199.8 83.6,228.4 6.9,184.1 6.9,155.4 			"/>
			<polygon class="st0" points="6.9,155.4 83.6,199.8 88.1,197.1 11.4,152.7 			"/>
			<polygon class="st6" points="6.9,155.4 83.6,199.8 88.1,197.1 83.4,199 			"/>
		</g>
		<path class="st3" d="M36.6,177.2l-14-8.1c-0.9-0.5-1.6-0.1-1.6,0.9v9.5c0,1,0.7,2.2,1.6,2.7l8.8,5.1l4.4,7.6v-5l0.9,0.5
			c0.9,0.5,1.6,0.1,1.6-0.9v-9.5C38.1,178.9,37.4,177.7,36.6,177.2z M26.7,179c-0.5,0.3-1.2-0.2-1.7-1c-0.5-0.8-0.5-1.6,0-1.9
			c0.5-0.3,1.2,0.2,1.7,1C27.2,177.9,27.2,178.7,26.7,179z M30.5,181.2c-0.5,0.3-1.2-0.2-1.7-1c-0.5-0.8-0.5-1.6,0-1.9
			c0.5-0.3,1.2,0.2,1.7,1C30.9,180.1,30.9,180.9,30.5,181.2z M34.3,183.4c-0.5,0.3-1.2-0.2-1.7-1c-0.5-0.8-0.5-1.6,0-1.9
			c0.5-0.3,1.2,0.2,1.7,1C34.7,182.3,34.7,183.1,34.3,183.4z M19.8,178.8v-7.7l-5.4-3.1c-0.9-0.5-1.6-0.1-1.6,0.9v9.5
			c0,1,0.7,2.2,1.6,2.7l0.9,0.5v5l4.4-2.5l8.8,5.1c0.9,0.5,1.6,0.1,1.6-0.9v-0.4l-7.5-4.3C21.1,182.7,19.8,180.6,19.8,178.8z"/>
		<polygon class="st3" points="41.3,182 41.3,184.4 77.9,205.5 77.9,203.2 		"/>
		<polygon class="st3" points="66.4,206.3 41.3,191.9 41.3,194.2 66.4,208.7 		"/>
		<polygon class="st3" points="41.3,189.3 77.9,210.4 77.9,208.1 41.3,186.9 		"/>
	</g>
	<g class="magnifier-animation">
		<path class="st22" d="M134.7,259.5l-23.8-13.4c2.1-1.5,3.3-3.3,3.3-5.2c0-5.3-9.1-9.6-20.3-9.6s-20.3,4.3-20.3,9.6
			c0,5.3,9.1,9.6,20.3,9.6c2.3,0,4.6-0.2,6.7-0.5l25.6,14.4c1.7,1,4.5,0.8,6.5-0.3C134.7,263.1,137.2,261,134.7,259.5z"/>
		<g>
			<g>
				<path class="st14" d="M134.6,256.9c1.4,2.6,0.4,6-2.2,7.4c-2.6,1.4-6,0.4-7.4-2.2c-1.4-2.6-0.4-6,2.2-7.4
					C129.9,253.2,133.2,254.2,134.6,256.9z"/>
				<path class="st17" d="M117.4,222.6l-11.8,6.4l17.6,32.5l0,0c0,0,0,0,0,0c1,1.9,4.5,2,7.7,0.3c3.3-1.8,5.1-4.7,4-6.6c0,0,0,0,0,0
					l0,0L117.4,222.6z"/>
				<path class="st16" d="M117.4,222.6c1,1.9-0.8,4.9-4,6.6c-3.3,1.8-6.7,1.6-7.7-0.3c-1-1.9,0.8-4.9,4-6.6
					C112.9,220.6,116.3,220.7,117.4,222.6z"/>
				<path class="st14" d="M109.6,214l-7,3.8l5,9.3l0,0c0,0,0,0,0,0c0.6,1.1,2.7,1.2,4.6,0.2c1.9-1,3-2.8,2.4-3.9c0,0,0,0,0,0l0,0
					L109.6,214z"/>
			</g>
			<g>
				<path class="st0" d="M89.8,139.6c-8.7-5-16.7-5.6-22.5-2.5c-0.2,0.1-8.5,4.7-8.7,5.1c5.9-4.5,14.6-4.4,24.4,1.2
					c17.8,10.3,32.2,35.1,32.2,55.5c0,10.4-3.8,17.6-9.8,20.9c0.4-0.1,0.9-0.3,1.6-0.7c0.2-0.1,5.8-3.5,6-3.6c5.6-3.4,9-10.5,9-20.4
					C122,174.7,107.6,149.8,89.8,139.6z"/>
			</g>
			<path class="st2" d="M83,143.4c-17.8-10.3-32.2-2-32.2,18.3c0,20.4,14.4,45.2,32.2,55.5c17.8,10.3,32.2,2,32.2-18.3
				S100.8,153.7,83,143.4z M82.5,212.4c-15.1-8.7-27.3-29.8-27.3-47.1s12.2-24.3,27.3-15.6c15.1,8.7,27.3,29.8,27.3,47.1
				C109.8,214.1,97.6,221.1,82.5,212.4z"/>
			<path class="st0" d="M88.2,209.2c-15.1-8.7-27.3-29.8-27.3-47.1c0-7.1,2-12.4,5.5-15.6c-6.7,1.8-11.1,8.5-11.1,18.8
				c0,17.3,12.2,38.4,27.3,47.1c8.9,5.2,16.9,4.8,21.8,0.1C99.8,213.7,94.2,212.7,88.2,209.2z"/>
			<path class="st3" d="M84.5,142.7c-8.5-4.9-16.3-5.6-22-2.7c5.4-1.5,13.3-0.7,20.5,3.5c17.8,10.3,32.2,35.1,32.2,55.5
				c0,10.6-5.1,18.2-11.4,21.4c7.9-2.2,12.9-10,12.9-22.1C116.7,177.8,102.3,152.9,84.5,142.7z"/>
		</g>
	</g>
</g>
</svg>
