<svg xmlns="http://www.w3.org/2000/svg" xmlns:xlink="http://www.w3.org/1999/xlink" width="1575.834" height="805.025" viewBox="0 0 1575.834 805.025">
  <defs>
    <linearGradient id="linear-gradient" y1="59.167" x2="1" y2="59.167" gradientUnits="objectBoundingBox">
      <stop offset="0" stop-color="#15ccea"/>
      <stop offset="1" stop-color="#3ba1f4"/>
    </linearGradient>
    <linearGradient id="linear-gradient-2" y1="-1224.206" x2="1" y2="-1224.206" gradientUnits="objectBoundingBox">
      <stop offset="0" stop-color="#1caa4a"/>
      <stop offset="1" stop-color="#0c6a37"/>
    </linearGradient>
  </defs>
  <g id="Group_143" data-name="Group 143" transform="translate(-164.827 -3205)">
    <path id="Path_153" data-name="Path 153" d="M1023.995,358.16h0a9.1,9.1,0,0,0-.069-1.382l-.083-1.382c-.069-.967-.138-1.935-.221-2.874h0a142,142,0,0,0-27.2-72.305c-.29-.415-.58-.815-.9-1.216a141.465,141.465,0,0,0-16.763-18.671,2.128,2.128,0,0,0-.263-.235h0c-.636-.608-1.3-1.2-1.962-1.8l-2.336-2.045a142.344,142.344,0,0,0-93.007-34.37H770.72v13.944H880.739A128.718,128.718,0,0,1,990.33,296.938l.7,1.133c.1.152.193.3.276.456l.111.194c.346.594.7,1.188,1.05,1.8l.166.3c.65,1.133,1.285,2.294,1.88,3.455l.345.663c.332.622.663,1.258.968,1.893l.829,1.7q.249.484.456.954c.18.373.359.746.525,1.119v.069c.3.65.581,1.3.871,1.949l.484,1.106c.732,1.728,1.382,3.469,2.1,5.224l.083.235c.263.7.525,1.382.774,2.128s.428,1.188.622,1.783.511,1.506.746,2.266.442,1.382.649,2.087l.194.65v.194c.456,1.562.871,3.151,1.271,4.726.124.511.263,1.023.387,1.534s.166.691.235,1.036c.207.857.387,1.741.567,2.612.47,2.266.9,4.547,1.244,6.841.207,1.258.373,2.529.525,3.8.1.732.18,1.451.249,2.184s.152,1.465.221,2.2h0l.125,1.382a6.457,6.457,0,0,0,.1,1.382,11.082,11.082,0,0,1,.1,1.575v1.465c0,.719.069,1.465.083,2.2v3.593q0,5.639-.47,11.18a130.629,130.629,0,0,1-7.78,34.55c-.291.746-.567,1.479-.857,2.211s-.622,1.534-.94,2.308c-.636,1.52-1.3,3.04-2,4.547-.332.746-.691,1.506-1.064,2.239s-.719,1.479-1.106,2.211c-.594,1.175-1.216,2.349-1.866,3.51a14.445,14.445,0,0,1-.788,1.382c-1.106,1.962-2.266,3.883-3.483,5.79s-2.377,3.607-3.621,5.376h0l-1.631,2.266h0a130.625,130.625,0,0,1-71.227,48.3h-.041l.636.456a129.032,129.032,0,0,1-32.476,4.146H770.72v12.3H881.126a142.429,142.429,0,0,0,44.914-7.214h.1l1.244-.415c1.575-.511,3.123-1.064,4.657-1.672l1.534-.58,1.493-.594,1.727-.719c.94-.4,1.866-.8,2.764-1.216s1.893-.857,2.764-1.3l.732-.345,1.382-.7.9-.456,3.469-1.81,1.479-.8.47-.263,1.479-.857,1.092-.636,1.741-1.023,2.557-1.589,2.5-1.631c.774-.511,1.534-1.036,2.28-1.562l.138-.1,1.285-.9.18-.124c.594-.415,1.188-.843,1.783-1.3a.693.693,0,0,0,.166-.111q.663-.456,1.382-.995h0a4.257,4.257,0,0,0,.525-.387l.884-.677c.318-.263.649-.539,1.023-.815.9-.691,1.741-1.382,2.584-2.087l.539-.442.553-.456.649-.553,2.031-1.783.346-.318,1.188-1.078.083-.083c.649-.594,1.3-1.189,1.935-1.81s1.645-1.589,2.46-2.391c1.631-1.631,3.206-3.289,4.754-4.989.788-.857,1.617-1.824,2.294-2.584l1.962-2.322c.207-.235.415-.484.594-.732l.083-.1q.87-1.036,1.7-2.114c.332-.428.677-.857,1.009-1.3s.649-.843.967-1.271l.29-.4.083-.111c.484-.636.953-1.271,1.382-1.921l.152-.221c.677-.94,1.382-1.88,1.976-2.833l.263-.373,1.824-2.764.29-.442c.318-.484.636-1.009.926-1.493s.415-.663.608-1c2.391-3.925,4.588-7.988,6.606-12.148.5-1.05.981-2.1,1.465-3.151s.94-2.114,1.382-3.192v-.111c.207-.5.415-1,.608-1.493l.525-1.285a3.22,3.22,0,0,0,.124-.332c.636-1.631,1.258-3.262,1.838-4.92s1.133-3.317,1.658-4.989l.29-.94a2.114,2.114,0,0,1,.18-.622l.124-.456c.138-.456.276-.912.4-1.382s.359-1.271.525-1.921c.359-1.313.7-2.653,1.009-3.994.111-.442.221-.871.318-1.382s.277-1.188.4-1.8c.083-.332.138-.663.221-1.05v-.263c0-.1.083-.387.111-.58l.29-1.382c.1-.484.18-.967.263-1.451l.318-1.852.249-1.506v-.207c.18-1.175.346-2.349.5-3.538.111-.843.207-1.645.29-2.5a2.8,2.8,0,0,1,.1-.884c.1-.3,0-.345,0-.511.1-1.036.194-2.087.276-3.137.276-3.69.428-7.421.428-11.18A31.3,31.3,0,0,0,1023.995,358.16Zm-493.56-111.94-1.161.8-1.382.94c-.829.567-1.645,1.161-2.46,1.769-1.285.94-2.557,1.907-3.8,2.916l-.442.359c-.926.732-1.852,1.493-2.764,2.253l-.207.18c-.871.719-1.741,1.465-2.584,2.239l-.567.511-.47.428c-.746.663-1.451,1.382-2.267,2.1s-1.562,1.479-2.253,2.17l-.332.332-.3.29h0l-.829.843-.318.332c-.387.387-.76.774-1.133,1.175l-.442.456c-.594.622-1.188,1.271-1.769,1.921-.152.152-.29.318-.428.47-.553.594-1.092,1.2-1.617,1.81-1.479,1.727-2.93,3.441-4.312,5.169q-.7.871-1.382,1.741l-.594.774-1.382,1.824c-.58.774-1.133,1.562-1.7,2.349l-.359.525c-.18.276-.373.539-.567.815-.484.7-.954,1.382-1.382,2.128l-.138.193-.525.8c-1.161,1.769-2.28,3.579-3.344,5.4a140.336,140.336,0,0,0-9.812,20.246c-.387.9-.732,1.783-1.064,2.681a.9.9,0,0,1-.111.3c-.4,1.092-.788,2.184-1.161,3.3s-.788,2.391-1.092,3.344-.594,1.907-.857,2.874-.58,2.073-.857,3.123-.525,2.1-.788,3.151l-.124.511-.249,1.036a.5.5,0,0,0,0,.152c-.18.774-.346,1.548-.511,2.322a4.684,4.684,0,0,0-.1.47q-.332,1.617-.622,3.234a7,7,0,0,1-.124.746h0c-.152.8-.3,1.631-.415,2.46a1.064,1.064,0,0,0,0,.207c-.1.539-.18,1.092-.263,1.645s-.18,1.285-.249,1.935-.194,1.534-.29,2.308h0c-.207,1.755-.373,3.524-.511,5.307s-.263,3.925-.318,5.915v.111c-.069,1.645-.1,3.289-.1,4.947s0,3.3.1,4.934a2.765,2.765,0,0,0,0,.484v1.188h0c0,.691.069,1.382.1,2.073l.166,2.5a140.741,140.741,0,0,0,3,20.025c.193.926.414,1.866.649,2.764v.166l.387,1.52c.263,1.009.525,2.032.815,3.027s.47,1.686.732,2.529l.124.415c.373,1.285.788,2.557,1.216,3.828.166.47.318.926.484,1.382l.083.221c.8,2.308,1.645,4.616,2.57,6.91.318.788.65,1.575.981,2.349l.415.967c.235.539.484,1.092.746,1.631,1.133,2.543,2.377,5.03,3.69,7.5l.871,1.672a137.383,137.383,0,0,0,8.665,14.013h0l.359.511.111.152a143.371,143.371,0,0,0,17.966,20.73l.152.138,1.382,1.244,1.382,1.216,1.036.926c.387.359.774.7,1.175,1.036l1.175,1.009,1.451,1.23h0a142.057,142.057,0,0,0,15.354,11.056c1.963,1.23,3.953,2.418,5.97,3.524l1.161.622c.4.235.8.442,1.216.663l1.824.954c.981.511,1.962,1.009,2.957,1.479l1.023.484,1.119.553h0l.663.318c1.6.746,3.22,1.465,4.865,2.128a142.525,142.525,0,0,0,54.782,10.876H728.085v-12.3H610.963A128.36,128.36,0,0,1,568.343,488l.7-.484h0A130.652,130.652,0,0,1,508.1,442.405h-.1a130.584,130.584,0,0,1-17.966-33.361q-.456-1.244-.871-2.487c-.249-.719-.484-1.382-.7-2.142a129.753,129.753,0,0,1-5.777-28.7h0v-.069c-.193-2.322-.332-4.643-.387-6.993,0-1.382-.069-2.764-.069-4.077v-5.514a15.6,15.6,0,0,1,.138-2.543l.166-2.336h0c.069-.871.166-1.741.249-2.612.111-1.119.235-2.225.373-3.331.1-.857.221-1.7.345-2.543.263-1.879.58-3.745.94-5.6.18-.926.359-1.838.553-2.764s.4-1.838.622-2.764.442-1.81.677-2.764.484-1.81.732-2.764c.484-1.686.981-3.358,1.52-5.017a3.1,3.1,0,0,0,.111-.332q2.059-6.164,4.657-12.051c.359-.8.691-1.617,1.078-2.4.235-.511.484-1.009.732-1.506l1-2.018c.069-.111.111-.221.166-.3.332-.65.677-1.3,1.023-1.935a.568.568,0,0,1,.083-.152c.7-1.382,1.382-2.626,2.184-3.911l1.078-1.81a128.151,128.151,0,0,1,15.077-20.163c.373-.428.76-.843,1.161-1.258q3.013-3.234,6.247-6.247c1.009-.926,2.031-1.852,3.068-2.764l1.6-1.382c.525-.47,1.064-.912,1.6-1.382,1.092-.884,2.184-1.755,3.3-2.612l1.769-.954,1.7-1.244c1.133-.815,2.294-1.6,3.455-2.391l1.769-1.147,1.783-1.133c.594-.373,1.189-.746,1.8-1.092,1.2-.719,2.4-1.382,3.635-2.1s2.557-1.382,3.856-2.059q2.764-1.382,5.625-2.764c1.3-.594,2.6-1.147,3.911-1.686s2.64-1.078,3.98-1.562l2-.732,1.893-.65c2.764-.967,5.721-1.824,8.637-2.584l1.838-.456c1.852-.456,3.731-.871,5.611-1.244l2.156-.4q2.571-.484,5.182-.829c1.382-.193,2.861-.359,4.3-.511q1.092-.124,2.2-.207c.967-.083,1.935-.166,2.9-.221,1.2-.069,2.4-.138,3.621-.18H728.182V221.62H610.576a142.164,142.164,0,0,0-80.141,24.6Z" transform="translate(210.535 3241.103)" fill="#caccce"/>
    <path id="Path_172" data-name="Path 172" d="M485.67,268.23q-2.018,3.04-3.87,6.205Q483.652,271.284,485.67,268.23Z" transform="translate(215.955 3258.907)" fill="#caccce"/>
    <path id="Path_173" data-name="Path 173" d="M488.776,263.88q-2.156,2.944-4.146,6.012Q486.592,266.81,488.776,263.88Z" transform="translate(217.035 3257.245)" fill="#caccce"/>
    <path id="Path_154" data-name="Path 154" d="M557.876,426.57a130.473,130.473,0,0,1-61.056-45.08h.152a130.653,130.653,0,0,0,60.9,45.053Z" transform="translate(221.691 3302.171)" fill="#caccce"/>
    <path id="Path_155" data-name="Path 155" d="M586.6,421.69H703.774v12.355H586.209a142.647,142.647,0,0,1-54.809-10.9h0l12.548-8.651A128.36,128.36,0,0,0,586.6,421.69Z" transform="translate(234.9 3314.776)" fill="#caccce"/>
    <path id="Path_174" data-name="Path 174" d="M842.316,425.975A142.458,142.458,0,0,1,797.36,433.2H686.94V420.848H796.959a129.1,129.1,0,0,0,32.506-4.154l12.8,9.225Z" transform="translate(294.314 3315.618)" fill="#caccce"/>
    <path id="Path_175" data-name="Path 175" d="M488.4,283.526c.719-1.382,1.479-2.764,2.239-4.146C489.879,280.734,489.119,282.116,488.4,283.526Z" transform="translate(218.477 3263.167)" fill="#caccce"/>
    <path id="Path_176" data-name="Path 176" d="M862.523,379.69h0a130.252,130.252,0,0,1-72.83,50.663h-.083a130.584,130.584,0,0,0,72.913-50.663Z" transform="translate(333.531 3301.483)" fill="#caccce"/>
    <path id="Path_177" data-name="Path 177" d="M842.39,381.156c1.244-1.769,2.46-3.565,3.621-5.376C844.864,377.6,843.648,379.4,842.39,381.156Z" transform="translate(353.691 3299.989)" fill="#caccce"/>
    <path id="Path_178" data-name="Path 178" d="M601.714,221.68H719.279V235.5H597.485c-1.216,0-2.418.111-3.621.18-.967,0-1.935.138-2.9.221q-1.092.083-2.2.207c-1.382.152-2.875.318-4.3.511q-2.612.346-5.182.829l-2.156.4c-1.88.373-3.759.788-5.611,1.244l-1.838.456c-2.916.76-5.8,1.617-8.637,2.584l-1.893.65-2,.732c-1.382.484-2.667,1.009-3.98,1.562s-2.612,1.092-3.911,1.686q-2.833,1.285-5.625,2.764c-1.3.663-2.584,1.382-3.856,2.059s-2.432,1.382-3.635,2.1c-.608.345-1.2.719-1.8,1.092l-1.783,1.133-1.769,1.147c-1.161.788-2.322,1.575-3.455,2.391l-1.714,1.368-1.672,1.258c-1.12.857-2.211,1.727-3.3,2.612a20.793,20.793,0,0,0-1.6,1.382l-1.6,1.382c-1.036.912-2.059,1.838-3.068,2.764q-3.234,3.013-6.246,6.247c-.4.415-.788.829-1.161,1.258a128.151,128.151,0,0,0-15.077,20.163l-1.078,1.81a128.019,128.019,0,0,1,9.01-13.654c.539-.691,1.064-1.382,1.6-2.059l1.534-1.907c1.092-1.382,2.211-2.653,3.372-3.939.47-.539.94-1.064,1.382-1.589l1.672-1.783c1.119-1.175,2.266-2.336,3.441-3.469s2.363-2.253,3.565-3.344c.608-.553,1.23-1.092,1.838-1.617l1.866-1.589c.415-.359.857-.7,1.285-1.064l1.036-.843c.663-.539,1.382-1.078,2.031-1.589,1.769-1.382,3.579-2.653,5.417-3.925l2.045-1.382,2.073-1.382,2.1-1.3c1.382-.857,2.847-1.686,4.284-2.488l2.184-1.188c1.009-.539,2.018-1.05,3.04-1.562a131.12,131.12,0,0,1,22.609-8.734h0l-5.652-4.146-.58-.428-6.827-5.058A142.166,142.166,0,0,1,601.714,221.68Z" transform="translate(219.396 3241.126)" fill="#caccce"/>
    <path id="Path_179" data-name="Path 179" d="M905.694,295.229l.857,1.382A128.718,128.718,0,0,0,796.959,235.5H686.94V221.68H797.36a142.162,142.162,0,0,1,46.587,7.753L830.9,239.107h0a130.237,130.237,0,0,1,43.007,21.338c1.05.8,2.087,1.617,3.123,2.432q4.616,3.731,8.886,7.836c.58.553,1.147,1.119,1.727,1.7l1.6,1.631c.622.622,1.216,1.258,1.81,1.907s1.064,1.161,1.576,1.741l1.6,1.824c.525.608,1.05,1.23,1.562,1.852l1.52,1.866,1.161,1.479h0c1.88,2.432,3.648,4.947,5.348,7.518a.294.294,0,0,1,0,.083c.567.857,1.133,1.714,1.686,2.584Z" transform="translate(294.314 3241.126)" fill="#caccce"/>
    <path id="Path_180" data-name="Path 180" d="M847.69,279.017l.166.3-1.216-2.1C846.986,277.814,847.345,278.408,847.69,279.017Z" transform="translate(355.316 3262.341)" fill="#caccce"/>
    <path id="Path_181" data-name="Path 181" d="M851.79,287.28l.484,1.106Z" transform="translate(357.283 3266.185)" fill="#caccce"/>
    <path id="Path_182" data-name="Path 182" d="M852.1,287.713c.318.691.594,1.382.9,2.073-1.133-2.6-2.363-5.169-3.676-7.684-.221-.442-.47-.871-.691-1.382l.553,1.023c.249.442.484.9.719,1.382h0c.442.884.885,1.769,1.382,2.667Q851.684,286.759,852.1,287.713Z" transform="translate(356.076 3263.679)" fill="#caccce"/>
    <path id="Path_183" data-name="Path 183" d="M853.72,292a129.726,129.726,0,0,1,7.794,34.038h0A129.177,129.177,0,0,0,853.72,292Z" transform="translate(358.02 3267.987)" fill="#caccce"/>
    <path id="Path_184" data-name="Path 184" d="M852.14,288.08c.733,1.714,1.382,3.469,2.1,5.224C853.577,291.549,852.872,289.807,852.14,288.08Z" transform="translate(357.418 3266.489)" fill="#caccce"/>
    <path id="Path_185" data-name="Path 185" d="M853.66,291.86l.083.235Z" transform="translate(357.998 3267.934)" fill="#caccce"/>
    <path id="Path_156" data-name="Path 156" d="M557.876,426.57a130.473,130.473,0,0,1-61.056-45.08h.152a130.653,130.653,0,0,0,60.9,45.053Z" transform="translate(221.691 3302.171)"/>
    <path id="Path_157" data-name="Path 157" d="M586.6,421.69H703.774v12.355H586.209a142.647,142.647,0,0,1-54.809-10.9h0l12.548-8.651A128.36,128.36,0,0,0,586.6,421.69Z" transform="translate(234.9 3314.776)" fill="#a2a2a2"/>
    <path id="Path_186" data-name="Path 186" d="M842.316,425.975A142.458,142.458,0,0,1,797.36,433.2H686.94V420.848H796.959a129.1,129.1,0,0,0,32.506-4.154l12.8,9.225Z" transform="translate(294.314 3315.618)" fill="#a2a2a2"/>
    <path id="Path_187" data-name="Path 187" d="M488.4,283.526c.719-1.382,1.479-2.764,2.239-4.146C489.879,280.734,489.119,282.116,488.4,283.526Z" transform="translate(218.477 3263.167)"/>
    <path id="Path_188" data-name="Path 188" d="M862.523,379.69h0a130.252,130.252,0,0,1-72.83,50.663h-.083a130.584,130.584,0,0,0,72.913-50.663Z" transform="translate(333.531 3301.483)"/>
    <path id="Path_189" data-name="Path 189" d="M842.39,381.156c1.244-1.769,2.46-3.565,3.621-5.376C844.864,377.6,843.648,379.4,842.39,381.156Z" transform="translate(353.691 3299.989)"/>
    <path id="Path_190" data-name="Path 190" d="M601.714,221.68H719.279V235.5H597.485c-1.216,0-2.418.111-3.621.18-.967,0-1.935.138-2.9.221q-1.092.083-2.2.207c-1.382.152-2.875.318-4.3.511q-2.612.346-5.182.829l-2.156.4c-1.88.373-3.759.788-5.611,1.244l-1.838.456c-2.916.76-5.8,1.617-8.637,2.584l-1.893.65-2,.732c-1.382.484-2.667,1.009-3.98,1.562s-2.612,1.092-3.911,1.686q-2.833,1.285-5.625,2.764c-1.3.663-2.584,1.382-3.856,2.059s-2.432,1.382-3.635,2.1c-.608.345-1.2.719-1.8,1.092l-1.783,1.133-1.769,1.147c-1.161.788-2.322,1.575-3.455,2.391l-1.714,1.368-1.672,1.258c-1.12.857-2.211,1.727-3.3,2.612a20.793,20.793,0,0,0-1.6,1.382l-1.6,1.382c-1.036.912-2.059,1.838-3.068,2.764q-3.234,3.013-6.246,6.247c-.4.415-.788.829-1.161,1.258a128.151,128.151,0,0,0-15.077,20.163l-1.078,1.81a128.019,128.019,0,0,1,9.01-13.654c.539-.691,1.064-1.382,1.6-2.059l1.534-1.907c1.092-1.382,2.211-2.653,3.372-3.939.47-.539.94-1.064,1.382-1.589l1.672-1.783c1.119-1.175,2.266-2.336,3.441-3.469s2.363-2.253,3.565-3.344c.608-.553,1.23-1.092,1.838-1.617l1.866-1.589c.415-.359.857-.7,1.285-1.064l1.036-.843c.663-.539,1.382-1.078,2.031-1.589,1.769-1.382,3.579-2.653,5.417-3.925l2.045-1.382,2.073-1.382,2.1-1.3c1.382-.857,2.847-1.686,4.284-2.488l2.184-1.188c1.009-.539,2.018-1.05,3.04-1.562a131.12,131.12,0,0,1,22.609-8.734h0l-5.652-4.146-.58-.428-6.827-5.058A142.166,142.166,0,0,1,601.714,221.68Z" transform="translate(219.396 3241.126)" fill="#a2a2a2"/>
    <path id="Path_191" data-name="Path 191" d="M905.694,295.229l.857,1.382A128.718,128.718,0,0,0,796.959,235.5H686.94V221.68H797.36a142.162,142.162,0,0,1,46.587,7.753L830.9,239.107h0a130.237,130.237,0,0,1,43.007,21.338c1.05.8,2.087,1.617,3.123,2.432q4.616,3.731,8.886,7.836c.58.553,1.147,1.119,1.727,1.7l1.6,1.631c.622.622,1.216,1.258,1.81,1.907s1.064,1.161,1.576,1.741l1.6,1.824c.525.608,1.05,1.23,1.562,1.852l1.52,1.866,1.161,1.479h0c1.88,2.432,3.648,4.947,5.348,7.518a.294.294,0,0,1,0,.083c.567.857,1.133,1.714,1.686,2.584Z" transform="translate(294.314 3241.126)" fill="#a2a2a2"/>
    <path id="Path_192" data-name="Path 192" d="M847.69,279.017l.166.3-1.216-2.1C846.986,277.814,847.345,278.408,847.69,279.017Z" transform="translate(355.316 3262.341)"/>
    <path id="Path_193" data-name="Path 193" d="M853.72,292a129.726,129.726,0,0,1,7.794,34.038h0A129.177,129.177,0,0,0,853.72,292Z" transform="translate(358.02 3267.987)"/>
    <path id="Path_194" data-name="Path 194" d="M852.14,288.08c.733,1.714,1.382,3.469,2.1,5.224C853.577,291.549,852.872,289.807,852.14,288.08Z" transform="translate(357.418 3266.489)"/>
    <path id="Path_195" data-name="Path 195" d="M851.79,287.28l.484,1.106Z" transform="translate(357.283 3266.185)"/>
    <path id="Path_196" data-name="Path 196" d="M852.1,287.713c.318.691.594,1.382.9,2.073-1.133-2.6-2.363-5.169-3.676-7.684-.221-.442-.47-.871-.691-1.382l.553,1.023c.249.442.484.9.719,1.382h0c.442.884.885,1.769,1.382,2.667Q851.684,286.759,852.1,287.713Z" transform="translate(356.076 3263.679)"/>
    <path id="Path_197" data-name="Path 197" d="M853.66,291.86l.083.235Z" transform="translate(357.998 3267.934)"/>
    <path id="Path_198" data-name="Path 198" d="M509.373,268.675a129.768,129.768,0,0,0-26.879,69.431l-14.594-.58c.069-.857.152-1.714.221-2.584s.152-1.631.249-2.432v-.346c.1-.774.18-1.534.29-2.308.152-1.3.332-2.584.539-3.787.111-.829.263-1.658.415-2.46a3.643,3.643,0,0,1,.124-.76c.166-1.009.359-2,.567-3s.359-1.741.553-2.584.332-1.382.511-2.142c.511-2.1,1.05-4.146,1.645-6.274.263-.967.567-1.921.857-2.875s.719-2.239,1.092-3.344.76-2.211,1.161-3.3.815-2.184,1.285-3.275c.719-1.769,1.451-3.538,2.225-5.279l.719-1.631c.7-1.52,1.382-3.04,2.184-4.547l1.05-2.059c.7-1.3,1.382-2.764,2.184-4.035l.263-.456,1.119-1.949q1.866-3.151,3.87-6.205,2.073-3.068,4.146-6.012Z" transform="translate(210.645 3257.245)" fill="#a2a2a2"/>
    <path id="Path_199" data-name="Path 199" d="M881.3,336.2l-14.538.636h0a129.18,129.18,0,0,0-7.739-34.038l-.083-.235c-.663-1.755-1.382-3.5-2.1-5.224l-.484-1.106c-1.133-2.6-2.363-5.169-3.676-7.684-.221-.442-.47-.871-.691-1.382-.567-1.05-1.119-2.087-1.7-3.109q-2.28-3.994-4.851-7.836v-.083q-2.57-3.856-5.417-7.518h0l14.151-4.782h0l.871,1.2c.29.4.58.815.871,1.285.539.76,1.064,1.52,1.575,2.294l1.106,1.658c.47.719.94,1.451,1.382,2.184s.926,1.479,1.382,2.211.829,1.382,1.23,2.059c.58,1,1.147,2,1.7,3.013.318.567.622,1.147.926,1.714s.58,1.092.857,1.631c1.119,2.184,2.2,4.381,3.192,6.634.387.829.76,1.686,1.119,2.584q.29.649.539,1.285l.525,1.3.511,1.285c.29.76.594,1.506.857,2.267.553,1.382,1.05,2.861,1.548,4.312.346,1.023.677,2.059,1.009,3.109.58,1.838,1.106,3.662,1.6,5.528l.428,1.313c.193.746.373,1.479.539,2.211s.4,1.589.567,2.391.346,1.589.511,2.4.373,1.879.539,2.833c.138.691.249,1.382.359,2.073s.235,1.382.345,2.073.207,1.382.29,2.073.193,1.382.276,2.087C880.968,332.676,881.148,334.432,881.3,336.2Z" transform="translate(352.787 3257.23)" fill="#a2a2a2"/>
    <path id="Path_200" data-name="Path 200" d="M872.869,277.857l-14.179,4.8a130.432,130.432,0,0,0-67.62-45.688L804.2,227.29c1.727.594,3.455,1.285,5.169,1.879s3.372,1.382,5.058,2.087,3.317,1.465,4.961,2.266,3.054,1.493,4.56,2.28l1.493.8c1.023.539,2.032,1.092,3.026,1.672l1.092.636c.954.553,1.921,1.119,2.847,1.714l.235.138c.954.58,1.88,1.175,2.764,1.783.373.235.732.456,1.078.7l1.645,1.106,1.285.94.511.345c.539.373,1.078.76,1.6,1.161s1.023.732,1.534,1.133c.733.539,1.382,1.092,2.17,1.645l3.289,2.584.691.58c.442.346.871.7,1.3,1.092q2.363,2,4.63,4.146c1.023.94,2.018,1.893,3,2.875l1.133,1.119c.663.691,1.285,1.382,1.99,2.073s1.3,1.382,1.962,2.1c.857.94,1.7,1.879,2.515,2.764s1.589,1.866,2.363,2.764c.981,1.2,1.949,2.418,2.888,3.648C871.681,276.24,872.289,277.041,872.869,277.857Z" transform="translate(334.09 3243.269)" fill="#d4a437"/>
    <path id="Path_201" data-name="Path 201" d="M838.76,250.646q-2.253-2.142-4.63-4.146Q836.493,248.49,838.76,250.646Z" transform="translate(350.537 3250.606)" fill="url(#linear-gradient)"/>
    <path id="Path_202" data-name="Path 202" d="M569.443,236.937a130.7,130.7,0,0,0-67.606,45.688l-14.207-4.8,1.382-1.824.511-.774q.663-.871,1.382-1.741c1.382-1.727,2.833-3.441,4.312-5.169.525-.608,1.064-1.216,1.617-1.81.138-.152.276-.318.428-.47.58-.65,1.175-1.3,1.769-1.921l.442-.456c.746-.788,1.506-1.562,2.294-2.336s1.907-1.893,2.888-2.764,1.81-1.714,2.764-2.515l.567-.525c.857-.76,1.714-1.493,2.584-2.239l.207-.18c.9-.76,1.824-1.52,2.764-2.253l.442-.346c.857-.677,1.714-1.382,2.584-1.976,1.617-1.3,3.248-2.446,4.934-3.579.65-.47,1.285-.912,1.949-1.3.166-.124.345-.235.525-.345.981-.663,1.976-1.285,2.985-1.921s2.446-1.534,3.69-2.239l1.575-.926,1.893-1.064,1.285-.732c2.584-1.382,5.238-2.695,7.9-3.883l1.548-.677,1.88-.829,1.879-.788c1.3-.511,2.584-1.023,3.883-1.493l1.921-.719,1.935-.677Z" transform="translate(218.182 3243.296)" fill="#d4a437"/>
    <path id="Path_158" data-name="Path 158" d="M482.634,339.316H467.972c-.111-1.506-.194-3.054-.263-4.574a9.664,9.664,0,0,0-.069-1.382V321.916c.069-1.575.152-3.151.29-4.726l14.594.58q-.415,5.169-.415,10.392C482.165,331.894,482.358,335.639,482.634,339.316Z" transform="translate(210.547 3277.608)" fill="#d4a437"/>
    <path id="Path_203" data-name="Path 203" d="M874.5,328.5V335.1c0,1.52-.152,3.068-.263,4.574H859.411c.318-3.676.47-7.421.47-11.18s-.166-7.808-.511-11.622l14.607-.636c.166,1.893.29,3.87.373,5.735v3.455a28.489,28.489,0,0,1,.152,3.068Z" transform="translate(360.18 3277.246)" fill="#d4a437"/>
    <path id="Path_204" data-name="Path 204" d="M880.531,333.2c-.083,1.064-.18,2.1-.29,3.137v.511a3.17,3.17,0,0,1-.1.884c-.083.857-.18,1.658-.29,2.5-.152,1.188-.318,2.363-.5,3.538v.207l-.249,1.506-.318,1.852-.138.829-.415,2.073a1.091,1.091,0,0,1-.111.58c-.111.193,0,.18,0,.263-.152.76-.276,1.382-.428,2.031a3.34,3.34,0,0,1-.193.815c-.069.263-.207.884-.318,1.382-.3,1.382-.65,2.681-1.009,3.994-.166.65-.332,1.285-.525,1.921s-.263.912-.4,1.382a1.878,1.878,0,0,1-.124.456c-.124.415-.249.829-.373,1.285a2.159,2.159,0,0,1-.1.276c-.138.484-.29.981-.456,1.451-.29.94-.622,1.88-.94,2.764-.65,1.907-1.382,3.787-2.1,5.638a1.973,1.973,0,0,1-.249.65c-.318.829-.663,1.645-1.009,2.46v.111c-.456,1.078-.912,2.142-1.382,3.192,0,.152-.124.29-.194.442s-.29.677-.456,1.009c-.263.567-.525,1.133-.815,1.7-.539,1.161-1.119,2.308-1.714,3.469-.332.663-.677,1.285-1.036,1.99s-.76,1.382-1.147,2.087-.788,1.382-1.175,2.087l-.788,1.285c-.235.4-.484.815-.746,1.23a6,6,0,0,1-.332.567c-.373.594-.788,1.285-1.2,1.921l-.29.442c-.594.94-1.2,1.866-1.81,2.764h0l-1.506-.47L843.218,397.7l-.788-.249h0c1.244-1.769,2.46-3.565,3.621-5.376s2.377-3.828,3.483-5.791c.276-.47.539-.953.788-1.382.649-1.161,1.271-2.336,1.866-3.51.387-.732.76-1.465,1.105-2.211s.733-1.493,1.064-2.239c.7-1.506,1.382-3.013,2-4.547.332-.76.65-1.534.94-2.308a129.007,129.007,0,0,0,8.651-36.8Z" transform="translate(353.707 3283.725)" fill="#a2a2a2"/>
    <path id="Path_159" data-name="Path 159" d="M507.914,399.965l-14.207,4.713h0l-1.3-1.935-1.147-1.7c-.5-.746-.981-1.493-1.465-2.239s-1.078-1.714-1.6-2.584-1.106-1.824-1.617-2.764c-.152-.249-.3-.484-.428-.732-.5-.871-1-1.755-1.479-2.64s-.884-1.645-1.285-2.488c-.732-1.382-1.451-2.847-2.114-4.3-.428-.871-.843-1.769-1.3-2.653s-.677-1.562-1.023-2.336-.663-1.562-.981-2.349l-.5-1.285a1.615,1.615,0,0,1-.124-.332c-.221-.539-.428-1.064-.622-1.589-.5-1.3-.954-2.584-1.382-3.883-.332-.912-.636-1.838-.926-2.764-.594-1.783-1.133-3.579-1.631-5.376-.29-1-.553-2.018-.815-3.027l-.387-1.52c-.5-1.962-.926-3.952-1.3-5.956-.194-.981-.373-1.962-.553-2.944q-.373-2.128-.7-4.312c-.138-.926-.263-1.852-.373-2.764-.166-1.189-.3-2.391-.415-3.593s-.221-2.308-.318-3.455h14.663A129.644,129.644,0,0,0,507.914,399.965Z" transform="translate(210.652 3283.71)" fill="#a2a2a2"/>
    <path id="Path_205" data-name="Path 205" d="M876.715,384.157l-.263.373c-.65.954-1.3,1.893-1.976,2.833l-.152.221c-.456.65-.926,1.285-1.382,1.921l-.083.111-.29.4c-.636.857-1.3,1.686-1.921,2.515h0c-.58.76-1.106,1.382-1.7,2.114l-.083.1c-.18.249-.387.5-.594.732l-1.962,2.322c-.677.76-1.506,1.728-2.294,2.584-1.548,1.7-3.123,3.358-4.754,4.989-.815.8-1.631,1.6-2.46,2.391l-.5.5-1.382,1.313-.083.083-1.189,1.078-.346.318-2.031,1.783-.65.553-.553.456-.539.442c-.843.719-1.686,1.382-2.584,2.087-.373.276-.7.553-1.023.815l-.884.677-.47.332h0a4.393,4.393,0,0,1-.511.373c-.263.221-.539.428-.816.622a.689.689,0,0,1-.166.111c-.594.456-1.188.884-1.783,1.3l-.18.124-1.285.9-.138.1c-.746.525-1.506,1.05-2.28,1.562l-2.5,1.631-2.557,1.589-1.741,1.023-1.092.636-1.479.857-.47.263-1.479.8-3.469,1.81-.9.456-1.382.7-.733.345-.719.318-2.114.981-.47.221c-.746.345-1.52.677-2.308,1l-1.728.719-1.493.594-1.479.58h-.124c-1.106.428-2.225.829-3.344,1.23-.829.3-1.659.58-2.488.857l-12.8-9.2-.636-.47h-.083a130.582,130.582,0,0,0,72.9-50.608h0l.8.249,11.94,3.745Z" transform="translate(333.617 3301.452)" fill="#d4a437"/>
    <path id="Path_160" data-name="Path 160" d="M561.768,426.558h0l-.691.484-12.521,8.665h0l-2.764-1.188c-.7-.3-1.382-.608-2.073-.967l-.663-.318c-.912-.484-1.465-.691-2.184-1.05-.995-.47-1.976-.967-2.957-1.479l-1.824-.954c-.76-.4-1.52-.815-2.266-1.285h-.111l-2.239-1.3c-.594-.345-1.2-.691-1.783-1.05l-1.949-1.175-.8-.525-1.631-1.05c-1.6-1.036-3.165-2.114-4.713-3.206-.884-.622-1.755-1.3-2.584-1.893-.539-.387-1.036-.774-1.548-1.175l-1.534-1.189c-.843-.65-1.686-1.382-2.543-2h0l-1.451-1.23-1.175-1.009c-.4-.332-.788-.677-1.175-1.036l-1.036-.926-1.382-1.216-1.382-1.244-.152-.138-1.133-1.147c-.442-.415-.871-.843-1.3-1.3-.774-.774-1.534-1.548-2.28-2.336a.924.924,0,0,1-.193-.207l-1.009-1.064c-.829-.885-1.631-1.769-2.432-2.667-.373-.415-.732-.829-1.092-1.285-.567-.677-1.147-1.3-1.7-2.018-.276-.3-.553-.636-.8-.954-.636-.774-1.3-1.548-1.88-2.336s-1.382-1.81-2.073-2.764l-.967-1.3c-.359-.484-.719-.995-1.064-1.493l-.083-.124L499.9,381.7l.788-.249h.152a130.652,130.652,0,0,0,60.931,45.108Z" transform="translate(217.801 3302.155)" fill="#d4a437"/>
    <path id="Path_161" data-name="Path 161" d="M486.614,384.94l.083.111-.1-.111Z" transform="translate(217.789 3303.488)" fill="url(#linear-gradient-2)"/>
    <path id="Path_163" data-name="Path 163" d="M111.73,493.132a47.526,47.526,0,0,1,47.526-47.512H509.284l-59.163,59.149-26.6,26.617a31.634,31.634,0,0,1-22.305,9.259H159.256a47.526,47.526,0,0,1-47.526-47.512Z" transform="translate(72.596 3326.38)" fill="#d4a437"/>
    <path id="Path_210" data-name="Path 210" d="M1335.641,423.549a51.533,51.533,0,0,1-35.475,13.93H1053.911a42.331,42.331,0,0,1-23.632-6.73L1006.551,414.4l-3.773-2.584-.553-.387-30.749-21.1-.456-.318,5.639-3.87,25.58-17.579,28.068-19.348a42.108,42.108,0,0,1,23.632-6.73h246.172c27.64,0,50.166,21.283,50.166,47.513A46.13,46.13,0,0,1,1335.641,423.549Z" transform="translate(387.828 3290.525)" fill="#e4e4e4"/>
    <line id="Line_5" data-name="Line 5" x2="2.045" y2="4.436" transform="translate(650.822 3437.488)" fill="none"/>
    <path id="Path_215" data-name="Path 215" d="M556.272,232.236c-.953.166-1.921.346-2.874.539-30.4,5.873-58.043,22.112-79.989,45.481-.76-.719-1.479-1.465-2.128-2.2,22.83-24.24,50.871-40.077,80.915-45.909L501.808,121.111l-6.509,3.04,4.146-11.4,11.388,4.146-6.509,3.013,50.7,109.7Z" transform="translate(211.938 3199.517)" fill="#a2a2a2"/>
    <path id="Path_152" data-name="Path 152" d="M578.831,482.648l-47.236,99.5,6.357,3.137-11.208,3.98-3.994-11.443,6.316,3.123,46.7-98.411A139.07,139.07,0,0,1,529.079,472.1c-26.354-10.876-49.226-29.395-66.929-53.027a10.1,10.1,0,0,1,2.239-1.617c17.4,23.217,39.87,41.459,65.741,52.087a135.834,135.834,0,0,0,46.987,10.323c1.009,0,2.018.083,3.04.083Z" transform="translate(208.449 3315.91)" fill="#a2a2a2"/>
    <path id="Path_164" data-name="Path 164" d="M548.4,462.91v.1c-1.023,0-2.032,0-3.04-.083l.594-1.244Z" transform="translate(240.234 3332.802)"/>
    <path id="Path_216" data-name="Path 216" d="M483.573,256.608c-.58.746-1.147,1.506-1.686,2.28A189.482,189.482,0,0,0,457.605,304.3a13.823,13.823,0,0,1-2.543-1.506,191.422,191.422,0,0,1,24.281-45.605l-60.973-40.644-3.98,5.97L412,210.657l11.913-2.377-3.98,5.97L481.1,254.88Z" transform="translate(189.293 3236.008)" fill="#a2a2a2"/>
    <path id="Path_165" data-name="Path 165" d="M476.255,425.026,413.14,466.486l4.049,6L405,470.106l2.432-11.968,4.063,6.012,63.184-41.542a199.473,199.473,0,0,1-21.78-49.143,11.185,11.185,0,0,1,2.639-.885,195.423,195.423,0,0,0,21.448,48.508c.5.815.995,1.617,1.52,2.418Z" transform="translate(186.617 3298.767)" fill="#a2a2a2"/>
    <path id="Path_166" data-name="Path 166" d="M458.262,339.011c-.332,4.8-.5,9.674-.5,14.608,0,5.334.194,10.614.58,15.7a208.385,208.385,0,0,0,5.943,36.415q.332,1.382.7,2.695l-2.764.332L386.219,417.7l.815,6.91-9.315-7.352,7.352-9.315.815,6.91,75.608-8.886a212.822,212.822,0,0,1-5.915-36.553c-.387-5.141-.58-10.489-.58-15.893,0-4.961.166-9.936.511-14.787a212.084,212.084,0,0,1,10.033-51.783L388.4,281.023l-.567,7.007-7.933-9.038,9.287-7.711-.567,6.993,77.93,6.067,2.971.221c-.332.9-.636,1.8-.94,2.764A206.028,206.028,0,0,0,458.262,339.011Z" transform="translate(176.199 3260.072)" fill="#a2a2a2"/>
    <path id="Path_217" data-name="Path 217" d="M804.11,228.935l2.861.636c30.127,6.91,57.186,24.1,78.358,48.245.774-.691,1.52-1.382,2.2-2.114-21.974-25.028-49.447-41.791-79.27-48.7L862.43,119.786l6.4,3.234-3.787-11.54-11.526,3.787,6.4,3.234L805.409,226.364Z" transform="translate(339.07 3199.032)" fill="#a2a2a2"/>
    <path id="Path_218" data-name="Path 218" d="M781.4,478.168l43.74,101.106-6.426,2.9,11.056,4.367,4.3-11.3-6.426,2.9-43.228-99.986a138.666,138.666,0,0,0,47.07-8.845c26.727-9.95,50.235-27.64,68.74-50.663a9.978,9.978,0,0,0-2.17-1.686c-18.2,22.6-41.294,39.995-67.524,49.751a135.432,135.432,0,0,1-47.305,8.679h-3.04Z" transform="translate(329.93 3315.72)" fill="#a2a2a2"/>
    <path id="Path_219" data-name="Path 219" d="M780.15,459.481v.1h3.04l-.553-1.258Z" transform="translate(329.918 3331.519)"/>
    <path id="Path_220" data-name="Path 220" d="M871.52,255.675c.567.774,1.106,1.548,1.617,2.336A189.84,189.84,0,0,1,895.815,304.2a14.816,14.816,0,0,0,2.6-1.382,192.382,192.382,0,0,0-22.678-46.407l62.355-38.488,3.759,6.095,2.764-11.83L932.8,209.42l3.773,6.108L874.1,254.1Z" transform="translate(364.82 3236.442)" fill="#a2a2a2"/>
    <path id="Path_221" data-name="Path 221" d="M873.529,424.614l61.636,43.657-4.257,5.846,12.2-1.962-2-12.051-4.27,5.86-61.705-43.726a198.779,198.779,0,0,0,23.494-48.369,11.606,11.606,0,0,0-2.6-.967,195.465,195.465,0,0,1-23.134,47.72c-.525.8-1.05,1.589-1.6,2.377Z" transform="translate(364.732 3298.89)" fill="#a2a2a2"/>
    <path id="Path_222" data-name="Path 222" d="M899.151,338.87c.166,4.8.166,9.674,0,14.608-.18,5.334-.567,10.6-1.119,15.672A209.4,209.4,0,0,1,890.8,405.4c-.249.9-.525,1.783-.8,2.681l2.764.428,75.622,11.581-1.05,6.91,9.563-7.02-7.02-9.577-1.064,6.91-75.249-11.526a212.509,212.509,0,0,0,7.186-36.318c.566-5.127.94-10.462,1.133-15.865.18-4.961.18-9.936,0-14.787a211.573,211.573,0,0,0-8.209-52.1l77.294-3.234.318,7.02,8.292-8.762-9.011-8.029.318,7.007-78.068,3.22-2.971.124c.3.912.567,1.81.843,2.764a205.756,205.756,0,0,1,8.458,52.045Z" transform="translate(371.82 3261.001)" fill="#a2a2a2"/>
    <path id="Path_167" data-name="Path 167" d="M441.055,370.645q-.373-1.382-.7-2.695" transform="translate(200.121 3296.999)" fill="none"/>
    <path id="Path_170" data-name="Path 170" d="M606.921,231.71H724.1V491.522H606.921a128.36,128.36,0,0,1-42.62-7.228l.7-.484h0A130.651,130.651,0,0,1,504.061,438.7h-.1A130.584,130.584,0,0,1,486,405.342q-.456-1.244-.871-2.488l-.7-2.142a129.755,129.755,0,0,1-5.777-28.7h0v-.069c-.193-2.322-.332-4.643-.387-6.993,0-1.382-.069-2.764-.069-4.077v-5.514a15.6,15.6,0,0,1,.138-2.543l.166-2.336h0c.069-.788.138-1.575.221-2.363.111-1.2.249-2.391.4-3.579.1-.857.221-1.7.345-2.543.263-1.879.58-3.745.94-5.6.18-.926.359-1.838.553-2.764s.4-1.838.622-2.764.442-1.81.677-2.764.484-1.81.732-2.764c.484-1.686.981-3.358,1.52-5.017a3.076,3.076,0,0,0,.111-.332,135.544,135.544,0,0,1,5.044-12.935c.235-.511.456-1.023.691-1.52s.484-1.009.732-1.506l1-2.018c.069-.111.111-.221.166-.3.332-.65.677-1.3,1.023-1.935l.083-.152c.7-1.382,1.382-2.626,2.184-3.911l1.078-1.81a128.146,128.146,0,0,1,15.077-20.163c.373-.428.76-.843,1.161-1.258q3.013-3.234,6.247-6.246c1.009-.926,2.031-1.852,3.068-2.764l1.6-1.382c.525-.47,1.064-.912,1.6-1.382,1.092-.884,2.184-1.755,3.3-2.612l1.769-1.106,1.7-1.244c1.133-.815,2.294-1.6,3.455-2.391l1.769-1.147,1.783-1.133c.594-.373,1.188-.746,1.8-1.092,1.2-.719,2.4-1.382,3.635-2.1s2.557-1.382,3.856-2.059c1.852-.954,3.717-1.852,5.625-2.764,1.3-.594,2.6-1.147,3.911-1.686s2.64-1.078,3.98-1.562l2-.732,1.893-.65c2.764-.967,5.721-1.824,8.637-2.584l1.838-.456c1.852-.456,3.731-.871,5.611-1.244l2.156-.4q2.571-.484,5.182-.829c1.382-.193,2.861-.359,4.3-.511q1.092-.124,2.2-.207c.967-.083,1.935-.166,2.9-.221,1.2-.069,2.4-.138,3.621-.18h.733C604.3,231.724,605.609,231.71,606.921,231.71Z" transform="translate(214.576 3244.958)" fill="#f1f1f1"/>
    <path id="Path_223" data-name="Path 223" d="M925.746,360.4v.456q0,5.638-.47,11.18a130.622,130.622,0,0,1-7.781,34.549c-.29.746-.567,1.479-.857,2.211s-.622,1.534-.94,2.308c-.636,1.52-1.3,3.04-2,4.547-.332.746-.691,1.506-1.064,2.239s-.719,1.479-1.106,2.211c-.594,1.175-1.216,2.349-1.866,3.51a14.482,14.482,0,0,1-.788,1.382c-1.106,1.962-2.266,3.883-3.483,5.791s-2.377,3.607-3.621,5.376h0l-1.631,2.266h0a130.624,130.624,0,0,1-71.227,48.3h-.041l.636.456a129.031,129.031,0,0,1-32.476,4.146H686.94V231.52H796.959A128.718,128.718,0,0,1,906.55,292.631l.7,1.133c.083.152.18.3.276.456l.111.194c.346.594.7,1.188,1.05,1.8l.166.3c.525.94,1.036,1.866,1.534,2.764l.345.65c.083.124.138.249.207.373a2.755,2.755,0,0,1,.138.29c.332.622.663,1.258.967,1.893l.207.4c.221.442.429.871.622,1.3s.318.636.456.954.359.746.525,1.119v.069c.263.553.511,1.106.76,1.672a1.655,1.655,0,0,1,.111.276l.484,1.106c.732,1.727,1.382,3.469,2.1,5.224l.083.235c.263.7.525,1.382.774,2.128s.428,1.188.622,1.783.511,1.506.746,2.266.442,1.382.65,2.087l.194.65v.193l.5,1.769c.152.525.29,1.064.428,1.589.263.967.5,1.935.732,2.9s.373,1.575.553,2.377q.871,4.022,1.492,8.112c.207,1.258.373,2.529.525,3.8.1.732.18,1.451.249,2.183s.152,1.465.221,2.2h0l.124,1.382a6.452,6.452,0,0,0,.1,1.382,11.072,11.072,0,0,1,.1,1.576v1.465c0,.719.069,1.465.083,2.2v.456A14.549,14.549,0,0,1,925.746,360.4Z" transform="translate(294.314 3244.885)" fill="#f1f1f1"/>
    <path id="Path_224" data-name="Path 224" d="M478.534,329.6c-.124,1.617-.235,3.248-.3,4.878A127.957,127.957,0,0,1,489.7,286.25,130.2,130.2,0,0,0,478.534,329.6Z" transform="translate(214.59 3265.79)" fill="#fcfcfc"/>
    <path id="Path_171" data-name="Path 171" d="M565,448.09h0l-.7.484h0A128.856,128.856,0,0,1,478.16,326.96v-1.88q0,5.638.47,11.18a130.459,130.459,0,0,0,25.3,66.694h.152A130.653,130.653,0,0,0,565,448.09Z" transform="translate(214.564 3280.623)" fill="#fcfcfc"/>
    <path id="Path_225" data-name="Path 225" d="M852.844,289.484c-1.175-2.695-2.446-5.362-3.814-7.974.249.442.484.9.719,1.382h0c.442.884.884,1.769,1.382,2.667q.456.912.871,1.866A127.14,127.14,0,0,1,863.375,330.1c.1.94.166,1.893.221,2.847,0-.926-.138-1.838-.221-2.764a.235.235,0,0,0,0-.1h0a129.173,129.173,0,0,0-7.739-34.038l-.083-.235c-.663-1.755-1.382-3.5-2.1-5.224Z" transform="translate(356.23 3263.979)" fill="#fcfcfc"/>
    <path id="Path_226" data-name="Path 226" d="M886.517,325.11v1.921c0,3.109-.111,6.205-.332,9.259a127.946,127.946,0,0,1-22.8,64.469h0A128.855,128.855,0,0,1,790.4,451.644h-.124l-.636-.456h.042a130.583,130.583,0,0,0,72.9-50.608h0c1.244-1.769,2.46-3.565,3.621-5.376s2.377-3.828,3.483-5.791c.276-.47.539-.954.788-1.382.649-1.161,1.271-2.336,1.866-3.51.387-.732.746-1.479,1.106-2.211s.733-1.493,1.064-2.239c.7-1.506,1.382-3.027,2-4.547.318-.774.636-1.534.94-2.308a130.563,130.563,0,0,0,8.637-36.8Q886.531,330.748,886.517,325.11Z" transform="translate(333.543 3280.634)" fill="#fcfcfc"/>
    <g id="Group_142" data-name="Group 142" transform="translate(2)">
      <path id="Path_214" data-name="Path 214" d="M1249,82.379h0a47.5,47.5,0,0,0-47.527-47.5H959.631a31.509,31.509,0,0,0-22.374,9.259L910.612,70.756,851.45,129.9h350.083a47.54,47.54,0,0,0,47.54-47.526Z" transform="translate(357.152 3170.12)" fill="#d4a437"/>
      <text id="Pay_hourly_rate" data-name="Pay hourly rate" transform="translate(1300.965 3259)" font-size="18" font-family="SegoeUI-Bold, Segoe UI" font-weight="700"><tspan x="0" y="0">Pay hourly rate</tspan></text>
    </g>
    <g id="Group_141" data-name="Group 141" transform="translate(-5 1)">
      <path id="Path_213" data-name="Path 213" d="M1332.373,184.871a47.5,47.5,0,0,0-47.526-47.471H1043a31.672,31.672,0,0,0-22.371,9.256l-26.621,26.621L934.86,232.439h350.028a47.54,47.54,0,0,0,47.526-47.54Z" transform="translate(389.016 3208.601)" fill="#e4e4e4"/>
      <text id="Senior_developers" data-name="Senior developers" transform="translate(1415.965 3400)" font-size="18" font-family="SegoeUI-Bold, Segoe UI" font-weight="700"><tspan x="0" y="0">Senior developers</tspan></text>
    </g>
    <g id="Group_140" data-name="Group 140" transform="translate(-15 7)">
      <path id="Path_209" data-name="Path 209" d="M1337.445,321.019a51.493,51.493,0,0,1-35.462,13.93H1055.729a42.205,42.205,0,0,1-23.618-6.73l-23.743-16.335-3.787-2.584-.553-.387-30.749-21.1-.47-.332,5.652-3.869,25.567-17.579,28.082-19.348a42.2,42.2,0,0,1,23.618-6.73h246.255c27.64,0,50.166,21.282,50.166,47.512a46.158,46.158,0,0,1-14.7,33.554Z" transform="translate(403.512 3248.055)" fill="#d4a437"/>
      <text id="Flexible_dedicated_team" data-name="Flexible dedicated team" transform="translate(1468.965 3542)" font-size="18" font-family="SegoeUI-Bold, Segoe UI" font-weight="700"><tspan x="0" y="0">Flexible dedicated team</tspan></text>
    </g>
    <text id="Fair_prices" data-name="Fair prices" transform="translate(1450.965 3687)" font-size="18" font-family="SegoeUI-Bold, Segoe UI" font-weight="700"><tspan x="0" y="0">Fair prices</tspan></text>
    <g id="Group_139" data-name="Group 139" transform="translate(-19 7)">
      <path id="Path_211" data-name="Path 211" d="M1341.224,492.5a47.5,47.5,0,0,1-47.457,47.5H1051.741a31.634,31.634,0,0,1-22.305-9.259l-26.6-26.6L943.67,445h350.1a47.526,47.526,0,0,1,47.526,47.526Z" transform="translate(392.379 3326)" fill="#d4a437"/>
      <text id="Scale_as_your_needs_change" data-name="Scale as your needs change" transform="translate(1427.965 3825)" font-size="18" font-family="SegoeUI-Bold, Segoe UI" font-weight="700"><tspan x="0" y="0">Scale as your needs change</tspan></text>
    </g>
    <g id="Group_138" data-name="Group 138" transform="translate(-19 -1)">
      <path id="Path_212" data-name="Path 212" d="M1231.758,595.064a47.484,47.484,0,0,1-47.512,47.471H942.4a31.65,31.65,0,0,1-22.379-9.264l-26.668-26.613L834.19,547.51h350.028a47.513,47.513,0,0,1,47.513,47.513Z" transform="translate(350.561 3365.49)" fill="#e4e4e4"/>
      <text id="_100_fit_to_your_request" data-name="100% fit to your request" transform="translate(1276.965 3967)" font-size="18" font-family="SegoeUI-Bold, Segoe UI" font-weight="700"><tspan x="0" y="0">100% fit to your request</tspan></text>
    </g>
    <g id="Group_134" data-name="Group 134" transform="translate(-5)">
      <path id="Path_207" data-name="Path 207" d="M120.57,185.049a47.526,47.526,0,0,0,47.582,47.526H518.11l-59.135-59.149-26.617-26.617a31.62,31.62,0,0,0-22.374-9.259H168.152a47.485,47.485,0,0,0-47.526,47.457Z" transform="translate(77.973 3209.45)" fill="#e4e4e4"/>
      <text id="Low_software_quality" data-name="Low software quality" transform="translate(250.965 3401)" font-size="18" font-family="SegoeUI-Bold, Segoe UI" font-weight="700"><tspan x="0" y="0">Low software quality</tspan></text>
    </g>
    <g id="Group_135" data-name="Group 135" transform="translate(2 3)">
      <path id="Path_206" data-name="Path 206" d="M95.82,287.748c0-26.258,22.471-47.526,50.166-47.526H392.172a42.316,42.316,0,0,1,23.618,6.73L443.872,266.3l25.567,17.579,5.652,3.883-.47.318-30.749,21.1-.553.387-3.787,2.584L415.79,328.489a42.206,42.206,0,0,1-23.618,6.786H145.944a51.548,51.548,0,0,1-35.489-13.917,46.186,46.186,0,0,1-14.635-33.61Z" transform="translate(68.52 3247.784)" fill="#d4a437"/>
      <text id="Lack_of_in-house_skills" data-name="Lack of in-house skills" transform="translate(216.965 3542)" font-size="18" font-family="SegoeUI-Bold, Segoe UI" font-weight="700"><tspan x="0" y="0">Lack of in-house skills</tspan></text>
    </g>
    <g id="Group_136" data-name="Group 136" transform="translate(-2 1)">
      <path id="Path_162" data-name="Path 162" d="M97.62,390.414c0-26.258,22.457-47.512,50.166-47.512H393.958a42.108,42.108,0,0,1,23.632,6.73l28.068,19.348,25.622,17.593,5.638,3.883-.456.318-30.763,21.1-.553.387-3.828,2.64L417.59,431.252a42.205,42.205,0,0,1-23.632,6.716H147.731a51.451,51.451,0,0,1-35.475-13.917A46.13,46.13,0,0,1,97.62,390.414Z" transform="translate(69.207 3287.105)" fill="#e4e4e4"/>
      <text id="Limited_budget" data-name="Limited budget" transform="translate(218.965 3684)" font-size="18" font-family="SegoeUI-Bold, Segoe UI" font-weight="700"><tspan x="0" y="0">Limited budget</tspan></text>
    </g>
    <text id="Changing_requirements" data-name="Changing requirements" transform="translate(238.965 3826)" font-size="18" font-family="SegoeUI-Bold, Segoe UI" font-weight="700"><tspan x="0" y="0">Changing requirements</tspan></text>
    <g id="Group_137" data-name="Group 137" transform="translate(-4 2)">
      <path id="Path_151" data-name="Path 151" d="M221.2,595.022a47.512,47.512,0,0,1,47.512-47.512H618.74l-59.163,59.149-26.6,26.617a31.647,31.647,0,0,1-22.374,9.259H268.754a47.485,47.485,0,0,1-47.512-47.471Z" transform="translate(116.41 3365.49)" fill="#e4e4e4"/>
      <text id="Mis-hires" transform="translate(395.965 3967)" font-size="18" font-family="SegoeUI-Bold, Segoe UI" font-weight="700"><tspan x="0" y="0">Mis-hires</tspan></text>
    </g>
    <text id="OUR_SOLUTIONS" data-name="OUR
SOLUTIONS" transform="translate(997.965 3602)" font-size="32" font-family="SegoeUI-Bold, Segoe UI" font-weight="700"><tspan x="0" y="0">OUR</tspan><tspan x="0" y="43">SOLUTIONS</tspan></text>
    <text id="YOUR_PROBLEMS" data-name="YOUR
PROBLEMS" transform="translate(920.965 3604)" font-size="32" font-family="SegoeUI-Bold, Segoe UI" font-weight="700"><tspan x="-86.922" y="0">YOUR</tspan><tspan x="-166.969" y="43">PROBLEMS</tspan></text>
    <g id="Group_133" data-name="Group 133" transform="translate(-5 3)">
      <path id="Path_208" data-name="Path 208" d="M203.9,82.379A47.54,47.54,0,0,0,251.44,129.9H601.523L542.361,70.756l-26.6-26.617a31.509,31.509,0,0,0-22.374-9.259H251.537a47.5,47.5,0,0,0-47.5,47.5H203.9Z" transform="translate(109.803 3170.12)" fill="#d4a437"/>
      <text id="Burdening_IT_expenses" data-name="Burdening IT expenses" transform="translate(363.965 3259)" font-size="18" font-family="SegoeUI-Bold, Segoe UI" font-weight="700"><tspan x="0" y="0">Burdening IT expenses</tspan></text>
    </g>
  </g>
</svg>
