<svg xmlns="http://www.w3.org/2000/svg" viewBox="0 0 684.96 431.22"><defs><style>.cls-1{fill:#e0e0e0;}.cls-2{fill:#fafafa;}.cls-3{fill:#ebebeb;}.cls-4{fill:#f5f5f5;}.cls-5{fill:#263238;}.cls-6{fill:#455a64;}.cls-7{fill:#e3a624;}.cls-8{opacity:0.3;}.cls-13,.cls-9{fill:#fff;}.cls-10{fill:#ffbe9d;}.cls-11{fill:#eb996e;}.cls-12,.cls-13{opacity:0.6;}.cls-14{opacity:0.1;}.cls-15{fill:#b78876;}.cls-16{fill:#aa6550;}.cls-17{opacity:0.4;}</style></defs><g id="Background_Complete" data-name="Background Complete"><rect class="cls-1" x="448.8" y="245.65" width="5.62" height="42.05" transform="translate(184.93 718.28) rotate(-90)"/><path class="cls-2" d="M436.31,264.1a12.94,12.94,0,0,1,0,5.26,13.43,13.43,0,0,1,0-5.26Z"/><path class="cls-2" d="M435.4,264a13.48,13.48,0,0,1,0,5.27,13,13,0,0,1,0-5.27Z"/><path class="cls-2" d="M469.38,264.1a13.43,13.43,0,0,1,0,5.26,12.94,12.94,0,0,1,0-5.26Z"/><ellipse class="cls-2" cx="468.46" cy="266.61" rx="0.26" ry="2.63"/><path class="cls-2" d="M463,266.84a107,107,0,0,1-10.75.27,107,107,0,0,1-10.76-.27c0-.14,4.81-.26,10.76-.26S463,266.7,463,266.84Z"/><rect class="cls-1" x="445.81" y="273.75" width="11.23" height="42.05" transform="translate(156.65 746.2) rotate(-90)"/><path class="cls-2" d="M473,297.23l-.23.13c-.16.08-.39.19-.7.32a12.61,12.61,0,0,1-2.85.82,7.48,7.48,0,0,1-4.63-.66,6.27,6.27,0,0,1-2.2-2,4.65,4.65,0,0,1-.76-3.24,3.41,3.41,0,0,1,.77-1.67,2.21,2.21,0,0,1,1.78-.81,2.56,2.56,0,0,1,1.78,1,3.52,3.52,0,0,1,.81,1.92,5.08,5.08,0,0,1-1.45,4,6.41,6.41,0,0,1-4,2,10.82,10.82,0,0,1-4.69-.59,8.62,8.62,0,0,1-4.1-2.75,4.48,4.48,0,0,1-1-2.43,3.16,3.16,0,0,1,.89-2.52,2.11,2.11,0,0,1,1.32-.58,2.43,2.43,0,0,1,1.37.39,3.67,3.67,0,0,1,1.55,2.27,5.31,5.31,0,0,1-1.66,4.95,8.26,8.26,0,0,1-4.73,1.92,11.57,11.57,0,0,1-4.91-.48,6.78,6.78,0,0,1-3.73-2.9,5,5,0,0,1-.47-4.46,2.36,2.36,0,0,1,1.71-1.46,2.73,2.73,0,0,1,2.12.51,3.5,3.5,0,0,1,1,3.79,6.53,6.53,0,0,1-2.11,3,9.64,9.64,0,0,1-5.77,2.24,9.3,9.3,0,0,1-4.57-1,9.08,9.08,0,0,1-2.38-1.77,7.14,7.14,0,0,1-.5-.58c-.11-.14-.16-.21-.15-.22a10.44,10.44,0,0,0,3.12,2.38,9.08,9.08,0,0,0,10-1.3,6.13,6.13,0,0,0,2-2.82,3.1,3.1,0,0,0-.87-3.32,2.32,2.32,0,0,0-1.77-.41,1.87,1.87,0,0,0-1.37,1.19,4.51,4.51,0,0,0,.46,4,6.24,6.24,0,0,0,3.47,2.67,11.34,11.34,0,0,0,4.69.45,7.87,7.87,0,0,0,4.44-1.8,4.77,4.77,0,0,0,1.49-4.44,3.11,3.11,0,0,0-1.31-1.94,1.61,1.61,0,0,0-2.05.12,2.66,2.66,0,0,0-.73,2.11,4,4,0,0,0,.85,2.15,8.22,8.22,0,0,0,3.84,2.59,10.33,10.33,0,0,0,4.47.57,5.91,5.91,0,0,0,3.76-1.81,4.64,4.64,0,0,0,1.36-3.61,2.7,2.7,0,0,0-2.19-2.52,1.78,1.78,0,0,0-1.45.66,3,3,0,0,0-.7,1.47,4.22,4.22,0,0,0,.68,3,5.84,5.84,0,0,0,2.05,1.92,7.25,7.25,0,0,0,4.46.71,13.26,13.26,0,0,0,2.84-.71C472.65,297.35,473,297.21,473,297.23Z"/><rect class="cls-3" x="443.56" y="260.24" width="19.49" height="38.29" transform="translate(173.91 732.69) rotate(-90)"/><path class="cls-1" d="M440.52,270.31a87.05,87.05,0,0,1,.26,9.44,86.79,86.79,0,0,1-.26,9.43,82.3,82.3,0,0,1-.27-9.43A82.56,82.56,0,0,1,440.52,270.31Z"/><path class="cls-1" d="M443.42,270.07a80.28,80.28,0,0,1,.27,9.31,80.39,80.39,0,0,1-.27,9.32,84.77,84.77,0,0,1-.26-9.32A84.65,84.65,0,0,1,443.42,270.07Z"/><path class="cls-1" d="M468.12,269.44a94.06,94.06,0,0,1,.26,9.81,93.9,93.9,0,0,1-.26,9.81,89,89,0,0,1-.27-9.81A89.2,89.2,0,0,1,468.12,269.44Z"/><path class="cls-1" d="M464.71,269.71a89.1,89.1,0,0,1,.26,9.55,89.22,89.22,0,0,1-.26,9.56,84.61,84.61,0,0,1-.27-9.56A84.5,84.5,0,0,1,464.71,269.71Z"/><rect class="cls-1" x="206.18" y="47.73" width="258.14" height="171.23"/><path class="cls-4" d="M0,60.24a43.74,43.74,0,1,1,44.43,43.23A43.9,43.9,0,0,1,0,60.24Zm64.64-1A20.91,20.91,0,1,0,44.07,80.55,21,21,0,0,0,64.65,59.2Z"/><path class="cls-1" d="M0,60.24A43.9,43.9,0,0,1,43,15.6l.36,22.93a21,21,0,0,0,.67,42l.37,22.92A43.87,43.87,0,0,1,0,60.24Z"/><path class="cls-3" d="M39.11,12.08c28.21-.46,50.72,21.44,51.17,49.78l-26.7.43c-.22-13.55-10.53-22.08-24-21.87Z"/><path class="cls-4" d="M209.24,412.65c-1.12-1-3.63-4-1.7-7.57.71-1.3,2.22-1.95,3.58-2.52a14.45,14.45,0,0,0,3.92-2c2.13-1.81,2.71-4.82,4.13-7.23,1.62-2.77,4.64-4.85,7.84-4.7,3.66.16,6.71,3.15,8.09,6.56s1.44,7.19,1.46,10.87c0,2-.07,4.33-1.56,5.71s-3.46,1.28-5.32,1.22l-20-.61"/><path class="cls-1" d="M247.49,357.65h-52.6l9.48,56.5a6.3,6.3,0,0,0,4.49,5l.18.05c.16,0,.31.09.47.12a6.37,6.37,0,0,0,1.07.12v.06l.26,0h23.44a6.88,6.88,0,0,0,1.29-.13,6.34,6.34,0,0,0,5.32-5.52l4.57-38.93.2-1.55h0L247.46,358Zm-9.92,36h-5.4l.55-16.4H239Zm1.92-16.4h5.17l-1.92,16.4h-4.65Zm-15.42,34.58-.32-14.25h7.77l-.47,14.25Zm-8.4-14.25h7.55l.33,14.25h-6.77Zm.58,14.25h-6.33c-.6-3.85-1.38-8.85-2.23-14.25h7.46Zm-.89-18.18-1.27-16.4h8.66l.38,16.4Zm8.29,0-.37-16.4h8.91l-.54,16.4Zm-.46-20.33-.35-15.18h10l-.51,15.18Zm-.53,0h-8.88l-1.18-15.18h9.71Zm-9.4,0h-9.39c-.34-2.1-.65-4.08-.94-5.87-1-6.14-1.35-8.44-1.55-9.31h10.7Zm.31,3.93,1.27,16.4h-7.77c-.26-1.66-.52-3.35-.79-5l-1.79-11.37Zm-7,16.4h-5.07l-2.75-16.4H204C204.76,382.36,205.65,388,206.54,393.69Zm.62,3.93c.77,4.93,1.54,9.79,2.23,14.25h-4.87l-2.39-14.25Zm24.41,14.25.47-14.25h5.19L236,411.87Zm1.28-38.51.5-15.18h7.25l-1.29,15.18Zm-32-15.18c.21,1.1,1.17,7.07,2.46,15.18h-5.28l-2.55-15.18Zm39.73,53.69h-4.07l1.22-14.25h4.52Zm4.51-38.51h-5.29l1.3-15.18h5.78Z"/><rect class="cls-1" x="616.79" y="74.42" width="11.33" height="45.24"/><rect class="cls-1" x="633.45" y="84.29" width="11.33" height="35.37"/><rect class="cls-1" x="650.36" y="92.37" width="11.33" height="27.29"/><rect class="cls-1" x="666.02" y="103.46" width="11.33" height="16.21"/><path class="cls-4" d="M659.12,175.92a39.2,39.2,0,0,0-55.1,1.87,38.62,38.62,0,0,0,1.88,54.76,39.19,39.19,0,0,0,55.1-1.86A38.63,38.63,0,0,0,659.12,175.92Zm-13,41a18.74,18.74,0,0,1-26.34.89,18.47,18.47,0,0,1-.9-26.19,18.74,18.74,0,0,1,26.34-.89A18.47,18.47,0,0,1,646.13,216.89Z"/><path class="cls-3" d="M604,177.79a39.2,39.2,0,0,1,55.1-1.87L645.23,190.7a18.74,18.74,0,0,0-26.34.89,18.47,18.47,0,0,0,.9,26.19L605.9,232.55A38.62,38.62,0,0,1,604,177.79Z"/><path class="cls-2" d="M657.53,169.59c19.24,17.87,21.54,46.91,3.57,66l-19.52-16.91c8.59-9.15,10.46-21.36,1.26-29.9Z"/><rect class="cls-1" x="129.18" y="240.02" width="110.45" height="31.11" rx="3.23"/><ellipse class="cls-4" cx="147.21" cy="256.53" rx="6.73" ry="6.76"/><path class="cls-1" d="M151,254.24a27.84,27.84,0,0,1-3.62,3.91l-.89.86-.18.18-.18-.18a19.42,19.42,0,0,1-2.7-3.07,18.45,18.45,0,0,1,3.06,2.71h-.36l.88-.87A27.38,27.38,0,0,1,151,254.24Z"/><path class="cls-2" d="M228.76,253.2c0,.14-14.82.26-33.1.26s-33.12-.12-33.12-.26,14.83-.27,33.12-.27S228.76,253.05,228.76,253.2Z"/><path class="cls-2" d="M229.06,258.83c0,.14-14.83.26-33.11.26s-33.11-.12-33.11-.26,14.82-.26,33.11-.26S229.06,258.69,229.06,258.83Z"/><polygon class="cls-4" points="577.86 262.93 575.84 419.93 666.17 419.93 666.17 265.07 577.86 262.93"/><polygon class="cls-1" points="626.52 264.11 625.72 419.93 666.17 419.93 666.17 265.07 626.52 264.11"/><polygon class="cls-1" points="580.7 265.76 580.7 297.87 623.49 297.87 623.49 267.27 580.7 265.76"/><polygon class="cls-4" points="595.45 274.59 595.45 279.33 608.54 279.33 608.54 274.16 595.45 274.59"/><rect class="cls-4" x="595.45" y="283.32" width="13.52" height="1.94"/><polygon class="cls-1" points="580.7 378.29 580.7 410.4 623.49 410.4 623.49 379.8 580.7 378.29"/><polygon class="cls-4" points="595.45 387.12 595.45 391.86 608.54 391.86 608.54 386.69 595.45 387.12"/><rect class="cls-4" x="595.45" y="395.85" width="13.52" height="1.94"/><polygon class="cls-1" points="580.7 301.96 580.7 334.07 623.49 334.07 623.49 303.47 580.7 301.96"/><polygon class="cls-4" points="595.45 310.79 595.45 315.53 608.54 315.53 608.54 310.36 595.45 310.79"/><rect class="cls-4" x="595.45" y="319.52" width="13.52" height="1.94"/><rect class="cls-1" x="580.14" y="340.41" width="42.79" height="32.11"/><polygon class="cls-4" points="595.18 354.88 595.18 359.34 607.48 359.34 607.48 354.47 595.18 354.88"/><rect class="cls-4" x="595.18" y="363.09" width="12.71" height="1.82"/></g><g id="Floor"><path class="cls-5" d="M669.56,418.57c0,.14-148.1.26-330.76.26S8,418.71,8,418.57s148.07-.26,330.79-.26S669.56,418.43,669.56,418.57Z"/></g><g id="Screens"><rect class="cls-2" x="190.71" y="52.03" width="267.33" height="175.35"/><path class="cls-5" d="M458,227.38c0-1.69-.08-68.4-.2-175.35l.2.21-267.3,0h0L191,52c0,62.36,0,121.7,0,175.35l-.23-.24,267.32.24-267.32.24h-.24v-.24c0-53.65,0-113,0-175.35v-.26h.29l267.3.06h.21V52C458.12,159,458,225.69,458,227.38Z"/><path class="cls-6" d="M272.4,148.86l26.3.36c-.2,14-12,25.44-26.3,25.44h-.15Z"/><path class="cls-5" d="M315.88,184.46a1.88,1.88,0,0,1-.56,0l-1.61,0-5.87.07h-.08l0-.06L299,173.63l-7-8.91.13.06-7.73-.07-2.17-.05a3.44,3.44,0,0,1-.76,0,3.44,3.44,0,0,1,.76-.05l2.17-.05,7.73-.07h.09l.05.06,7,8.88,8.6,11-.12-.06,5.87.07,1.61,0A3,3,0,0,1,315.88,184.46Z"/><path class="cls-5" d="M325.31,187.5c0,.11-3.81.2-8.5.2s-8.51-.09-8.51-.2,3.81-.21,8.51-.21S325.31,187.39,325.31,187.5Z"/><path class="cls-5" d="M325.31,190.65c0,.11-3.81.2-8.5.2s-8.51-.09-8.51-.2,3.81-.2,8.51-.2S325.31,190.54,325.31,190.65Z"/><path class="cls-7" d="M268.25,145.12l-.37,25.79c-14.29-.19-25.93-11.78-25.93-25.79s11.87-25.79,26.3-25.79,26.29,11.64,26.29,25.79Z"/><path class="cls-5" d="M258,136.68a1.44,1.44,0,0,1-.46.11l-1.31.21-4.72.66h-.08l0,0-6.31-6.13c-3-3-5.75-5.67-7.7-7.65L235,121.5a9.44,9.44,0,0,1-.8-.9,7.08,7.08,0,0,1,.91.78l2.4,2.26c2,1.92,4.76,4.59,7.79,7.56l6.25,6.18-.14,0,4.74-.53,1.32-.12A2.41,2.41,0,0,1,258,136.68Z"/><path class="cls-5" d="M227.58,119.46c0,.11-3.81.2-8.51.2s-8.51-.09-8.51-.2,3.81-.2,8.51-.2S227.58,119.35,227.58,119.46Z"/><path class="cls-5" d="M227.58,122.61c0,.11-3.81.2-8.51.2s-8.51-.09-8.51-.2,3.81-.2,8.51-.2S227.58,122.5,227.58,122.61Z"/><path class="cls-7" d="M360.24,94.16l-.11-16a20.47,20.47,0,0,0-13.22,5.16,19,19,0,0,0-6.37,16.6,22.05,22.05,0,0,0,.37,2.33.11.11,0,0,1,0,0h0l19.32-4.34Z"/><g class="cls-8"><path class="cls-9" d="M360.24,94.16l-.11-16a20.47,20.47,0,0,0-13.22,5.16,19,19,0,0,0-6.37,16.6,22.05,22.05,0,0,0,.37,2.33.11.11,0,0,1,0,0h0l19.32-4.34Z"/></g><path class="cls-7" d="M380.14,89.23a19,19,0,0,0-15.58-10.92l-.62,0-.39,0c-.38,0-.77,0-1.16,0h-.1l.1,16,0,3.76,19.31,4.22h0a19.82,19.82,0,0,0,.43-4.15A20.87,20.87,0,0,0,380.14,89.23Z"/><g class="cls-8"><path d="M380.14,89.23a19,19,0,0,0-15.58-10.92l-.62,0-.39,0c-.38,0-.77,0-1.16,0h-.1l.1,16,0,3.76,19.31,4.22h0a19.82,19.82,0,0,0,.43-4.15A20.87,20.87,0,0,0,380.14,89.23Z"/></g><path class="cls-7" d="M361.27,99.93,342,104.27a19.8,19.8,0,0,0,38.66-.13L361.3,99.93"/><path class="cls-5" d="M436.45,97c0,.15-10,.26-22.3.26s-22.3-.11-22.3-.26,10-.26,22.3-.26S436.45,96.9,436.45,97Z"/><path class="cls-5" d="M436.45,92c0,.14-10,.26-22.3.26s-22.3-.12-22.3-.26,10-.26,22.3-.26S436.45,91.82,436.45,92Z"/><path class="cls-5" d="M436.45,86.87c0,.15-10,.27-22.3.27s-22.3-.12-22.3-.27,10-.26,22.3-.26S436.45,86.73,436.45,86.87Z"/><path class="cls-5" d="M436.45,101.77c0,.15-10,.26-22.3.26s-22.3-.11-22.3-.26,10-.26,22.3-.26S436.45,101.63,436.45,101.77Z"/><path class="cls-5" d="M422.64,106.92c0,.14-6.86.26-15.32.26s-15.31-.12-15.31-.26,6.85-.26,15.31-.26S422.64,106.78,422.64,106.92Z"/><rect class="cls-7" x="345.07" y="143.72" width="4.59" height="51.31"/><rect class="cls-7" x="353.94" y="161.15" width="4.59" height="33.88"/><rect class="cls-7" x="362.81" y="150.1" width="4.59" height="45.19"/><rect class="cls-7" x="371.68" y="145.7" width="4.59" height="49.33"/><rect class="cls-7" x="380.55" y="162.19" width="4.59" height="32.84"/><rect class="cls-7" x="389.42" y="168.63" width="4.59" height="26.4"/><rect class="cls-7" x="398.29" y="148.99" width="4.59" height="46.04"/><rect class="cls-7" x="407.16" y="157.29" width="4.59" height="37.74"/><rect class="cls-7" x="416.03" y="150.66" width="4.59" height="44.37"/><rect class="cls-7" x="424.9" y="164.8" width="4.59" height="30.23"/><rect class="cls-7" x="433.77" y="159.05" width="4.59" height="35.98"/><path class="cls-5" d="M440.24,198.61c0,.1-21.79.18-48.67.18s-48.67-.08-48.67-.18,21.78-.19,48.67-.19S440.24,198.5,440.24,198.61Z"/><path class="cls-5" d="M351.63,202.64a30.7,30.7,0,0,1-6.82,0,32.39,32.39,0,0,1,6.82,0Z"/><path class="cls-5" d="M362.93,202.85a43.69,43.69,0,0,1-8.14,0,43.69,43.69,0,0,1,8.14,0Z"/><path class="cls-5" d="M372.58,202.85a43.79,43.79,0,0,1-8.15,0,43.79,43.79,0,0,1,8.15,0Z"/><path class="cls-5" d="M382.23,202.85a43.79,43.79,0,0,1-8.15,0,43.79,43.79,0,0,1,8.15,0Z"/><path class="cls-5" d="M391.87,202.85a43.79,43.79,0,0,1-8.15,0,43.79,43.79,0,0,1,8.15,0Z"/><path class="cls-5" d="M401.52,202.85a43.79,43.79,0,0,1-8.15,0,43.79,43.79,0,0,1,8.15,0Z"/><path class="cls-5" d="M411.17,202.85a43.79,43.79,0,0,1-8.15,0,43.79,43.79,0,0,1,8.15,0Z"/><path class="cls-5" d="M420.81,202.85a43.79,43.79,0,0,1-8.15,0,43.79,43.79,0,0,1,8.15,0Z"/><path class="cls-5" d="M430.46,202.85a43.79,43.79,0,0,1-8.15,0,43.79,43.79,0,0,1,8.15,0Z"/><path class="cls-5" d="M440.1,202.85a43.79,43.79,0,0,1-8.15,0,43.79,43.79,0,0,1,8.15,0Z"/><g class="cls-8"><rect class="cls-9" x="353.94" y="161.15" width="4.59" height="33.88"/></g><g class="cls-8"><rect class="cls-9" x="371.68" y="145.7" width="4.59" height="49.33"/></g><g class="cls-8"><rect class="cls-9" x="389.42" y="168.63" width="4.59" height="26.4"/></g><g class="cls-8"><rect class="cls-9" x="407.16" y="157.29" width="4.59" height="37.74"/></g><g class="cls-8"><rect class="cls-9" x="424.9" y="164.8" width="4.59" height="30.23"/></g><path class="cls-7" d="M223.18,85a4.42,4.42,0,1,1-4.42-4.42A4.42,4.42,0,0,1,223.18,85Z"/><path class="cls-7" d="M299.21,81.5c0,.15-14.91.26-33.3.26s-33.3-.11-33.3-.26,14.91-.26,33.3-.26S299.21,81.36,299.21,81.5Z"/><path class="cls-7" d="M259.35,86.85a3.77,3.77,0,0,1-1,.1c-.67,0-1.63.06-2.82.08-2.37,0-5.65.08-9.28.08s-6.9,0-9.28-.08c-1.19,0-2.15,0-2.81-.08a3.69,3.69,0,0,1-1-.1,3.69,3.69,0,0,1,1-.1c.66,0,1.62-.06,2.81-.08,2.38,0,5.66-.08,9.28-.08s6.91,0,9.28.08c1.19,0,2.15,0,2.82.08A3.77,3.77,0,0,1,259.35,86.85Z"/><rect class="cls-2" x="45.35" y="67.9" width="139.91" height="159.68"/><path class="cls-5" d="M185.26,227.58s0-.26,0-.76,0-1.24,0-2.22c0-2,0-4.85,0-8.61,0-7.54,0-18.57-.06-32.58,0-28-.07-67.89-.12-115.5l.23.22-139.9,0h0l.26-.26c0,58.87,0,113.76,0,159.67l-.22-.22,101.48.12,28.37.05,7.48,0,2.58,0-2.53,0-7.44,0-28.32.06-101.62.11h-.22v-.22c0-45.91,0-100.8,0-159.67v-.27h.27l139.9,0h.23v.24c-.05,47.67-.09,87.61-.12,115.64,0,14,0,25-.06,32.53,0,3.75,0,6.63,0,8.58,0,1,0,1.69,0,2.19S185.26,227.58,185.26,227.58Z"/><path class="cls-7" d="M173.23,149.44c0,.09-1.55-.78-4.5-1.71a28.81,28.81,0,0,0-12.9-1,28.17,28.17,0,0,0-8.51,2.74,40.13,40.13,0,0,0-8.36,6c-2.75,2.43-5.47,5.17-8.61,7.72a29.76,29.76,0,0,1-11,5.94,16.6,16.6,0,0,1-6.42.39,20.76,20.76,0,0,1-5.94-1.84,100.36,100.36,0,0,1-10-5.92,31.07,31.07,0,0,0-9.37-4.2,27.94,27.94,0,0,0-8.91-.68,28.7,28.7,0,0,0-12.29,4c-2.64,1.62-3.89,2.83-4,2.75a5.91,5.91,0,0,1,.9-.88,19.72,19.72,0,0,1,2.86-2.18,28.1,28.1,0,0,1,21.59-3.78,31.62,31.62,0,0,1,9.64,4.22,106.79,106.79,0,0,0,9.89,5.82,16.92,16.92,0,0,0,11.73,1.38,29.21,29.21,0,0,0,10.64-5.75c3.09-2.49,5.83-5.22,8.61-7.65A40.46,40.46,0,0,1,147,148.8a28.66,28.66,0,0,1,8.78-2.7,28.17,28.17,0,0,1,13.11,1.28,22.81,22.81,0,0,1,3.31,1.42A5.55,5.55,0,0,1,173.23,149.44Z"/><rect class="cls-7" x="83.86" y="170.88" width="11.89" height="32.17"/><rect class="cls-7" x="134.33" y="170.88" width="11.89" height="32.17"/><rect class="cls-7" x="151.16" y="151.99" width="11.89" height="51.06"/><rect class="cls-7" x="68.47" y="192.93" width="11.89" height="10.83"/><rect class="cls-7" x="100.68" y="185.41" width="11.9" height="17.64"/><rect class="cls-7" x="117.51" y="181.36" width="11.89" height="21.69"/><path class="cls-5" d="M96.23,206.85c0,.26-2.87.47-6.42.47s-6.43-.21-6.43-.47,2.88-.48,6.43-.48S96.23,206.58,96.23,206.85Z"/><path class="cls-5" d="M81.43,206.85c0,.26-2.88.47-6.42.47s-6.43-.21-6.43-.47,2.88-.48,6.43-.48S81.43,206.58,81.43,206.85Z"/><path class="cls-5" d="M165.4,206.85c0,.26-3.26.47-7.27.47s-7.26-.21-7.26-.47,3.25-.48,7.26-.48S165.4,206.58,165.4,206.85Z"/><ellipse class="cls-5" cx="140.46" cy="206.85" rx="7.26" ry="0.48"/><path class="cls-5" d="M129.4,206.85c0,.26-2.88.47-6.42.47s-6.43-.21-6.43-.47,2.88-.48,6.43-.48S129.4,206.58,129.4,206.85Z"/><path class="cls-5" d="M112,206.85c0,.26-2.88.47-6.43.47s-6.42-.21-6.42-.47,2.87-.48,6.42-.48S112,206.58,112,206.85Z"/><rect class="cls-1" x="68.19" y="91.18" width="97.21" height="40.37"/><path class="cls-5" d="M88.38,103.94a4.53,4.53,0,1,1-4.53-4.53A4.53,4.53,0,0,1,88.38,103.94Z"/><rect class="cls-5" x="92.91" y="100.81" width="31.58" height="1.75"/><rect class="cls-9" x="92.91" y="104.8" width="61.43" height="1.75"/><path class="cls-7" d="M88.38,117.88a4.53,4.53,0,1,1-4.53-4.54A4.53,4.53,0,0,1,88.38,117.88Z"/><rect class="cls-7" x="92.91" y="114.74" width="16.12" height="1.75"/><rect class="cls-9" x="92.91" y="118.73" width="61.43" height="1.75"/><rect class="cls-2" x="471.15" y="39.24" width="153.64" height="175.35"/><path class="cls-5" d="M624.79,214.59s0-.29,0-.84,0-1.36,0-2.43c0-2.15,0-5.33,0-9.46,0-8.28,0-20.39-.06-35.78,0-30.74-.07-74.55-.12-126.84l.23.23-153.62,0h0l.26-.26c0,64.65,0,124.93,0,175.35l-.22-.22,111.45.11,31.15.06,8.21,0,2.83,0-2.78,0-8.17,0-31.11.05-111.58.12h-.22v-.22c0-50.42,0-110.7,0-175.35V39h.28l153.62,0H625v.23c0,52.35-.09,96.21-.11,127,0,15.36,0,27.46-.07,35.72,0,4.12,0,7.28,0,9.42l0,2.41C624.8,214.32,624.79,214.59,624.79,214.59Z"/><rect class="cls-1" x="483.44" y="53.26" width="124.46" height="99.85"/><rect class="cls-5" x="492.14" y="135.35" width="4.08" height="1.18"/><rect class="cls-5" x="501.38" y="141.65" width="5.22" height="1.18"/><rect class="cls-5" x="519.57" y="141.65" width="5.22" height="1.18"/><rect class="cls-5" x="537.75" y="141.65" width="5.22" height="1.18"/><rect class="cls-5" x="555.94" y="141.65" width="5.22" height="1.18"/><rect class="cls-5" x="574.12" y="141.65" width="5.22" height="1.18"/><rect class="cls-5" x="592.31" y="141.65" width="5.22" height="1.18"/><rect class="cls-5" x="492.14" y="119.63" width="4.08" height="1.18"/><rect class="cls-5" x="492.14" y="90.04" width="4.08" height="1.18"/><rect class="cls-5" x="492.14" y="75.17" width="4.08" height="1.18"/><rect class="cls-5" x="492.35" y="104.84" width="4.08" height="1.18"/><path class="cls-5" d="M597.38,136.53a2.3,2.3,0,0,1-.43,0l-1.29,0-4.94,0-18.18.09-60,.07H498.1v-.26c0-20,.06-37.69.09-50.35,0-6.3.06-11.36.07-14.87,0-1.72,0-3.06.05-4,0-.44,0-.78,0-1a1.6,1.6,0,0,1,0-.35s0,.12,0,.35,0,.6,0,1c0,.94,0,2.28.05,4,0,3.51,0,8.57.07,14.87,0,12.66.06,30.3.09,50.35l-.25-.26h14.21l60,.08,18.18.08,4.94,0,1.29,0A2.3,2.3,0,0,1,597.38,136.53Z"/><path class="cls-5" d="M598.54,105.43c0,.14-21.55.26-48.12.26s-48.11-.12-48.11-.26,21.54-.26,48.11-.26S598.54,105.28,598.54,105.43Z"/><path class="cls-5" d="M598.54,90.63c0,.15-21.55.26-48.12.26s-48.11-.11-48.11-.26,21.54-.26,48.11-.26S598.54,90.49,598.54,90.63Z"/><path class="cls-5" d="M598.54,75.76c0,.15-21.55.26-48.12.26s-48.11-.11-48.11-.26,21.54-.26,48.11-.26S598.54,75.62,598.54,75.76Z"/><path class="cls-5" d="M598.54,120.22c0,.15-21.55.26-48.12.26s-48.11-.11-48.11-.26,21.54-.26,48.11-.26S598.54,120.08,598.54,120.22Z"/><path class="cls-6" d="M503.3,133.35V120.22l8.18-12.7,5.55,4.26,11.4-17.7,6.72,4.73,9.35-16.33,7.6,6.19L563.49,67l12.27,24.21,9.94-12.11,11.68-3.35v57.59Z"/><path class="cls-7" d="M598.54,71.1s-.07,0-.21,0l-.61,0-2.37,0-9,.07.11-.06L576.9,83.76l-.06.08h-.11l-24.06,0,.22-.12-10.12,16.84c-3.44,5.73-6.78,11.27-9.93,16.5l-.2.33-.22-.31c-4.75-6.53-9.14-12.58-13-17.93h.35c-5,7.7-9.05,14.06-11.91,18.52-1.43,2.18-2.55,3.91-3.33,5.11l-.89,1.33c-.2.3-.32.45-.32.45s.08-.17.27-.48l.83-1.37,3.23-5.17c2.83-4.49,6.87-10.87,11.76-18.61l.16-.27.19.25c3.9,5.34,8.31,11.37,13.09,17.89l-.42,0c3.14-5.24,6.48-10.79,9.92-16.52,3.53-5.88,7-11.56,10.13-16.83l.07-.12h.14l24.06,0-.16.08,9.7-12.5,0-.05h.07l9,.06,2.37,0,.61,0Z"/><path class="cls-7" d="M523.51,103.29a.93.93,0,1,1-.92-.89A.91.91,0,0,1,523.51,103.29Z"/><path class="cls-7" d="M551.27,87.51a.93.93,0,1,1-.93-.89A.91.91,0,0,1,551.27,87.51Z"/><path class="cls-7" d="M572.84,83.64a.93.93,0,0,1-1.85,0,.93.93,0,0,1,1.85,0Z"/><path class="cls-5" d="M602.3,168c0,.14-26.27.26-58.66.26S485,168.09,485,168s26.26-.26,58.66-.26S602.3,167.81,602.3,168Z"/><path class="cls-5" d="M602.3,174.29c0,.15-26.27.26-58.66.26s-58.66-.11-58.66-.26,26.26-.26,58.66-.26S602.3,174.15,602.3,174.29Z"/><path class="cls-5" d="M602.3,180.63c0,.15-26.27.26-58.66.26s-58.66-.11-58.66-.26,26.26-.26,58.66-.26S602.3,180.49,602.3,180.63Z"/><path class="cls-5" d="M602.3,187c0,.14-26.27.26-58.66.26S485,187.12,485,187s26.26-.26,58.66-.26S602.3,186.83,602.3,187Z"/></g><g id="Character_2" data-name="Character 2"><path class="cls-5" d="M556,184.49c3.21-5.39,4.15-12.58,5-18.79.39-2.93,1.07-7.09-1-8.93-2.2-2-2.41-5-4.93-6.51a7.78,7.78,0,0,0-8.36.06"/><path class="cls-10" d="M547.07,203.58h0a8.67,8.67,0,0,1-9.32-8.31c-.18-4.71-.34-9.48-.34-9.48s-7.14-.66-7.66-7.73-.28-23.4-.28-23.4h0a24.64,24.64,0,0,1,24.89,1.61l-.44,24.88v13.38C553.88,199,551.54,203.23,547.07,203.58Z"/><path class="cls-5" d="M536.79,169.42a3.63,3.63,0,0,1,4.84-1,4.11,4.11,0,0,1,1.36,5.14,5.39,5.39,0,0,1-3.46,2.62,2.71,2.71,0,0,0-2.13,2.92c.2,1.78,3.16,2.44,4.49,3.91,2.07,2.29,6.62,3.25,9.68,3.62s2.65.38,4.4-2.09a9.5,9.5,0,0,0,1.72-5.74q.16-7.83.32-15.64a22.39,22.39,0,0,0-.35-5.61,7.52,7.52,0,0,0-3-4.64c-1.72-1.13-3.9-1.23-5.86-1.86-2.45-.79-4.53-2.42-6.82-3.59s-5.1-1.87-7.4-.72c-1.65.83-2.75,2.48-4.36,3.39-2.29,1.3-5.4,1-6.51,4.37a5.72,5.72,0,0,0,0,3.59c1.55,4.57,7.22,6.42,11.3,4.44.08.78-.69,2.5.13,5,.26.78.35,2,1.57,2"/><path class="cls-11" d="M538.06,173.84c.05-.05.29.37.88.33a1.62,1.62,0,0,0,1.32-1.61,1.77,1.77,0,0,0-1.21-1.76c-.58-.21-1-.1-1-.19s.39-.31,1.12-.16a2.07,2.07,0,0,1,1.11.64,2,2,0,0,1,.52,1.5,1.94,1.94,0,0,1-1.84,1.95,1.1,1.1,0,0,1-.79-.39C538,174,538,173.85,538.06,173.84Z"/><path class="cls-6" d="M545.42,152.52s.15-.27.59-.6a4.69,4.69,0,0,1,2.15-.83,6.19,6.19,0,0,1,3.38.51,7.81,7.81,0,0,1,3.12,2.79,16,16,0,0,1,2.2,7.16,18.05,18.05,0,0,1,.18,3.09,18,18,0,0,1-.55-3,17.15,17.15,0,0,0-2.26-6.92,7.52,7.52,0,0,0-2.89-2.64,6.11,6.11,0,0,0-3.14-.59A6,6,0,0,0,545.42,152.52Z"/><path class="cls-6" d="M525.51,159.75s-.1,0-.27,0a1.89,1.89,0,0,1-.7-.31,2.46,2.46,0,0,1-.82-.93,2.31,2.31,0,0,1-.23-1.63,2.7,2.7,0,0,1,1.15-1.65,3.82,3.82,0,0,1,2.24-.44,3.06,3.06,0,0,0,2.13-.54,15.11,15.11,0,0,0,1.73-1.87,8.88,8.88,0,0,1,4.4-2.54,9.46,9.46,0,0,1,4.15-.09,8.35,8.35,0,0,1,2.61,1,3.12,3.12,0,0,1,.8.63,12,12,0,0,0-3.48-1.27,9.38,9.38,0,0,0-4,.2,8.53,8.53,0,0,0-4.14,2.43,15.46,15.46,0,0,1-1.8,1.92,2.85,2.85,0,0,1-1.22.54,5.79,5.79,0,0,1-1.23.07,3.45,3.45,0,0,0-2,.32,2.39,2.39,0,0,0-1,1.37,2.27,2.27,0,0,0,.81,2.31A5.3,5.3,0,0,0,525.51,159.75Z"/><path class="cls-6" d="M544.42,179.42s.36-.17.94-.56a5.84,5.84,0,0,0,1.92-2.15,5.45,5.45,0,0,0-.95-6.27,10.47,10.47,0,0,0-2.21-1.61c-.83-.49-1.67-.93-2.44-1.45a8.28,8.28,0,0,1-3.61-6,7.65,7.65,0,0,1,.23-3,5.32,5.32,0,0,1,.28-.78c.08-.17.13-.25.15-.25a10.3,10.3,0,0,0-.29,4,8.38,8.38,0,0,0,1.67,3.94A7.66,7.66,0,0,0,542,167c.74.5,1.57.94,2.41,1.43a10,10,0,0,1,2.31,1.71,5.6,5.6,0,0,1,1.38,2.33,5.71,5.71,0,0,1-.46,4.47,5.54,5.54,0,0,1-2.15,2.14A2.33,2.33,0,0,1,544.42,179.42Z"/><path class="cls-6" d="M556.68,169.05a2.81,2.81,0,0,1-.91.2,12.82,12.82,0,0,1-2.54.08,15.8,15.8,0,0,1-7.89-2.71,12.48,12.48,0,0,1-5.17-6.51,5.45,5.45,0,0,1-.11-2.56,2.11,2.11,0,0,1,.35-.87,6.31,6.31,0,0,0,.11,3.33,12.86,12.86,0,0,0,5.12,6.18,16.55,16.55,0,0,0,7.62,2.77C555.36,169.19,556.67,168.94,556.68,169.05Z"/><path class="cls-5" d="M557.81,164.21a12.47,12.47,0,0,1,9.74-4.42c3.69.21,7.28,2.75,8.18,6.33.68,2.7-.15,5.5-.5,8.26s0,6,2.24,7.61c1.35,1,3.11,1.16,4.73,1.56s3.37,1.21,3.93,2.79c.64,1.81-.68,3.86-2.44,4.63a9,9,0,0,1-5.65.08,4.73,4.73,0,0,1-2.1,5.66,6.25,6.25,0,0,1-6.28-.26,9.39,9.39,0,0,1-3.84-5.2c-1.2,2.13-4.39,2.58-6.43,1.22a6.76,6.76,0,0,1-2.6-6.46,12.58,12.58,0,0,1,3.26-6.46,16.27,16.27,0,0,0,2.28-2.9,3.7,3.7,0,0,0,.14-3.53,2.14,2.14,0,0,0-3.15-.64"/><path class="cls-7" d="M562.06,171.62a2.43,2.43,0,0,1-2.12,0,5.12,5.12,0,0,1-3.09-4,5.22,5.22,0,0,1,.34-2.86,5.55,5.55,0,0,1,1.35-1.92,3.46,3.46,0,0,1,1.86-1,14.49,14.49,0,0,0-1.6,1.3,5.22,5.22,0,0,0-1.43,4.44,5,5,0,0,0,2.71,3.77A4.76,4.76,0,0,0,562.06,171.62Z"/><path class="cls-11" d="M537.17,185.68a3.45,3.45,0,0,1-1.61-.16,8.72,8.72,0,0,1-5.73-5.06,3.45,3.45,0,0,1-.36-1.58,9.36,9.36,0,0,1,.7,1.43,10.05,10.05,0,0,0,2.29,2.95,10.26,10.26,0,0,0,3.21,1.91A8.56,8.56,0,0,1,537.17,185.68Z"/><path class="cls-6" d="M564.39,191.47s-.12,0-.34-.05a3.25,3.25,0,0,1-.93-.41,5,5,0,0,1-2-3,6.27,6.27,0,0,1-.09-2.57,10.64,10.64,0,0,1,.93-2.79c.89-1.86,2.3-3.63,3.34-5.69a10.26,10.26,0,0,0,1-3.14,5.94,5.94,0,0,0-.34-3,6.06,6.06,0,0,0-3.58-3.55,6.6,6.6,0,0,0-3.5-.22c-.83.18-1.25.41-1.27.37s.09-.09.29-.2a5.33,5.33,0,0,1,.93-.36,6.25,6.25,0,0,1,7.58,3.78,6.44,6.44,0,0,1,.4,3.25,10.2,10.2,0,0,1-1.09,3.32c-1.07,2.12-2.48,3.87-3.37,5.67a7.53,7.53,0,0,0-.91,5.05,5,5,0,0,0,1.76,3A9.58,9.58,0,0,0,564.39,191.47Z"/><path class="cls-6" d="M575.06,196.64a1.29,1.29,0,0,1-.45,0,4.76,4.76,0,0,1-1.26-.23,7,7,0,0,1-3.68-2.87,10.87,10.87,0,0,1-1.59-6.73,70.49,70.49,0,0,1,1.36-8.37,19.28,19.28,0,0,0,.3-4.31,11,11,0,0,0-.9-3.86,7.19,7.19,0,0,0-2.16-2.82,7.29,7.29,0,0,0-2.81-1.33,10.34,10.34,0,0,0-4.55,0c-1.06.24-1.63.47-1.65.43a1.44,1.44,0,0,1,.4-.21,9.16,9.16,0,0,1,1.2-.42,10.07,10.07,0,0,1,4.69-.18,7.52,7.52,0,0,1,3,1.35,7.6,7.6,0,0,1,2.32,3,11.31,11.31,0,0,1,1,4,19.53,19.53,0,0,1-.29,4.42,74.73,74.73,0,0,0-1.4,8.31,10.66,10.66,0,0,0,1.42,6.51,7.06,7.06,0,0,0,3.44,2.88A10,10,0,0,0,575.06,196.64Z"/><polygon class="cls-10" points="577.19 228.84 562.13 240.59 568.45 250.97 586.58 237.6 577.19 228.84"/><path class="cls-10" d="M536.91,189.38s.07-1.26-3.21-1.44a33.63,33.63,0,0,0-3.65-.12,8.32,8.32,0,0,1-1.57-3,9.2,9.2,0,0,1,.7-3.09l3.32-.3-.9-2.26-2.34.16-6.62.8L520,191.66,502,225.36A8.7,8.7,0,0,0,505.41,238h0c4.66,2.25,10.92-2.54,12.65-7.42l10-37.49,3.51-2.74,5-.93"/><path class="cls-10" d="M495.75,413.69l24.58-141.41h0l.15-.62v0h0c4.18-16.59,10.63-21.91,10.63-21.91l37.62,2.36c3.2,5.75,3.6,19.55,3.6,19.55.44,1.69-7.94,138.71-7.94,138.71L551.79,410,545,280.36,508.35,414.23Z"/><path class="cls-7" d="M495.46,415l.05-1.28,12.94.38-.11,4.21-.81,0c-3.56.08-18.11.21-20.46-.52C484.44,417,495.46,415,495.46,415Z"/><g class="cls-12"><path class="cls-9" d="M503.67,418.05a4.11,4.11,0,0,1,1.72-2.51,4.58,4.58,0,0,1,3-.79l-.1,3.35Z"/></g><g class="cls-12"><path class="cls-9" d="M490.07,416.11s-3.87.93-3.41,1.53,15.17,1,21.68.63l0-.27-17.16-.31S490.82,416.16,490.07,416.11Z"/></g><path class="cls-5" d="M508.53,418l-.23,0-.63,0-2.35,0c-2,0-4.71,0-7.73-.08s-5.76-.2-7.73-.32l-2.34-.15-.64,0-.22,0h.23l.63,0,2.34.11c2,.09,4.71.2,7.73.28s5.75.1,7.73.11l2.35,0h.86Z"/><path class="cls-5" d="M491.16,417.87a5,5,0,0,0-.41-1.05A4.46,4.46,0,0,0,490,416a1.66,1.66,0,0,1,.91.78A1.5,1.5,0,0,1,491.16,417.87Z"/><path class="cls-5" d="M495,416.18s-.22-.19-.4-.47a1.33,1.33,0,0,1-.26-.54s.22.19.4.47A1.33,1.33,0,0,1,495,416.18Z"/><path class="cls-5" d="M496.07,415.69s-.23-.1-.44-.29-.37-.37-.34-.4.23.1.45.3S496.1,415.67,496.07,415.69Z"/><path class="cls-5" d="M496.77,414.58a1.61,1.61,0,0,1-.68.06,1.54,1.54,0,0,1-.67-.08,1.57,1.57,0,0,1,.68-.06A1.54,1.54,0,0,1,496.77,414.58Z"/><path class="cls-5" d="M497,413.79a1.3,1.3,0,0,1-.76.18,1.49,1.49,0,0,1-.77-.11,4.57,4.57,0,0,1,.76,0A4.31,4.31,0,0,1,497,413.79Z"/><path class="cls-5" d="M494.61,415.12a2.35,2.35,0,0,1-.83,0,5.16,5.16,0,0,1-.87-.21,2.27,2.27,0,0,1-.5-.2.46.46,0,0,1-.2-.25.3.3,0,0,1,.13-.3,1.59,1.59,0,0,1,1.87.46,1.26,1.26,0,0,1,.25.52c0,.13,0,.21,0,.21a2.17,2.17,0,0,0-.36-.67,1.53,1.53,0,0,0-.69-.44,1.41,1.41,0,0,0-1,0c-.13.09-.09.24.06.32a2.13,2.13,0,0,0,.46.2,6.39,6.39,0,0,0,.84.23C494.29,415.09,494.61,415.1,494.61,415.12Z"/><path class="cls-5" d="M494.39,415.16a.82.82,0,0,1-.08-.54,1.25,1.25,0,0,1,.25-.56.85.85,0,0,1,.7-.37.3.3,0,0,1,.24.36.71.71,0,0,1-.15.34,2.69,2.69,0,0,1-.4.46,1.29,1.29,0,0,1-.49.3s.17-.14.41-.38a2.53,2.53,0,0,0,.36-.45c.12-.16.2-.45,0-.49a.76.76,0,0,0-.56.31,1.38,1.38,0,0,0-.25.5A3.24,3.24,0,0,0,494.39,415.16Z"/><path class="cls-5" d="M508.36,414.72a7.93,7.93,0,0,0-.95,0,4.48,4.48,0,0,0-2.1.74,4,4,0,0,0-1.35,1.67c-.21.51-.24.86-.27.85a.62.62,0,0,1,0-.24,2.35,2.35,0,0,1,.16-.64,3.63,3.63,0,0,1,1.36-1.75,4.17,4.17,0,0,1,2.18-.73,4.6,4.6,0,0,1,.71,0A.65.65,0,0,1,508.36,414.72Z"/><path class="cls-5" d="M502.08,416.84a7.75,7.75,0,0,1-1.88.12,7.24,7.24,0,0,1-1.88-.19s.84,0,1.88.05S502.08,416.8,502.08,416.84Z"/><path class="cls-5" d="M504.61,416.9s-.08.17-.17.34-.14.34-.19.34-.06-.2.05-.4S504.58,416.87,504.61,416.9Z"/><path class="cls-5" d="M505.59,415.83s-.06.15-.19.27-.28.2-.31.17.06-.15.2-.27S505.56,415.8,505.59,415.83Z"/><path class="cls-5" d="M507,415.36s-.18,0-.37.09-.33.15-.37.12.08-.19.32-.26S507,415.32,507,415.36Z"/><path class="cls-5" d="M507.94,415.15s-.06.1-.16.13-.21,0-.23,0,.06-.1.17-.14S507.93,415.11,507.94,415.15Z"/><path class="cls-5" d="M558.66,193.36a24.73,24.73,0,0,1,10,3.92c11.9,7.71,31.79,24,30.14,31.56-1.41,6.43-16.92,14.24-16.92,14.24L571.75,231l6.18-3.54-15.18-10.1Z"/><path class="cls-5" d="M565.44,217.9l-.5,1.81-1.74,8.36-.44,12.25c9,11.61,9.16,21.4,9.16,21.4L526.35,267c0-9,3.29-20.34,3.29-20.34,2.64-4.47,2.51-17.85,2-18.34-2.85-2.82-3.54-4.89-1.26-8.5,0,0-14.13,14.84-15.59,16.17-5,4.57-9.79,3.3-12,1.31-6.24-5.57.17-12.75.17-12.75l23.79-27.27a11.77,11.77,0,0,1,6.19-3.77c2.53-.6,5.09-.91,5.09-.91l15.89.14a27,27,0,0,1,4.74.58,11.35,11.35,0,0,1,6.93,8.6C567,208.79,565.44,217.9,565.44,217.9Z"/><path class="cls-6" d="M565.94,207a6.64,6.64,0,0,1,.09,1.32c0,.85,0,2.09-.08,3.61a96.54,96.54,0,0,1-1.57,11.78c-.3,1.55-.61,3.05-.94,4.44v0c-.14,3.54-.28,6.6-.4,8.77-.07,1-.12,1.86-.17,2.55a3.83,3.83,0,0,1-.12.92,5.2,5.2,0,0,1,0-.92c0-.69,0-1.54,0-2.56,0-2.18.11-5.24.22-8.78V228c.31-1.38.62-2.87.92-4.42.87-4.54,1.44-8.7,1.71-11.71.14-1.51.21-2.74.25-3.58A6.4,6.4,0,0,1,565.94,207Z"/><path class="cls-6" d="M566.09,219.23a95.07,95.07,0,0,1,8.32,5.44,92.26,92.26,0,0,1,8,5.87,96.85,96.85,0,0,1-8.32-5.44A94.19,94.19,0,0,1,566.09,219.23Z"/><path class="cls-6" d="M536.63,201.37s.09,0,.23.18a4.11,4.11,0,0,1,.57.62,6.78,6.78,0,0,1,1.23,2.82,9.32,9.32,0,0,1-.26,4.57,18.93,18.93,0,0,1-2.55,5,19.35,19.35,0,0,1-1.88,2.21c-.66.67-1.37,1.22-2,1.79-1.26,1.13-2.35,2.2-3.25,3.11s-1.6,1.68-2.09,2.2a5.32,5.32,0,0,1-.8.79,4.5,4.5,0,0,1,.64-.92c.45-.57,1.12-1.37,2-2.32s1.94-2.06,3.19-3.22c.63-.59,1.33-1.14,2-1.79a17.53,17.53,0,0,0,1.81-2.16,18.76,18.76,0,0,0,2.53-4.81,9.29,9.29,0,0,0,.35-4.35A8.23,8.23,0,0,0,536.63,201.37Z"/><polygon class="cls-6" points="531.33 241.66 531.85 235.53 562.93 235.53 562.76 240.32 531.33 241.66"/><path class="cls-6" d="M504.81,223.38c.06.08-.78.59-1.72,1.8a8.28,8.28,0,0,0,.44,10.86c1,1.13,1.91,1.57,1.86,1.66a2,2,0,0,1-.63-.27,7.08,7.08,0,0,1-1.49-1.13A8.22,8.22,0,0,1,502.8,225a7.13,7.13,0,0,1,1.4-1.25A1.84,1.84,0,0,1,504.81,223.38Z"/><polygon class="cls-7" points="564.37 410.34 567.89 418.54 552.12 418.36 551.78 410 564.37 410.34"/><path class="cls-5" d="M552,416.94a14.57,14.57,0,0,0,2.21.11c1.37,0,3.25,0,5.33,0l5.33-.11a14.5,14.5,0,0,0,2.2-.11,14.36,14.36,0,0,0-2.2-.11c-1.37,0-3.26,0-5.34,0l-5.32.11A14.72,14.72,0,0,0,552,416.94Z"/><path class="cls-5" d="M558.58,410.17a11,11,0,0,0-.07,3.32,11.55,11.55,0,0,0,.43,3.3,11.15,11.15,0,0,0,.07-3.33A11.44,11.44,0,0,0,558.58,410.17Z"/><polyline class="cls-13" points="567.87 418.71 552.1 418.19 552 416.69 567.07 416.82 567.87 418.54"/><path class="cls-7" d="M570.92,253.82c11.86,37.45-3.43,82.91.23,126.55.36,4.28,2.1,9.41-1.9,11.85a6.54,6.54,0,0,1-3.62.89c-3.21-.11-5.88-1.77-8.74-2.91a26,26,0,0,0-17.2-.67c-3.79,1.18-7.54,3.27-11.46,2.67-5.21-.78-8.58-5.93-13.38-8.11-4.49-2-9.67-1.28-14.6-1.41h-.15a11.06,11.06,0,0,1-10.21-14c7.16-26.23,30.92-111.46,41.44-127l31.43-1.34C565.66,243.82,569.39,249.05,570.92,253.82Z"/><path class="cls-5" d="M559.9,271.45a13.24,13.24,0,0,1-1.71,2.15,47.35,47.35,0,0,1-4.64,4.74,31.18,31.18,0,0,1-5.48,3.77,12.93,12.93,0,0,1-2.49,1.16c-.11-.19,3.73-2,7.63-5.32,1.93-1.69,3.53-3.39,4.71-4.6A14.76,14.76,0,0,1,559.9,271.45Z"/><g class="cls-14"><path d="M546,285.58a134,134,0,0,0-5.27,80.16c.57,2.29,1.14,4.89-.16,6.86-1.69,2.54-5.77,2.36-8.08.37s-3.24-5.14-3.82-8.13c-4.31-22.35,3.51-44.8,11.95-65.93"/></g></g><g id="Character_1" data-name="Character 1"><rect class="cls-5" x="308.11" y="298.2" width="59.59" height="2.9"/><polygon class="cls-5" points="298.88 301.1 287.7 259.22 334.23 259.22 344.35 301.1 298.88 301.1"/><polygon class="cls-4" points="341.56 297.93 300 297.93 290.32 261.15 332.1 261.15 341.56 297.93"/><path class="cls-3" d="M291,263.8H332.8l-.7-2.65H290.32Z"/><path class="cls-2" d="M295.53,262.47a.46.46,0,0,0,.46.46.46.46,0,0,0,0-.91A.46.46,0,0,0,295.53,262.47Z"/><path class="cls-2" d="M294,262.47a.46.46,0,1,0,.46-.45A.45.45,0,0,0,294,262.47Z"/><path class="cls-2" d="M292.39,262.47a.45.45,0,0,0,.45.46.46.46,0,1,0,0-.91A.45.45,0,0,0,292.39,262.47Z"/><path class="cls-7" d="M322.42,279.91l4.57,5.24a6.46,6.46,0,0,0,2.81-5.27c0-3.66-3.36-6.66-7.41-6.64s-7.37,3-7.36,6.7Z"/><path class="cls-5" d="M321.84,280.75a9.89,9.89,0,0,1,1.3,1.31c.82.87,2,2.15,3.39,3.72l.15.18-.19.14a7.94,7.94,0,0,1-7.72.76,7.58,7.58,0,0,1-3.17-2.55,6.62,6.62,0,0,1-1.18-3.44v-.23h.23c2.19,0,4,0,5.26,0a12,12,0,0,1,1.94.09,13.22,13.22,0,0,1-2,.15c-1.26.06-3,.13-5.17.18l.22-.23A6.13,6.13,0,0,0,316,284a7.2,7.2,0,0,0,3,2.36,7.55,7.55,0,0,0,7.25-.64l0,.33c-1.33-1.55-2.42-2.86-3.19-3.79A12.37,12.37,0,0,1,321.84,280.75Z"/><path class="cls-5" d="M318.85,276a.42.42,0,0,0,.83,0,.42.42,0,1,0-.83,0Z"/><path class="cls-5" d="M310.62,273a23.91,23.91,0,0,1,4.94-.28h.77l.07.08a19.21,19.21,0,0,1,2.86,3.2,19.68,19.68,0,0,1-3.22-2.84l.18.08h-.66A23.23,23.23,0,0,1,310.62,273Z"/><path class="cls-5" d="M301.26,278.2a14.67,14.67,0,0,1-.47-1.93c-.28-1.27-.68-3.12-1.13-5.4l-.05-.25h.25l10.35-.09c-.06,0,.48.4.25.22h0v0l0,.06,0,.12.05.25.09.49.18,1q.18,1,.36,1.89c.22,1.23.44,2.41.65,3.53l.05.28h-.29c-3.1,0-5.72,0-7.53-.09l-2.1-.05a3,3,0,0,1-.71-.06,4.79,4.79,0,0,1,.8-.06l2.15-.07c1.82-.05,4.38-.11,7.39-.15l-.23.29c-.22-1.12-.44-2.3-.68-3.53-.12-.62-.24-1.25-.37-1.89l-.18-1-.09-.49-.05-.24,0-.13v-.09h0l.26.21H299.87l.2-.26c.4,2.2.7,4,.9,5.33A18.26,18.26,0,0,1,301.26,278.2Z"/><path class="cls-5" d="M318.23,284.29a.42.42,0,0,0,.42.41.42.42,0,0,0,0-.83A.42.42,0,0,0,318.23,284.29Z"/><path class="cls-5" d="M311.14,284.32a13.43,13.43,0,0,1,3.75-.28,13.3,13.3,0,0,1,3.76.25,14.2,14.2,0,0,1-3.76.27A14,14,0,0,1,311.14,284.32Z"/><path class="cls-5" d="M301.3,287.58a9.76,9.76,0,0,1-.46-1.38c-.27-.92-.66-2.28-1.12-4l-.06-.24h.25c2.81-.05,6.56-.09,10.66-.1-.22-.18.31.23.26.19h0v.07l0,.09.05.18.09.35.18.71c.12.46.23.92.35,1.38.23.9.45,1.78.66,2.62l.08.3H312c-3.16,0-5.85,0-7.74-.08l-2.18-.06a3.19,3.19,0,0,1-.74-.06,4.41,4.41,0,0,1,.83-.07l2.23-.08c1.89-.05,4.53-.11,7.6-.14l-.23.31L311,285c-.11-.46-.23-.92-.35-1.38l-.18-.71-.1-.35,0-.18,0-.09,0,0v0h0c-.05,0,.48.37.25.2-4.1,0-7.84,0-10.66,0l.19-.24c.39,1.64.7,3,.91,3.93A14.31,14.31,0,0,1,301.3,287.58Z"/><path class="cls-5" d="M302.08,273.09a24.7,24.7,0,0,1,7.08,0,12,12,0,0,1-3.54.28A11.85,11.85,0,0,1,302.08,273.09Z"/><path class="cls-5" d="M302.17,274.25a12.32,12.32,0,0,1,3.56-.27,12.68,12.68,0,0,1,3.56.24,12.16,12.16,0,0,1-3.56.28A12.78,12.78,0,0,1,302.17,274.25Z"/><path class="cls-5" d="M302.38,275.37a11.3,11.3,0,0,1,3.43-.28,12,12,0,0,1,3.44.25,11.5,11.5,0,0,1-3.43.27A11.77,11.77,0,0,1,302.38,275.37Z"/><path class="cls-5" d="M302.29,284.22a11.48,11.48,0,0,1,3.37-.27,10.88,10.88,0,0,1,3.38.25,11.52,11.52,0,0,1-3.38.27A10.74,10.74,0,0,1,302.29,284.22Z"/><path class="cls-5" d="M302.71,285.5a8.41,8.41,0,0,1,2.87-.27,8.17,8.17,0,0,1,2.88.25,8.13,8.13,0,0,1-2.87.27A7.9,7.9,0,0,1,302.71,285.5Z"/><polygon class="cls-5" points="237.55 300.96 237.55 306.46 241.15 306.46 241.15 417.67 248.53 417.67 248.53 306.46 287.7 306.46 287.7 417.67 295.08 417.67 295.08 306.46 465.01 306.46 465.01 417.64 472.39 417.64 472.39 306.46 475.58 306.46 475.58 300.96 237.55 300.96"/><path class="cls-5" d="M397.59,342.4a57.58,57.58,0,0,0,9.59,0,57.58,57.58,0,0,0-9.59,0Z"/><ellipse class="cls-6" cx="327.68" cy="343.41" rx="0.26" ry="0.13"/><path class="cls-15" d="M374.71,244.55l-27.57-28-.59-3c-.12-.56-.23-1.17-.34-1.88a7.32,7.32,0,0,1,0-2.47,11.31,11.31,0,0,1,.85-2.93c.47-.81-.28-1.79-1.05-1.46s-2.1,2.54-2.38,5.57-2.87-1-3.84-2.44-4.16-5.77-4.82-5.83c-1-.07-1.23,1-.23,2.41s3.7,5.89,2.93,6.37h0a3.6,3.6,0,0,0-3.81,1.89c-.69,1.33-1.47,3.23-.83,4.1a50,50,0,0,0,4.39,4.66l.93.79s23.85,34.56,29.05,35.68c3.23.7,53.21,4.85,53.21,4.85l3.77-13.77Z"/><path class="cls-15" d="M332.83,216.26l2.55,2.45a2.93,2.93,0,0,0,1,.71,1,1,0,0,0,1.11-.19,1,1,0,0,0,.15-1,3,3,0,0,0-.59-.91l-2.47-3"/><path class="cls-16" d="M334.54,214.33c0-.05.53.42,1.26,1.23l1.26,1.42a4.41,4.41,0,0,1,.7,1,1.32,1.32,0,0,1-.07,1.41,1.23,1.23,0,0,1-1.39.32,2.83,2.83,0,0,1-1-.7L334,217.61a5.92,5.92,0,0,1-1.13-1.35,6.43,6.43,0,0,1,1.39,1.08l1.41,1.28a2.47,2.47,0,0,0,.83.57.76.76,0,0,0,.82-.16.84.84,0,0,0,0-.88,4.84,4.84,0,0,0-.61-.86l-1.17-1.5A5.8,5.8,0,0,1,334.54,214.33Z"/><path class="cls-15" d="M334.64,214.48l2.55,2.45a2.9,2.9,0,0,0,1,.7.91.91,0,0,0,1.26-1.2,3,3,0,0,0-.59-.91c-.82-1-1.65-2-2.47-3"/><path class="cls-16" d="M336.35,212.54a6.52,6.52,0,0,1,1.26,1.23l1.26,1.43a4.59,4.59,0,0,1,.7,1,1.33,1.33,0,0,1-.07,1.42,1.25,1.25,0,0,1-1.39.32,2.83,2.83,0,0,1-1-.7l-1.34-1.36a5.92,5.92,0,0,1-1.13-1.35,6,6,0,0,1,1.39,1.08l1.41,1.28a2.63,2.63,0,0,0,.83.57.76.76,0,0,0,.82-.16.84.84,0,0,0,0-.88,4.84,4.84,0,0,0-.61-.86l-1.17-1.5A5.55,5.55,0,0,1,336.35,212.54Z"/><path class="cls-15" d="M336.62,213l2.55,2.45a3.12,3.12,0,0,0,1,.7.92.92,0,0,0,1.27-1.2,3.16,3.16,0,0,0-.59-.91l-2.48-3"/><path class="cls-16" d="M338.33,211.08c.06,0,.54.43,1.27,1.23l1.26,1.43a5,5,0,0,1,.7.95,1.38,1.38,0,0,1-.07,1.42,1.26,1.26,0,0,1-1.4.32,2.81,2.81,0,0,1-1-.71l-1.33-1.35a6.18,6.18,0,0,1-1.14-1.35A5.81,5.81,0,0,1,338,214.1l1.42,1.28a2.57,2.57,0,0,0,.83.57.77.77,0,0,0,.82-.16.89.89,0,0,0,0-.88,4.84,4.84,0,0,0-.61-.86l-1.18-1.5A6.51,6.51,0,0,1,338.33,211.08Z"/><path class="cls-16" d="M340.65,217.25c0-.08.64-.21,1.56.08l-.3.25a4.38,4.38,0,0,1-.06-1.75,4.44,4.44,0,0,1,.95-2.13c.4-.46.73-.64.77-.59a9.07,9.07,0,0,0-1.21,2.8,5.24,5.24,0,0,0,0,1.58l0,.4-.35-.15C341.25,217.4,340.65,217.36,340.65,217.25Z"/><path class="cls-15" d="M410.82,202.56l.12,38.37-15,.71-.61-9.2s-7.21,1.1-8.72-4.33c-1-3.47-.72-30.27-.72-30.27Z"/><path class="cls-5" d="M382.21,201.62c1.11,2.3,6.39,6.49,6.39,6.49L391,214.5c2.07-1.62,4.85-1.53,5.38,2.11.38,2.63-2.89,3.17-2.89,3.17,1.91,3.24,3.2,5.86,6,8.94,3,3.33,4.68,3.67,7.93,3.72H411s7.34-6.13,5.89-22.29-16-11.45-19.44-15.48C391.76,188.09,378.51,194,382.21,201.62Z"/><path class="cls-6" d="M416,223.66a5.16,5.16,0,0,1-1.78-.08,9.18,9.18,0,0,1-4.29-2.21,23.38,23.38,0,0,1-4.33-5.73c-1.4-2.28-2.92-4.94-5.49-6.72s-5.67-2.09-8.29-2.63a15.64,15.64,0,0,1-6.69-2.55,7.2,7.2,0,0,1-2.69-4,4.21,4.21,0,0,1-.07-1.78,6.46,6.46,0,0,0,.15,1.76,7.17,7.17,0,0,0,2.69,3.87,15.65,15.65,0,0,0,6.64,2.48c2.62.53,5.71.87,8.37,2.65s4.16,4.51,5.55,6.8a23.44,23.44,0,0,0,4.26,5.71,9.34,9.34,0,0,0,4.21,2.24,6.94,6.94,0,0,0,1.3.15Z"/><path class="cls-6" d="M416.88,210.52l-.77-.24a11.74,11.74,0,0,0-2.25-.5,5.07,5.07,0,0,0-3.47.78,2.83,2.83,0,0,0-1.2,1.82,2.53,2.53,0,0,0,.7,2.29,2,2,0,0,0,1.21.48,2.7,2.7,0,0,0,1.33-.37,4.07,4.07,0,0,0,1.81-2.31,5.74,5.74,0,0,0-1.6-6.07,5.8,5.8,0,0,0-3.23-1.44,10,10,0,0,0-3.72.49,26.38,26.38,0,0,1-3.85.93,15.91,15.91,0,0,1-4.08,0,13.49,13.49,0,0,1-3.93-1.09,4.81,4.81,0,0,1-2.7-2.84,3.73,3.73,0,0,1,.92-3.63,3.21,3.21,0,0,1,3.51-.52,2.75,2.75,0,0,1,1.31,1.23,2.94,2.94,0,0,1,.27,1.72,3.9,3.9,0,0,1-1.75,2.74,5.62,5.62,0,0,1-2.95.83,8.85,8.85,0,0,1-2.81-.44,10,10,0,0,1-4.12-2.54,10.53,10.53,0,0,1-2.84-5.19c-.09-.53-.13-.8-.13-.8s.07.27.17.79a11.61,11.61,0,0,0,.77,2.17,10.66,10.66,0,0,0,2.12,3,9.87,9.87,0,0,0,4.08,2.48,8.52,8.52,0,0,0,2.75.41,5.44,5.44,0,0,0,2.87-.8,3.73,3.73,0,0,0,1.66-2.62,2.57,2.57,0,0,0-1.48-2.75,3,3,0,0,0-3.29.49,3.49,3.49,0,0,0-.86,3.42,4.58,4.58,0,0,0,2.59,2.71,13.53,13.53,0,0,0,3.87,1.07,15.53,15.53,0,0,0,4,0,26.9,26.9,0,0,0,3.82-.91,10,10,0,0,1,3.79-.49,5.9,5.9,0,0,1,5,7.76,4.24,4.24,0,0,1-1.89,2.39,2.78,2.78,0,0,1-1.42.38,2.15,2.15,0,0,1-1.3-.52,2.65,2.65,0,0,1-.73-2.43,3,3,0,0,1,1.27-1.89,5.14,5.14,0,0,1,3.54-.76,11.23,11.23,0,0,1,2.25.54C416.63,210.41,416.88,210.52,416.88,210.52Z"/><path class="cls-7" d="M397.87,408.3,393,402l11.69-9.24,7.25,9.11-.68.61c-3.09,2.73-15.88,13.65-18.56,14.7C389.7,418.38,397.87,408.3,397.87,408.3Z"/><g class="cls-17"><path class="cls-9" d="M394,413.4s-2.69,3.75-1.8,4,14.23-10.32,19.7-15.48l-.22-.25-15.46,12.44S394.72,412.89,394,413.4Z"/></g><path class="cls-5" d="M411.88,401.5l-.19.18-.55.49-2.05,1.77c-1.74,1.48-4.18,3.5-6.91,5.67s-5.26,4.07-7.11,5.43l-2.19,1.59-.61.43-.21.13.19-.16.59-.45c.58-.45,1.3-1,2.16-1.64,1.82-1.38,4.33-3.31,7.06-5.47s5.19-4.17,6.95-5.63l2.09-1.73.57-.46Q411.87,401.49,411.88,401.5Z"/><path class="cls-5" d="M396.39,414.27a6.5,6.5,0,0,0-1.2-.7,5.79,5.79,0,0,0-1.37-.24,2,2,0,0,1,1.43.07A2,2,0,0,1,396.39,414.27Z"/><path class="cls-5" d="M398.45,409.79s-.34,0-.72-.16a1.81,1.81,0,0,1-.67-.32c0-.05.35,0,.73.15S398.47,409.74,398.45,409.79Z"/><path class="cls-5" d="M399,408.54s-.28.08-.63,0-.62-.08-.62-.13.29-.07.63,0S399,408.49,399,408.54Z"/><path class="cls-5" d="M398.73,407s-.22.29-.55.56a1.89,1.89,0,0,1-.66.42s.21-.29.55-.56S398.7,406.93,398.73,407Z"/><path class="cls-5" d="M398.32,406a1.51,1.51,0,0,1-.53.73c-.37.35-.75.51-.77.46s.3-.26.65-.59S398.28,406,398.32,406Z"/><path class="cls-5" d="M397.25,409.09a3.12,3.12,0,0,1-.76.58,5.37,5.37,0,0,1-.93.46,2.72,2.72,0,0,1-.61.17.51.51,0,0,1-.37-.08.39.39,0,0,1-.13-.39,1.77,1.77,0,0,1,2-.95,1.9,1.9,0,0,1,.64.31.71.71,0,0,1,.18.19,2.66,2.66,0,0,0-.85-.37,1.66,1.66,0,0,0-1,.09,1.5,1.5,0,0,0-.85.77c-.05.18.11.28.3.26a2.84,2.84,0,0,0,.57-.16,5.86,5.86,0,0,0,.93-.41C396.94,409.29,397.23,409.06,397.25,409.09Z"/><path class="cls-5" d="M397.08,409.28a1,1,0,0,1-.5-.46,1.57,1.57,0,0,1-.22-.71,1,1,0,0,1,.32-.87.37.37,0,0,1,.5.16,1.08,1.08,0,0,1,.14.44,3,3,0,0,1,0,.73,1.39,1.39,0,0,1-.19.64s0-.25.06-.65a3.52,3.52,0,0,0,0-.7c0-.24-.18-.58-.4-.47s-.24.47-.24.71a1.56,1.56,0,0,0,.18.66A4.1,4.1,0,0,0,397.08,409.28Z"/><path class="cls-5" d="M409.11,398.49s-.36.23-.84.71a4.67,4.67,0,0,0-1.13,4.86c.22.64.47,1,.44,1s-.08-.07-.19-.23a4.18,4.18,0,0,1-.37-.74,4.5,4.5,0,0,1-.19-2.67,4.58,4.58,0,0,1,1.35-2.32,3.31,3.31,0,0,1,.66-.49C409,398.52,409.1,398.48,409.11,398.49Z"/><path class="cls-5" d="M404.05,394.58a25.4,25.4,0,0,1,2,2.32,25.81,25.81,0,0,1,1.86,2.44,27.38,27.38,0,0,1-2-2.32A28.06,28.06,0,0,1,404.05,394.58Z"/><path class="cls-5" d="M405.24,405.18a9,9,0,0,1-1.57,1.51,8.47,8.47,0,0,1-1.82,1.22c0-.05.77-.6,1.71-1.36S405.2,405.14,405.24,405.18Z"/><path class="cls-5" d="M407.53,403.36c.05,0,.06.21.12.45s.15.42.1.45-.2-.13-.27-.41S407.48,403.35,407.53,403.36Z"/><path class="cls-5" d="M407.54,401.6s.07.19,0,.41-.09.39-.13.38-.08-.18,0-.4S407.49,401.6,407.54,401.6Z"/><path class="cls-5" d="M408.39,400.14s-.13.16-.26.36-.17.39-.22.38-.09-.24.07-.48S408.37,400.09,408.39,400.14Z"/><path class="cls-5" d="M409.09,399.21s0,.14,0,.25-.16.19-.2.16,0-.14.05-.25S409,399.18,409.09,399.21Z"/><g class="cls-8"><polygon points="408.85 398.19 397.02 407.22 395.92 405.8 408.35 397.37 408.85 398.19"/></g><path class="cls-7" d="M344.1,414.6l0-8,14.9-.06.09,11.64-.92.06c-4.11.24-20.92.95-23.67.12C331.45,417.5,344.1,414.6,344.1,414.6Z"/><g class="cls-17"><path class="cls-9" d="M337.92,416.24s-4.43,1.29-3.87,2,17.56.66,25.06,0l0-.34-19.84.26S338.79,416.27,337.92,416.24Z"/></g><path class="cls-5" d="M359.32,417.88l-.25,0-.74,0-2.71.13c-2.28.09-5.44.18-8.94.19s-6.65,0-8.94-.1l-2.71-.1-.73,0-.26,0h1l2.71,0c2.29,0,5.45.07,8.94.05s6.65-.08,8.94-.14l2.71-.07h1Z"/><path class="cls-5" d="M339.25,418.38a5.85,5.85,0,0,0-.51-1.29,5.6,5.6,0,0,0-.93-1,2.4,2.4,0,0,1,1.44,2.32Z"/><path class="cls-5" d="M343.64,416.13s-.25-.23-.47-.57-.37-.64-.32-.67.25.23.47.57S343.68,416.1,343.64,416.13Z"/><path class="cls-5" d="M344.84,415.49s-.27-.12-.52-.35-.44-.45-.41-.48.27.12.53.34S344.88,415.45,344.84,415.49Z"/><path class="cls-5" d="M345.6,414.08a1.86,1.86,0,0,1-.78.1,1.68,1.68,0,0,1-.78-.08,1.86,1.86,0,0,1,.78-.1A1.68,1.68,0,0,1,345.6,414.08Z"/><path class="cls-5" d="M345.86,413.09a2.27,2.27,0,0,1-1.77.14,4,4,0,0,1,.89-.07A5.08,5.08,0,0,1,345.86,413.09Z"/><path class="cls-5" d="M343.13,414.83a2.71,2.71,0,0,1-1,0,5.24,5.24,0,0,1-1-.22,2.17,2.17,0,0,1-.58-.24.47.47,0,0,1-.24-.29.38.38,0,0,1,.14-.39,1.76,1.76,0,0,1,2.17.51,1.65,1.65,0,0,1,.32.64c0,.16,0,.25,0,.25a2.63,2.63,0,0,0-.43-.81,1.8,1.8,0,0,0-.82-.53,1.53,1.53,0,0,0-1.15.08c-.15.12-.09.3.08.4a2.55,2.55,0,0,0,.54.22,5.85,5.85,0,0,0,1,.26C342.76,414.8,343.13,414.8,343.13,414.83Z"/><path class="cls-5" d="M342.88,414.88a.92.92,0,0,1-.11-.66,1.65,1.65,0,0,1,.25-.7,1,1,0,0,1,.8-.49.38.38,0,0,1,.3.44,1.05,1.05,0,0,1-.16.42,3.92,3.92,0,0,1-.45.59,1.58,1.58,0,0,1-.55.39s.19-.18.45-.48a3.08,3.08,0,0,0,.4-.58c.13-.2.22-.56,0-.61s-.48.22-.63.41a1.62,1.62,0,0,0-.27.63A3.22,3.22,0,0,0,342.88,414.88Z"/><path class="cls-5" d="M359,413.81s-.43,0-1.1,0A4.66,4.66,0,0,0,354,417c-.22.64-.24,1.07-.28,1.06a1.13,1.13,0,0,1,0-.3,4.28,4.28,0,0,1,.16-.8,4.51,4.51,0,0,1,4-3.21,4.25,4.25,0,0,1,.82,0A.92.92,0,0,1,359,413.81Z"/><path class="cls-5" d="M357.43,407.62a26.52,26.52,0,0,1,.14,3.06,25.37,25.37,0,0,1,0,3.06,26.71,26.71,0,0,1-.14-3.06A25.37,25.37,0,0,1,357.43,407.62Z"/><path class="cls-5" d="M351.83,416.69a8.61,8.61,0,0,1-2.17.22,8.8,8.8,0,0,1-2.18-.16c0-.06,1,0,2.17,0S351.82,416.63,351.83,416.69Z"/><path class="cls-5" d="M354.75,416.67s-.08.21-.18.43-.15.42-.2.42-.08-.24,0-.49S354.72,416.63,354.75,416.67Z"/><path class="cls-5" d="M355.84,415.29s-.06.2-.21.35-.31.26-.34.22.06-.19.21-.34S355.81,415.26,355.84,415.29Z"/><path class="cls-5" d="M357.42,414.66s-.21,0-.43.13-.38.2-.42.16.09-.24.36-.33S357.43,414.62,357.42,414.66Z"/><path class="cls-5" d="M358.54,414.36c0,.05-.07.13-.19.17s-.24.05-.26,0,.07-.13.19-.17S358.52,414.32,358.54,414.36Z"/><g class="cls-8"><polygon points="359.11 413.21 344.09 413.23 344.11 411.43 359.06 411.33 359.11 413.21"/></g><path class="cls-15" d="M380.88,277.32l-6,18c-1.61,4.85-5.85,5.68-11,5.68H330.76v-7.44l30.32-4.33,7.23-18.46Z"/><path class="cls-15" d="M327.11,292l-2.63-1.25s-2.83-5.48-3.49-5.26-.84,1.83.3,4.35l-3.5-1s-7.58,3.51-7.25,4a1.75,1.75,0,0,0,2.61.74c1.65-.84,3.82-1.83,3.82-1.83l4.08,1.17-5.27.66L310.83,298a2.43,2.43,0,0,0,3-.07l12.87,2.76,4,.23v-7.44Z"/><path class="cls-16" d="M313.86,298c.05,0,.29-.35.76-.85a3.57,3.57,0,0,1,.93-.72,4,4,0,0,1,1.39-.37,19,19,0,0,0,3.87-.66,19.66,19.66,0,0,0-3.92.26,3.88,3.88,0,0,0-1.52.44,3.62,3.62,0,0,0-1,.86A2.24,2.24,0,0,0,313.86,298Z"/><path class="cls-16" d="M315.87,298.49c.05,0,.09-.27.45-.35s1-.13,1.57-.2a11.72,11.72,0,0,0,2.26-.23,4.62,4.62,0,0,0-2.3-.17,6.87,6.87,0,0,0-1.62.33.64.64,0,0,0-.39.41C315.8,298.42,315.85,298.49,315.87,298.49Z"/><path class="cls-7" d="M383.69,273.4,381.14,282l-16.2-7.33c.58-1.81,3.26-9.87,8.39-22.67a22,22,0,0,1,16.79-13.53A96.14,96.14,0,0,1,405.63,237c9.08.1,22.45,5.78,24.25,14.68,1.37,6.8.05,18.8.05,33.38l-1.19,27.85-46.54,1.58Z"/><g class="cls-8"><path d="M429.88,278.6c-5.66,1.16-11.48,0-17.25-.35-3.5-.21-7.38-.59-10.15,1.56-2.19,1.71-3.08,4.57-3.71,7.28-2.42,10.32-2.85,17.23-3.4,27.81l28,1.7Z"/></g><path class="cls-5" d="M382.5,243.16c0,.05.46.07,1.23.38a6.36,6.36,0,0,1,2.68,2.17,9.05,9.05,0,0,1,1.61,4.85,31.41,31.41,0,0,1-.49,6.38,108.67,108.67,0,0,1-2.6,11.41c-.39,1.39-.7,2.55-.94,3.42a7.56,7.56,0,0,0-.3,1.28,11,11,0,0,0,.45-1.23c.26-.8.63-2,1.06-3.39A90.79,90.79,0,0,0,387.93,257a29.87,29.87,0,0,0,.46-6.47,9.1,9.1,0,0,0-1.75-5,6.3,6.3,0,0,0-2.85-2.15,4.81,4.81,0,0,0-1-.22A1.24,1.24,0,0,0,382.5,243.16Z"/><path class="cls-5" d="M365.45,272.51a16.19,16.19,0,0,0,2.28,1.3c1.44.76,3.45,1.75,5.71,2.77s4.34,1.87,5.85,2.45a15.43,15.43,0,0,0,2.49.84,18.41,18.41,0,0,0-2.38-1.1c-1.49-.65-3.54-1.54-5.8-2.56s-4.28-2-5.75-2.65A16.36,16.36,0,0,0,365.45,272.51Z"/><path class="cls-5" d="M358,316.6a16.59,16.59,0,0,0-6.77,22.22l40.51,69.55,18.69-11.29L379,334.28l22.8-14.88"/><path class="cls-5" d="M407.35,313.15l-55.61,2a16.59,16.59,0,0,0-16,16.84l2.31,79.43,23.39-.06-.78-75.1L407.35,335Z"/><path class="cls-6" d="M360.66,339a4.63,4.63,0,0,1,.06.73c0,.54.06,1.24.09,2.11.07,1.83.14,4.48.21,7.76.14,6.55.24,15.59.29,25.59s.09,19,.13,25.59c0,3.23,0,5.87,0,7.76,0,.87,0,1.57,0,2.11a4.55,4.55,0,0,1,0,.73,3.81,3.81,0,0,1-.07-.73c0-.53-.05-1.23-.09-2.11-.07-1.83-.14-4.48-.21-7.75-.14-6.55-.23-15.6-.28-25.6s-.1-19-.14-25.59c0-3.23,0-5.87,0-7.76,0-.87,0-1.57,0-2.1A3.81,3.81,0,0,1,360.66,339Z"/><path class="cls-6" d="M431.44,262.74H414.62A12.27,12.27,0,0,0,402.35,275v58.7H368.74a8.49,8.49,0,0,0-8.49,8.49H437v-.05a7,7,0,0,0,6.71-7V275A12.27,12.27,0,0,0,431.44,262.74Z"/><path class="cls-5" d="M407.25,264.68c.14,0,.26,17.25.26,38.53s-.12,38.53-.26,38.53-.26-17.25-.26-38.53S407.1,264.68,407.25,264.68Z"/><path class="cls-6" d="M405.12,403.81V342.23h-5.47v61.58c-3.34,6.59-11.19,11-20.75,14.69h48.76C417.76,414.47,408.82,411.39,405.12,403.81Z"/></g><g id="Plant"><path class="cls-5" d="M97.06,395.84a1.72,1.72,0,0,1,.15-.36l.49-1.05a25.55,25.55,0,0,0,1.44-4.18A36.91,36.91,0,0,0,99,374.1a87.11,87.11,0,0,0-3-10.85c-1.27-3.85-2.74-7.94-3.94-12.35a47.84,47.84,0,0,1-2-14.2c.18-5,1.67-10,3.31-15s3.32-9.89,3.82-14.8a22.61,22.61,0,0,0-2.71-13.67c-2.17-4-4.89-7.4-6.93-10.93a38.11,38.11,0,0,1-4.16-10.51,39,39,0,0,1-.26-16.29,30.56,30.56,0,0,1,1.69-5.75,1.53,1.53,0,0,1-.1.39c-.08.27-.19.63-.34,1.1a42,42,0,0,0-1.06,4.3,39.77,39.77,0,0,0,.43,16.16A37.8,37.8,0,0,0,88,282.05c2,3.49,4.77,6.89,7,10.92a23.05,23.05,0,0,1,2.8,13.95c-.51,5-2.21,9.92-3.84,14.91s-3.1,9.95-3.29,14.89a47.39,47.39,0,0,0,1.9,14c1.18,4.4,2.64,8.48,3.89,12.35A86.27,86.27,0,0,1,99.38,374a36.54,36.54,0,0,1,0,16.27,25.53,25.53,0,0,1-1.54,4.18l-.54,1A2.11,2.11,0,0,1,97.06,395.84Z"/><path class="cls-7" d="M90.39,285.75s-4.14-13.23,3.29-21a.45.45,0,0,1,.78.23C94.86,267.18,95.36,273.84,90.39,285.75Z"/><path class="cls-5" d="M92.87,269.18a12.37,12.37,0,0,1-.28,2.44l-.94,5.84c-.35,2.18-.66,4.15-.93,5.83a13,13,0,0,1-.44,2.42,10.58,10.58,0,0,1,.08-2.46c.13-1.51.4-3.59.78-5.88s.77-4.34,1.09-5.82A10.59,10.59,0,0,1,92.87,269.18Z"/><path class="cls-7" d="M95.25,317s2.53-13.64,12.72-17a.46.46,0,0,1,.59.57C107.89,302.64,105.21,308.76,95.25,317Z"/><path class="cls-5" d="M105.2,303.48a13.6,13.6,0,0,1-1.39,2l-3.57,4.71c-1.32,1.77-2.52,3.37-3.55,4.73a13.74,13.74,0,0,1-1.51,1.93,10.23,10.23,0,0,1,1.21-2.14c.83-1.27,2-3,3.44-4.83s2.71-3.47,3.69-4.63A10.45,10.45,0,0,1,105.2,303.48Z"/><path class="cls-7" d="M92.5,351.17s-1.54-13.78,7.23-20a.46.46,0,0,1,.73.37C100.43,333.79,99.65,340.42,92.5,351.17Z"/><path class="cls-5" d="M98.1,335.38a13.36,13.36,0,0,1-.74,2.34l-2,5.55c-.76,2.08-1.44,4-2,5.55a11.91,11.91,0,0,1-.89,2.29,10.49,10.49,0,0,1,.54-2.4c.43-1.46,1.09-3.45,1.89-5.62S96.42,339,97,337.58A10.55,10.55,0,0,1,98.1,335.38Z"/><path class="cls-7" d="M100.17,385.58s-1-13.83,7.94-19.7a.46.46,0,0,1,.72.4C108.72,368.49,107.7,375.09,100.17,385.58Z"/><path class="cls-5" d="M106.33,370a11.9,11.9,0,0,1-.82,2.32c-.65,1.57-1.4,3.42-2.24,5.47l-2.22,5.48a14.12,14.12,0,0,1-1,2.25,9.61,9.61,0,0,1,.63-2.38c.47-1.44,1.2-3.41,2.08-5.55s1.73-4.05,2.38-5.42A11.42,11.42,0,0,1,106.33,370Z"/><path class="cls-7" d="M84.44,274.12S72.15,267.7,71.91,257a.46.46,0,0,1,.72-.4C74.45,257.84,79.52,262.19,84.44,274.12Z"/><path class="cls-5" d="M74.46,260.66A11.69,11.69,0,0,1,76,262.58l3.47,4.8c1.3,1.78,2.47,3.4,3.48,4.77a15,15,0,0,1,1.4,2,10.35,10.35,0,0,1-1.69-1.79c-1-1.16-2.26-2.82-3.61-4.7s-2.53-3.61-3.35-4.89A10.87,10.87,0,0,1,74.46,260.66Z"/><path class="cls-7" d="M97.64,302.55S85,296.89,84.09,286.19a.46.46,0,0,1,.69-.44C86.68,286.9,92,290.94,97.64,302.55Z"/><path class="cls-5" d="M86.86,289.72a11.49,11.49,0,0,1,1.65,1.82l3.75,4.57c1.4,1.71,2.68,3.25,3.76,4.56a13.9,13.9,0,0,1,1.52,1.93,10.08,10.08,0,0,1-1.8-1.68c-1-1.11-2.42-2.68-3.88-4.48s-2.75-3.45-3.64-4.67A11.89,11.89,0,0,1,86.86,289.72Z"/><path class="cls-7" d="M90.36,334.25s-8.69-10.8-4.62-20.73a.46.46,0,0,1,.82-.08C87.73,315.33,90.62,321.35,90.36,334.25Z"/><path class="cls-5" d="M86.61,317.92a12.32,12.32,0,0,1,.63,2.37c.36,1.67.79,3.62,1.25,5.78l1.28,5.78a13.84,13.84,0,0,1,.47,2.4,10.67,10.67,0,0,1-.83-2.31c-.42-1.46-.94-3.49-1.42-5.76s-.87-4.32-1.11-5.82A10.94,10.94,0,0,1,86.61,317.92Z"/><path class="cls-7" d="M99,371.56S86.41,365.69,85.69,355a.46.46,0,0,1,.7-.42C88.27,355.74,93.52,359.86,99,371.56Z"/><path class="cls-5" d="M88.41,358.55A13.5,13.5,0,0,1,90,360.41L93.69,365l3.69,4.62a12.15,12.15,0,0,1,1.48,2,11,11,0,0,1-1.76-1.72c-1-1.12-2.38-2.72-3.81-4.54s-2.69-3.5-3.56-4.73A10.28,10.28,0,0,1,88.41,358.55Z"/><path class="cls-5" d="M124,317a1.09,1.09,0,0,1,0,.31c0,.24,0,.53,0,.88,0,.84-.08,2-.14,3.37-.17,2.95-.39,7.07-.66,12v0h0c-.89,5-3.45,10.58-6.88,16-2.52,4-5.16,7.6-7.44,11a77.91,77.91,0,0,0-5.57,9.21,38.79,38.79,0,0,0-2.61,6.76c-.22.83-.38,1.48-.48,1.92a3.35,3.35,0,0,1-.18.67,3.25,3.25,0,0,1,.08-.69c.06-.45.2-1.1.39-1.95a35.42,35.42,0,0,1,2.47-6.87,74,74,0,0,1,5.51-9.32c2.26-3.38,4.88-7,7.39-11,3.41-5.38,6-10.85,6.89-15.79v0c.35-4.93.64-9.05.85-12,.11-1.4.2-2.52.27-3.35,0-.36.06-.65.09-.89A1,1,0,0,1,124,317Z"/><path class="cls-7" d="M116.51,348.58s5.32-12.81-1.37-21.2a.47.47,0,0,0-.81.16C113.74,329.68,112.64,336.27,116.51,348.58Z"/><path class="cls-5" d="M115.54,331.85a10.62,10.62,0,0,1,.42,2.42c.19,1.51.4,3.59.57,5.9s.24,4.4.24,5.92a9.87,9.87,0,0,1-.15,2.46,13.86,13.86,0,0,1-.22-2.45c-.11-1.7-.24-3.69-.39-5.89s-.29-4.2-.41-5.9A12,12,0,0,1,115.54,331.85Z"/><g class="cls-8"><path d="M116.51,348.58s5.32-12.81-1.37-21.2a.47.47,0,0,0-.81.16C113.74,329.68,112.64,336.27,116.51,348.58Z"/></g><path class="cls-7" d="M100,379.44s4.27-13.19-3.08-21a.46.46,0,0,0-.79.22C95.74,360.83,95.18,367.48,100,379.44Z"/><path class="cls-5" d="M97.71,362.84a11.15,11.15,0,0,1,.62,2.38c.31,1.49.68,3.55,1,5.84s.6,4.37.72,5.88a10,10,0,0,1,0,2.46,13.43,13.43,0,0,1-.42-2.42c-.25-1.68-.54-3.66-.87-5.85s-.63-4.16-.89-5.84A12.5,12.5,0,0,1,97.71,362.84Z"/><g class="cls-8"><path d="M100,379.44s4.27-13.19-3.08-21a.46.46,0,0,0-.79.22C95.74,360.83,95.18,367.48,100,379.44Z"/></g><path class="cls-7" d="M123.29,332.93s11.36-7.95,10.21-18.62a.45.45,0,0,0-.76-.3C131.09,315.5,126.63,320.46,123.29,332.93Z"/><g class="cls-8"><path d="M123.29,332.93s11.36-7.95,10.21-18.62a.45.45,0,0,0-.76-.3C131.09,315.5,126.63,320.46,123.29,332.93Z"/></g><path class="cls-5" d="M131.44,318.29a10.42,10.42,0,0,1-.94,2.27c-.65,1.37-1.59,3.24-2.69,5.28s-2.15,3.85-3,5.13a10.56,10.56,0,0,1-1.44,2,12.21,12.21,0,0,1,1.13-2.18l2.83-5.19,2.81-5.19A13.43,13.43,0,0,1,131.44,318.29Z"/><path class="cls-7" d="M104.61,366.36s13.7-2.14,17.37-12.22a.46.46,0,0,0-.55-.61C119.3,354.14,113.11,356.64,104.61,366.36Z"/><g class="cls-8"><path d="M104.61,366.36s13.7-2.14,17.37-12.22a.46.46,0,0,0-.55-.61C119.3,354.14,113.11,356.64,104.61,366.36Z"/></g><path class="cls-5" d="M118.38,356.81a10.41,10.41,0,0,1-1.84,1.62c-1.19.95-2.86,2.21-4.74,3.56s-3.63,2.5-4.93,3.29a10.54,10.54,0,0,1-2.17,1.16,12.46,12.46,0,0,1,2-1.46l4.83-3.41,4.82-3.43A12.12,12.12,0,0,1,118.38,356.81Z"/><polygon class="cls-6" points="91.54 391.57 87.54 418.48 112.45 418.48 109.22 391.57 91.54 391.57"/><path class="cls-5" d="M110.22,399.91a98.46,98.46,0,0,1-10,.26,98.58,98.58,0,0,1-10.05-.26,98.58,98.58,0,0,1,10.05-.26A98.46,98.46,0,0,1,110.22,399.91Z"/><path class="cls-5" d="M110.71,402.05c0,.14-4.64.26-10.37.26S90,402.19,90,402.05s4.64-.26,10.37-.26S110.71,401.91,110.71,402.05Z"/></g></svg>