<svg xmlns="http://www.w3.org/2000/svg" xmlns:xlink="http://www.w3.org/1999/xlink" width="146" height="165" viewBox="0 0 146 165">
  <defs>
    <clipPath id="clip-path">
      <rect id="Rectangle_194" data-name="Rectangle 194" width="146" height="165" transform="translate(463 4613)" fill="#fff" stroke="#707070" stroke-width="1"/>
    </clipPath>
  </defs>
  <g id="Mask_Group_31" data-name="Mask Group 31" transform="translate(-463 -4613)" clip-path="url(#clip-path)">
    <path id="Path_342" data-name="Path 342" d="M323.75,437.5h8.195v2.732H323.75Z" transform="translate(208.23 4285.668)" fill="#d4a437"/>
    <path id="Path_343" data-name="Path 343" d="M280,105h2.732v2.732H280Z" transform="translate(245.151 4566.268)" fill="#d4a437"/>
    <path id="Path_344" data-name="Path 344" d="M315,105h5.463v2.732H315Z" transform="translate(215.614 4566.268)" fill="#d4a437"/>
    <path id="Path_345" data-name="Path 345" d="M168.084,92.408H147.6V85.579a6.837,6.837,0,0,0-6.829-6.829H116.182a6.837,6.837,0,0,0-6.829,6.829V97.872H88.866A1.366,1.366,0,0,0,87.5,99.237v16.39a1.366,1.366,0,0,0,1.366,1.366H99.792v6.829a1.366,1.366,0,0,0,1.366,1.366h8.195v9.561a6.837,6.837,0,0,0,6.829,6.829h24.585a6.837,6.837,0,0,0,6.829-6.829V119.725h6.829a1.366,1.366,0,0,0,1.366-1.366V111.53h12.292a1.366,1.366,0,0,0,1.366-1.366V93.774a1.366,1.366,0,0,0-1.366-1.366Zm-51.9-10.927h24.585a4.1,4.1,0,0,1,4.1,4.1v1.366h-32.78V85.579a4.1,4.1,0,0,1,4.1-4.1ZM90.232,100.6h24.585v13.658H90.232Zm12.292,21.853v-5.463h6.829v5.463Zm38.243,16.39H116.182a4.1,4.1,0,0,1-4.1-4.1v-1.366h32.78v1.366a4.1,4.1,0,0,1-4.1,4.1Zm4.1-8.195h-32.78v-5.463h16.39v-2.732h-16.39v-5.463h4.1a1.366,1.366,0,0,0,1.366-1.366V99.237a1.366,1.366,0,0,0-1.366-1.366h-4.1V89.677h32.78v2.732h-4.1a1.366,1.366,0,0,0-1.366,1.366v16.39a1.366,1.366,0,0,0,1.366,1.366h4.1v5.463H132.572v2.732h12.292Zm8.195-13.658H147.6V111.53h5.463Zm13.658-8.195H142.133V95.14h24.585Z" transform="translate(407.603 4588.42)" fill="#d4a437"/>
    <path id="Path_346" data-name="Path 346" d="M116.482,78.195h2.732V75.463h2.732V72.732h-2.732V70h-2.732v2.732H113.75v2.732h2.732Z" transform="translate(385.45 4595.804)" fill="#d4a437"/>
    <path id="Path_347" data-name="Path 347" d="M536.482,25.695h2.732V22.963h2.732V20.232h-2.732V17.5h-2.732v2.732H533.75v2.732h2.732Z" transform="translate(31.011 4640.109)" fill="#d4a437"/>
    <path id="Path_348" data-name="Path 348" d="M504.213,455h-2.732v2.732H498.75v2.732h2.732v2.732h2.732v-2.732h2.732v-2.732h-2.732Z" transform="translate(60.546 4270.9)" fill="#d4a437"/>
    <path id="Path_349" data-name="Path 349" d="M92.963,385H90.232v2.732H87.5v2.732h2.732v2.732h2.732v-2.732h2.732v-2.732H92.963Z" transform="translate(407.603 4329.974)" fill="#d4a437"/>
    <path id="Path_350" data-name="Path 350" d="M122.5,236.25h2.732v2.732H122.5Z" transform="translate(378.066 4455.505)" fill="#d4a437"/>
    <path id="Path_351" data-name="Path 351" d="M157.5,236.25h10.927v2.732H157.5Z" transform="translate(348.529 4455.505)" fill="#d4a437"/>
    <path id="Path_352" data-name="Path 352" d="M140,271.25h10.927v2.732H140Z" transform="translate(363.298 4425.967)" fill="#d4a437"/>
    <path id="Path_353" data-name="Path 353" d="M455,201.25h5.463v2.732H455Z" transform="translate(97.468 4485.041)" fill="#d4a437"/>
    <path id="Path_354" data-name="Path 354" d="M507.5,201.25h10.927v2.732H507.5Z" transform="translate(53.162 4485.041)" fill="#d4a437"/>
    <path id="Path_355" data-name="Path 355" d="M472.5,236.25h13.658v2.732H472.5Z" transform="translate(82.699 4455.505)" fill="#d4a437"/>
    <g id="Polygon_19" data-name="Polygon 19" transform="translate(499.779 4590.354) rotate(30)" fill="none">
      <path d="M119.927,0a10,10,0,0,1,8.66,5l36.125,62.549a10,10,0,0,1,0,10L128.587,140.1a10,10,0,0,1-8.66,5H47.672a10,10,0,0,1-8.66-5L2.888,77.55a10,10,0,0,1,0-10L39.013,5a10,10,0,0,1,8.66-5Z" stroke="none"/>
      <path d="M 47.67250061035156 2.999984741210938 C 45.18006896972656 2.999984741210938 42.85738372802734 4.340774536132812 41.61083221435547 6.499130249023438 L 5.486282348632812 69.04808807373047 C 4.2391357421875 71.20751190185547 4.2391357421875 73.89041900634766 5.48626708984375 76.04979705810547 L 41.61080932617188 138.5987701416016 C 42.85733032226562 140.7571258544922 45.18004608154297 142.0979156494141 47.67247772216797 142.0979156494141 L 119.9272613525391 142.0979156494141 C 122.4197158813477 142.0979156494141 124.742431640625 140.7571258544922 125.9889526367188 138.5987701416016 L 162.1134796142578 76.04984283447266 C 163.3606262207031 73.89041900634766 163.3606262207031 71.20751190185547 162.1134948730469 69.04811096191406 L 125.9889526367188 6.499130249023438 C 124.7424011230469 4.340774536132812 122.4196929931641 2.999984741210938 119.9272613525391 2.999984741210938 L 47.67250061035156 2.999984741210938 M 47.67250061035156 -1.52587890625e-05 L 119.9272613525391 -1.52587890625e-05 C 123.4994049072266 -1.52587890625e-05 126.8002853393555 1.905471801757812 128.5868072509766 4.998748779296875 L 164.7113647460938 67.5477294921875 C 166.4986267089844 70.64237213134766 166.4986267089844 74.45555877685547 164.7113647460938 77.55020141601562 L 128.5868072509766 140.0991516113281 C 126.8002853393555 143.1924896240234 123.4994049072266 145.0979156494141 119.9272613525391 145.0979156494141 L 47.67247772216797 145.0979156494141 C 44.10033416748047 145.0979156494141 40.79947662353516 143.1924896240234 39.01295471191406 140.0991516113281 L 2.888397216796875 77.55017852783203 C 1.101150512695312 74.45555877685547 1.101150512695312 70.64237213134766 2.888397216796875 67.5477294921875 L 39.01296997070312 4.998748779296875 C 40.79947662353516 1.905471801757812 44.10035705566406 -1.52587890625e-05 47.67250061035156 -1.52587890625e-05 Z" stroke="none" fill="#181515"/>
    </g>
  </g>
</svg>
