<svg xmlns="http://www.w3.org/2000/svg" xmlns:xlink="http://www.w3.org/1999/xlink" width="146" height="165" viewBox="0 0 146 165">
  <defs>
    <clipPath id="clip-path">
      <rect id="Rectangle_192" data-name="Rectangle 192" width="146" height="165" transform="translate(605 4351)" fill="#fff" stroke="#707070" stroke-width="1"/>
    </clipPath>
  </defs>
  <g id="Mask_Group_23" data-name="Mask Group 23" transform="translate(-605 -4351)" clip-path="url(#clip-path)">
    <g id="Polygon_15" data-name="Polygon 15" transform="translate(642.21 4328.867) rotate(30)" fill="none">
      <path d="M119.927,0a10,10,0,0,1,8.66,5l36.125,62.549a10,10,0,0,1,0,10L128.587,140.1a10,10,0,0,1-8.66,5H47.672a10,10,0,0,1-8.66-5L2.888,77.55a10,10,0,0,1,0-10L39.013,5a10,10,0,0,1,8.66-5Z" stroke="none"/>
      <path d="M 47.67250061035156 2.999984741210938 C 45.18006896972656 2.999984741210938 42.85738372802734 4.340774536132812 41.61083221435547 6.499130249023438 L 5.486282348632812 69.04808807373047 C 4.2391357421875 71.20751190185547 4.2391357421875 73.89041900634766 5.48626708984375 76.04979705810547 L 41.61080932617188 138.5987701416016 C 42.85733032226562 140.7571258544922 45.18004608154297 142.0979156494141 47.67247772216797 142.0979156494141 L 119.9272613525391 142.0979156494141 C 122.4197158813477 142.0979156494141 124.742431640625 140.7571258544922 125.9889526367188 138.5987701416016 L 162.1134796142578 76.04984283447266 C 163.3606262207031 73.89041900634766 163.3606262207031 71.20751190185547 162.1134948730469 69.04811096191406 L 125.9889526367188 6.499130249023438 C 124.7424011230469 4.340774536132812 122.4196929931641 2.999984741210938 119.9272613525391 2.999984741210938 L 47.67250061035156 2.999984741210938 M 47.67250061035156 -1.52587890625e-05 L 119.9272613525391 -1.52587890625e-05 C 123.4994049072266 -1.52587890625e-05 126.8002853393555 1.905471801757812 128.5868072509766 4.998748779296875 L 164.7113647460938 67.5477294921875 C 166.4986267089844 70.64237213134766 166.4986267089844 74.45555877685547 164.7113647460938 77.55020141601562 L 128.5868072509766 140.0991516113281 C 126.8002853393555 143.1924896240234 123.4994049072266 145.0979156494141 119.9272613525391 145.0979156494141 L 47.67247772216797 145.0979156494141 C 44.10033416748047 145.0979156494141 40.79947662353516 143.1924896240234 39.01295471191406 140.0991516113281 L 2.888397216796875 77.55017852783203 C 1.101150512695312 74.45555877685547 1.101150512695312 70.64237213134766 2.888397216796875 67.5477294921875 L 39.01296997070312 4.998748779296875 C 40.79947662353516 1.905471801757812 44.10035705566406 -1.52587890625e-05 47.67250061035156 -1.52587890625e-05 Z" stroke="none" fill="#181515"/>
    </g>
    <g id="Group_119" data-name="Group 119" transform="translate(644.926 4394.441)">
      <path id="Path_299" data-name="Path 299" d="M224.372,478.97a3.5,3.5,0,1,0,3.5,3.5A3.5,3.5,0,0,0,224.372,478.97Zm0,5.1a1.593,1.593,0,1,1,1.593-1.593A1.593,1.593,0,0,1,224.372,484.067Z" transform="translate(-200.379 -408.636)" fill="#d4a437"/>
      <path id="Path_300" data-name="Path 300" d="M119.322,112.514h11.837a.963.963,0,0,0,.956-.956V99.722a.963.963,0,0,0-.956-.956H119.322a.963.963,0,0,0-.956.956v11.837A.963.963,0,0,0,119.322,112.514Zm.956-11.837H130.2V110.6h-9.926Z" transform="translate(-113.27 -85.526)" fill="#d4a437"/>
      <path id="Path_301" data-name="Path 301" d="M119.322,224.254h11.837a.963.963,0,0,0,.956-.956V211.462a.963.963,0,0,0-.956-.956H119.322a.963.963,0,0,0-.956.956V223.3A.963.963,0,0,0,119.322,224.254Zm.956-11.85H130.2v9.926h-9.926Z" transform="translate(-113.27 -180.486)" fill="#d4a437"/>
      <path id="Path_302" data-name="Path 302" d="M119.322,335.914h11.837a.963.963,0,0,0,.956-.956V323.122a.963.963,0,0,0-.956-.956H119.322a.963.963,0,0,0-.956.956v11.837A.955.955,0,0,0,119.322,335.914Zm.956-11.837H130.2V334h-9.926Z" transform="translate(-113.27 -275.379)" fill="#d4a437"/>
      <path id="Path_303" data-name="Path 303" d="M224.7,125.625h18.284a.956.956,0,1,0,0-1.911H224.7a.956.956,0,0,0,0,1.911Z" transform="translate(-202.825 -106.728)" fill="#d4a437"/>
      <path id="Path_304" data-name="Path 304" d="M224.7,154.475h11.531a.956.956,0,1,0,0-1.911H224.7a.956.956,0,0,0,0,1.911Z" transform="translate(-202.825 -131.245)" fill="#d4a437"/>
      <path id="Path_305" data-name="Path 305" d="M143.917,123.966l-3.721,3.721-1.007-1.007a.955.955,0,1,0-1.35,1.35l1.682,1.682a.953.953,0,0,0,1.35,0l4.409-4.409a.961.961,0,0,0,0-1.35.977.977,0,0,0-1.363.013Z" transform="translate(-129.583 -106.701)" fill="#d4a437"/>
      <path id="Path_306" data-name="Path 306" d="M224.7,237.115h18.284a.956.956,0,1,0,0-1.911H224.7a.956.956,0,1,0,0,1.911Z" transform="translate(-202.825 -201.475)" fill="#d4a437"/>
      <path id="Path_307" data-name="Path 307" d="M224.7,265.965h11.531a.956.956,0,1,0,0-1.911H224.7a.956.956,0,0,0,0,1.911Z" transform="translate(-202.825 -225.993)" fill="#d4a437"/>
      <path id="Path_308" data-name="Path 308" d="M143.917,235.5l-3.721,3.721-1.007-1.007a.955.955,0,0,0-1.35,1.35l1.682,1.682a.953.953,0,0,0,1.35,0l4.4-4.4a.955.955,0,0,0-1.35-1.351Z" transform="translate(-129.583 -201.493)" fill="#d4a437"/>
      <path id="Path_309" data-name="Path 309" d="M424.2,357.172l-6.766,6.766-2.153-2.153a.955.955,0,1,0-1.35,1.35l2.829,2.829a.953.953,0,0,0,1.35,0l7.441-7.441a.955.955,0,0,0-1.35-1.35Z" transform="translate(-364.217 -304.892)" fill="#d4a437"/>
      <path id="Path_310" data-name="Path 310" d="M224.7,348.855h7.938a.956.956,0,1,0,0-1.911H224.7a.956.956,0,0,0,0,1.911Z" transform="translate(-202.825 -296.436)" fill="#d4a437"/>
      <path id="Path_311" data-name="Path 311" d="M143.917,347.177,140.2,350.9l-1.007-1.007a.955.955,0,0,0-1.35,1.35l1.682,1.682a.953.953,0,0,0,1.35,0l4.409-4.409a.955.955,0,1,0-1.363-1.337Z" transform="translate(-129.583 -296.389)" fill="#d4a437"/>
      <path id="Path_312" data-name="Path 312" d="M163.538,63.048l-4.2-1.44a20.519,20.519,0,0,0-1.669-4.026l1.949-4a.953.953,0,0,0-.191-1.1l-4.7-4.676a.95.95,0,0,0-1.1-.178l-3.988,1.937a19.914,19.914,0,0,0-4.039-1.682l-1.439-4.179a.961.961,0,0,0-.9-.65h-6.638a.956.956,0,0,0-.9.65l-1.439,4.179c-.637.191-1.274.421-1.886.663V16.656a6.058,6.058,0,0,0-6.053-6.053H90.478a6.058,6.058,0,0,0-6.052,6.053v68.8a6.058,6.058,0,0,0,6.053,6.053h35.88a6.042,6.042,0,0,0,6-5.517c.637.255,1.287.5,1.949.688l1.439,4.192a.961.961,0,0,0,.9.65h6.638a.944.944,0,0,0,.9-.65l1.439-4.192a20.322,20.322,0,0,0,4.039-1.669l3.988,1.949a.971.971,0,0,0,1.1-.178l4.676-4.676a.95.95,0,0,0,.178-1.1l-1.937-4a20.589,20.589,0,0,0,1.669-4.039l4.2-1.439a.961.961,0,0,0,.65-.9V63.979a.981.981,0,0,0-.662-.932ZM116.675,12.515v2.867a.315.315,0,0,1-.319.319H100.481a.315.315,0,0,1-.319-.319V12.515Zm-26.2,0h7.772v2.867a2.24,2.24,0,0,0,2.23,2.23h15.864a2.24,2.24,0,0,0,2.23-2.23V12.515h7.772a4.149,4.149,0,0,1,4.141,4.141V49.44c-.076.038-.165.076-.242.114l-3.988-1.937a.971.971,0,0,0-1.1.178l-4.675,4.69a.95.95,0,0,0-.178,1.1l1.949,3.988a20.269,20.269,0,0,0-1.669,4.039l-4.2,1.439a.961.961,0,0,0-.65.9v1.491H106.3a.956.956,0,0,0,0,1.911h9.429V70.6a.944.944,0,0,0,.65.9l4.2,1.44a19.9,19.9,0,0,0,1.669,4.026l-.191.382H86.339v-60.7a4.149,4.149,0,0,1,4.141-4.141ZM130.5,85.461a4.149,4.149,0,0,1-4.141,4.141H90.478a4.149,4.149,0,0,1-4.141-4.141v-6.18h34.785L120.294,81a.953.953,0,0,0,.191,1.1l4.7,4.676a.95.95,0,0,0,1.1.178L130.258,85c.076.038.165.076.242.114Zm31.777-15.545L158.251,71.3a.942.942,0,0,0-.612.663,17.86,17.86,0,0,1-1.873,4.51.927.927,0,0,0-.038.892l1.86,3.835-3.721,3.721-3.822-1.873a.987.987,0,0,0-.9.025,18.571,18.571,0,0,1-4.51,1.873.941.941,0,0,0-.663.612l-1.376,4.026h-5.275l-1.376-4.026a.942.942,0,0,0-.663-.612,17.676,17.676,0,0,1-4.51-1.873.951.951,0,0,0-.9-.038l-3.822,1.873-3.733-3.721,1.873-3.848a.925.925,0,0,0-.038-.892,18.229,18.229,0,0,1-1.86-4.5.967.967,0,0,0-.612-.663L117.643,69.9V64.614l4.039-1.389a.942.942,0,0,0,.612-.663,18.151,18.151,0,0,1,1.873-4.51.951.951,0,0,0,.038-.9l-1.86-3.835,3.721-3.721,3.822,1.86a.952.952,0,0,0,.9-.038,18.157,18.157,0,0,1,4.51-1.873.941.941,0,0,0,.663-.612l1.389-4.014h5.275l1.376,4.014a.942.942,0,0,0,.663.612,18.15,18.15,0,0,1,4.51,1.873.951.951,0,0,0,.9.038l3.822-1.86,3.733,3.721-1.873,3.835a.925.925,0,0,0,.038.892,18.739,18.739,0,0,1,1.86,4.5.967.967,0,0,0,.612.663l4.039,1.389v5.326Z" transform="translate(-84.426 -10.604)" fill="#d4a437"/>
      <path id="Path_313" data-name="Path 313" d="M383.472,304.69a12.512,12.512,0,1,0,12.5,12.512A12.526,12.526,0,0,0,383.472,304.69ZM383.46,327.8a10.6,10.6,0,1,1,10.6-10.6A10.606,10.606,0,0,1,383.46,327.8Z" transform="translate(-327.932 -260.528)" fill="#d4a437"/>
    </g>
  </g>
</svg>
