<svg xmlns="http://www.w3.org/2000/svg" xmlns:xlink="http://www.w3.org/1999/xlink" width="146" height="165" viewBox="0 0 146 165">
  <defs>
    <clipPath id="clip-path">
      <rect id="Rectangle_191" data-name="Rectangle 191" width="146" height="165" transform="translate(1168 4351)" fill="#fff" stroke="#707070" stroke-width="1"/>
    </clipPath>
  </defs>
  <g id="Mask_Group_25" data-name="Mask Group 25" transform="translate(-1168 -4351)" clip-path="url(#clip-path)">
    <g id="Polygon_17" data-name="Polygon 17" transform="translate(1204.755 4328.867) rotate(30)" fill="none">
      <path d="M119.927,0a10,10,0,0,1,8.66,5l36.125,62.549a10,10,0,0,1,0,10L128.587,140.1a10,10,0,0,1-8.66,5H47.672a10,10,0,0,1-8.66-5L2.888,77.55a10,10,0,0,1,0-10L39.013,5a10,10,0,0,1,8.66-5Z" stroke="none"/>
      <path d="M 47.67250061035156 2.999984741210938 C 45.18006896972656 2.999984741210938 42.85738372802734 4.340774536132812 41.61083221435547 6.499130249023438 L 5.486282348632812 69.04808807373047 C 4.2391357421875 71.20751190185547 4.2391357421875 73.89041900634766 5.48626708984375 76.04979705810547 L 41.61080932617188 138.5987701416016 C 42.85733032226562 140.7571258544922 45.18004608154297 142.0979156494141 47.67247772216797 142.0979156494141 L 119.9272613525391 142.0979156494141 C 122.4197158813477 142.0979156494141 124.742431640625 140.7571258544922 125.9889526367188 138.5987701416016 L 162.1134796142578 76.04984283447266 C 163.3606262207031 73.89041900634766 163.3606262207031 71.20751190185547 162.1134948730469 69.04811096191406 L 125.9889526367188 6.499130249023438 C 124.7424011230469 4.340774536132812 122.4196929931641 2.999984741210938 119.9272613525391 2.999984741210938 L 47.67250061035156 2.999984741210938 M 47.67250061035156 -1.52587890625e-05 L 119.9272613525391 -1.52587890625e-05 C 123.4994049072266 -1.52587890625e-05 126.8002853393555 1.905471801757812 128.5868072509766 4.998748779296875 L 164.7113647460938 67.5477294921875 C 166.4986267089844 70.64237213134766 166.4986267089844 74.45555877685547 164.7113647460938 77.55020141601562 L 128.5868072509766 140.0991516113281 C 126.8002853393555 143.1924896240234 123.4994049072266 145.0979156494141 119.9272613525391 145.0979156494141 L 47.67247772216797 145.0979156494141 C 44.10033416748047 145.0979156494141 40.79947662353516 143.1924896240234 39.01295471191406 140.0991516113281 L 2.888397216796875 77.55017852783203 C 1.101150512695312 74.45555877685547 1.101150512695312 70.64237213134766 2.888397216796875 67.5477294921875 L 39.01296997070312 4.998748779296875 C 40.79947662353516 1.905471801757812 44.10035705566406 -1.52587890625e-05 47.67250061035156 -1.52587890625e-05 Z" stroke="none" fill="#181515"/>
    </g>
    <g id="Group_121" data-name="Group 121" transform="translate(1202.394 4392.113)">
      <path id="Path_320" data-name="Path 320" d="M117.279,89.454l2.211-1.088a13.327,13.327,0,0,0,3.49,2.008l.164,2.463a3.972,3.972,0,0,0,3.96,3.7h1.425a3.99,3.99,0,0,0,3.96-3.7l.165-2.468a13.357,13.357,0,0,0,3.481-2.008l2.22,1.089a3.993,3.993,0,0,0,5.184-1.579l.705-1.23a3.956,3.956,0,0,0-1.218-5.28l-2.053-1.381a12.752,12.752,0,0,0,0-4.018l2.06-1.379a3.983,3.983,0,0,0,1.216-5.277l-.714-1.235a3.963,3.963,0,0,0-5.18-1.574l-2.218,1.088a13.293,13.293,0,0,0-3.484-2.015l-.166-2.48a3.989,3.989,0,0,0-3.742-3.677,1.825,1.825,0,0,0,.893-1.57V56.02a1.827,1.827,0,1,0-3.653,0v1.827a1.827,1.827,0,0,0,.893,1.57,3.971,3.971,0,0,0-3.735,3.689l-.165,2.466a13.287,13.287,0,0,0-3.493,2.016l-2.2-1.083a3.956,3.956,0,0,0-5.189,1.572l-.711,1.231a3.986,3.986,0,0,0,1.221,5.284l2.046,1.37a12.826,12.826,0,0,0-.162,2.016,12.7,12.7,0,0,0,.162,2.01l-2.043,1.374a3.953,3.953,0,0,0-1.229,5.27l.714,1.244a3.983,3.983,0,0,0,5.185,1.578ZM114.643,84.4l3.069-2.064a1.827,1.827,0,0,0,.749-1.975,9.181,9.181,0,0,1,0-4.771,1.827,1.827,0,0,0-.751-1.977l-3.062-2.051a.315.315,0,0,1-.1-.423l.717-1.242a.3.3,0,0,1,.4-.115l3.307,1.626a1.826,1.826,0,0,0,2.085-.335,9.582,9.582,0,0,1,4.148-2.393,1.827,1.827,0,0,0,1.337-1.639l.247-3.693a.307.307,0,0,1,.315-.283h1.425a.313.313,0,0,1,.315.286l.247,3.69a1.828,1.828,0,0,0,1.335,1.639,9.591,9.591,0,0,1,4.141,2.394,1.827,1.827,0,0,0,2.082.335l3.328-1.632a.3.3,0,0,1,.4.13l.714,1.235a.313.313,0,0,1-.094.417l-3.069,2.055a1.826,1.826,0,0,0-.756,1.96,9.438,9.438,0,0,1,0,4.8,1.827,1.827,0,0,0,.751,1.963l3.069,2.064.006,0a.31.31,0,0,1,.087.412l-.705,1.229a.323.323,0,0,1-.414.131l-3.316-1.626a1.829,1.829,0,0,0-2.078.331,9.654,9.654,0,0,1-4.145,2.389,1.826,1.826,0,0,0-1.335,1.639l-.246,3.678a.316.316,0,0,1-.316.3H127.1a.307.307,0,0,1-.315-.286l-.247-3.69a1.826,1.826,0,0,0-1.338-1.639,9.635,9.635,0,0,1-4.151-2.389,1.827,1.827,0,0,0-2.08-.331l-3.3,1.623a.319.319,0,0,1-.411-.115l-.72-1.255a.309.309,0,0,1,.1-.4Z" transform="translate(-110.848 -48.095)" fill="#d4a437"/>
      <path id="Path_321" data-name="Path 321" d="M175.71,168.458a7.631,7.631,0,1,0-7.636-7.626A7.635,7.635,0,0,0,175.71,168.458Zm0-11.609a3.978,3.978,0,1,1-3.982,3.983A3.982,3.982,0,0,1,175.71,156.849Z" transform="translate(-158.741 -130.95)" fill="#d4a437"/>
      <path id="Path_322" data-name="Path 322" d="M379.943,102.628H366.394a1.827,1.827,0,0,0-3.653,0H349.193a4.572,4.572,0,0,0-4.567,4.567v44.983a4.572,4.572,0,0,0,4.567,4.567h30.751a4.572,4.572,0,0,0,4.567-4.567V107.194a4.572,4.572,0,0,0-4.567-4.567Zm.913,49.55a.915.915,0,0,1-.914.914H349.191a.915.915,0,0,1-.914-.914V107.194a.915.915,0,0,1,.914-.914h30.751a.915.915,0,0,1,.914.914Z" transform="translate(-306.496 -87.101)" fill="#d4a437"/>
      <path id="Path_323" data-name="Path 323" d="M408.944,168H385.428a1.827,1.827,0,0,0,0,3.653h23.516a1.827,1.827,0,0,0,0-3.653Z" transform="translate(-339.115 -143.339)" fill="#d4a437"/>
      <path id="Path_324" data-name="Path 324" d="M385.428,237.455h10.128a1.827,1.827,0,1,0,0-3.653H385.428a1.827,1.827,0,0,0,0,3.653Z" transform="translate(-339.115 -198.409)" fill="#d4a437"/>
      <path id="Path_325" data-name="Path 325" d="M496.588,237.455h4.892a1.827,1.827,0,0,0,0-3.653h-4.892a1.827,1.827,0,0,0,0,3.653Z" transform="translate(-432.144 -198.409)" fill="#d4a437"/>
      <path id="Path_326" data-name="Path 326" d="M385.428,303.255h15.316a1.827,1.827,0,1,0,0-3.653H385.428a1.827,1.827,0,1,0,0,3.653Z" transform="translate(-339.115 -253.477)" fill="#d4a437"/>
      <path id="Path_327" data-name="Path 327" d="M408.944,365.4H385.428a1.827,1.827,0,0,0,0,3.653h23.516a1.827,1.827,0,0,0,0-3.653Z" transform="translate(-339.115 -308.543)" fill="#d4a437"/>
      <path id="Path_328" data-name="Path 328" d="M151.375,336.089a15.375,15.375,0,1,0-17.2,15.267v1.935a1.827,1.827,0,0,0,3.653,0v-1.935a15.4,15.4,0,0,0,13.549-15.267Zm-27.1,0A11.722,11.722,0,1,1,136,347.811,11.735,11.735,0,0,1,124.277,336.089Z" transform="translate(-119.029 -271.145)" fill="#d4a437"/>
      <path id="Path_329" data-name="Path 329" d="M177.571,376.554a1.826,1.826,0,0,0-2.583,0l-7.766,7.765-3.808-3.808a1.826,1.826,0,0,0-2.583,2.583l5.1,5.1a1.826,1.826,0,0,0,2.583,0l9.057-9.057a1.826,1.826,0,0,0,0-2.583Z" transform="translate(-152.231 -317.43)" fill="#d4a437"/>
      <path id="Path_330" data-name="Path 330" d="M205.488,22.281a1.827,1.827,0,0,0,1.827-1.827,1.827,1.827,0,0,0,0-3.653h-1.827a1.827,1.827,0,0,0-1.827,1.827v1.827A1.826,1.826,0,0,0,205.488,22.281Z" transform="translate(-188.523 -16.801)" fill="#d4a437"/>
      <path id="Path_331" data-name="Path 331" d="M258.438,20.454h3.4a1.827,1.827,0,0,0,0-3.653h-3.4a1.827,1.827,0,0,0,0,3.653Z" transform="translate(-232.837 -16.801)" fill="#d4a437"/>
      <path id="Path_332" data-name="Path 332" d="M321.058,20.454h3.4a1.827,1.827,0,1,0,0-3.653h-3.4a1.827,1.827,0,0,0,0,3.653Z" transform="translate(-285.244 -16.801)" fill="#d4a437"/>
      <path id="Path_333" data-name="Path 333" d="M383.688,20.454h3.4a1.827,1.827,0,0,0,0-3.653h-3.4a1.827,1.827,0,0,0,0,3.653Z" transform="translate(-337.658 -16.801)" fill="#d4a437"/>
      <path id="Path_334" data-name="Path 334" d="M446.318,20.454a1.827,1.827,0,1,0,3.653,0V18.628a1.827,1.827,0,0,0-1.827-1.827h-1.827a1.827,1.827,0,1,0,0,3.653Z" transform="translate(-390.073 -16.801)" fill="#d4a437"/>
      <path id="Path_335" data-name="Path 335" d="M457.518,57.121a1.827,1.827,0,0,0-1.827,1.827v2.375a1.827,1.827,0,1,0,3.653,0V58.948a1.826,1.826,0,0,0-1.827-1.827Z" transform="translate(-399.447 -50.544)" fill="#d4a437"/>
      <path id="Path_336" data-name="Path 336" d="M457.518,448.35a1.827,1.827,0,0,0-1.827,1.827v3.653a1.827,1.827,0,1,0,3.653,0v-3.653A1.826,1.826,0,0,0,457.518,448.35Z" transform="translate(-399.447 -377.963)" fill="#d4a437"/>
      <path id="Path_337" data-name="Path 337" d="M376.823,520.8H373.17a1.827,1.827,0,1,0,0,3.653h3.653a1.827,1.827,0,0,0,0-3.653Z" transform="translate(-328.856 -438.597)" fill="#d4a437"/>
      <path id="Path_338" data-name="Path 338" d="M309.623,520.8H305.97a1.827,1.827,0,1,0,0,3.653h3.653a1.827,1.827,0,1,0,0-3.653Z" transform="translate(-272.616 -438.597)" fill="#d4a437"/>
      <path id="Path_339" data-name="Path 339" d="M443.163,515.55a1.827,1.827,0,0,0-1.548.856h-1.249a1.827,1.827,0,0,0,0,3.653h2.8a1.827,1.827,0,0,0,1.827-1.827v-.856a1.826,1.826,0,0,0-1.826-1.827Z" transform="translate(-385.092 -434.203)" fill="#d4a437"/>
      <path id="Path_340" data-name="Path 340" d="M242.423,520.8H238.77a1.827,1.827,0,1,0,0,3.653h3.653a1.827,1.827,0,1,0,0-3.653Z" transform="translate(-216.377 -438.597)" fill="#d4a437"/>
    </g>
  </g>
</svg>
