<svg xmlns="http://www.w3.org/2000/svg" viewBox="0 0 406 412"><defs><style>.cls-1{fill:#e0e0e0;}.cls-12,.cls-2,.cls-3{fill:#d4a536;}.cls-16,.cls-3{opacity:0.1;}.cls-4{fill:#fff;}.cls-5{fill:#99814b;}.cls-6{fill:#ebebeb;}.cls-7{fill:#fafafa;}.cls-8{fill:#37474f;}.cls-9{fill:#455a64;}.cls-10{fill:#263238;}.cls-11{fill:#f5f5f5;}.cls-12{opacity:0.4;}.cls-13{opacity:0.15;}.cls-14{fill:#ffa8a7;}.cls-15{fill:#f28f8f;}.cls-17{fill:#b16668;}.cls-18{fill:#27debf;}.cls-19{fill:#9a4a4d;}</style></defs><g id="Character_1" data-name="Character 1"><path id="Shadow-2" data-name="Shadow" class="cls-1" d="M24.19,375.85,27.93,378a4.79,4.79,0,0,0,4.33,0l172.82-99.77a1.31,1.31,0,0,0,0-2.49l-3.71-2.12a4.79,4.79,0,0,0-4.33,0L24.19,373.35A1.32,1.32,0,0,0,24.19,375.85Z"/><path class="cls-2" d="M354.51,288.39c-.06-5.11,3.51-15.73,8.73-22.43s13.49-11.65,19.44-9.69c5.54,1.82,5,9.06-1.61,13.93s-16.61,11-19.46,19.34l-6.05,10.24Z"/><path class="cls-3" d="M354.51,288.39c-.06-5.11,3.51-15.73,8.73-22.43s13.49-11.65,19.44-9.69c5.54,1.82,5,9.06-1.61,13.93s-16.61,11-19.46,19.34l-6.05,10.24Z"/><path class="cls-2" d="M354.22,295.39a.38.38,0,0,0,.33-.31c3.21-17.48,17.15-31.82,25.55-35.05a.38.38,0,0,0,.22-.49.37.37,0,0,0-.48-.21c-8.57,3.29-22.77,17.87-26,35.62a.37.37,0,0,0,.3.43Z"/><path class="cls-2" d="M357,306.52c.79-2.88,4.24-7.66,9.86-11.65,6.23-4.4,14.15-6.49,15.94-9.88,2.15-4.08-1.31-7.86-7.75-7s-17.66,9.81-19.32,23.07Z"/><path class="cls-4" d="M355.67,303.52a.38.38,0,0,0,.32-.25c5.16-15,16.5-20.38,21.77-21.13a.38.38,0,0,0,.32-.42.37.37,0,0,0-.42-.32c-5.83.83-17.1,6.31-22.38,21.63a.37.37,0,0,0,.23.47A.3.3,0,0,0,355.67,303.52Z"/><g id="Tab"><path class="cls-2" d="M28.85,373.33l-.76-.44a4.86,4.86,0,0,1-2.2-3.8V112.83a4.89,4.89,0,0,1,2.2-3.81L193.21,13.7a4.87,4.87,0,0,1,4.4,0l.75.44a4.85,4.85,0,0,1,2.2,3.81V274.2a4.85,4.85,0,0,1-2.2,3.81L33.25,373.33A4.87,4.87,0,0,1,28.85,373.33Z"/><path class="cls-5" d="M200.54,17.6c-.15-1.14-1.07-1.56-2.17-.93L33.24,112a4.54,4.54,0,0,0-1.55,1.64l-5.15-3A4.6,4.6,0,0,1,28.1,109L193.21,13.7a4.87,4.87,0,0,1,4.4,0l.76.44A5,5,0,0,1,200.54,17.6Z"/><path class="cls-5" d="M32.88,373.5a4.89,4.89,0,0,1-4-.17l-.77-.44a4.85,4.85,0,0,1-2.19-3.81V112.83a4.42,4.42,0,0,1,.64-2.16l5.15,3A4.61,4.61,0,0,0,31,115.8V372.06C31,373.32,31.84,373.91,32.88,373.5Z"/></g><g id="Tab-2" data-name="Tab"><path class="cls-6" d="M50.52,280.65l-.76-.44a4.86,4.86,0,0,1-2.2-3.8V230.35a4.88,4.88,0,0,1,2.2-3.81l149.91-86.63a4.85,4.85,0,0,1,4.39,0l.76.44a4.85,4.85,0,0,1,2.2,3.81v46.06a4.83,4.83,0,0,1-2.2,3.8L54.92,280.65A4.87,4.87,0,0,1,50.52,280.65Z"/><path class="cls-7" d="M207,143.8c-.15-1.13-1.07-1.55-2.18-.92L54.91,229.52a4.54,4.54,0,0,0-1.55,1.64l-5.15-3a4.51,4.51,0,0,1,1.56-1.65l149.9-86.63a4.85,4.85,0,0,1,4.39,0l.76.44A4.93,4.93,0,0,1,207,143.8Z"/><path class="cls-1" d="M54.54,280.83a4.87,4.87,0,0,1-4-.18l-.78-.43a4.9,4.9,0,0,1-2.18-3.81V230.35a4.42,4.42,0,0,1,.64-2.16l5.15,3a4.61,4.61,0,0,0-.65,2.16v46.07C52.71,280.64,53.51,281.23,54.54,280.83Z"/><path class="cls-2" d="M76.11,226.43c8.55-4.94,15.48-1.1,15.48,8.58s-6.94,21.44-15.5,26.27-15.49,1-15.49-8.58S67.56,231.37,76.11,226.43Z"/></g><g id="Tab-3" data-name="Tab"><path class="cls-6" d="M50.52,343.07l-.76-.44a4.86,4.86,0,0,1-2.2-3.8V292.77a4.88,4.88,0,0,1,2.2-3.81l149.91-86.63a4.85,4.85,0,0,1,4.39,0l.76.44a4.84,4.84,0,0,1,2.2,3.81v46.06a4.83,4.83,0,0,1-2.2,3.8L54.92,343.07A4.87,4.87,0,0,1,50.52,343.07Z"/><path class="cls-7" d="M207,206.22c-.15-1.14-1.07-1.55-2.18-.92L54.91,291.94a4.59,4.59,0,0,0-1.55,1.63l-5.15-3A4.44,4.44,0,0,1,49.77,289l149.9-86.63a4.85,4.85,0,0,1,4.39,0l.76.44A4.91,4.91,0,0,1,207,206.22Z"/><path class="cls-1" d="M54.54,343.24a4.87,4.87,0,0,1-4-.17l-.78-.44a4.87,4.87,0,0,1-2.18-3.81V292.77a4.39,4.39,0,0,1,.64-2.16l5.15,3a4.68,4.68,0,0,0-.65,2.17v46.07C52.71,343.06,53.51,343.65,54.54,343.24Z"/><path class="cls-2" d="M76.11,288.85c8.55-4.94,15.48-1.1,15.48,8.58s-6.94,21.44-15.5,26.27-15.49,1-15.49-8.58S67.56,293.78,76.11,288.85Z"/></g><g id="Tab-4" data-name="Tab"><path class="cls-6" d="M50.52,176.27l-.76-.44a4.88,4.88,0,0,1-2.2-3.81V126a4.86,4.86,0,0,1,2.2-3.8L199.67,35.53a4.85,4.85,0,0,1,4.39,0l.76.44a4.83,4.83,0,0,1,2.2,3.8V85.83a4.85,4.85,0,0,1-2.2,3.81L54.92,176.27A4.87,4.87,0,0,1,50.52,176.27Z"/><path class="cls-7" d="M207,39.42c-.15-1.14-1.07-1.55-2.18-.92L54.91,125.14a4.43,4.43,0,0,0-1.55,1.63l-5.15-3a4.41,4.41,0,0,1,1.56-1.64l149.9-86.63a4.85,4.85,0,0,1,4.39,0l.76.44A4.91,4.91,0,0,1,207,39.42Z"/><path class="cls-1" d="M54.54,176.44a4.87,4.87,0,0,1-4-.17l-.78-.44A4.87,4.87,0,0,1,47.57,172V126a4.42,4.42,0,0,1,.64-2.17l5.15,3a4.64,4.64,0,0,0-.65,2.17V175C52.71,176.26,53.51,176.84,54.54,176.44Z"/><path class="cls-2" d="M76.11,122c8.55-4.93,15.48-1.09,15.48,8.58s-6.94,21.44-15.5,26.28-15.49,1-15.49-8.58S67.56,127,76.11,122Z"/></g><path class="cls-8" d="M61.06,234.75l-.76-.44a4.85,4.85,0,0,1-2.2-3.81V184.44a4.87,4.87,0,0,1,2.2-3.81L210.2,94a4.87,4.87,0,0,1,4.4,0l.76.43a4.89,4.89,0,0,1,2.2,3.81v46.06a4.88,4.88,0,0,1-2.2,3.81L65.45,234.75A4.85,4.85,0,0,1,61.06,234.75Z"/><path class="cls-9" d="M217.54,97.9c-.15-1.14-1.07-1.56-2.18-.92L65.45,183.62a4.54,4.54,0,0,0-1.56,1.63l-5.14-3a4.49,4.49,0,0,1,1.55-1.65L210.2,94a4.81,4.81,0,0,1,4.4,0l.76.43A4.93,4.93,0,0,1,217.54,97.9Z"/><path class="cls-10" d="M65.08,234.92a4.89,4.89,0,0,1-4-.17l-.77-.44a4.87,4.87,0,0,1-2.19-3.81V184.44a4.43,4.43,0,0,1,.65-2.16l5.14,3a4.59,4.59,0,0,0-.64,2.16v46.07C63.25,234.73,64,235.32,65.08,234.92Z"/><path class="cls-11" d="M86.65,180.52c8.55-4.93,15.48-1.09,15.48,8.58s-6.94,21.44-15.5,26.28-15.5,1-15.49-8.58S78.1,185.46,86.65,180.52Z"/><path class="cls-2" d="M87,208.35a1.68,1.68,0,0,1-1.9.09l-6.8-5.14c-.91-.69-.8-2.58.25-4.24s2.64-2.44,3.54-1.75l4.74,3.59L100,172.61c.82-1.77,2.39-3,3.51-2.65s1.36,2,.53,3.74L89,206a5.43,5.43,0,0,1-1.93,2.29Z"/><path class="cls-2" d="M217.52,166.3l-4.35-2.51h0c-1.89-1.08-4.2,0-5.42.74L205,163h0c-3.29-2-7.87,2.17-8.89,3.16l-1.18-.67h0c-3.49-2.1-9.84,3.53-9.84,3.53V148l2.76-1.33-4.39-2.54h0l0,0h0a3.93,3.93,0,0,0-3.9.41h0a12.32,12.32,0,0,0-5.58,9.66v48.57c-4-3-8.28-4.8-12-4.13a12.08,12.08,0,0,0-7.26,5c-1.84,3.26,1.2,5.3,5.12,9.78s7.32,9.8,10.86,13.1a19.15,19.15,0,0,0,6.11,4.16V237l4.3,2.49,28.48-21.41v-6.33s4.06-16.22,5.36-23c1.25-6.52,2.4-16.93.25-22.33l2.33-.16Z"/><path class="cls-12" d="M217.52,166.3l-4.35-2.51h0c-1.89-1.08-4.2,0-5.42.74L205,163h0c-3.29-2-7.87,2.17-8.89,3.16l-1.18-.67h0c-3.49-2.1-9.84,3.53-9.84,3.53V148l2.76-1.33-4.39-2.54h0l0,0h0a3.93,3.93,0,0,0-3.9.41h0a12.32,12.32,0,0,0-5.58,9.66v48.57c-4-3-8.28-4.8-12-4.13a12.08,12.08,0,0,0-7.26,5c-1.84,3.26,1.2,5.3,5.12,9.78s7.32,9.8,10.86,13.1a19.15,19.15,0,0,0,6.11,4.16V237l4.3,2.49,28.48-21.41v-6.33s4.06-16.22,5.36-23c1.25-6.52,2.4-16.93.25-22.33l2.33-.16Z"/><path class="cls-2" d="M185.41,222.12l-21.54-12.43-9.43-5.45c-1.2,2.94,1.71,5,5.39,9.21,3.89,4.45,7.32,9.8,10.86,13.1a19.15,19.15,0,0,0,6.11,4.16V237l4.3,2.49,6.29-4.73C186.58,229.42,185.41,222.12,185.41,222.12Z"/><polygon class="cls-2" points="178.29 156.71 173.99 154.22 173.99 205.17 178.29 205.28 178.29 156.71"/><path class="cls-2" d="M212.08,169.57l3.34-2.46c-.08-.22-.14-.44-.23-.65l1.22-.08-2.68-.12-4.47-2.47a10.61,10.61,0,0,0-1.51.75l1.4.81Z"/><path class="cls-2" d="M200.25,168.84l3.13-2.38-4.32-2.62a18.43,18.43,0,0,0-2.91,2.3l3,1.74Z"/><polygon class="cls-2" points="193.71 168.61 189.43 166.11 189.45 166.07 189.45 171.48 194.43 169.66 193.71 168.61"/><g class="cls-13"><path class="cls-2" d="M185.41,222.12l-21.54-12.43-9.43-5.45c-1.2,2.94,1.71,5,5.39,9.21,3.89,4.45,7.32,9.8,10.86,13.1a19.15,19.15,0,0,0,6.11,4.16V237l4.3,2.49,6.29-4.73C186.58,229.42,185.41,222.12,185.41,222.12Z"/><polygon class="cls-2" points="178.29 156.71 173.99 154.22 173.99 205.17 178.29 205.28 178.29 156.71"/><path class="cls-2" d="M212.08,169.57l3.34-2.46c-.08-.22-.14-.44-.23-.65l1.22-.08-2.68-.12-4.47-2.47a10.61,10.61,0,0,0-1.51.75l1.4.81Z"/><path class="cls-2" d="M200.25,168.84l3.13-2.38-4.32-2.62a18.43,18.43,0,0,0-2.91,2.3l3,1.74Z"/><polygon class="cls-2" points="193.71 168.61 189.43 166.11 189.45 166.07 189.45 171.48 194.43 169.66 193.71 168.61"/></g><path class="cls-2" d="M181.1,239.53V233.2A19.19,19.19,0,0,1,175,229c-3.54-3.3-7-8.66-10.86-13.1s-7-6.53-5.12-9.78a12.08,12.08,0,0,1,7.26-5c3.74-.67,8,1.16,12,4.13V156.71a12.33,12.33,0,0,1,5.58-9.66h0c3.08-1.78,5.58-.34,5.58,3.22v21.21s7.69-6.82,10.79-2.64c0,0,7.56-7.91,11-1.23,0,0,5.54-4.47,8,.72s1.3,16.17,0,22.95-5.37,23-5.37,23v6.33Z"/><path class="cls-2" d="M189.45,180.59s.7-9.68,4.26-12l-.13,0a23.6,23.6,0,0,0-4.13,2.83v-.18a.21.21,0,0,0,0,.18Z"/><path class="cls-2" d="M200.25,168.84v8.86s1-9.11,3-11.31A17.66,17.66,0,0,0,200.25,168.84Z"/><path class="cls-2" d="M211.21,167.61h0v8.89s.54-8.95,2.47-10.27A9.71,9.71,0,0,0,211.21,167.61Z"/><path class="cls-2" d="M179.54,138.44h0c-.7.4-1.26.17-1.26-.53v-7a2.6,2.6,0,0,1,1.26-2h0c.69-.4,1.25-.16,1.25.53v7A2.59,2.59,0,0,1,179.54,138.44Z"/><path class="cls-2" d="M169,149.53h0c-.49.84-1.28,1.3-1.77,1l-4.07-2.35c-.49-.28-.49-1.2,0-2h0c.49-.85,1.28-1.31,1.77-1l4.07,2.35C169.53,147.76,169.53,148.68,169,149.53Z"/><path class="cls-2" d="M164.69,164.06v.2a2.78,2.78,0,0,1-1.35,2.12l-5.56,3.21c-.74.43-1.35.18-1.35-.57v-.2a2.81,2.81,0,0,1,1.35-2.12l5.56-3.21C164.09,163.06,164.69,163.31,164.69,164.06Z"/><path class="cls-2" d="M194.38,147.12v-.2a2.78,2.78,0,0,1,1.35-2.13l5.56-3.21c.74-.43,1.35-.17,1.35.57v.2a2.81,2.81,0,0,1-1.35,2.12l-5.56,3.21C195,148.11,194.38,147.86,194.38,147.12Z"/><path class="cls-2" d="M190,137.4h0c-.49-.28-.49-1.19,0-2l4.07-7c.49-.85,1.28-1.31,1.77-1h0c.49.29.49,1.2,0,2l-4.07,7C191.32,137.23,190.52,137.69,190,137.4Z"/><path class="cls-10" d="M348.22,302.22v-1.14c-.45,1.33-2.53,7.08-5.68,10-2.51,2.29-5.94,4.93-6.81,7.48s4.77,3.55,7.11,3.14c2.73-.49,6.25-2,8.17-4.39,1.35-1.66,2.21-3.62,3.17-4.93s3.18-2.75,3.71-4.26c.28-.83-.06-2.65-.46-4.18s-.77-2.95-1.25-2.82V302a6.32,6.32,0,0,1-4,1.34C351,303.34,348.21,303.1,348.22,302.22Z"/><path class="cls-14" d="M340.26,313.05c.78-.69,1.57-1.37,2.28-2,2.2-2,3.88-5.42,4.85-7.75a11,11,0,0,0,.83-4.19v-4.53h8v7.38h0v.2l0,0c-.38,1.65-4,6-6.11,8.92-1.39,1.92-4,4.36-7.19,4.79C339.85,316.27,338.32,315.32,340.26,313.05Z"/><path class="cls-10" d="M317.19,294.37v-1.14c-.45,1.34-2.54,7.08-5.69,10-2.51,2.29-5.94,4.94-6.81,7.49s4.77,3.55,7.11,3.13c2.73-.48,6.25-2,8.17-4.38,1.35-1.66,2.21-3.63,3.17-4.93s3.19-2.76,3.71-4.27c.28-.83-.06-2.64-.46-4.17s-.77-3-1.25-2.83v.87a6.29,6.29,0,0,1-4,1.35C320,295.49,317.18,295.26,317.19,294.37Z"/><path class="cls-14" d="M309.23,305.21c.77-.7,1.56-1.37,2.27-2,2.2-2,3.88-5.43,4.85-7.76a10.91,10.91,0,0,0,.84-4.18v-4.54h7.95v7.38h0v.2l0,0c-.38,1.66-4,6.05-6.11,8.92-1.39,1.92-4,4.37-7.19,4.79C308.81,308.42,307.28,307.48,309.23,305.21Z"/><path class="cls-8" d="M354.6,178.55c6.17,13.47-.23,60.94-.23,60.94.19,2.18,2.69,6.49,3.62,16.11,1.1,11.37-1.73,39.92-1.73,39.92a8.6,8.6,0,0,1-8,.32s-7.58-43-9-54.3C338,231.67,335.58,210,335.58,210l-6.79,31.5a59,59,0,0,1,2.15,9.74c.65,6.65-5.8,37.61-5.8,37.61s-2.74,1-7.95.24c0,0-2.28-41.09-2.88-49.1-1-13.45,2.56-55.43,5-63.39Z"/><path class="cls-10" d="M335.58,210l-2-12.52s-8.48-1.75-12.32-5.37a21.88,21.88,0,0,0,10,6.66l2.25,9.64-3.93,29.17Z"/><path class="cls-14" d="M330.55,131.37a11.43,11.43,0,0,0-10.13,4.54c-3.18,4.16-15.37,20-15.37,20s-18-9-18.85-10.06-.38-3.22-.14-4.4.65-3.83.91-4.57c.46-1.29-1.45-.94-2.58.27s-1.62,3.57-2.19,4-4.83-4.51-6.91-6.88-3-4-4.43-3.05c-1,.7-.36,2.11,1.13,4.14a27.44,27.44,0,0,1,1.92,2.7c.17.36-.37.65-.59.85-.4.36-1.12,1-1.17,1.51a4.69,4.69,0,0,1-.06.92c-.19.68-1,1-1.26,1.66-.17.47,0,1-.08,1.51-.06.32-.24.61-.3.94a2.23,2.23,0,0,0,.67,1.74c1.45,1.74,3.44,2.4,5.35,3.46,1.59.88,3.23,1.26,5.06,2.07s23.05,15.53,26.41,13.67,20.7-22,20.7-22C333.64,136.08,330.55,131.37,330.55,131.37Z"/><path class="cls-11" d="M343.72,131.74h0c7.9.55,8.46,4.37,10.44,8.54a13.54,13.54,0,0,1,.37,10.2L349,166.42s2.58,6.24,5.58,12.13c-13.83,7.72-31.1,3.66-35.26-2-.18-1.2.89-10.54,1.55-16.64-2.44-6.11-3.08-10-2.05-14,1.91-7.5,9.31-14.8,12.59-14.54Z"/><path class="cls-10" d="M336.11,125.19h3.07A16.17,16.17,0,0,0,355.35,109h0a16.26,16.26,0,0,0-16.26-16.25H336.2A16.25,16.25,0,0,0,320,109h0A16.16,16.16,0,0,0,336.11,125.19Z"/><path class="cls-10" d="M364,133.71h0a9.56,9.56,0,0,1-9.55-9.55V103.7h0a9.55,9.55,0,0,1,9.55,9.56Z"/><path class="cls-10" d="M356.2,100.08l-2.39,3.84a2.2,2.2,0,0,0,3.12-.63A2.39,2.39,0,0,0,356.2,100.08Z"/><path class="cls-14" d="M325.76,99.93c-1.87,1.1-4.18,5.8-3.95,15.66.19,8.36,2.9,10.42,4.26,11s4,.23,6.53-.2v5s-3.52,4.09-3.3,6.39,5.09,2.84,8.39.6a21.51,21.51,0,0,0,5.41-5.67V120.63a3.19,3.19,0,0,0,4.53.43c2.82-1.87,2.93-6.5,1.29-8.16s-5.17-1.13-5.82,1.16c0,0-4.07.15-9.48-2.82A15.22,15.22,0,0,1,325.76,99.93Z"/><path class="cls-10" d="M332.07,113.49a1.05,1.05,0,1,0,1.11-1A1.09,1.09,0,0,0,332.07,113.49Z"/><path class="cls-15" d="M330.86,120.58l-2.44.77a1.26,1.26,0,0,0,1.58.88A1.34,1.34,0,0,0,330.86,120.58Z"/><path class="cls-10" d="M323.46,110.27l2.12-1.48a1.24,1.24,0,0,0-1.76-.36A1.36,1.36,0,0,0,323.46,110.27Z"/><path class="cls-10" d="M324,112.73a1.06,1.06,0,0,0,1,1.14,1.09,1.09,0,1,0-1-1.14Z"/><polygon class="cls-15" points="329.08 112.13 328.91 118.46 325.58 117.43 329.08 112.13"/><path class="cls-15" d="M332.6,126.41c2.69-.35,8.22-1.94,9.08-4.12a5.7,5.7,0,0,1-1.94,2.79c-1.65,1.41-7.14,3-7.14,3Z"/><path class="cls-16" d="M340.18,180.05a8.35,8.35,0,0,0,6.22-10.19,3,3,0,0,0-2.94-2.29h0a8.08,8.08,0,0,0,3.46-5.15l1.68-10a11.54,11.54,0,0,0-.43-4.85l5.56-6.43,1,.71a13.82,13.82,0,0,1-.23,8.62L349,166.42s2.58,6.24,5.58,12.13a35.75,35.75,0,0,1-29.55,2A40.45,40.45,0,0,0,340.18,180.05Z"/><path class="cls-14" d="M368.75,171.43c-7.18-29.35-12.49-39.14-21.21-39-2.55,3-1.84,12.24,2.18,17.82,0,0,9,18.93,10.41,25.66,1.25,5.91,2.68,13.35,2.59,18.43a3.71,3.71,0,0,1-1,2.42c-1.64,1.78-1.64,3.21-2.71,5.17-.83,1.54-1.74,2.12-1.48,2.46a2,2,0,0,0,2.7.2,10.25,10.25,0,0,0,2-2,20.39,20.39,0,0,1-1.62,5.45c-1.84,4.15-1.39,6.27,4.21,4.79,3.51-.93,5.72-3.85,6.25-12.3a65.1,65.1,0,0,0,.09-9.34C370.45,183.19,369.91,176.15,368.75,171.43Z"/><path class="cls-17" d="M297.51,255.34c.77-28.57-1.52-35.41-9.12-40.64l-2.95,16.55s3.46,19.5,3.09,26c-.32,5.71-.88,12.85-2.23,17.46a3.48,3.48,0,0,1-1.51,2c-1.94,1.21-2.72,2.45-4.18,4-1.14,1.2-2.11,1.49-2,1.87a1.89,1.89,0,0,0,2.41.86,13.61,13.61,0,0,0,2.74-1.49,17.4,17.4,0,0,1-2.81,4.83c-2.72,3.33-2.84,5.38,2.65,5.43,3.43,0,6.17-2.09,8.76-9.66a62.16,62.16,0,0,0,2.41-8.51C296.13,266.49,297.39,259.94,297.51,255.34Z"/><path class="cls-18" d="M282,212.53c3.63-.53,8.56.23,11.75,5.93s4,15.51,4.33,25.26c0,0-6.33,5.29-13.93,2.69Z"/><path class="cls-5" d="M282,212.53c3.63-.53,8.56.23,11.75,5.93s4,15.51,4.33,25.26c0,0-6.33,5.29-13.93,2.69Z"/><path class="cls-10" d="M292.67,369.64c.57.22.72,1.32.81,3.5.06,1.65.42,4.54-1.52,5.11s-4.77.28-6-1.27c-1.55-2-2.59-3.66-4.8-6-1.92-2.06-4-4-4.76-6.86-.7-2.61-.12-3.74,1.66-4.5,2.44-1,6.29,2.37,8.2,2.9C287.9,363,292.09,369.42,292.67,369.64Z"/><path class="cls-17" d="M292.67,367.62v2.68a6.57,6.57,0,0,1-6.78.18c-.11-.26-.7-3.83-.7-3.83Z"/><path class="cls-10" d="M271,385.09a44.32,44.32,0,0,1,1.18,4.37c.33,1.62.8,4.33.24,5.55s-2.78,2-6.22,2c-2.22,0-5.68,1.49-8.05,2.81s-7.55,1.91-10.14,1.61c-3.05-.36-6.21-2.13-6.71-3.4s.16-2.57,7.36-5.64c.07,0,10-3.26,13.48-7.1Z"/><path class="cls-17" d="M271,382.19s0,2,0,3.13-1.33,2.83-4.81,2.7c-2.44-.08-4.14-.74-4-2.75v-2.9Z"/><path class="cls-8" d="M294.41,332.05a73.36,73.36,0,0,0-3.16-14s.95-12,1.41-23.47c.5-12.33,0-27.83.21-30.91,0,0-39.8-8-40.51,6.2s1.57,50.56,2,56.82,1.55,11.81,2.85,22,4.85,33.68,4.85,33.68a9.4,9.4,0,0,0,8.86-.18s2.8-28.51,2.51-35.74a61.8,61.8,0,0,0-2.74-15.77s.75-11.76,1.42-22,1.37-15.14,1.52-19.58l.86-.43s.87,17.64,1.34,23.91,1.47,12.27,3.28,23.9c1.58,10.1,6.26,31.45,6.26,31.45,4.54,2.46,7.26-.32,7.26-.32S295.64,340.81,294.41,332.05Z"/><path class="cls-10" d="M273.67,289.11s9.66-4.76,14.49-9.05c0,0-4.49,6.32-10.38,9.12,0,0-2.09,21.92-2.08,21.48l-1.21-21.59Z"/><polygon class="cls-17" points="265.08 208.01 267.44 220.97 279.14 220.12 276.69 205.42 265.08 208.01"/><path class="cls-2" d="M291.51,219.17c-1.16-3.52-5.63-7.36-10.1-6.53a132.64,132.64,0,0,0-19.6,4.89c-4.1,1.47-7.83,5-8.17,18.48,0,0-1.37,31.42-1.39,37.49,10.28,4.07,21,3.95,26.89,2.66,12.32-2.69,13.8-7.8,13.8-7.8s.16-22.59-.21-32.35C292.42,227.72,292.31,221.59,291.51,219.17Z"/><path class="cls-17" d="M256.05,192.24s-3,4.74-2.61,5.19,2.63.81,2.63.81Z"/><path class="cls-17" d="M264.29,179.15c-6.19,1.45-7.92,4.22-8.29,14.12-.38,10.34.75,13.56,2.14,14.92.93.92,6,1,8.58.21,3.19-1,10.4-3.7,13.68-9,3.86-6.2,4.73-14.51.37-17.81C274.63,177,266.81,178.55,264.29,179.15Z"/><path class="cls-19" d="M265.21,208.72c2.1-1.69,1.91-2.78,1.91-2.78-1.5,1.41-7.08,2.61-9,2.25C258.91,209,262.54,209.12,265.21,208.72Z"/><path class="cls-10" d="M256.07,181.72c1.82,3.11,5.76,4.6,5.76,4.6,1.19,1.35.53,6.63,2.62,7.46,0,0,.9-3.84,4.13-3.43s3.78,4.53,1.79,7.08-3.9,1.64-3.9,1.64.22,5.45,2.71,8.49c0,0,2.77.83,7.8-.37,3.1-.73,7.41-4.72,9.16-8.87,3.72-8.8,3.81-16.64-1.8-18.86-.69-4-3.89-5.73-7.51-6.48-7.79-1.6-12.81,3.26-18.81,2.84C254.58,175.58,253.94,178.07,256.07,181.72Z"/><path class="cls-10" d="M284.47,180.8l3.67-2.28a2.16,2.16,0,1,0-3.67,2.28Z"/><path class="cls-17" d="M262.13,217.48s-5.82,1.08-8.86,5.68-16.2,21.1-16.2,21.1-18.92-9.47-19.85-10.6-.41-3.39-.15-4.64.68-4,1-4.8c.48-1.37-1.53-1-2.72.27s-1.71,3.76-2.3,4.19-5.1-4.75-7.28-7.25-3.21-4.25-4.68-3.22c-1.05.75-.37,2.23,1.19,4.37a24.15,24.15,0,0,1,2,2.84c.19.38-.39.69-.61.89-.43.38-1.18,1-1.24,1.6a5.26,5.26,0,0,1,0,1c-.21.71-1.09,1-1.34,1.74-.18.51,0,1.07-.08,1.6-.07.34-.25.64-.32,1a2.39,2.39,0,0,0,.71,1.84c1.53,1.83,3.63,2.53,5.64,3.64,1.67.93,3.4,1.33,5.33,2.19s24.61,17.62,28.15,15.67,21.68-23.16,21.68-23.16A14.64,14.64,0,0,0,262.13,217.48Z"/><path class="cls-18" d="M264.16,216.8c-2.5.28-6-.18-10.91,5.08a153.17,153.17,0,0,0-11,14.2,13.91,13.91,0,0,0,11,10.33s8.58-8.79,11-13.64S267.1,220.06,264.16,216.8Z"/><path class="cls-5" d="M264.16,216.8c-2.5.28-6-.18-10.91,5.08a153.17,153.17,0,0,0-11,14.2,13.91,13.91,0,0,0,11,10.33s8.58-8.79,11-13.64S267.1,220.06,264.16,216.8Z"/></g></svg>