<svg xmlns="http://www.w3.org/2000/svg" xmlns:xlink="http://www.w3.org/1999/xlink" width="146" height="165" viewBox="0 0 146 165">
  <defs>
    <clipPath id="clip-path">
      <rect id="Rectangle_190" data-name="Rectangle 190" width="146" height="165" transform="translate(1450 4351)" fill="#fff" stroke="#707070" stroke-width="1"/>
    </clipPath>
  </defs>
  <g id="Mask_Group_32" data-name="Mask Group 32" transform="translate(-1450 -4351)" clip-path="url(#clip-path)">
    <path id="Path_341" data-name="Path 341" d="M98.581,51.127a13.827,13.827,0,0,1,13.395-13.9A16.954,16.954,0,0,1,122.348,33.3a18.424,18.424,0,0,1,16.315-9.971,18.617,18.617,0,0,1,18.028,14.3,13.933,13.933,0,0,1,10.373,13.5c0,7.453-7.352,14.5-15.107,14.5V63.615c6.747,0,13.092-6.043,13.092-12.488a11.886,11.886,0,0,0-9.366-11.683,1.094,1.094,0,0,1-.806-.806,16.687,16.687,0,0,0-16.214-13.293,16.45,16.45,0,0,0-14.8,9.366,1.158,1.158,0,0,1-.906.6,15.308,15.308,0,0,0-9.971,3.726.849.849,0,0,1-.7.2,11.82,11.82,0,0,0-11.783,11.884c.1,6.647,5.741,12.489,12.186,12.489h1.007V65.63H112.68c-7.553,0-14.1-6.748-14.1-14.5Zm41.493-18.933-.6,1.913A16.933,16.933,0,0,1,150.95,46.7l2.014-.4A19.244,19.244,0,0,0,140.073,32.194Zm-7.251,41.493a9.064,9.064,0,1,1,9.064-9.064A9.026,9.026,0,0,1,132.822,73.687Zm0-2.014a7.05,7.05,0,1,0-7.05-7.05A7.006,7.006,0,0,0,132.822,71.672ZM93.544,82.751H91.53v2.014h2.014Zm3.021,0H94.551v2.014h2.014Zm3.021,0H97.573v2.014h2.014ZM91.53,98.865V90.807A.951.951,0,0,1,92.537,89.8h8.057a.951.951,0,0,1,1.007,1.007v8.057a.951.951,0,0,1-1.007,1.007H92.537a.952.952,0,0,1-1.008-1.008Zm2.014-1.007h6.043V91.815H93.544Zm18.128,5.036v4.028a.951.951,0,0,1-1.007,1.007H92.537a.951.951,0,0,1-1.007-1.007v-4.028a.951.951,0,0,1,1.007-1.007h18.128a.951.951,0,0,1,1.007,1.007Zm-2.014,1.007H93.544v2.014h16.114Zm-6.043-12.085h8.057V89.8h-8.057Zm0,4.028h8.057V93.829h-8.057Zm0,4.029h8.057V97.858h-8.057Zm74.528-17.121v26.186a2.967,2.967,0,0,1-3.021,3.021H152.966a2.967,2.967,0,0,1-3.021-3.021V98.865H115.7v10.071a2.967,2.967,0,0,1-3.021,3.021H90.523a2.967,2.967,0,0,1-3.021-3.021V82.751a2.967,2.967,0,0,1,3.021-3.021h22.156a2.967,2.967,0,0,1,3.021,3.021V92.822h14.1V82.751h-1.007a.951.951,0,0,1-1.007-1.007V76.809l-3.525,3.525a.974.974,0,0,1-1.41,0l-5.741-5.741a.973.973,0,0,1,0-1.41l3.525-3.525H115.7a.951.951,0,0,1-1.007-1.007V60.594a.951.951,0,0,1,1.007-1.007h4.935l-3.525-3.525a.973.973,0,0,1,0-1.41l5.741-5.741a.973.973,0,0,1,1.41,0l3.525,3.525V47.5a.951.951,0,0,1,1.007-1.007h8.057a.951.951,0,0,1,1.007,1.007v4.935l3.525-3.525a.973.973,0,0,1,1.41,0l5.741,5.741a.974.974,0,0,1,0,1.41l-3.524,3.525h4.935a.951.951,0,0,1,1.007,1.007v8.057a.951.951,0,0,1-1.007,1.007h-4.935l3.525,3.525a.974.974,0,0,1,0,1.41l-5.741,5.741a.974.974,0,0,1-1.41,0l-3.525-3.525v4.935a.951.951,0,0,1-1.007,1.007h-1.007V92.822h14.1V82.751a2.967,2.967,0,0,1,3.021-3.021h22.156a2.967,2.967,0,0,1,3.021,3.021Zm-26.186,0v3.021h24.171V82.751a.951.951,0,0,0-1.007-1.007H152.965a.952.952,0,0,0-1.008,1.007ZM129.8,76v4.733h6.042V76a1.212,1.212,0,0,1,.7-1.007c.4-.1.7-.3,1.108-.4a.919.919,0,0,1,1.108.2l3.324,3.324,4.23-4.23-3.324-3.324a.945.945,0,0,1-.2-1.108,3.593,3.593,0,0,0,.4-1.108,1,1,0,0,1,1.007-.7h4.734V61.6H144.2a1.212,1.212,0,0,1-1.007-.7c-.1-.4-.3-.7-.4-1.108a.919.919,0,0,1,.2-1.108l3.324-3.324-4.23-4.23-3.324,3.324a.945.945,0,0,1-1.108.2,3.593,3.593,0,0,0-1.108-.4,1,1,0,0,1-.7-1.007V48.509H129.8v4.734a1.212,1.212,0,0,1-.7,1.007c-.4.1-.7.3-1.108.4a.919.919,0,0,1-1.108-.2l-3.324-3.324-4.23,4.23,3.324,3.324a.945.945,0,0,1,.2,1.108,3.592,3.592,0,0,0-.4,1.108,1,1,0,0,1-1.007.7h-4.734v6.043h4.734a1.212,1.212,0,0,1,1.007.7c.1.4.3.7.4,1.108a.919.919,0,0,1-.2,1.108l-3.324,3.324,4.23,4.23,3.324-3.324a.945.945,0,0,1,1.108-.2,4.876,4.876,0,0,0,1.108.4A1.213,1.213,0,0,1,129.8,76ZM89.517,82.751v3.021h24.171V82.751a.951.951,0,0,0-1.007-1.007H90.523a.951.951,0,0,0-1.007,1.007Zm24.171,15.107V87.787H89.517v21.15a.951.951,0,0,0,1.007,1.007H112.68a.951.951,0,0,0,1.007-1.007Zm36.256-1.007V94.836H134.837a.951.951,0,0,1-1.007-1.007V82.751h-2.014V93.829a.951.951,0,0,1-1.007,1.007H115.7v2.014Zm26.184,12.085V87.787H151.957v21.15a.951.951,0,0,0,1.007,1.007H175.12a.951.951,0,0,0,1.008-1.007ZM155.987,82.75h-2.014v2.014h2.014Zm3.021,0h-2.014v2.014h2.014Zm3.021,0h-2.014v2.014h2.014Zm-8.057,16.114V90.807a.951.951,0,0,1,1.007-1.007h8.057a.951.951,0,0,1,1.007,1.007v8.057a.951.951,0,0,1-1.007,1.007h-8.057A.951.951,0,0,1,153.972,98.864Zm2.014-1.007h6.043V91.815h-6.043Zm18.128,5.036v4.028a.951.951,0,0,1-1.007,1.007H154.98a.951.951,0,0,1-1.007-1.007v-4.028a.951.951,0,0,1,1.007-1.007h18.128a.951.951,0,0,1,1.008,1.007ZM172.1,103.9H155.987v2.014H172.1Zm-6.043-12.085h8.057V89.8h-8.057Zm0,4.028h8.057V93.828h-8.057Zm0,4.029h8.057V97.857h-8.057Z" transform="translate(1389.892 4365.951)" fill="#d4a437"/>
    <g id="Polygon_18" data-name="Polygon 18" transform="translate(1486.416 4328.867) rotate(30)" fill="none">
      <path d="M119.927,0a10,10,0,0,1,8.66,5l36.125,62.549a10,10,0,0,1,0,10L128.587,140.1a10,10,0,0,1-8.66,5H47.672a10,10,0,0,1-8.66-5L2.888,77.55a10,10,0,0,1,0-10L39.013,5a10,10,0,0,1,8.66-5Z" stroke="none"/>
      <path d="M 47.67250061035156 2.999984741210938 C 45.18006896972656 2.999984741210938 42.85738372802734 4.340774536132812 41.61083221435547 6.499130249023438 L 5.486282348632812 69.04808807373047 C 4.2391357421875 71.20751190185547 4.2391357421875 73.89041900634766 5.48626708984375 76.04979705810547 L 41.61080932617188 138.5987701416016 C 42.85733032226562 140.7571258544922 45.18004608154297 142.0979156494141 47.67247772216797 142.0979156494141 L 119.9272613525391 142.0979156494141 C 122.4197158813477 142.0979156494141 124.742431640625 140.7571258544922 125.9889526367188 138.5987701416016 L 162.1134796142578 76.04984283447266 C 163.3606262207031 73.89041900634766 163.3606262207031 71.20751190185547 162.1134948730469 69.04811096191406 L 125.9889526367188 6.499130249023438 C 124.7424011230469 4.340774536132812 122.4196929931641 2.999984741210938 119.9272613525391 2.999984741210938 L 47.67250061035156 2.999984741210938 M 47.67250061035156 -1.52587890625e-05 L 119.9272613525391 -1.52587890625e-05 C 123.4994049072266 -1.52587890625e-05 126.8002853393555 1.905471801757812 128.5868072509766 4.998748779296875 L 164.7113647460938 67.5477294921875 C 166.4986267089844 70.64237213134766 166.4986267089844 74.45555877685547 164.7113647460938 77.55020141601562 L 128.5868072509766 140.0991516113281 C 126.8002853393555 143.1924896240234 123.4994049072266 145.0979156494141 119.9272613525391 145.0979156494141 L 47.67247772216797 145.0979156494141 C 44.10033416748047 145.0979156494141 40.79947662353516 143.1924896240234 39.01295471191406 140.0991516113281 L 2.888397216796875 77.55017852783203 C 1.101150512695312 74.45555877685547 1.101150512695312 70.64237213134766 2.888397216796875 67.5477294921875 L 39.01296997070312 4.998748779296875 C 40.79947662353516 1.905471801757812 44.10035705566406 -1.52587890625e-05 47.67250061035156 -1.52587890625e-05 Z" stroke="none" fill="#000"/>
    </g>
  </g>
</svg>
