<svg xmlns="http://www.w3.org/2000/svg" width="79.188" height="88" viewBox="0 0 79.188 88">
  <g id="Group_145" data-name="Group 145" transform="translate(11170.754 -11702.443)">
    <path id="Path_488" data-name="Path 488" d="M415.828,524.79l-1.87,1.374a.973.973,0,0,1-.161.1l-.336.248c-.044.044-.1.044-.161.073h2.119a1.144,1.144,0,0,1,.219.044h2.82l-.1-.862a16.124,16.124,0,0,1-2.528-.979Z" transform="translate(-11533.56 11263.798)" fill="#181515"/>
    <g id="Group_144" data-name="Group 144" transform="translate(-11170.754 11702.442)">
      <path id="Path_487" data-name="Path 487" d="M159.569,160.827a1.442,1.442,0,0,1,1.139-1.432l2.878-.585a18.421,18.421,0,0,1,1.008-2.6l-1.754-2.367a1.417,1.417,0,0,1,.117-1.826l5.056-5.3a1.422,1.422,0,0,1,1.812-.2l2.454,1.651a17.962,17.962,0,0,1,2.542-1.125l.453-3.039a1.415,1.415,0,0,1,1.4-1.213h2.308V108.607H120.062v58.969h39.683ZM129.646,128.3a1.669,1.669,0,0,1,.307-.994,1.961,1.961,0,0,1,.818-.672l10.651-4.778a1.373,1.373,0,0,1,1.534.307,1.267,1.267,0,0,1,.394.979,1.282,1.282,0,0,1-.263.789,1.51,1.51,0,0,1-.643.526l-8.956,3.974,8.971,3.989a1.6,1.6,0,0,1,.643.526,1.322,1.322,0,0,1,.248.774,1.379,1.379,0,0,1-.394.993,1.321,1.321,0,0,1-.979.394,1.366,1.366,0,0,1-.541-.1h-.029l-10.651-4.778a2,2,0,0,1-.818-.687,1.6,1.6,0,0,1-.307-.993V128.3Zm13.719,32.786H126.943a1.417,1.417,0,0,1,0-2.835H143.35a1.417,1.417,0,0,1,.015,2.835Zm10.768-7.656H126.957a1.417,1.417,0,0,1,0-2.835h27.176a1.417,1.417,0,0,1,0,2.835Zm1.432-38.383-9.848,28.3a1.516,1.516,0,0,1-.467.672,1.461,1.461,0,0,1-1.871-.131,1.379,1.379,0,0,1-.394-.993,1.7,1.7,0,0,1,.087-.5l9.862-28.3a1.439,1.439,0,0,1,.467-.672,1.27,1.27,0,0,1,.848-.292,1.4,1.4,0,0,1,1.417,1.417,1.737,1.737,0,0,1-.1.5Zm1.5,20.016a1.355,1.355,0,0,1-.993-.394,1.379,1.379,0,0,1-.394-.993,1.343,1.343,0,0,1,.263-.789,1.693,1.693,0,0,1,.643-.511l8.956-3.989-8.956-3.989a1.384,1.384,0,0,1-.643-.511,1.282,1.282,0,0,1-.263-.789,1.321,1.321,0,0,1,.394-.979,1.468,1.468,0,0,1,1.534-.307l10.651,4.778a1.93,1.93,0,0,1,.833.672,1.6,1.6,0,0,1,.307.994v.219a1.7,1.7,0,0,1-.307.993,1.961,1.961,0,0,1-.818.672l-10.651,4.778a1,1,0,0,1-.556.145Z" transform="translate(-120.061 -94.128)" fill="#181515"/>
      <path id="Path_489" data-name="Path 489" d="M178.986,30.817a6.31,6.31,0,0,0-6.312-6.3h-46.3a6.31,6.31,0,0,0-6.311,6.3v5.348h58.926Zm-21.332.935H141.392a1.417,1.417,0,1,1,0-2.834h16.262a1.417,1.417,0,1,1,0,2.834Z" transform="translate(-120.061 -24.52)" fill="#181515"/>
      <path id="Path_490" data-name="Path 490" d="M163.584,473.915a1.42,1.42,0,0,1-.2-1.812L165,469.649a16.682,16.682,0,0,1-.965-2.133H120.059v5.362a6.386,6.386,0,0,0,6.18,6.326c.044,0,.087-.029.131-.029h42.81a2.033,2.033,0,0,1-.292-.19Zm-5.932.862H141.39a1.417,1.417,0,0,1,0-2.835h16.262a1.417,1.417,0,0,1,0,2.835Z" transform="translate(-120.059 -391.233)" fill="#181515"/>
      <path id="Path_491" data-name="Path 491" d="M447.777,396.69a5.131,5.131,0,0,0-.336-.628,6.581,6.581,0,0,0-5.567-3.127,6.458,6.458,0,0,0-4.427,11.148,6.513,6.513,0,0,0,5.128,1.783,6.409,6.409,0,0,0,3.317-1.315c.044-.029.073-.059.117-.087a5.662,5.662,0,0,0,.613-.57,6.308,6.308,0,0,0,1.651-3.2,6.633,6.633,0,0,0-.015-2.63,8.535,8.535,0,0,0-.482-1.374Z" transform="translate(-381.123 -329.495)" fill="#181515"/>
      <path id="Path_492" data-name="Path 492" d="M402.817,339.323l-2.615-.409a1.418,1.418,0,0,1-1.139-1.008,14.768,14.768,0,0,0-.8-2.119,11.174,11.174,0,0,0-.76-1.4,1.423,1.423,0,0,1,.015-1.534l1.446-2.192-3.594-3.433-2.119,1.548a1.429,1.429,0,0,1-1.52.1,14.943,14.943,0,0,0-3.361-1.33l-.234-.073a1.477,1.477,0,0,1-1.067-1.1l-.526-2.6h-4.953l-.394,2.689a1.4,1.4,0,0,1-1.008,1.154,14.75,14.75,0,0,0-3.536,1.563,1.4,1.4,0,0,1-1.519-.029l-2.192-1.476-3.419,3.58,1.563,2.119a1.424,1.424,0,0,1,.1,1.534,14.494,14.494,0,0,0-1.4,3.609,1.437,1.437,0,0,1-1.1,1.052l-2.572.511.131,4.968,2.615.409a1.4,1.4,0,0,1,1.139.993,14.148,14.148,0,0,0,1.563,3.521,1.424,1.424,0,0,1-.029,1.534l-1.461,2.192,3.594,3.448,2.1-1.548a1.429,1.429,0,0,1,1.52-.1,15.006,15.006,0,0,0,3.624,1.4,1.418,1.418,0,0,1,1.067,1.213l.248,2.133h4.982l.657-2.5a1.446,1.446,0,0,1,.979-1.008,14.246,14.246,0,0,0,3.521-1.563,1.424,1.424,0,0,1,1.534.029l2.206,1.476,3.419-3.58-1.563-2.119a1.4,1.4,0,0,1-.1-1.5,15.207,15.207,0,0,0,1.388-3.609,1.41,1.41,0,0,1,1.111-1.067l2.572-.511Zm-9.147,4.7a9.159,9.159,0,0,1-2.4,4.617,9.671,9.671,0,0,1-.906.833.9.9,0,0,1-.176.131,9.177,9.177,0,0,1-4.748,1.856c-.292.029-.6.044-.891.044a9.378,9.378,0,0,1-9.351-9.131,9.223,9.223,0,0,1,2.572-6.648,9.332,9.332,0,0,1,13.164-.278,9.01,9.01,0,0,1,1.534,1.9c.176.292.336.6.482.906a9.786,9.786,0,0,1,.672,2,9.1,9.1,0,0,1,.044,3.769Z" transform="translate(-323.744 -272.246)" fill="#181515"/>
    </g>
  </g>
</svg>
