<svg xmlns="http://www.w3.org/2000/svg" xmlns:xlink="http://www.w3.org/1999/xlink" width="146" height="165" viewBox="0 0 146 165">
  <defs>
    <clipPath id="clip-path">
      <rect id="Rectangle_193" data-name="Rectangle 193" width="146" height="165" transform="translate(887 4351)" fill="#fff" stroke="#707070" stroke-width="1"/>
    </clipPath>
  </defs>
  <g id="Mask_Group_24" data-name="Mask Group 24" transform="translate(-887 -4351)" clip-path="url(#clip-path)">
    <g id="Polygon_16" data-name="Polygon 16" transform="translate(923.87 4328.867) rotate(30)" fill="none">
      <path d="M119.927,0a10,10,0,0,1,8.66,5l36.125,62.549a10,10,0,0,1,0,10L128.587,140.1a10,10,0,0,1-8.66,5H47.672a10,10,0,0,1-8.66-5L2.888,77.55a10,10,0,0,1,0-10L39.013,5a10,10,0,0,1,8.66-5Z" stroke="none"/>
      <path d="M 47.67250061035156 2.999984741210938 C 45.18006896972656 2.999984741210938 42.85738372802734 4.340774536132812 41.61083221435547 6.499130249023438 L 5.486282348632812 69.04808807373047 C 4.2391357421875 71.20751190185547 4.2391357421875 73.89041900634766 5.48626708984375 76.04979705810547 L 41.61080932617188 138.5987701416016 C 42.85733032226562 140.7571258544922 45.18004608154297 142.0979156494141 47.67247772216797 142.0979156494141 L 119.9272613525391 142.0979156494141 C 122.4197158813477 142.0979156494141 124.742431640625 140.7571258544922 125.9889526367188 138.5987701416016 L 162.1134796142578 76.04984283447266 C 163.3606262207031 73.89041900634766 163.3606262207031 71.20751190185547 162.1134948730469 69.04811096191406 L 125.9889526367188 6.499130249023438 C 124.7424011230469 4.340774536132812 122.4196929931641 2.999984741210938 119.9272613525391 2.999984741210938 L 47.67250061035156 2.999984741210938 M 47.67250061035156 -1.52587890625e-05 L 119.9272613525391 -1.52587890625e-05 C 123.4994049072266 -1.52587890625e-05 126.8002853393555 1.905471801757812 128.5868072509766 4.998748779296875 L 164.7113647460938 67.5477294921875 C 166.4986267089844 70.64237213134766 166.4986267089844 74.45555877685547 164.7113647460938 77.55020141601562 L 128.5868072509766 140.0991516113281 C 126.8002853393555 143.1924896240234 123.4994049072266 145.0979156494141 119.9272613525391 145.0979156494141 L 47.67247772216797 145.0979156494141 C 44.10033416748047 145.0979156494141 40.79947662353516 143.1924896240234 39.01295471191406 140.0991516113281 L 2.888397216796875 77.55017852783203 C 1.101150512695312 74.45555877685547 1.101150512695312 70.64237213134766 2.888397216796875 67.5477294921875 L 39.01296997070312 4.998748779296875 C 40.79947662353516 1.905471801757812 44.10035705566406 -1.52587890625e-05 47.67250061035156 -1.52587890625e-05 Z" stroke="none" fill="#181515"/>
    </g>
    <g id="Group_120" data-name="Group 120" transform="translate(913.706 4390.563)">
      <path id="Path_314" data-name="Path 314" d="M172.859,117.346a14.4,14.4,0,1,0-7.537,2.144,14.265,14.265,0,0,0,7.537-2.144ZM155.269,111.3a11.79,11.79,0,0,1,10-17.978,11.458,11.458,0,0,1,2.728.324A11.778,11.778,0,1,1,155.27,111.3Z" transform="translate(-137.542 -77.385)" fill="#d4a437"/>
      <path id="Path_315" data-name="Path 315" d="M95.73,65.375a1.3,1.3,0,0,0,1.239-.915l.86-2.811a23.737,23.737,0,0,0,7.066-1.1L106.6,63a1.3,1.3,0,0,0,1.748.361l7.278-4.494a1.292,1.292,0,0,0,.463-1.711l-1.378-2.6a23.613,23.613,0,0,0,4.217-5.78l2.941.527a1.308,1.308,0,0,0,1.5-.981l1.97-8.332a1.305,1.305,0,0,0-.888-1.544l-2.811-.86a23.737,23.737,0,0,0-1.1-7.066l2.451-1.711a1.3,1.3,0,0,0,.361-1.748l-4.494-7.278a1.292,1.292,0,0,0-1.711-.463l-2.6,1.378a23.655,23.655,0,0,0-6.021-4.338l.481-2.9a1.3,1.3,0,0,0-.981-1.48L99.7,10.007a1.293,1.293,0,0,0-1.544.9L97.3,13.771a23.76,23.76,0,0,0-7.056,1.184l-1.693-2.422a1.3,1.3,0,0,0-1.738-.352l-7.278,4.494a1.313,1.313,0,0,0-.463,1.73L80.5,21.031a23.974,23.974,0,0,0-4.152,5.826l-2.9-.481a1.3,1.3,0,0,0-1.48.981l-1.97,8.332a1.293,1.293,0,0,0,.9,1.544l2.867.851a23.76,23.76,0,0,0,1.184,7.056l-2.385,1.711A1.3,1.3,0,0,0,72.2,48.59L76.7,55.868a1.313,1.313,0,0,0,1.73.463l2.626-1.424a23.377,23.377,0,0,0,5.595,4.023l-.527,2.941a1.308,1.308,0,0,0,.981,1.5l8.332,1.97a1.6,1.6,0,0,0,.3.037ZM88.9,61.121l.481-2.691a1.3,1.3,0,0,0-.731-1.406A21.038,21.038,0,0,1,82.236,52.4a1.308,1.308,0,0,0-1.563-.25l-2.4,1.3-3.209-5.2,2.2-1.572a1.3,1.3,0,0,0,.463-1.517,21.376,21.376,0,0,1-1.35-8.027,1.3,1.3,0,0,0-.934-1.286l-2.626-.777,1.406-5.946,2.664.463a1.3,1.3,0,0,0,1.4-.749A21.273,21.273,0,0,1,83,22.215a1.308,1.308,0,0,0,.25-1.563l-1.3-2.4,5.2-3.209,1.572,2.2a1.3,1.3,0,0,0,1.517.463,21.376,21.376,0,0,1,8.027-1.35,1.3,1.3,0,0,0,1.286-.934l.777-2.626,5.946,1.406-.444,2.664a1.292,1.292,0,0,0,.749,1.4,21.2,21.2,0,0,1,6.788,4.892,1.31,1.31,0,0,0,1.563.268l2.386-1.267,3.209,5.2-2.247,1.563a1.307,1.307,0,0,0-.481,1.508,21.229,21.229,0,0,1,1.258,8.036,1.3,1.3,0,0,0,.915,1.295l2.58.8-1.406,5.946-2.691-.481a1.3,1.3,0,0,0-1.406.731,21.189,21.189,0,0,1-4.79,6.575,1.31,1.31,0,0,0-.268,1.563l1.267,2.386-5.2,3.209-1.563-2.247a1.307,1.307,0,0,0-1.508-.481,21.229,21.229,0,0,1-8.036,1.258,1.312,1.312,0,0,0-1.295.915l-.8,2.58Z" transform="translate(-69.957 -9.973)" fill="#d4a437"/>
      <path id="Path_316" data-name="Path 316" d="M431.373,256.908a11.622,11.622,0,1,0,15.99,3.782,11.633,11.633,0,0,0-15.99-3.782Zm14.88,11.948a9.005,9.005,0,1,1-1.1-6.817,8.983,8.983,0,0,1,1.1,6.817Z" transform="translate(-367.093 -214.683)" fill="#d4a437"/>
      <path id="Path_317" data-name="Path 317" d="M405.339,213.827l-2.026-.62a19.108,19.108,0,0,0-.823-5.262l1.766-1.23a1.3,1.3,0,0,0,.361-1.748l-3.551-5.743a1.292,1.292,0,0,0-1.711-.463l-1.868.99a18.983,18.983,0,0,0-4.494-3.237l.352-2.09a1.3,1.3,0,0,0-.98-1.48l-6.566-1.553a1.293,1.293,0,0,0-1.544.9l-.61,2.071a19.107,19.107,0,0,0-5.253.879l-1.23-1.72a1.3,1.3,0,0,0-1.738-.352l-5.743,3.551a1.313,1.313,0,0,0-.463,1.73l1.026,1.9a18.87,18.87,0,0,0-3.089,4.338l-2.09-.352a1.3,1.3,0,0,0-1.48.981l-1.553,6.566a1.293,1.293,0,0,0,.9,1.544l2.071.61a19.108,19.108,0,0,0,.879,5.253l-1.72,1.23a1.3,1.3,0,0,0-.352,1.738L367.357,228a1.313,1.313,0,0,0,1.729.463l1.9-1.026a18.669,18.669,0,0,0,4.152,2.987l-.379,2.127a1.308,1.308,0,0,0,.981,1.5L382.3,235.6a1.127,1.127,0,0,0,.3.037,1.3,1.3,0,0,0,1.239-.915l.62-2.026a19.109,19.109,0,0,0,5.262-.823l1.23,1.766A1.3,1.3,0,0,0,392.7,234l5.743-3.551a1.292,1.292,0,0,0,.463-1.711l-.99-1.868a18.879,18.879,0,0,0,3.135-4.3l2.127.379a1.308,1.308,0,0,0,1.5-.981l1.553-6.566a1.34,1.34,0,0,0-.888-1.571Zm-2.922,6.316-1.868-.333a1.3,1.3,0,0,0-1.406.731,16.478,16.478,0,0,1-3.718,5.1,1.31,1.31,0,0,0-.268,1.563l.879,1.655-3.653,2.247-1.082-1.553a1.3,1.3,0,0,0-1.508-.481,16.246,16.246,0,0,1-6.233.971,1.313,1.313,0,0,0-1.295.915l-.555,1.794-4.189-.99.333-1.868a1.3,1.3,0,0,0-.731-1.406,16.467,16.467,0,0,1-4.976-3.579,1.308,1.308,0,0,0-1.563-.25l-1.664.906-2.266-3.662,1.526-1.091a1.3,1.3,0,0,0,.462-1.517,16.419,16.419,0,0,1-1.045-6.224,1.3,1.3,0,0,0-.934-1.286l-1.822-.536.99-4.189,1.849.305a1.3,1.3,0,0,0,1.4-.749,16.582,16.582,0,0,1,3.662-5.142,1.308,1.308,0,0,0,.25-1.563l-.906-1.664L375.746,196l1.091,1.526a1.3,1.3,0,0,0,1.517.463,16.419,16.419,0,0,1,6.224-1.045,1.3,1.3,0,0,0,1.286-.934l.536-1.822,4.189.99-.305,1.849a1.292,1.292,0,0,0,.749,1.4,16.254,16.254,0,0,1,5.272,3.8,1.31,1.31,0,0,0,1.563.268l1.655-.879,2.266,3.662-1.553,1.082a1.307,1.307,0,0,0-.481,1.508,16.245,16.245,0,0,1,.971,6.233,1.3,1.3,0,0,0,.915,1.295l1.794.555Z" transform="translate(-313.768 -161.402)" fill="#d4a437"/>
      <path id="Path_318" data-name="Path 318" d="M238.359,385.433a9.578,9.578,0,1,0,5.327,5.012,9.493,9.493,0,0,0-5.327-5.012Zm3.135,11.411a6.97,6.97,0,0,1-8.98,4.051,6.972,6.972,0,1,1,8.98-4.051Z" transform="translate(-199.732 -322.908)" fill="#d4a437"/>
      <path id="Path_319" data-name="Path 319" d="M210.658,355.572l-1.378-.629a15.384,15.384,0,0,0-.1-3.967l1.369-.712a1.3,1.3,0,0,0,.583-1.692l-2.229-4.929a1.3,1.3,0,0,0-1.637-.684l-1.415.527a15.515,15.515,0,0,0-2.876-2.737l.463-1.47a1.293,1.293,0,0,0-.777-1.609l-5.059-1.915a1.31,1.31,0,0,0-1.646.675l-.629,1.378a15.461,15.461,0,0,0-4.134.13l-.712-1.331a1.307,1.307,0,0,0-1.683-.573l-4.929,2.229a1.3,1.3,0,0,0-.675,1.655l.555,1.442a15.461,15.461,0,0,0-2.7,2.9l-1.442-.444a1.294,1.294,0,0,0-1.591.786l-1.915,5.059a1.294,1.294,0,0,0,.693,1.646l1.406.62a15.426,15.426,0,0,0,.148,3.967l-1.341.728a1.307,1.307,0,0,0-.573,1.683l2.229,4.929a1.3,1.3,0,0,0,1.655.675l1.442-.555a15.462,15.462,0,0,0,2.9,2.7l-.444,1.442a1.294,1.294,0,0,0,.786,1.591l5.059,1.915a1.309,1.309,0,0,0,1.655-.693l.62-1.406a15.324,15.324,0,0,0,3.792-.12l.712,1.369a1.3,1.3,0,0,0,1.692.583l4.929-2.229a1.3,1.3,0,0,0,.684-1.637l-.527-1.415a15.514,15.514,0,0,0,2.737-2.876l1.47.463a1.314,1.314,0,0,0,1.609-.777l1.915-5.059a1.332,1.332,0,0,0-.693-1.639Zm-3.237,4.633-1.22-.388a1.3,1.3,0,0,0-1.489.546,12.95,12.95,0,0,1-3.422,3.6,1.291,1.291,0,0,0-.463,1.517l.444,1.184-2.7,1.22-.592-1.137a1.285,1.285,0,0,0-1.433-.666,12.788,12.788,0,0,1-4.818.148,1.291,1.291,0,0,0-1.387.759l-.518,1.165-2.775-1.045.37-1.2a1.288,1.288,0,0,0-.555-1.48,12.9,12.9,0,0,1-3.634-3.376,1.3,1.3,0,0,0-1.517-.444l-1.193.463-1.22-2.7,1.11-.592a1.31,1.31,0,0,0,.657-1.442,12.97,12.97,0,0,1-.185-4.957,1.291,1.291,0,0,0-.759-1.387l-1.165-.518L180,346.693l1.2.37a1.288,1.288,0,0,0,1.48-.555,12.769,12.769,0,0,1,3.376-3.634,1.3,1.3,0,0,0,.444-1.517l-.463-1.193,2.7-1.22.592,1.11a1.31,1.31,0,0,0,1.442.657,12.838,12.838,0,0,1,5.1-.157,1.285,1.285,0,0,0,1.4-.74l.527-1.147,2.775,1.045-.388,1.22a1.3,1.3,0,0,0,.546,1.489,12.95,12.95,0,0,1,3.6,3.422,1.291,1.291,0,0,0,1.517.462l1.184-.444,1.22,2.7-1.137.592a1.286,1.286,0,0,0-.666,1.433,12.965,12.965,0,0,1,.13,4.957,1.285,1.285,0,0,0,.74,1.4l1.147.527Z" transform="translate(-158.501 -281.885)" fill="#d4a437"/>
    </g>
  </g>
</svg>
