<svg xmlns="http://www.w3.org/2000/svg" width="90.139" height="88" viewBox="0 0 90.139 88">
  <g id="Group_149" data-name="Group 149" transform="translate(10745.407 -10830)">
    <path id="Path_507" data-name="Path 507" d="M152.411,311.706c0,3.067-2.483,7.262-5.55,7.262s-5.55-4.195-5.55-7.262a5.55,5.55,0,1,1,11.1,0Z" transform="translate(-10879.407 10572.656)"/>
    <path id="Path_508" data-name="Path 508" d="M142.946,303.972c0,.158.049.584-.04.712.089-.119.049-.317.01-.089-.01.059-.02.129-.03.188-.03.148-.059.3-.1.435a6.578,6.578,0,0,1-.228.752c-.049.148-.109.287-.158.435-.069.188.04-.089.049-.109-.04.079-.069.168-.109.247a11.906,11.906,0,0,1-.89,1.494c.158-.247.049-.059-.059.059a3.526,3.526,0,0,1-.257.287c-.208.218-.425.406-.643.6.208-.188.109-.079-.04.02a3.18,3.18,0,0,1-.307.188c-.04.02-.287.188-.317.168,0,0,.416-.148.089-.04a1.929,1.929,0,0,0-.218.079l-.336.089c-.307.079.326,0,0,0-.119,0-.228.01-.346.01-.059,0-.119-.01-.178-.01-.208.01.366.089.059,0-.148-.04-.564-.079-.663-.2-.01-.02.317.168.148.059-.049-.03-.109-.049-.158-.079-.138-.079-.277-.158-.416-.247-.158-.1-.247-.208-.04-.02-.089-.089-.188-.158-.287-.247a5.52,5.52,0,0,1-.574-.6c-.1-.119-.277-.386-.1-.109-.069-.109-.158-.218-.228-.327-.158-.237-.307-.495-.445-.752-.079-.139-.148-.277-.218-.416s-.148-.356-.04-.079a7.888,7.888,0,0,1-.287-.811c-.079-.267-.148-.544-.208-.811a1.58,1.58,0,0,1-.069-.376c0-.01.03.356.02.158,0-.079-.02-.158-.02-.237a7.775,7.775,0,0,1,0-.831c.01-.346-.059.257,0-.079.03-.158.059-.307.1-.455.03-.129.079-.257.119-.386.02-.059.049-.119.069-.188-.089.326-.069.148-.02.049.129-.257.267-.495.416-.732.03-.059.079-.109.109-.158-.01.01-.208.237-.069.089.1-.109.2-.228.3-.336a3.533,3.533,0,0,1,.277-.267c.049-.04.1-.089.148-.129s.267-.188.079-.069.148-.089.2-.129a3.749,3.749,0,0,1,.336-.2c.138-.069.267-.139.415-.2-.317.148,0,.01.139-.03.257-.079.514-.129.782-.188.2-.04-.109.02-.129.02.089,0,.188-.02.277-.02a3.953,3.953,0,0,1,.485,0c.158.01.514.049.148-.01.158.03.307.049.465.089a5.025,5.025,0,0,1,.514.148c.059.02.119.049.188.069-.119-.03-.237-.109-.049-.02.277.139.524.3.791.455.069.04.257.2-.04-.04a1.611,1.611,0,0,1,.2.168c.109.1.228.208.327.307s.208.218.307.336c.03.03.138.208.02.03-.129-.2.03.049.049.089a5.546,5.546,0,0,1,.465.861c-.148-.317-.01,0,.03.139a3.713,3.713,0,0,1,.119.445,2.529,2.529,0,0,1,.049.267c.04.208-.01.069-.01-.059.01.168.03.346.03.534a1.731,1.731,0,1,0,3.463,0,7.285,7.285,0,0,0-13.732-3.393,8.919,8.919,0,0,0,.91,8.884A7.924,7.924,0,0,0,137,312.5a5.408,5.408,0,0,0,4.561-.139A8.38,8.38,0,0,0,145,308.889a10.3,10.3,0,0,0,1.395-4.917,1.746,1.746,0,0,0-1.731-1.731,1.764,1.764,0,0,0-1.721,1.731Z" transform="translate(-10871.674 10580.39)"/>
    <path id="Path_509" data-name="Path 509" d="M132.731,404.425v4.442H110.47v-4.442a5.736,5.736,0,0,1,5.7-5.748h1.326l4.116,4.63,4.086-4.63h1.336a5.743,5.743,0,0,1,5.7,5.748Z" transform="translate(-10854.146 10496.864)"/>
    <path id="Path_510" data-name="Path 510" d="M123.164,396.771v4.442l1.731-1.731h-22.27l1.731,1.731v-4.65c0-.069.01-.138.01-.208,0-.02.069-.435.01-.178s.049-.228.069-.3c.04-.148.079-.3.129-.445s.188-.435.04-.138c.079-.158.148-.317.237-.465s.178-.3.277-.435c.178-.277-.168.188.04-.059a8.511,8.511,0,0,1,.732-.732c.03-.03.208-.148.03-.02-.2.138.04-.02.089-.049.129-.079.257-.168.386-.237s.277-.129.406-.208c.158-.1-.089.04-.109.049.1-.04.208-.079.307-.109a5.44,5.44,0,0,1,.574-.158,1.407,1.407,0,0,0,.2-.04c.237-.059-.416.03.01,0,.228-.02.445-.03.673-.03h1.207c-.406-.168-.811-.336-1.227-.5,1.375,1.543,2.74,3.087,4.116,4.63a1.732,1.732,0,0,0,2.444,0c1.365-1.543,2.721-3.087,4.086-4.63-.406.168-.811.336-1.227.5H119.2c.228,0,.455.02.683.04-.228-.02-.208-.03,0,.01.109.02.218.049.326.079.218.059.416.138.623.208-.406-.139-.02,0,.059.04.1.049.188.1.287.158s.188.109.277.168c.04.03.346.237.139.089s.089.069.129.109c.079.069.158.148.237.218.168.168.326.346.475.524-.139-.168-.109-.158,0,.01.059.089.119.178.178.277.109.188.2.386.3.574-.178-.346-.04-.089,0,.01s.069.208.1.317c.04.129.069.257.1.386.01.049.089.425.04.168s.01.148.01.178c.01.129.01.267.01.406a1.731,1.731,0,1,0,3.463,0,7.526,7.526,0,0,0-7.44-7.43c-.435,0-.881-.02-1.316,0a1.994,1.994,0,0,0-1.474.782c-.7.8-1.415,1.6-2.117,2.4-.574.653-1.148,1.3-1.712,1.949h2.444c-.762-.861-1.524-1.712-2.285-2.572l-1.435-1.613a2.274,2.274,0,0,0-1.781-.95,13.212,13.212,0,0,0-2.651.148,7.426,7.426,0,0,0-3.492,1.761,7.591,7.591,0,0,0-2.463,5.808v4.155a1.753,1.753,0,0,0,1.731,1.731H124.9a1.753,1.753,0,0,0,1.731-1.731v-4.442a1.736,1.736,0,0,0-3.473,0Z" transform="translate(-10846.311 10504.52)"/>
    <path id="Path_511" data-name="Path 511" d="M508.431,311.706c0,3.067-2.483,7.262-5.55,7.262s-5.55-4.195-5.55-7.262a5.55,5.55,0,1,1,11.1,0Z" transform="translate(-11171.02 10572.656)"/>
    <path id="Path_512" data-name="Path 512" d="M498.966,303.972c0,.158.049.584-.04.712.089-.119.049-.317.01-.089-.01.059-.02.129-.03.188-.03.148-.059.3-.1.435a6.584,6.584,0,0,1-.228.752c-.049.148-.109.287-.158.435-.069.188.04-.089.049-.109-.04.079-.069.168-.109.247a11.91,11.91,0,0,1-.89,1.494c.158-.247.049-.059-.059.059a3.525,3.525,0,0,1-.257.287c-.208.218-.425.406-.643.6.208-.188.109-.079-.04.02a3.189,3.189,0,0,1-.307.188c-.04.02-.287.188-.317.168,0,0,.416-.148.089-.04a1.936,1.936,0,0,0-.218.079l-.336.089c-.307.079.326,0,0,0-.119,0-.228.01-.346.01-.059,0-.119-.01-.178-.01-.208.01.366.089.059,0-.148-.04-.564-.079-.663-.2-.01-.02.317.168.148.059-.049-.03-.109-.049-.158-.079-.139-.079-.277-.158-.416-.247-.158-.1-.247-.208-.04-.02-.089-.089-.188-.158-.287-.247a5.526,5.526,0,0,1-.574-.6c-.1-.119-.277-.386-.1-.109-.069-.109-.158-.218-.228-.327-.158-.237-.307-.495-.445-.752-.079-.139-.148-.277-.218-.416s-.148-.356-.04-.079a7.9,7.9,0,0,1-.287-.811c-.079-.267-.148-.544-.208-.811a1.579,1.579,0,0,1-.069-.376c0-.01.03.356.02.158,0-.079-.02-.158-.02-.237a7.767,7.767,0,0,1,0-.831c.01-.346-.059.257,0-.079.03-.158.059-.307.1-.455.03-.129.079-.257.119-.386.02-.059.049-.119.069-.188-.089.326-.069.148-.02.049.129-.257.267-.495.416-.732.03-.059.079-.109.109-.158-.01.01-.208.237-.069.089.1-.109.2-.228.3-.336a3.556,3.556,0,0,1,.277-.267c.049-.04.1-.089.148-.129s.267-.188.079-.069.148-.089.2-.129a3.762,3.762,0,0,1,.336-.2c.138-.069.267-.139.416-.2-.317.148,0,.01.138-.03.257-.079.514-.129.782-.188.2-.04-.109.02-.129.02.089,0,.188-.02.277-.02a3.953,3.953,0,0,1,.485,0c.158.01.514.049.148-.01.158.03.307.049.465.089a5.026,5.026,0,0,1,.515.148c.059.02.119.049.188.069-.119-.03-.237-.109-.049-.02.277.139.524.3.792.455.069.04.257.2-.04-.04a1.608,1.608,0,0,1,.2.168c.119.1.228.208.326.307s.208.218.307.336c.03.03.138.208.02.03-.129-.2.03.049.049.089a5.543,5.543,0,0,1,.465.861c-.148-.317-.01,0,.03.139a3.7,3.7,0,0,1,.119.445,2.545,2.545,0,0,1,.049.267c.04.208-.01.069-.01-.059.01.168.03.346.03.534a1.731,1.731,0,1,0,3.463,0,7.285,7.285,0,0,0-13.732-3.393,8.919,8.919,0,0,0,.91,8.884,7.924,7.924,0,0,0,3.413,3.037,5.408,5.408,0,0,0,4.561-.139,8.38,8.38,0,0,0,3.443-3.473,10.3,10.3,0,0,0,1.395-4.917,1.746,1.746,0,0,0-1.731-1.731,1.764,1.764,0,0,0-1.721,1.731Z" transform="translate(-11163.287 10580.39)"/>
    <path id="Path_513" data-name="Path 513" d="M488.741,404.425v4.442H466.48v-4.442a5.736,5.736,0,0,1,5.7-5.748H473.5l4.116,4.63,4.086-4.63h1.336a5.743,5.743,0,0,1,5.7,5.748Z" transform="translate(-11145.751 10496.864)"/>
    <path id="Path_514" data-name="Path 514" d="M479.174,396.771v4.442l1.731-1.731h-22.27l1.731,1.731v-4.65c0-.069.01-.138.01-.208,0-.02.069-.435.01-.178s.049-.228.069-.3c.04-.148.079-.3.129-.445s.188-.435.04-.138c.079-.158.148-.317.237-.465s.178-.3.277-.435c.178-.277-.168.188.04-.059a8.508,8.508,0,0,1,.732-.732c.03-.03.208-.148.03-.02-.2.138.04-.02.089-.049.129-.079.257-.168.386-.237s.277-.129.406-.208c.158-.1-.089.04-.109.049.1-.04.208-.079.307-.109a5.436,5.436,0,0,1,.574-.158,1.4,1.4,0,0,0,.2-.04c.237-.059-.416.03.01,0,.228-.02.445-.03.673-.03h1.207c-.406-.168-.811-.336-1.227-.5,1.375,1.543,2.74,3.087,4.116,4.63a1.732,1.732,0,0,0,2.444,0c1.365-1.543,2.721-3.087,4.086-4.63-.406.168-.811.336-1.227.5h1.336c.228,0,.455.02.683.04-.228-.02-.208-.03,0,.01.109.02.218.049.327.079.218.059.415.138.623.208-.406-.139-.02,0,.059.04.1.049.188.1.287.158s.188.109.277.168c.04.03.346.237.138.089s.089.069.129.109c.079.069.158.148.237.218.168.168.326.346.475.524-.139-.168-.109-.158,0,.01.059.089.119.178.178.277.109.188.2.386.3.574-.178-.346-.04-.089,0,.01s.069.208.1.317c.04.129.069.257.1.386.01.049.089.425.04.168s.01.148.01.178c.01.129.01.267.01.406a1.731,1.731,0,0,0,3.463,0,7.526,7.526,0,0,0-7.44-7.43c-.435,0-.88-.02-1.316,0a1.994,1.994,0,0,0-1.474.782c-.7.8-1.415,1.6-2.117,2.4-.574.653-1.148,1.3-1.712,1.949h2.444c-.762-.861-1.524-1.712-2.285-2.572L467.3,390.29a2.274,2.274,0,0,0-1.781-.95,13.212,13.212,0,0,0-2.651.148,7.426,7.426,0,0,0-3.492,1.761,7.59,7.59,0,0,0-2.463,5.808v4.155a1.753,1.753,0,0,0,1.731,1.731h22.27a1.753,1.753,0,0,0,1.731-1.731v-4.442a1.736,1.736,0,0,0-3.473,0Z" transform="translate(-11137.915 10504.52)"/>
    <path id="Path_515" data-name="Path 515" d="M330.421,51.388c0,3.067-2.483,7.262-5.55,7.262s-5.55-4.195-5.55-7.262a5.55,5.55,0,1,1,11.1,0Z" transform="translate(-11025.213 10785.88)"/>
    <path id="Path_516" data-name="Path 516" d="M320.956,43.654c0,.158.049.584-.04.712.089-.119.049-.317.01-.089-.01.059-.02.129-.03.188-.03.148-.059.3-.1.435a6.592,6.592,0,0,1-.228.752c-.049.148-.109.287-.158.435-.069.188.04-.089.049-.109-.04.079-.069.168-.109.247a11.9,11.9,0,0,1-.89,1.494c.158-.247.049-.059-.059.059a3.537,3.537,0,0,1-.257.287c-.208.218-.425.406-.643.6.208-.188.109-.079-.04.02a3.183,3.183,0,0,1-.307.188c-.04.02-.287.188-.317.168,0,0,.416-.148.089-.04a1.922,1.922,0,0,0-.218.079l-.336.089c-.307.079.326,0,0,0-.119,0-.228.01-.346.01-.059,0-.119-.01-.178-.01-.208.01.366.089.059,0-.148-.04-.564-.079-.663-.2-.01-.02.317.168.148.059-.049-.03-.109-.049-.158-.079-.139-.079-.277-.158-.416-.247-.158-.1-.247-.208-.04-.02-.089-.089-.188-.158-.287-.247a5.52,5.52,0,0,1-.574-.6c-.1-.119-.277-.386-.1-.109-.069-.109-.158-.218-.228-.326-.158-.237-.307-.495-.445-.752-.079-.139-.148-.277-.218-.416s-.148-.356-.04-.079a7.894,7.894,0,0,1-.287-.811c-.079-.267-.148-.544-.208-.811a1.577,1.577,0,0,1-.069-.376c0-.01.03.356.02.158,0-.079-.02-.158-.02-.237a7.767,7.767,0,0,1,0-.831c.01-.346-.059.257,0-.079.03-.158.059-.307.1-.455.03-.129.079-.257.119-.386.02-.059.049-.119.069-.188-.089.326-.069.148-.02.049.129-.257.267-.495.416-.732.03-.059.079-.109.109-.158-.01.01-.208.237-.069.089.1-.109.2-.228.3-.336a3.527,3.527,0,0,1,.277-.267c.049-.04.1-.089.148-.129s.267-.188.079-.069.148-.089.2-.129a3.755,3.755,0,0,1,.336-.2c.139-.069.267-.139.416-.2-.317.148,0,.01.139-.03.257-.079.514-.129.782-.188.2-.04-.109.02-.119.02.089,0,.188-.02.277-.02a3.96,3.96,0,0,1,.485,0c.158.01.514.049.148-.01.158.03.307.049.465.089a5.031,5.031,0,0,1,.514.148c.059.02.119.049.188.069-.119-.03-.237-.109-.049-.02.277.139.524.3.792.455.069.04.257.2-.04-.04a1.615,1.615,0,0,1,.2.168c.119.1.228.208.327.307s.208.218.307.336c.03.03.139.208.02.03-.129-.2.03.049.049.089a5.546,5.546,0,0,1,.465.861c-.148-.317-.01,0,.03.139a3.707,3.707,0,0,1,.119.445,2.532,2.532,0,0,1,.049.267c.04.208-.01.069-.01-.059,0,.168.02.346.02.534a1.731,1.731,0,0,0,3.463,0,7.285,7.285,0,0,0-13.732-3.394,8.919,8.919,0,0,0,.91,8.884,7.925,7.925,0,0,0,3.413,3.037,5.408,5.408,0,0,0,4.561-.139,8.38,8.38,0,0,0,3.443-3.473,10.3,10.3,0,0,0,1.395-4.917,1.746,1.746,0,0,0-1.731-1.731,1.764,1.764,0,0,0-1.721,1.731Z" transform="translate(-11017.48 10793.614)"/>
    <path id="Path_517" data-name="Path 517" d="M310.569,144.105v4.442H288.21v-4.442a5.778,5.778,0,0,1,5.748-5.748h1.336l4.116,4.63,4.086-4.63h1.336a5.783,5.783,0,0,1,5.738,5.748Z" transform="translate(-10999.731 10710.091)"/>
    <path id="Path_518" data-name="Path 518" d="M301.164,136.451v4.442l1.731-1.731h-22.27l1.731,1.731v-4.65c0-.069.01-.139.01-.208,0-.02.069-.435.01-.178s.049-.228.069-.3c.04-.148.079-.3.129-.445s.188-.435.04-.139c.079-.158.148-.317.237-.465s.178-.3.277-.435c.178-.277-.168.188.04-.059a8.519,8.519,0,0,1,.732-.732c.03-.03.208-.148.03-.02-.2.139.04-.02.089-.049.129-.079.257-.168.386-.237s.277-.129.406-.208c.158-.1-.089.04-.109.049.1-.04.208-.079.307-.109a5.447,5.447,0,0,1,.574-.158,1.4,1.4,0,0,0,.2-.04c.237-.059-.416.03.01,0,.228-.02.445-.03.673-.03h1.207c-.406-.168-.811-.336-1.227-.5,1.375,1.543,2.74,3.087,4.116,4.63a1.732,1.732,0,0,0,2.444,0c1.365-1.543,2.721-3.087,4.086-4.63-.406.168-.811.336-1.227.5H297.2c.228,0,.455.02.683.04-.228-.02-.208-.03,0,.01.109.02.218.049.326.079.218.059.416.139.623.208-.406-.139-.02,0,.059.04.1.049.188.1.287.158s.188.109.277.168c.04.03.346.237.138.089s.089.069.129.109c.079.069.158.148.237.218.168.168.326.346.475.524-.139-.168-.109-.158,0,.01.059.089.119.178.178.277.109.188.2.386.3.574-.178-.346-.04-.089,0,.01s.069.208.1.317c.04.129.069.257.1.386.01.049.089.425.04.168s.01.148.01.178c.01.129.01.267.01.406a1.731,1.731,0,1,0,3.463,0,7.526,7.526,0,0,0-7.44-7.43c-.435,0-.881-.02-1.316,0a1.994,1.994,0,0,0-1.474.782c-.7.8-1.415,1.6-2.117,2.4-.574.653-1.148,1.3-1.712,1.949h2.444c-.762-.861-1.524-1.712-2.285-2.572l-1.435-1.613a2.274,2.274,0,0,0-1.781-.95,13.213,13.213,0,0,0-2.651.148,7.426,7.426,0,0,0-3.492,1.761,7.591,7.591,0,0,0-2.463,5.808v4.155a1.753,1.753,0,0,0,1.731,1.731h22.27a1.753,1.753,0,0,0,1.731-1.731v-4.442a1.736,1.736,0,0,0-3.473,0Z" transform="translate(-10992.108 10717.745)"/>
    <path id="Path_519" data-name="Path 519" d="M150.59,155.439a36.238,36.238,0,0,1,1.751-5.738c.049-.119.1-.228.139-.346.129-.317-.247.574-.04.1.1-.228.2-.455.3-.673.208-.445.415-.89.643-1.336.445-.881.93-1.731,1.444-2.572s1.068-1.642,1.652-2.434c.069-.1.148-.2.218-.3.109-.148.356-.346-.069.079.148-.158.277-.346.406-.514.327-.4.653-.791.989-1.177a35.47,35.47,0,0,1,4.225-4.046c.079-.059.148-.119.228-.188.059-.049.554-.445.218-.168s.059-.04.109-.079c.119-.089.237-.178.356-.257.435-.317.881-.623,1.326-.92.94-.623,1.91-1.2,2.909-1.731a2.444,2.444,0,0,0,.871-3.314,2.472,2.472,0,0,0-3.314-.871,37.752,37.752,0,0,0-16.72,18.114,39.184,39.184,0,0,0-2.315,7.074,2.428,2.428,0,0,0,4.68,1.3Z" transform="translate(-10883.126 10718.049)"/>
    <path id="Path_520" data-name="Path 520" d="M275.308,471.141a23.055,23.055,0,0,1-3.027,1.464c.663-.237-.2.079-.356.138-.267.1-.524.208-.791.3-.534.2-1.069.376-1.613.544a34.063,34.063,0,0,1-3.324.851c-.564.119-1.138.218-1.7.307-.119.02-.228.03-.346.049-.574.089.416-.049.04,0-.317.04-.633.079-.96.109a35.313,35.313,0,0,1-7.084,0c-.287-.03-.584-.059-.871-.1-.148-.02-.455-.01.129.02-.139-.01-.287-.04-.425-.059-.6-.089-1.2-.2-1.791-.317-1.118-.228-2.226-.515-3.314-.851-.594-.188-1.187-.386-1.771-.6-.287-.109-.584-.218-.871-.336-.129-.049-.257-.109-.386-.158-.544-.218.495.218-.04-.02-1.177-.524-2.325-1.1-3.443-1.731a2.423,2.423,0,0,0-2.444,4.185A38.073,38.073,0,0,0,270,478.492a38.711,38.711,0,0,0,7.766-3.176,2.444,2.444,0,0,0,.871-3.314,2.483,2.483,0,0,0-3.324-.861Z" transform="translate(-10960.03 10438.093)"/>
    <path id="Path_521" data-name="Path 521" d="M424.953,130.872a35.8,35.8,0,0,1,5.135,3.136c.2.139.376.317.584.435-.04-.02-.455-.366-.148-.109l.287.228c.4.317.792.653,1.177.989.732.643,1.435,1.316,2.117,2.018.693.722,1.355,1.464,1.989,2.236.138.168.277.346.416.514.326.416-.336-.455-.02-.03l.178.237c.317.435.633.871.93,1.316a35.2,35.2,0,0,1,2.879,5.125c.119.267.218.554.356.811-.277-.534-.129-.317-.069-.168s.129.317.2.485c.208.534.406,1.068.594,1.613q.549,1.632.95,3.324a2.438,2.438,0,0,0,2.978,1.692,2.48,2.48,0,0,0,1.692-2.978,38.1,38.1,0,0,0-13.93-21.389,36.088,36.088,0,0,0-5.837-3.661,2.474,2.474,0,0,0-3.314.871,2.443,2.443,0,0,0,.861,3.3Z" transform="translate(-11110.781 10719.881)"/>
    <path id="Path_522" data-name="Path 522" d="M296.434,264.205a14.441,14.441,0,0,0-6.263-5.61,14.864,14.864,0,0,0-8.993-1.059A14.494,14.494,0,0,0,269.85,269.3a16.094,16.094,0,0,0-.218,2.276c0,.03-.02.059-.02.089v.03a14.722,14.722,0,0,0,9.567,13.564,14.517,14.517,0,0,0,15.929-4.284,14.78,14.78,0,0,0,3.364-8.261,14.333,14.333,0,0,0-2.038-8.508Zm-14.059,12.456v-3.215H279.09a1.731,1.731,0,1,1,0-3.463h3.285v-3.3a1.731,1.731,0,1,1,3.463,0v3.3h3.235a1.731,1.731,0,1,1,0,3.463h-3.235v3.215a1.759,1.759,0,0,1-1.731,1.731A1.74,1.74,0,0,1,282.375,276.661Z" transform="translate(-10984.499 10612.696)"/>
  </g>
</svg>
