<svg xmlns="http://www.w3.org/2000/svg" xmlns:xlink="http://www.w3.org/1999/xlink" width="146" height="165" viewBox="0 0 146 165">
  <defs>
    <clipPath id="clip-path">
      <rect id="Rectangle_189" data-name="Rectangle 189" width="146" height="165" transform="translate(324 4351)" fill="#fff" stroke="#707070" stroke-width="1"/>
    </clipPath>
  </defs>
  <g id="Mask_Group_22" data-name="Mask Group 22" transform="translate(-324 -4351)" clip-path="url(#clip-path)">
    <g id="Polygon_14" data-name="Polygon 14" transform="translate(360.549 4328.867) rotate(30)" fill="none">
      <path d="M119.927,0a10,10,0,0,1,8.66,5l36.125,62.549a10,10,0,0,1,0,10L128.587,140.1a10,10,0,0,1-8.66,5H47.672a10,10,0,0,1-8.66-5L2.888,77.55a10,10,0,0,1,0-10L39.013,5a10,10,0,0,1,8.66-5Z" stroke="none"/>
      <path d="M 47.67250061035156 2.999984741210938 C 45.18006896972656 2.999984741210938 42.85738372802734 4.340774536132812 41.61083221435547 6.499130249023438 L 5.486282348632812 69.04808807373047 C 4.2391357421875 71.20751190185547 4.2391357421875 73.89041900634766 5.48626708984375 76.04979705810547 L 41.61080932617188 138.5987701416016 C 42.85733032226562 140.7571258544922 45.18004608154297 142.0979156494141 47.67247772216797 142.0979156494141 L 119.9272613525391 142.0979156494141 C 122.4197158813477 142.0979156494141 124.742431640625 140.7571258544922 125.9889526367188 138.5987701416016 L 162.1134796142578 76.04984283447266 C 163.3606262207031 73.89041900634766 163.3606262207031 71.20751190185547 162.1134948730469 69.04811096191406 L 125.9889526367188 6.499130249023438 C 124.7424011230469 4.340774536132812 122.4196929931641 2.999984741210938 119.9272613525391 2.999984741210938 L 47.67250061035156 2.999984741210938 M 47.67250061035156 -1.52587890625e-05 L 119.9272613525391 -1.52587890625e-05 C 123.4994049072266 -1.52587890625e-05 126.8002853393555 1.905471801757812 128.5868072509766 4.998748779296875 L 164.7113647460938 67.5477294921875 C 166.4986267089844 70.64237213134766 166.4986267089844 74.45555877685547 164.7113647460938 77.55020141601562 L 128.5868072509766 140.0991516113281 C 126.8002853393555 143.1924896240234 123.4994049072266 145.0979156494141 119.9272613525391 145.0979156494141 L 47.67247772216797 145.0979156494141 C 44.10033416748047 145.0979156494141 40.79947662353516 143.1924896240234 39.01295471191406 140.0991516113281 L 2.888397216796875 77.55017852783203 C 1.101150512695312 74.45555877685547 1.101150512695312 70.64237213134766 2.888397216796875 67.5477294921875 L 39.01296997070312 4.998748779296875 C 40.79947662353516 1.905471801757812 44.10035705566406 -1.52587890625e-05 47.67250061035156 -1.52587890625e-05 Z" stroke="none" fill="#181515"/>
    </g>
    <g id="Group_109" data-name="Group 109" transform="translate(367.213 4394.441)">
      <path id="Path_288" data-name="Path 288" d="M239.44,475.2H190.9a5.371,5.371,0,0,1-5.365-5.365V459.807a1.533,1.533,0,1,1,3.066,0v10.027a2.3,2.3,0,0,0,2.3,2.3h48.539a2.3,2.3,0,0,0,2.3-2.3V459.807a1.533,1.533,0,1,1,3.066,0v10.027a5.371,5.371,0,0,1-5.365,5.365Z" transform="translate(-185.537 -393.233)" fill="#d4a437"/>
      <path id="Path_289" data-name="Path 289" d="M243.277,71.777h-56.2a1.533,1.533,0,1,1,0-3.066h56.2a1.533,1.533,0,1,1,0,3.066Z" transform="translate(-185.542 -57.736)" fill="#d4a437"/>
      <path id="Path_290" data-name="Path 290" d="M243.277,75.908h-56.2a1.409,1.409,0,0,1-1.533-1.24V12.137c0-2.392,2.406-4.338,5.365-4.338h48.539c2.958,0,5.365,1.946,5.365,4.338V74.669a1.41,1.41,0,0,1-1.533,1.24Zm-54.669-2.479h53.137V12.136a2.117,2.117,0,0,0-2.3-1.859H190.908a2.117,2.117,0,0,0-2.3,1.859Z" transform="translate(-185.542 -7.799)" fill="#d4a437"/>
      <path id="Path_291" data-name="Path 291" d="M321.656,499.8h-12.04a1.533,1.533,0,0,1,0-3.066h12.039a1.533,1.533,0,0,1,0,3.066Z" transform="translate(-286.001 -424.763)" fill="#d4a437"/>
      <path id="Path_292" data-name="Path 292" d="M271.4,142.422H254.59a1.374,1.374,0,0,1-1.375-1.375V125.3l-.961.961a1.374,1.374,0,0,1-1.944,0l-3.679-3.68a1.375,1.375,0,0,1,0-1.944l5.864-5.864a2.62,2.62,0,0,1,1.19-.682l4.892-1.273a1.376,1.376,0,0,1,1.757,1.321,2.661,2.661,0,0,0,5.322,0,1.375,1.375,0,0,1,1.72-1.33L272.3,114.1a2.617,2.617,0,0,1,1.191.682l5.864,5.864a1.375,1.375,0,0,1,0,1.944l-3.679,3.68a1.374,1.374,0,0,1-1.944,0l-.961-.961v15.744a1.374,1.374,0,0,1-1.375,1.374Zm-15.435-2.749h14.061V121.986a1.375,1.375,0,0,1,2.347-.972l2.336,2.336,1.736-1.736-4.867-4.867-3.448-.9a5.41,5.41,0,0,1-10.267,0l-3.448.9-4.867,4.867,1.736,1.736,2.336-2.336a1.375,1.375,0,0,1,2.347.972Z" transform="translate(-233.36 -98.547)" fill="#d4a437"/>
      <path id="Path_293" data-name="Path 293" d="M260.67,323.65H235.985a1.533,1.533,0,1,1,0-3.066H260.67a1.533,1.533,0,0,1,0,3.066Z" transform="translate(-225.638 -273.791)" fill="#d4a437"/>
      <path id="Path_294" data-name="Path 294" d="M410.4,323.65h-8.718a1.533,1.533,0,0,1,0-3.066H410.4a1.533,1.533,0,1,1,0,3.065Z" transform="translate(-361.481 -273.791)" fill="#d4a437"/>
      <path id="Path_295" data-name="Path 295" d="M246.874,370.46H235.985a1.533,1.533,0,1,1,0-3.066h10.889a1.533,1.533,0,1,1,0,3.066Z" transform="translate(-225.638 -313.597)" fill="#d4a437"/>
      <path id="Path_296" data-name="Path 296" d="M344.367,370.46H321.135a1.533,1.533,0,1,1,0-3.066h23.232a1.533,1.533,0,1,1,0,3.065Z" transform="translate(-295.444 -313.597)" fill="#d4a437"/>
      <path id="Path_297" data-name="Path 297" d="M257.94,417.28H235.985a1.533,1.533,0,1,1,0-3.066H257.94a1.533,1.533,0,1,1,0,3.066Z" transform="translate(-225.638 -353.412)" fill="#d4a437"/>
      <path id="Path_298" data-name="Path 298" d="M394.059,417.28h-12.31a1.533,1.533,0,0,1,0-3.066h12.31a1.533,1.533,0,1,1,0,3.065Z" transform="translate(-345.136 -353.412)" fill="#d4a437"/>
    </g>
  </g>
</svg>
