<svg id="Layer_1" data-name="Layer 1" xmlns="http://www.w3.org/2000/svg" viewBox="0 0 678.24 446.77"><defs><style>.cls-1{fill:#e0e0e0;}.cls-2{fill:#fafafa;}.cls-3{fill:#ebebeb;}.cls-4{fill:#f5f5f5;}.cls-5{fill:#263238;}.cls-6{fill:#455a64;}.cls-7{fill:#e3a624;}.cls-8{opacity:0.6;}.cls-9{fill:#fff;}.cls-10{opacity:0.3;}.cls-11{fill:#ffbe9d;}.cls-12{fill:#eb996e;}.cls-13{opacity:0.2;}.cls-14{fill:#825d21;}.cls-15{opacity:0.4;}</style></defs><g id="Background_Complete" data-name="Background Complete"><rect class="cls-1" x="617.6" y="5.31" width="60.64" height="63.21"/><rect class="cls-2" x="613.48" y="5.31" width="60.64" height="63.21"/><path class="cls-1" d="M678.7,72.77H618V9.52H678.7Zm-60.64,0h60.6V9.56h-60.6Z" transform="translate(-4.56 -4.23)"/><rect class="cls-2" x="621.64" y="13.8" width="44.34" height="46.22"/><path class="cls-1" d="M626.19,64.56a6.6,6.6,0,0,1-1.09,1.27c-.71.75-1.7,1.76-2.82,2.86s-2.14,2.07-2.9,2.77a7.34,7.34,0,0,1-1.28,1.07,7.32,7.32,0,0,1,1.09-1.27c.71-.75,1.71-1.76,2.82-2.86s2.15-2.09,2.91-2.78A7.15,7.15,0,0,1,626.19,64.56Z" transform="translate(-4.56 -4.23)"/><path class="cls-1" d="M670.53,64.44a7.84,7.84,0,0,1,1.27,1.1c.75.71,1.76,1.7,2.86,2.82s2.07,2.14,2.77,2.89a8.16,8.16,0,0,1,1.07,1.28,7.26,7.26,0,0,1-1.27-1.08c-.75-.71-1.76-1.71-2.86-2.83s-2.09-2.14-2.78-2.9A6.87,6.87,0,0,1,670.53,64.44Z" transform="translate(-4.56 -4.23)"/><path class="cls-1" d="M670.41,18.16a7,7,0,0,1,1.09-1.27c.71-.75,1.7-1.76,2.82-2.86s2.14-2.08,2.9-2.77a6.55,6.55,0,0,1,1.28-1.07,7.32,7.32,0,0,1-1.09,1.27c-.71.74-1.71,1.76-2.83,2.86s-2.14,2.08-2.9,2.78A7.15,7.15,0,0,1,670.41,18.16Z" transform="translate(-4.56 -4.23)"/><path class="cls-1" d="M626.07,18.26a7.32,7.32,0,0,1-1.27-1.09c-.75-.71-1.76-1.71-2.86-2.82s-2.07-2.09-2.77-2.89a6.55,6.55,0,0,1-1.07-1.28,6.91,6.91,0,0,1,1.27,1.08c.75.71,1.76,1.7,2.86,2.82S624.31,16.23,625,17A7.15,7.15,0,0,1,626.07,18.26Z" transform="translate(-4.56 -4.23)"/><path class="cls-1" d="M670.41,64.26a.81.81,0,0,1,0-.22V51.48c0-8.1,0-19.63-.08-33.44l.17.17H626.29l.2-.2V64.23l-.17-.17,32,.09h0l-32.12.09h-.17V17.85h44.58V18c0,13.86-.07,25.43-.09,33.55V64C670.41,64.18,670.41,64.26,670.41,64.26Z" transform="translate(-4.56 -4.23)"/><rect class="cls-3" x="636.41" y="29.51" width="14.79" height="14.79"/><path class="cls-3" d="M625.68,188.06s-9-.65-8.18,19.55,2.89,31,2.89,31-.26,4.47-3.73,3.59-10-5.23-13.22-2-2.15,8.56,2.28,14.66,13.66,19.84,14.49,21.08,1.14,3.52-1.32,3.3-19.06-5.85-21.25,2.19,12.94,23,14.57,24.68,1.71,2.72,1,3.73-6.06-1.41-10.84-2.81-10.59-2.2-11.47,2.54,5.8,18.62,30.78,33.2l12,6,11.38-7.26c23.4-17,28.65-31.49,27.3-36.12s-7-3.26-11.66-1.38-9.75,4.82-10.51,3.88-.78-2,.67-3.82,15-18.24,12-26-18.94-.52-21.36-.05-2.33-1.85-1.64-3.15,8.5-15.91,12.3-22.42,4.46-11.8.8-14.82-9.59,2.07-13,3.29-4.08-3.21-4.08-3.21,1-10.91-.22-31.09-10.3-18.55-10.3-18.55" transform="translate(-4.56 -4.23)"/><path class="cls-1" d="M626.39,206.15a2.7,2.7,0,0,0,.05.42c0,.28,0,.71.09,1.24.08,1.11.19,2.71.33,4.77.27,4.14.63,10.14,1,17.55.82,14.82,1.78,35.31,2.77,57.94s1.9,43.13,2.64,58c.38,7.39.68,13.39.9,17.55.1,2.06.18,3.67.23,4.78v1.66a2.94,2.94,0,0,1,0-.42c0-.3-.06-.71-.1-1.24-.07-1.11-.18-2.71-.32-4.77-.28-4.14-.63-10.13-1-17.55-.83-14.82-1.79-35.31-2.78-57.95s-1.9-43.12-2.64-57.94c-.37-7.4-.68-13.39-.89-17.56-.1-2.06-.18-3.66-.24-4.78a8.52,8.52,0,0,0,0-1.24A1,1,0,0,1,626.39,206.15Z" transform="translate(-4.56 -4.23)"/><path class="cls-1" d="M612.33,246.65a4.42,4.42,0,0,1,.74.62c.47.42,1.12,1,1.91,1.83,1.59,1.58,3.72,3.8,6,6.3l5.87,6.44,1.79,1.94a4,4,0,0,1,.63.74,4.41,4.41,0,0,1-.75-.62c-.46-.42-1.11-1-1.9-1.84-1.57-1.59-3.67-3.84-6-6.34l-5.92-6.39-1.8-1.93A3.81,3.81,0,0,1,612.33,246.65Z" transform="translate(-4.56 -4.23)"/><path class="cls-1" d="M630.49,264.12c-.09-.09,4.31-4.69,9.82-10.28s10-10,10.14-10-4.3,4.69-9.81,10.28S630.58,264.26,630.49,264.12Z" transform="translate(-4.56 -4.23)"/><path class="cls-1" d="M630.44,299a4.1,4.1,0,0,1,.84-.53l2.35-1.32c2-1.12,4.72-2.67,7.67-4.48s5.59-3.54,7.48-4.81l2.24-1.5a4,4,0,0,1,.85-.5,3.52,3.52,0,0,1-.74.65c-.51.39-1.24,1-2.17,1.62-1.84,1.33-4.45,3.11-7.42,4.93s-5.73,3.33-7.76,4.37c-1,.52-1.84.93-2.42,1.19A3.88,3.88,0,0,1,630.44,299Z" transform="translate(-4.56 -4.23)"/><path class="cls-1" d="M610.53,286.76a3,3,0,0,1,.83.39c.52.28,1.27.69,2.18,1.21,1.83,1,4.34,2.5,7.1,4.15s5.25,3.15,7,4.26c.9.55,1.62,1,2.11,1.33a3.65,3.65,0,0,1,.74.55,4.19,4.19,0,0,1-.83-.39c-.52-.28-1.27-.69-2.18-1.21-1.83-1-4.34-2.51-7.1-4.15s-5.25-3.15-7-4.26c-.9-.55-1.62-1-2.11-1.33A4,4,0,0,1,610.53,286.76Z" transform="translate(-4.56 -4.23)"/><path class="cls-1" d="M606.58,317.5a5.17,5.17,0,0,1,1.06.51l2.8,1.54c2.35,1.32,5.58,3.18,9.14,5.25s6.76,4,9.07,5.35l2.73,1.67a5.63,5.63,0,0,1,1,.67,6.35,6.35,0,0,1-1-.51l-2.8-1.55c-2.35-1.32-5.59-3.17-9.14-5.24s-6.77-4-9.08-5.35l-2.72-1.67A6.55,6.55,0,0,1,606.58,317.5Z" transform="translate(-4.56 -4.23)"/><path class="cls-1" d="M631.87,332a6.2,6.2,0,0,1,1-.7l2.92-1.78c2.47-1.5,5.87-3.59,9.56-6s7-4.66,9.34-6.31l2.81-2a6.52,6.52,0,0,1,1.06-.67,7.15,7.15,0,0,1-1,.82c-.64.5-1.56,1.21-2.73,2.07-2.32,1.72-5.58,4-9.28,6.43s-7.13,4.46-9.64,5.89c-1.26.71-2.28,1.28-3,1.65A7.19,7.19,0,0,1,631.87,332Z" transform="translate(-4.56 -4.23)"/><polygon class="cls-1" points="645.34 348.47 612.09 348.47 622.93 430.61 634.49 430.61 645.34 348.47"/><path class="cls-4" d="M618.37,362.79s0,.12.18.3a2.06,2.06,0,0,0,.8.57,4,4,0,0,0,3.52-.4c1.34-.74,2.51-2.2,4.31-2.84a9.41,9.41,0,0,1,6.11.12,26.56,26.56,0,0,1,5.7,2.76,41.26,41.26,0,0,0,4.63,2.49,12.73,12.73,0,0,0,3.41,1,6.73,6.73,0,0,0,1,.07h.33a17.38,17.38,0,0,1-4.56-1.37,47.06,47.06,0,0,1-4.53-2.57,25.34,25.34,0,0,0-5.79-2.85A9.77,9.77,0,0,0,627,360a8.84,8.84,0,0,0-2.43,1.51,18.15,18.15,0,0,1-1.9,1.47,3.88,3.88,0,0,1-3.24.56A3.13,3.13,0,0,1,618.37,362.79Z" transform="translate(-4.56 -4.23)"/><path class="cls-4" d="M619.58,377.92s.26-.33.78-.88a7.51,7.51,0,0,1,2.66-1.68,11.73,11.73,0,0,1,4.62-.7,48.83,48.83,0,0,1,5.79.79,19.94,19.94,0,0,0,5.92.25,16.07,16.07,0,0,0,4.66-1.34,14.94,14.94,0,0,0,2.81-1.66,3.94,3.94,0,0,0,.88-.8,28.08,28.08,0,0,1-3.84,2.11,16.83,16.83,0,0,1-4.57,1.19,20,20,0,0,1-5.78-.29,44.14,44.14,0,0,0-5.85-.75,11.86,11.86,0,0,0-4.78.84,7,7,0,0,0-2.67,1.9,5.4,5.4,0,0,0-.51.74C619.61,377.82,619.56,377.91,619.58,377.92Z" transform="translate(-4.56 -4.23)"/><path class="cls-4" d="M646.12,386a2.81,2.81,0,0,0-.91-.47,9.58,9.58,0,0,0-2.76-.59,17.59,17.59,0,0,0-4.16.23c-1.55.26-3.22.68-5,1.05a20.45,20.45,0,0,1-5,.56,10.67,10.67,0,0,1-3.93-.85,9.23,9.23,0,0,1-3-2.22,2.44,2.44,0,0,0,.57.87,7.2,7.2,0,0,0,2.25,1.7,10.65,10.65,0,0,0,4.07,1,19.79,19.79,0,0,0,5.09-.52c1.76-.38,3.41-.82,4.93-1.09a19.1,19.1,0,0,1,4.06-.35A15.71,15.71,0,0,1,646.12,386Z" transform="translate(-4.56 -4.23)"/><path class="cls-4" d="M622.52,397.42a5.35,5.35,0,0,1,3.23-.33,15.54,15.54,0,0,1,3.37,1.26,12.94,12.94,0,0,0,12.34-.64,11.34,11.34,0,0,0,2-1.52,3.59,3.59,0,0,0,.59-.7,29.23,29.23,0,0,1-2.76,1.89,13.53,13.53,0,0,1-7.71,1.64c-3.15-.18-5.57-2.06-7.75-2.31a4.88,4.88,0,0,0-2.51.22C622.74,397.15,622.5,397.4,622.52,397.42Z" transform="translate(-4.56 -4.23)"/><path class="cls-4" d="M624.37,413.18a6.27,6.27,0,0,0,2.77-.55c1.67-.56,3.74-1.84,6.16-2.8a10.46,10.46,0,0,1,3.53-.74,6.6,6.6,0,0,1,2.84.65,6.39,6.39,0,0,1,2.06,1.77,1.71,1.71,0,0,0-.32-.7,4.59,4.59,0,0,0-1.56-1.41,6.69,6.69,0,0,0-3-.81,10.15,10.15,0,0,0-3.73.73c-2.51,1-4.51,2.32-6.11,2.95S624.36,413.09,624.37,413.18Z" transform="translate(-4.56 -4.23)"/><path class="cls-4" d="M626,420.52a7.55,7.55,0,0,0,2.11.68,37.52,37.52,0,0,0,5.26.89,36.47,36.47,0,0,0,5.33.15,7.75,7.75,0,0,0,2.2-.26c0-.16-3.37,0-7.48-.43S626,420.36,626,420.52Z" transform="translate(-4.56 -4.23)"/><rect class="cls-1" x="124.14" y="40.27" width="8.6" height="42.77" transform="translate(-4.89 -3.54) rotate(-0.31)"/><rect class="cls-3" x="49.62" y="40.41" width="22.26" height="23.61" transform="translate(-4.84 -3.9) rotate(-0.31)"/><rect class="cls-4" x="71.78" y="40.3" width="22.26" height="23.61" transform="translate(-4.84 -3.78) rotate(-0.31)"/><path class="cls-1" d="M49.59,47c14.79.13,29.62,0,44.41-.2a.24.24,0,0,0,.19-.28.23.23,0,0,0-.19-.19c-14.79-.08-29.62,0-44.41.27a.2.2,0,1,0,0,.4Z" transform="translate(-4.56 -4.23)"/><rect class="cls-3" x="35.72" y="63.69" width="40.44" height="19.24" transform="translate(-4.95 -3.93) rotate(-0.31)"/><rect class="cls-4" x="75.98" y="63.46" width="40.44" height="19.24" transform="translate(-4.95 -3.71) rotate(-0.31)"/><path class="cls-1" d="M35.7,69.15c26.87.3,53.82,0,80.69-.4a.24.24,0,0,0,.19-.28.23.23,0,0,0-.19-.19c-26.86-.14-53.82-.13-80.68.46a.22.22,0,0,0-.16.25.22.22,0,0,0,.16.16Z" transform="translate(-4.56 -4.23)"/><rect class="cls-1" x="16.03" y="78.81" width="156.67" height="6.89"/><rect class="cls-1" x="41.68" y="82.12" width="6.36" height="23.52"/><rect class="cls-1" x="136.62" y="82.12" width="6.36" height="23.52"/><rect class="cls-3" x="132.96" y="23.53" width="8.59" height="58.82" transform="translate(-5.08 -2.86) rotate(-0.57)"/><rect class="cls-4" x="141.21" y="35.28" width="13.36" height="47.67" transform="translate(-4.88 -3.43) rotate(-0.31)"/><path class="cls-1" d="M154.33,44.44a47.87,47.87,0,0,1-6.67.23,48.07,48.07,0,0,1-6.68-.23,48.07,48.07,0,0,1,6.68-.23A47.87,47.87,0,0,1,154.33,44.44Z" transform="translate(-4.56 -4.23)"/><path class="cls-1" d="M154.33,42.44a49.46,49.46,0,0,1-6.67.23,49.67,49.67,0,0,1-6.68-.23,46.58,46.58,0,0,1,6.68-.24A46.39,46.39,0,0,1,154.33,42.44Z" transform="translate(-4.56 -4.23)"/><path class="cls-1" d="M154.33,75.75a47.87,47.87,0,0,1-6.67.23,48.07,48.07,0,0,1-6.68-.23,48.07,48.07,0,0,1,6.68-.23A47.87,47.87,0,0,1,154.33,75.75Z" transform="translate(-4.56 -4.23)"/><path class="cls-1" d="M154.33,73.75a47.87,47.87,0,0,1-6.67.23,48.07,48.07,0,0,1-6.68-.23,48.07,48.07,0,0,1,6.68-.23A47.87,47.87,0,0,1,154.33,73.75Z" transform="translate(-4.56 -4.23)"/><path class="cls-1" d="M147.87,69.38c-.13,0-.23-4.81-.23-10.74s.1-10.74.23-10.74.23,4.81.23,10.74S148,69.38,147.87,69.38Z" transform="translate(-4.56 -4.23)"/><rect class="cls-3" x="149.93" y="42.73" width="14.54" height="35.98"/><circle class="cls-1" cx="132.01" cy="30.12" r="2.47"/><rect class="cls-1" x="131.26" y="36.91" width="1.53" height="34.99"/><rect class="cls-1" x="21.75" y="145.29" width="60.64" height="63.21"/><rect class="cls-2" x="17.65" y="145.29" width="60.64" height="63.21"/><path class="cls-1" d="M82.87,212.75H22.18V149.5H82.87Zm-60.64,0H82.87V149.54H22.22Z" transform="translate(-4.56 -4.23)"/><rect class="cls-2" x="25.8" y="153.79" width="44.34" height="46.22"/><path class="cls-1" d="M30.35,204.54a6.71,6.71,0,0,1-1.1,1.28c-.7.74-1.7,1.75-2.81,2.85s-2.14,2.08-2.9,2.78a6.87,6.87,0,0,1-1.28,1.06,6.84,6.84,0,0,1,1.09-1.25c.71-.75,1.7-1.76,2.82-2.87s2.15-2.08,2.9-2.77A7,7,0,0,1,30.35,204.54Z" transform="translate(-4.56 -4.23)"/><path class="cls-1" d="M74.68,204.43A7,7,0,0,1,76,205.52c.74.71,1.76,1.71,2.85,2.82s2.08,2.14,2.78,2.9a6.5,6.5,0,0,1,1.06,1.28,7.25,7.25,0,0,1-1.26-1.09c-.75-.71-1.76-1.7-2.87-2.82s-2.08-2.15-2.77-2.9A7.34,7.34,0,0,1,74.68,204.43Z" transform="translate(-4.56 -4.23)"/><path class="cls-1" d="M74.56,158.14a7.84,7.84,0,0,1,1.1-1.27c.71-.75,1.7-1.76,2.82-2.86s2.14-2.07,2.89-2.77a8.75,8.75,0,0,1,1.28-1.07,6.91,6.91,0,0,1-1.08,1.27c-.71.75-1.71,1.76-2.83,2.86s-2.14,2.09-2.9,2.78A5.69,5.69,0,0,1,74.56,158.14Z" transform="translate(-4.56 -4.23)"/><path class="cls-1" d="M30.23,158.26a7.84,7.84,0,0,1-1.27-1.1c-.75-.7-1.76-1.7-2.86-2.82s-2.08-2.14-2.77-2.89a7.34,7.34,0,0,1-1.07-1.28,7,7,0,0,1,1.27,1.09c.74.7,1.76,1.7,2.86,2.82s2.08,2.15,2.78,2.9A6.5,6.5,0,0,1,30.23,158.26Z" transform="translate(-4.56 -4.23)"/><path class="cls-1" d="M74.56,204.26V191.47c0-8.09,0-19.62-.09-33.43l.17.17H30.43l.2-.2v46.22l-.17-.17,32,.08,9,.05h-9l-32.12.09h-.17V157.84H74.78V158c0,13.85-.06,25.42-.08,33.54V204A.58.58,0,0,1,74.56,204.26Z" transform="translate(-4.56 -4.23)"/><rect class="cls-3" x="40.57" y="169.5" width="14.79" height="14.79"/><rect class="cls-4" x="368.64" y="64.3" width="32.51" height="69.58"/><rect class="cls-4" x="402.51" y="138.75" width="39.94" height="67.23"/><polygon class="cls-4" points="447.31 63.1 485.24 63.1 485.24 1.37 486.58 1.37 486.58 63.1 521.7 63.1 521.7 0 447.31 0 447.31 63.1"/><rect class="cls-4" x="368.64" y="138.75" width="32.51" height="67.23"/><rect class="cls-4" x="486.59" y="138.75" width="35.1" height="67.23"/><rect class="cls-4" x="402.51" y="64.3" width="39.94" height="69.58"/><rect class="cls-4" x="486.59" y="64.3" width="35.1" height="69.58"/><rect class="cls-4" x="368.64" y="207.18" width="32.51" height="60.59"/><polygon class="cls-4" points="401.15 63.1 401.15 1.37 402.5 1.37 402.5 63.1 442.44 63.1 442.44 0 368.64 0 368.64 63.1 401.15 63.1"/><rect class="cls-4" x="402.51" y="207.18" width="39.94" height="60.59"/><rect class="cls-4" x="486.59" y="207.18" width="35.1" height="60.59"/><rect class="cls-4" x="447.32" y="64.3" width="37.93" height="69.58"/><rect class="cls-4" x="447.32" y="207.18" width="37.93" height="60.59"/><rect class="cls-4" x="447.32" y="138.75" width="37.93" height="67.23"/><rect class="cls-4" x="210.23" y="64.3" width="32.51" height="69.58"/><rect class="cls-4" x="244.08" y="138.75" width="39.94" height="67.23"/><polygon class="cls-4" points="288.88 63.1 326.81 63.1 326.81 1.37 328.17 1.37 328.17 63.1 363.26 63.1 363.26 0 288.88 0 288.88 63.1"/><rect class="cls-4" x="210.23" y="138.75" width="32.51" height="67.23"/><rect class="cls-4" x="328.17" y="138.75" width="35.1" height="67.23"/><rect class="cls-4" x="244.08" y="64.3" width="39.94" height="69.58"/><rect class="cls-4" x="328.17" y="64.3" width="35.1" height="69.58"/><rect class="cls-4" x="210.23" y="207.18" width="32.51" height="60.59"/><polygon class="cls-4" points="242.72 63.1 242.72 1.37 244.07 1.37 244.07 63.1 284.02 63.1 284.02 0 210.22 0 210.22 63.1 242.72 63.1"/><rect class="cls-4" x="244.08" y="207.18" width="39.94" height="60.59"/><rect class="cls-4" x="328.17" y="207.18" width="35.1" height="60.59"/><rect class="cls-4" x="288.89" y="64.3" width="37.93" height="69.58"/><rect class="cls-4" x="288.89" y="207.18" width="37.93" height="60.59"/><rect class="cls-4" x="288.89" y="138.75" width="37.93" height="67.23"/></g><g id="Floor"><path class="cls-5" d="M678.06,435.4c0,.14-150.08.26-335.17.26S7.68,435.54,7.68,435.4s150-.26,335.21-.26S678.06,435.26,678.06,435.4Z" transform="translate(-4.56 -4.23)"/></g><g id="Character_2" data-name="Character 2"><polygon class="cls-5" points="565.05 362.47 565.05 430.63 573.13 430.63 576.14 362.28 565.05 362.47"/><polygon class="cls-5" points="432.18 362.28 436.04 430.63 443.69 430.63 443.77 362.47 432.18 362.28"/><rect class="cls-6" x="419.49" y="318.16" width="151.39" height="49.33" rx="6.54"/><path class="cls-6" d="M582.33,300.33c1.81-13.65,3.29-28.36-3.27-40.46-6.82-12.58-21.85-19.71-36.1-18.43s-27.24,10.3-34.74,22.48-9.78,27.17-7.78,41.33" transform="translate(-4.56 -4.23)"/><path class="cls-5" d="M513.16,354.35c0,.14-17.25.26-38.53.26s-38.54-.12-38.54-.26,17.25-.27,38.54-.27S513.16,354.2,513.16,354.35Z" transform="translate(-4.56 -4.23)"/><path class="cls-2" d="M513.71,354.06s-3.28,2.81-7.4,6.18-7.5,6.06-7.54,6,3.28-2.81,7.41-6.18S513.68,354,513.71,354.06Z" transform="translate(-4.56 -4.23)"/><path class="cls-2" d="M499,338.13c0,.05-10.28,7.39-23,16.4s-23.12,16.28-23.18,16.23,10.27-7.39,23-16.4S499,338.09,499,338.13Z" transform="translate(-4.56 -4.23)"/><path class="cls-2" d="M463.87,337.38c0,.05-6.73,5-15.11,11.05s-15.21,10.92-15.24,10.88,6.73-5,15.12-11.05S463.87,337.34,463.87,337.38Z" transform="translate(-4.56 -4.23)"/><path class="cls-2" d="M448.19,326.76l-.16.11-.48.28-1.76,1c-1.49.86-3.51,2.1-5.67,3.58s-4,2.93-5.37,4L433.17,337l-.43.35-.16.11a.86.86,0,0,1,.13-.14l.41-.38c.35-.33.88-.78,1.53-1.34,1.32-1.1,3.19-2.57,5.36-4.06s4.2-2.71,5.7-3.54c.76-.41,1.37-.74,1.8-.95l.5-.25Z" transform="translate(-4.56 -4.23)"/><path class="cls-2" d="M581.43,264.56s-.1.1-.3.27l-.89.75c-.78.65-1.92,1.56-3.34,2.68-2.85,2.23-6.86,5.21-11.44,8.3s-8.85,5.69-12,7.49c-1.56.9-2.84,1.62-3.73,2.1l-1,.54a2.53,2.53,0,0,1-.37.18l.35-.21,1-.59,3.7-2.15c3.11-1.83,7.37-4.45,11.94-7.53s8.6-6.05,11.47-8.25c1.37-1.06,2.5-1.95,3.38-2.62l.91-.72Z" transform="translate(-4.56 -4.23)"/><path class="cls-5" d="M557.74,249.08a2.74,2.74,0,0,1,.42.21,12.06,12.06,0,0,1,1.15.69,21.7,21.7,0,0,1,3.74,3.22,30.37,30.37,0,0,1,7.17,14.46,57.58,57.58,0,0,1,.71,16.21c-.17,2.07-.36,3.74-.51,4.89l-.18,1.32a1.46,1.46,0,0,1-.1.46,12.05,12.05,0,0,1,.08-1.8c.09-1.16.22-2.83.34-4.9a61.49,61.49,0,0,0-.85-16.08,31.19,31.19,0,0,0-6.93-14.32A30.42,30.42,0,0,0,557.74,249.08Z" transform="translate(-4.56 -4.23)"/><path class="cls-2" d="M572.44,250.77l-.14.14-.43.35c-.38.31-.93.75-1.62,1.28-1.38,1-3.33,2.46-5.56,3.9s-4.32,2.63-5.85,3.46c-.77.41-1.39.73-1.83.94l-.51.24a.75.75,0,0,1-.18.08s0-.05.16-.11l.49-.28,1.8-1c1.51-.86,3.58-2.07,5.81-3.51s4.18-2.82,5.58-3.84l1.71-1.16.45-.33Z" transform="translate(-4.56 -4.23)"/><path class="cls-7" d="M407.43,396.36l1,24.75S383.6,430.45,383.34,435l48.07-.22V396.18Z" transform="translate(-4.56 -4.23)"/><g class="cls-8"><path class="cls-9" d="M423.29,419a2,2,0,0,1,1.37,2.24,1.88,1.88,0,0,1-2.2,1.37A2.06,2.06,0,0,1,421,420.2a2,2,0,0,1,2.45-1.18" transform="translate(-4.56 -4.23)"/></g><g class="cls-8"><path class="cls-9" d="M431.42,434.82l-.15-3.9-46,1.67s-2.14,1-1.89,2.45Z" transform="translate(-4.56 -4.23)"/></g><path class="cls-5" d="M407.66,420.87c0,.24,1.18.34,2.34,1.09s1.78,1.73,2,1.64-.14-1.45-1.56-2.33S407.6,420.66,407.66,420.87Z" transform="translate(-4.56 -4.23)"/><path class="cls-5" d="M402.62,423c-.05.23,1,.62,1.77,1.61s1,2,1.27,2,.38-1.34-.64-2.55S402.63,422.76,402.62,423Z" transform="translate(-4.56 -4.23)"/><path class="cls-5" d="M399.79,429c.21.05.53-1.13-.08-2.41s-1.71-1.79-1.8-1.59.58.88,1.06,1.94S399.55,429,399.79,429Z" transform="translate(-4.56 -4.23)"/><path class="cls-5" d="M408.05,415.26c.1.21,1.18-.12,2.5,0s2.37.5,2.49.3-.88-1-2.44-1.11S407.94,415,408.05,415.26Z" transform="translate(-4.56 -4.23)"/><g class="cls-10"><polygon points="403.08 397.03 403.25 401.44 426.88 401.12 426.89 397.14 403.08 397.03"/></g><path class="cls-5" d="M407.94,410.26a4.69,4.69,0,0,0,2.41,0,11,11,0,0,0,2.52-.78,12.07,12.07,0,0,0,1.37-.74,2.88,2.88,0,0,0,.73-.57,1,1,0,0,0,.1-1.25,1.27,1.27,0,0,0-1-.53,3.06,3.06,0,0,0-.9.13,8.87,8.87,0,0,0-1.5.52,8.57,8.57,0,0,0-2.21,1.46c-1.11,1-1.49,1.92-1.41,2s.65-.66,1.78-1.52a9.47,9.47,0,0,1,2.14-1.22,8.47,8.47,0,0,1,1.38-.43c.51-.14.94-.15,1.07.08s.06.12,0,.27a2.18,2.18,0,0,1-.53.42,12.28,12.28,0,0,1-1.27.73,12.11,12.11,0,0,1-2.32.9A15.79,15.79,0,0,0,407.94,410.26Z" transform="translate(-4.56 -4.23)"/><path class="cls-5" d="M408.25,410.54a3.84,3.84,0,0,0,.62-2.28,7.71,7.71,0,0,0-1-4.09,2,2,0,0,0-1.54-1.21,1.16,1.16,0,0,0-1,.68,3.38,3.38,0,0,0-.24.88,5.5,5.5,0,0,0,0,1.62,5.65,5.65,0,0,0,1,2.49c1,1.24,1.93,1.51,2,1.43a9.5,9.5,0,0,1-1.47-1.76,5.53,5.53,0,0,1-.77-2.26,4.63,4.63,0,0,1,0-1.39c.07-.51.26-.92.45-.87a1.77,1.77,0,0,1,.85.78,8.14,8.14,0,0,1,.6,1.31,9,9,0,0,1,.48,2.4C408.37,409.63,408.12,410.51,408.25,410.54Z" transform="translate(-4.56 -4.23)"/><path class="cls-5" d="M475.45,289.79,419.87,281a19.37,19.37,0,0,0-15.3,4.23h0a19.34,19.34,0,0,0-7,15.6L401.52,402h34.35V323.42l32.9.61,26.09-23,18.82-3.34,14-8.54Z" transform="translate(-4.56 -4.23)"/><path class="cls-6" d="M435.87,303.58a1,1,0,0,1,0,.25,4.21,4.21,0,0,0,.05.74c0,.66.08,1.62.11,2.87.08,2.49.15,6.09.21,10.54.12,8.9.21,21.19.24,34.77s0,25.89-.15,34.79c-.06,4.45-.13,8-.23,10.54a26,26,0,0,1-.16,2.86,6,6,0,0,1-.07.74.67.67,0,0,0,0,.25,1,1,0,0,1,0-.25v-.75c0-.65,0-1.61.05-2.86,0-2.49.06-6.09.07-10.54V352.75C435.87,326,435.87,306.4,435.87,303.58Z" transform="translate(-4.56 -4.23)"/><path class="cls-7" d="M486.76,405.45l13.34,20.88S483.35,446.9,485.44,451l41.43-24.4-19.46-33.34Z" transform="translate(-4.56 -4.23)"/><g class="cls-8"><path class="cls-9" d="M511.87,417a2,2,0,0,1,2.3,1.25,1.86,1.86,0,0,1-1.21,2.29,2.06,2.06,0,0,1-2.43-1.32,2,2,0,0,1,1.52-2.25" transform="translate(-4.56 -4.23)"/></g><g class="cls-8"><path class="cls-9" d="M526.87,426.6l-2.09-3.29-38.91,24.63s-1.37,1.89-.4,3.06Z" transform="translate(-4.56 -4.23)"/></g><path class="cls-5" d="M499.3,426.52c.13.2,1.19-.31,2.57-.24s2.41.6,2.55.41-.85-1.18-2.52-1.23S499.15,426.36,499.3,426.52Z" transform="translate(-4.56 -4.23)"/><path class="cls-5" d="M496,430.88c.07.22,1.15.05,2.34.5s1.92,1.24,2.11,1.11-.34-1.35-1.84-1.88S495.87,430.68,496,430.88Z" transform="translate(-4.56 -4.23)"/><path class="cls-5" d="M496.61,437.53c.21-.07-.1-1.24-1.27-2s-2.38-.69-2.37-.47.95.47,1.9,1.14S496.4,437.63,496.61,437.53Z" transform="translate(-4.56 -4.23)"/><path class="cls-5" d="M496.79,421.42c.19.14,1-.69,2.15-1.28s2.29-.76,2.29-1-1.28-.45-2.67.27S496.6,421.32,496.79,421.42Z" transform="translate(-4.56 -4.23)"/><g class="cls-10"><polygon points="484.86 405.36 487.23 409.08 507.48 396.9 505.48 393.46 484.86 405.36"/></g><path class="cls-5" d="M494.18,417.16c.05.09.92-.26,2.07-1.23A10.92,10.92,0,0,0,498,414a10.11,10.11,0,0,0,.82-1.33,3,3,0,0,0,.34-.86,1,1,0,0,0-.54-1.13,1.32,1.32,0,0,0-1.16.06,3.23,3.23,0,0,0-.71.57,9,9,0,0,0-2.18,3.58,4.14,4.14,0,0,0-.22,2.41c.13,0,.22-.9.77-2.21a9.83,9.83,0,0,1,1.23-2.13,10.13,10.13,0,0,1,1-1.07c.37-.38.74-.6,1-.47s.11.08.09.26a2.44,2.44,0,0,1-.25.63,12.28,12.28,0,0,1-.73,1.27,13.27,13.27,0,0,1-1.55,1.95C494.87,416.54,494.11,417.05,494.18,417.16Z" transform="translate(-4.56 -4.23)"/><path class="cls-5" d="M494.61,417.26a3.79,3.79,0,0,0-.63-2.33,7.78,7.78,0,0,0-2.89-3,2,2,0,0,0-1.94-.27,1.16,1.16,0,0,0-.53,1.09,3.35,3.35,0,0,0,.24.89,5.53,5.53,0,0,0,3,3,3.14,3.14,0,0,0,2.4.27,21.35,21.35,0,0,1-2.15-.79,5.65,5.65,0,0,1-1.81-1.56,5,5,0,0,1-.66-1.22c-.2-.48-.24-.93,0-1a1.36,1.36,0,0,1,1.12.25,8,8,0,0,1,1.18.82,8.55,8.55,0,0,1,1.62,1.83C494.25,416.45,494.48,417.33,494.61,417.26Z" transform="translate(-4.56 -4.23)"/><path class="cls-11" d="M409.87,231.81l-16.08-8.19c-4.19-1.81-5.79-2.85-5.4-3.61.52-1,.28-.65,8.36,1.56,0,0-11.51-3.26-8.46-4.51.53-.22,2.38.06,4.4.48-2.92-1-4-2-3.84-2.77.3-1.32,7.19.29,10.39,1.11-2.64-.71-7.67-2.12-8.72-2.77-1.43-.89.5-1.54,2.25-1.62,2-.1,13.46,1,16.8,1.14a2,2,0,0,0,2.26-1.7,1.94,1.94,0,0,0,0-.24c-.69-4.79,1.33-8.89,2.4-9.75s2.6.33,2.18,1.79a17.91,17.91,0,0,0-.22,4.9,11.6,11.6,0,0,0,.86,3.81c.58,1.41,1.13,2.58,1.62,3.56l13.15,13.06-10.56,13.39Z" transform="translate(-4.56 -4.23)"/><path class="cls-12" d="M400.94,223.19c-.05.2-2.56-.37-5.6-1.28s-5.45-1.82-5.38-2,2.57.38,5.6,1.29S401,223,400.94,223.19Z" transform="translate(-4.56 -4.23)"/><path class="cls-12" d="M403.05,219.8c-.05.21-2.75-.26-6-1s-5.92-1.57-5.87-1.78,2.75.26,6,1S403.1,219.6,403.05,219.8Z" transform="translate(-4.56 -4.23)"/><path class="cls-12" d="M404.69,216.89c-.05.21-2.61-.19-5.74-.88s-5.61-1.42-5.57-1.63,2.62.19,5.74.89S404.73,216.69,404.69,216.89Z" transform="translate(-4.56 -4.23)"/><path class="cls-5" d="M480.94,120.69c4.1-1.25,8.36,2.41,12.56,1.59,2.55-.5,4.48-2.54,6.75-3.8A13.06,13.06,0,0,1,511.9,118c3.47,1.76,5.7,3.64,6.17,7.5,3.15-1.81,8.42,2.16,10.21,6s1.34,7.79.32,11.89a55.49,55.49,0,0,1-9.23,19.65c-.38.52-1,1.09-1.57.82a1.43,1.43,0,0,1-.61-1.14c-.6-3.75-.13-7.58.2-11.37s.48-7.69-.71-11.3-4-6.9-7.75-7.64a12.08,12.08,0,0,0-8.06,1.72c-2.45,1.37-4.6,3.21-6.93,4.78a15.44,15.44,0,0,1-7.76,3c-2.81.13-5.81-1.2-7-3.74s.15-6.15,2.89-6.73A5.52,5.52,0,0,1,481,120.69Z" transform="translate(-4.56 -4.23)"/><path class="cls-11" d="M522.7,144.57,518.64,187c-.69,7.22-8.26,17.92-15.44,16.87h0c-6.69-1-10.46-12.57-9.81-19.31.31-3.19.56-5.86.57-6.19,0,0-10.7-2-10.46-12.82.12-5.2,1.23-15.9,2.36-25.57a20,20,0,0,1,20.63-17.73h1C518.71,123.35,524.06,133.43,522.7,144.57Z" transform="translate(-4.56 -4.23)"/><path class="cls-12" d="M494,178.26a25,25,0,0,0,14.17-3.5s-3.59,7.63-14.29,6.28Z" transform="translate(-4.56 -4.23)"/><path class="cls-5" d="M488.74,147.31a1.54,1.54,0,0,0,1.43,1.61,1.48,1.48,0,0,0,1.63-1.31v0a1.54,1.54,0,0,0-1.43-1.6,1.48,1.48,0,0,0-1.63,1.32Z" transform="translate(-4.56 -4.23)"/><path class="cls-5" d="M488,145.36c.19.2,1.38-.62,3-.55s2.83.93,3,.73-.09-.45-.61-.86a4.2,4.2,0,0,0-2.41-.83,4.08,4.08,0,0,0-2.42.68C488.08,144.91,487.87,145.26,488,145.36Z" transform="translate(-4.56 -4.23)"/><path class="cls-5" d="M504.94,148.44a1.54,1.54,0,0,0,1.43,1.61,1.48,1.48,0,0,0,1.63-1.31v0a1.55,1.55,0,0,0-1.42-1.61,1.47,1.47,0,0,0-1.63,1.31Z" transform="translate(-4.56 -4.23)"/><path class="cls-5" d="M504.23,146.26c.18.2,1.38-.62,3-.56s2.84.94,3,.74-.09-.45-.61-.86a4.28,4.28,0,0,0-2.41-.84,4.09,4.09,0,0,0-2.42.69C504.33,145.79,504.14,146.14,504.23,146.26Z" transform="translate(-4.56 -4.23)"/><path class="cls-5" d="M497.8,158.26a11.07,11.07,0,0,0-2.67-.58c-.42-.06-.82-.15-.88-.44a2.19,2.19,0,0,1,.33-1.25l1.36-3.17c1.89-4.52,3.28-8.24,3.1-8.31s-1.87,3.52-3.76,8c-.46,1.12-.9,2.18-1.31,3.2a2.38,2.38,0,0,0-.28,1.65,1,1,0,0,0,.67.64,2.85,2.85,0,0,0,.71.12A10.41,10.41,0,0,0,497.8,158.26Z" transform="translate(-4.56 -4.23)"/><path class="cls-5" d="M502.63,159.61c-.27,0-.34,1.77-1.92,3s-3.49.95-3.51,1.2.41.37,1.22.42a4.47,4.47,0,0,0,2.93-.91,3.89,3.89,0,0,0,1.49-2.51C502.93,160.05,502.75,159.6,502.63,159.61Z" transform="translate(-4.56 -4.23)"/><path class="cls-5" d="M504,139.74c.15.45,1.81.3,3.74.6s3.48.89,3.75.49c.13-.19-.13-.62-.75-1.08a6.64,6.64,0,0,0-5.71-.83C504.34,139.18,504,139.52,504,139.74Z" transform="translate(-4.56 -4.23)"/><path class="cls-5" d="M488.76,140.59c.28.39,1.43,0,2.8.07s2.52.34,2.8,0c.13-.18,0-.57-.54-.94a4.07,4.07,0,0,0-4.51,0C488.81,140,488.64,140.4,488.76,140.59Z" transform="translate(-4.56 -4.23)"/><path class="cls-11" d="M521.55,152.51c.18-.07,7.47-1.93,7,5.42s-7.78,5.34-7.77,5.13S521.55,152.51,521.55,152.51Z" transform="translate(-4.56 -4.23)"/><path class="cls-12" d="M523.19,160.42a2.5,2.5,0,0,0,.33.22,1.29,1.29,0,0,0,1,.08,3.14,3.14,0,0,0,1.65-2.74,4.07,4.07,0,0,0-.23-1.86,1.49,1.49,0,0,0-.9-1.05.66.66,0,0,0-.78.3c-.11.2-.07.35-.11.36s-.15-.13-.07-.43a.8.8,0,0,1,.32-.44,1,1,0,0,1,.72-.14,1.78,1.78,0,0,1,1.26,1.23,4.21,4.21,0,0,1,.3,2.07c-.14,1.48-1,2.82-2.08,3a1.38,1.38,0,0,1-1.16-.27C523.19,160.6,523.16,160.44,523.19,160.42Z" transform="translate(-4.56 -4.23)"/><path class="cls-5" d="M483.66,137.68a15.53,15.53,0,0,0,13.91-2.63c2.7-2.13,4.83-5.25,8.15-6.14a8.74,8.74,0,0,1,6.65,1.15,16.87,16.87,0,0,1,4.91,4.83c-2.27,5.4-1.09,11.56.13,17.28a2.89,2.89,0,0,0,.79,1.73c.85.7,2.17.22,3-.54a9,9,0,0,0,2.16-4.73,30.2,30.2,0,0,0,.35-11.94,20.61,20.61,0,0,0-5.3-10.6,19.52,19.52,0,0,0-13.54-5.66,24,24,0,0,0-14.08,4.49,14.05,14.05,0,0,0-4.7,5" transform="translate(-4.56 -4.23)"/><path class="cls-6" d="M477.76,123.18a1.53,1.53,0,0,0,.05.64,3,3,0,0,0,1,1.55,4.72,4.72,0,0,0,2.72,1,7.46,7.46,0,0,0,1.83-.05,3.79,3.79,0,0,0,1.9-.8,2.58,2.58,0,0,0,1-2,2.3,2.3,0,0,0-1.5-1.94,2.83,2.83,0,0,0-1.32-.21,2.5,2.5,0,0,0-1.28.52,3.37,3.37,0,0,0-1.19,2.53,4,4,0,0,0,1.07,2.75,6,6,0,0,0,2.61,1.6,9.64,9.64,0,0,0,6.31-.46,27.48,27.48,0,0,0,5.56-3.09,36.17,36.17,0,0,1,5-3,11.08,11.08,0,0,1,5.1-1,10.3,10.3,0,0,1,4.36,1.29,13,13,0,0,1,4.72,4.6,16.59,16.59,0,0,1,.88,1.6c.09.2.19.39.29.57v-.16a1.49,1.49,0,0,0-.18-.44,13.2,13.2,0,0,0-.82-1.64,13,13,0,0,0-4.73-4.76,10.64,10.64,0,0,0-4.47-1.36,11.19,11.19,0,0,0-5.25,1,35.41,35.41,0,0,0-5.11,3,26.79,26.79,0,0,1-5.49,3.05,9.31,9.31,0,0,1-6.07.46,5.46,5.46,0,0,1-2.46-1.5,3.54,3.54,0,0,1-1-2.5,3,3,0,0,1,1-2.29,2.22,2.22,0,0,1,2.28-.28,2,2,0,0,1,1.34,1.67,2.33,2.33,0,0,1-.88,1.83,3.67,3.67,0,0,1-1.78.78,8.14,8.14,0,0,1-1.78.07,4.68,4.68,0,0,1-2.65-1,3,3,0,0,1-1-1.46A6.17,6.17,0,0,1,477.76,123.18Z" transform="translate(-4.56 -4.23)"/><path class="cls-6" d="M529.37,137.9a12.63,12.63,0,0,1-2.27.51,6.25,6.25,0,0,1-2.46-.35,10.32,10.32,0,0,1-2.71-1.42,8.68,8.68,0,0,1-3.13-4.5,16,16,0,0,1-.4-2.3,1.75,1.75,0,0,0-.07.64,7.75,7.75,0,0,0,.23,1.73,8.37,8.37,0,0,0,3.15,4.73,10.5,10.5,0,0,0,2.83,1.44,6,6,0,0,0,2.58.28,5.42,5.42,0,0,0,1.69-.45A2.05,2.05,0,0,0,529.37,137.9Z" transform="translate(-4.56 -4.23)"/><path class="cls-6" d="M528.87,143.26c0-.07-.87.09-2.26,0a10.14,10.14,0,0,1-8.39-6c-.57-1.27-.7-2.14-.77-2.13a2.14,2.14,0,0,0,.06.62,9,9,0,0,0,.47,1.61,9.94,9.94,0,0,0,3.41,4.33,9.84,9.84,0,0,0,5.2,1.8,7.86,7.86,0,0,0,1.68-.08A2,2,0,0,0,528.87,143.26Z" transform="translate(-4.56 -4.23)"/><path class="cls-12" d="M509.48,153.46a.19.19,0,0,0,.22-.13v0a.18.18,0,0,0-.13-.22.19.19,0,0,0-.22.13h0a.2.2,0,0,0,.13.24Z" transform="translate(-4.56 -4.23)"/><path class="cls-12" d="M506.34,152.63a.19.19,0,0,0,.23-.14v0a.2.2,0,0,0-.11-.26h0c-.1,0-.2,0-.23.18A.21.21,0,0,0,506.34,152.63Z" transform="translate(-4.56 -4.23)"/><path class="cls-12" d="M504.22,152.51c.1,0,.2-.11.23-.27s0-.31-.14-.32-.2.1-.22.26S504.12,152.49,504.22,152.51Z" transform="translate(-4.56 -4.23)"/><path class="cls-12" d="M507.87,155.39c.1,0,.18,0,.18-.11s-.07-.12-.18-.12-.18,0-.18.11S507.76,155.39,507.87,155.39Z" transform="translate(-4.56 -4.23)"/><path class="cls-12" d="M505,154.62a.21.21,0,0,0,.21-.19.2.2,0,0,0-.16-.23.2.2,0,0,0-.2.18h0A.2.2,0,0,0,505,154.62Z" transform="translate(-4.56 -4.23)"/><path class="cls-12" d="M490,152.26a.2.2,0,0,0,.23-.16.21.21,0,0,0-.13-.25.23.23,0,0,0-.23.16A.22.22,0,0,0,490,152.26Z" transform="translate(-4.56 -4.23)"/><path class="cls-12" d="M487.87,152a.21.21,0,0,0,.21-.2c0-.13,0-.24-.15-.25s-.2.08-.22.2A.22.22,0,0,0,487.87,152Z" transform="translate(-4.56 -4.23)"/><path class="cls-12" d="M491.87,152.41a.18.18,0,0,0,.22-.12.19.19,0,0,0-.14-.2.18.18,0,0,0-.23.07.18.18,0,0,0,.07.23l.08,0Z" transform="translate(-4.56 -4.23)"/><path class="cls-12" d="M490.19,154.5a.2.2,0,0,0,.26-.09v0a.21.21,0,0,0-.08-.27.22.22,0,0,0-.28.1A.21.21,0,0,0,490.19,154.5Z" transform="translate(-4.56 -4.23)"/><path class="cls-12" d="M488.36,154.07a.16.16,0,0,0,.15-.19h0a.18.18,0,0,0-.22-.11.16.16,0,0,0-.16.15.15.15,0,0,0,.15.17.11.11,0,0,0,.08,0Z" transform="translate(-4.56 -4.23)"/><path class="cls-5" d="M526.07,162.53a4.72,4.72,0,0,1,.14,1.67,2.4,2.4,0,0,1-.86,1.52,2.2,2.2,0,0,1-2,.45,2,2,0,0,1-1.38-1.48,2.6,2.6,0,0,1,.36-1.7,3.87,3.87,0,0,1,1.12-1.26s-.75.15-1.34,1.12a2.79,2.79,0,0,0-.47,1.9,2.33,2.33,0,0,0,1.6,1.77,2.53,2.53,0,0,0,2.33-.55,2.59,2.59,0,0,0,.89-1.73,2.75,2.75,0,0,0-.16-1.3A1,1,0,0,0,526.07,162.53Z" transform="translate(-4.56 -4.23)"/><path class="cls-5" d="M526.09,161.26a.75.75,0,0,0-.43.49,1.09,1.09,0,0,0,.67,1.38h0a1,1,0,0,0,.92-.19.79.79,0,0,0,.3-.7c0-.46-.35-.59-.36-.54a1.24,1.24,0,0,1,.1.54.55.55,0,0,1-.24.44.66.66,0,0,1-.61.1.84.84,0,0,1-.47-.42.94.94,0,0,1-.07-.55C526,161.5,526.13,161.32,526.09,161.26Z" transform="translate(-4.56 -4.23)"/><path class="cls-5" d="M513.37,296.9c-.9.08-58,6.84-66.94,11.87-4.95,2.78-4.51,7.64-5.28,9.71-3,8.12-.45,16.34,3.76,23.91l41.85,73,26.54-17.85-26.67-58.28,40.83-4A22.18,22.18,0,0,0,546.08,318l4.86-22.52Z" transform="translate(-4.56 -4.23)"/><path class="cls-6" d="M513.3,397.51c-.13.06-7.76-16.37-17-36.69S479.61,324,479.74,323.9s7.76,16.37,17,36.7S513.43,397.45,513.3,397.51Z" transform="translate(-4.56 -4.23)"/><path class="cls-6" d="M513.37,300.4a.81.81,0,0,1-.27.05l-.78.07-3,.25-11.05.89c-9.32.77-22.22,1.75-36.42,3.1-1.78.17-3.53.36-5.26.56-.85.12-1.72.2-2.54.36a13.48,13.48,0,0,0-2.4.71,17.89,17.89,0,0,0-7.78,5.38,19.43,19.43,0,0,0-2.37,3.77,16.92,16.92,0,0,0-1.2,4,26.61,26.61,0,0,0-.18,7.56,45.24,45.24,0,0,0,2.7,10.68c.47,1.22.89,2.14,1.18,2.77l.34.7a1.09,1.09,0,0,1,.1.25,1.77,1.77,0,0,1-.15-.22c-.09-.15-.22-.38-.38-.69-.47-.89-.9-1.8-1.28-2.73a43.6,43.6,0,0,1-2.87-10.71,27.15,27.15,0,0,1,.11-7.69,17.49,17.49,0,0,1,1.21-4.13,19,19,0,0,1,2.42-3.88,18.43,18.43,0,0,1,8-5.56,14.13,14.13,0,0,1,2.48-.73c.87-.18,1.71-.25,2.58-.37,1.73-.2,3.49-.4,5.27-.56,14.21-1.36,27.11-2.28,36.44-3l11.06-.73,3-.15h1Z" transform="translate(-4.56 -4.23)"/><path class="cls-7" d="M541.39,259.66l2.15-68.78-21.67-4.62-2.34-3.81L505,191.81l-2.92,6.57-3.53-7.5-5.25-4-2.4,4.68-16.29,6.7a6.89,6.89,0,0,0-3.49,3.24L452.78,238l-32.46-22.48-10.05,17.7,37.6,32A15.55,15.55,0,0,0,469,261.1l9.64-13.69,4,23,.66,23.37,28.3,5.27,39.63-3.68Z" transform="translate(-4.56 -4.23)"/><g class="cls-10"><path d="M510.13,298.75a58.54,58.54,0,0,0,39.22-10.08l-2.16-7.88Z" transform="translate(-4.56 -4.23)"/></g><path class="cls-7" d="M543.54,190.88S530.06,195,529,208.67s-1.56,52.76-1.56,52.76-2.1,1.57-1.58,3.15S487,288.2,487,288.2l7.85,13.72s25.09-3,53.22-17.73c14.38-7.53,8.72-66.56,8.45-67.35S552.77,190.85,543.54,190.88Z" transform="translate(-4.56 -4.23)"/><path class="cls-5" d="M482.61,270.47a2.91,2.91,0,0,1-.15-.58l-.35-1.68c-.29-1.53-.68-3.63-1.17-6.19s-1-5.75-1.67-9.2c-.31-1.73-.63-3.55-1-5.43s-.51-3.87-.78-5.88c-1-8-2-15.29-2.64-20.63-.31-2.59-.56-4.71-.75-6.25-.07-.7-.13-1.26-.17-1.71a3,3,0,0,1,0-.6,2.4,2.4,0,0,1,.13.59l.27,1.69c.23,1.54.53,3.65.91,6.23.72,5.34,1.71,12.59,2.8,20.6q.39,3,.77,5.88c.32,1.88.64,3.7.93,5.44.59,3.45,1.12,6.56,1.56,9.21s.76,4.68,1,6.22c.1.69.18,1.25.25,1.69A2,2,0,0,1,482.61,270.47Z" transform="translate(-4.56 -4.23)"/><path class="cls-5" d="M494.87,301.92a1.77,1.77,0,0,1-.15-.22l-.42-.68-1.58-2.67-5.85-10.09-.1-.16L487,288a94.63,94.63,0,0,0,17.49-9.52c6.47-4.2,13.46-9.39,21.66-13.74l-.11.36a3.47,3.47,0,0,1,1.59-4.64,3.53,3.53,0,0,1,.95-.31l-.23.22.41-3.17a164,164,0,0,0,1.09-27.4c-.17-4.21-.58-8.2-.82-12a52.35,52.35,0,0,1,.21-10.47,26,26,0,0,1,2.53-8.26,19.59,19.59,0,0,1,3.85-5.27,14.71,14.71,0,0,1,3.33-2.42,9.42,9.42,0,0,1,1-.46l.34-.13a17.24,17.24,0,0,0-4.5,3.16,19.6,19.6,0,0,0-3.73,5.25,26,26,0,0,0-2.42,8.18,53.05,53.05,0,0,0-.15,10.39c.26,3.74.68,7.74.87,12a161.86,161.86,0,0,1-1,27.49c-.14,1.09-.29,2.17-.42,3.18v.2h-.2a3,3,0,0,0-2.34,3.54,2.72,2.72,0,0,0,.2.63l.14.23-.24.13c-8.15,4.31-15.15,9.48-21.65,13.65a92.9,92.9,0,0,1-17.63,9.46l.08-.24,5.61,10.19,1.51,2.71.38.71A.86.86,0,0,1,494.87,301.92Z" transform="translate(-4.56 -4.23)"/><path class="cls-5" d="M533.21,271.85a13.27,13.27,0,0,0-7.17-7.34,3.42,3.42,0,0,1,1.54.4,10,10,0,0,1,5.26,5.4A3.33,3.33,0,0,1,533.21,271.85Z" transform="translate(-4.56 -4.23)"/><path class="cls-5" d="M535.22,268.44A22.89,22.89,0,0,0,532.4,264a22.23,22.23,0,0,0-4.13-3.28,8.69,8.69,0,0,1,4.51,2.94A8.85,8.85,0,0,1,535.22,268.44Z" transform="translate(-4.56 -4.23)"/><path class="cls-5" d="M548.12,284.19a1.86,1.86,0,0,1-.49.29l-1.45.71c-1.27.61-3.11,1.46-5.4,2.47-4.59,2-11,4.71-18.19,7.31a148,148,0,0,1-18.78,5.63,57.82,57.82,0,0,1-5.86,1l-1.61.17a1.82,1.82,0,0,1-.57,0,2.68,2.68,0,0,1,.56-.13l1.59-.26c1.39-.17,3.36-.62,5.81-1.15a173.73,173.73,0,0,0,18.68-5.76c7.19-2.59,13.6-5.21,18.22-7.16L546.1,285l1.48-.63A2.63,2.63,0,0,1,548.12,284.19Z" transform="translate(-4.56 -4.23)"/><path class="cls-5" d="M497.54,191a5.8,5.8,0,0,0-.29.51,9.81,9.81,0,0,0-.59,1.47,28.69,28.69,0,0,0-1.06,5.18l-.08.76-.4-.64-.11-.18c-1.13-1.85-2-3.58-2.78-4.72s-1.4-1.77-1.34-1.83a5.56,5.56,0,0,1,1.63,1.61,51.27,51.27,0,0,1,2.93,4.66l.11.18-.48.11a21.58,21.58,0,0,1,1.24-5.25,6.53,6.53,0,0,1,.76-1.46C497.32,191.1,497.53,191,497.54,191Z" transform="translate(-4.56 -4.23)"/><path class="cls-5" d="M519.73,188.36c0,.07-1.17.86-3,2.36a39.79,39.79,0,0,0-6.29,6.55c-.83,1.11-1.61,2.26-2.33,3.45l-.27.45-.17-.5c-.84-2.41-1.54-4.48-2-5.95a14.05,14.05,0,0,1-.68-2.38,15.8,15.8,0,0,1,1,2.27c.56,1.45,1.33,3.5,2.2,5.9h-.44a34.67,34.67,0,0,1,2.34-3.52,35,35,0,0,1,6.47-6.52,27.51,27.51,0,0,1,2.29-1.59A3.92,3.92,0,0,1,519.73,188.36Z" transform="translate(-4.56 -4.23)"/><path class="cls-5" d="M505,263.41a4.23,4.23,0,0,1-.11-.62c-.06-.47-.13-1.06-.22-1.8-.18-1.56-.41-3.82-.68-6.62-.53-5.59-1.15-13.33-1.67-21.89s-.81-16.32-1-21.94c-.07-2.81-.11-5.08-.12-6.65v-1.81a3.31,3.31,0,0,1,0-.63,2.7,2.7,0,0,1,.07.63l.1,1.8c.07,1.64.16,3.89.28,6.65.24,5.61.59,13.36,1.1,21.92s1.09,16.29,1.52,21.89c.21,2.75.39,5,.51,6.63,0,.74.09,1.34.12,1.81A2.24,2.24,0,0,1,505,263.41Z" transform="translate(-4.56 -4.23)"/><path class="cls-5" d="M524.87,246.42a7.05,7.05,0,0,1-.9,1.14c-.6.72-1.51,1.73-2.65,2.95a115.58,115.58,0,0,1-20,16.86c-1.4.92-2.55,1.64-3.36,2.11a7.5,7.5,0,0,1-1.28.69,8.63,8.63,0,0,1,1.18-.91l3.26-2.25c2.74-1.91,6.45-4.66,10.35-7.94s7.23-6.48,9.58-8.85l2.77-2.83A6.83,6.83,0,0,1,524.87,246.42Z" transform="translate(-4.56 -4.23)"/><path class="cls-5" d="M501.65,279.67a41.41,41.41,0,0,1-.16-6.4,39,39,0,0,1,.37-6.39,40.25,40.25,0,0,1,.15,6.4A37.88,37.88,0,0,1,501.65,279.67Z" transform="translate(-4.56 -4.23)"/><g class="cls-10"><path d="M478.27,248a157.65,157.65,0,0,0-2.68-21.32,213.4,213.4,0,0,1-4.89,32Z" transform="translate(-4.56 -4.23)"/></g><g class="cls-10"><path d="M502.08,198.38c1-.84,2.23-.15,2.84,1a8.66,8.66,0,0,1,.54,3.87,4.74,4.74,0,0,0,.41,2.13,1.94,1.94,0,0,0,1.72,1.12,3,3,0,0,0,2-1.5,201.91,201.91,0,0,0,11.14-17c-5.57,2.15-9.31,7.44-12.91,13-.15.05-2.92-9-2.92-9-.77,1.95-2,4.34-2.8,6.28" transform="translate(-4.56 -4.23)"/></g><g class="cls-10"><path d="M490.6,191.78a55.74,55.74,0,0,0,8.14,13.15,35,35,0,0,0-.72-9.69c1,.71,3.05,2.44,4.06,3.14,0,0-2.2-4.76-3.11-6.5-.24-.46-.61-1-1.13-1s-.88.73-1,1.31c-.49,1.89-1,3.79-1.46,5.68a15.66,15.66,0,0,0-4.51-6.41" transform="translate(-4.56 -4.23)"/></g><g class="cls-10"><path d="M497.68,269.41a8.88,8.88,0,0,1,3.31-8.29c1.94-1.46,4.43-2.06,6.36-3.54,3.34-2.54,4.63-7.34,8.34-9.29,1.39-.73,3.5-.75,4.14.69.57,1.28-.46,2.68-1.43,3.69a102,102,0,0,1-20.73,16.59" transform="translate(-4.56 -4.23)"/></g><g class="cls-10"><path d="M526.45,265.08a10,10,0,0,1,2.94,6.95,11.58,11.58,0,0,0,.1,2.28,2.11,2.11,0,0,0,1.42,1.64,2,2,0,0,0,2.18-1.74,5.32,5.32,0,0,0-.63-3c-1.22-2.77-2.94-5.58-5.73-6.74" transform="translate(-4.56 -4.23)"/></g><g class="cls-13"><path d="M452.46,237.82c1.59,1.81,2.78,6.54,2.62,8.94s-.75,3-.53,5.42c.05.44-.71.6-.36.87a1.25,1.25,0,0,0,1.69-.49.85.85,0,0,0,.09-.22,3.5,3.5,0,0,0-.11-2.19,1.53,1.53,0,0,0,1.6,1.46,1.35,1.35,0,0,0,.29,0,2.46,2.46,0,0,0,1.68-2,6.81,6.81,0,0,0-.19-2.73,18.38,18.38,0,0,0-2-5.94,7.09,7.09,0,0,0-5-3.53" transform="translate(-4.56 -4.23)"/></g><path class="cls-5" d="M454.45,252.63a33.18,33.18,0,0,0,.2-7.65,32.2,32.2,0,0,0-2.09-7.38,6.52,6.52,0,0,1,1.14,2,19.13,19.13,0,0,1,1.36,10.84A7.21,7.21,0,0,1,454.45,252.63Z" transform="translate(-4.56 -4.23)"/><path class="cls-6" d="M514.49,371.72c-4.19-18.72,3-50.86,16.29-64.65a59.3,59.3,0,0,1,52.62-16.76v82.33Z" transform="translate(-4.56 -4.23)"/><path class="cls-2" d="M583.09,337c0,.05-13.07,7.85-29.27,17.44s-29.34,17.31-29.37,17.26,13.07-7.86,29.27-17.44S583.06,337,583.09,337Z" transform="translate(-4.56 -4.23)"/><path class="cls-2" d="M583.09,309s-.23.16-.69.44l-2,1.23L573,315.16c-6.23,3.78-14.85,9-24.42,14.64S530.35,340.54,524,344.14c-3.17,1.79-5.74,3.24-7.53,4.21l-2.06,1.12c-.47.26-.73.38-.73.38s.24-.15.71-.41l2-1.16L523.9,344c6.32-3.63,15-8.72,24.57-14.39s18.15-10.83,24.44-14.58l7.41-4.44,2-1.19C582.87,309.13,583.09,309,583.09,309Z" transform="translate(-4.56 -4.23)"/><path class="cls-2" d="M574.21,290.8l-.49.29-1.44.8L567,294.8c-4.48,2.44-10.71,5.74-17.6,9.36l-24.93,13.19s.16-.11.49-.29l1.43-.81,5.3-2.9c4.49-2.44,10.71-5.75,17.61-9.37Z" transform="translate(-4.56 -4.23)"/><path class="cls-5" d="M581.68,290.87h-.32l-.94-.09c-.82,0-2-.25-3.6-.32a66.61,66.61,0,0,0-13.24.48c-.69.1-1.4.17-2.12.3l-2.2.45c-1.51.25-3,.75-4.62,1.15a57.21,57.21,0,0,0-9.73,3.92,49.65,49.65,0,0,0-18,15.56,66.76,66.76,0,0,0-6.17,10.81A78,78,0,0,0,516.68,334a90.27,90.27,0,0,0-2.38,10.26,83,83,0,0,0-1,9.1,84,84,0,0,0,.18,13.27c.1,1.57.34,2.76.41,3.59l.11.93a1.71,1.71,0,0,1,0,.32,1.55,1.55,0,0,1-.07-.31,6.71,6.71,0,0,0-.16-.93c-.11-.82-.38-2-.51-3.58a78.9,78.9,0,0,1-.35-13.31,89.07,89.07,0,0,1,1-9.15,91.27,91.27,0,0,1,2.34-10.3,77.18,77.18,0,0,1,4.06-11,67,67,0,0,1,6.2-10.9,50,50,0,0,1,18.22-15.69,57,57,0,0,1,9.83-3.9c1.6-.4,3.13-.89,4.65-1.14l2.22-.43c.73-.12,1.45-.19,2.14-.29a63.59,63.59,0,0,1,13.3-.28c1.57.1,2.77.33,3.6.42l.93.13Z" transform="translate(-4.56 -4.23)"/><path class="cls-11" d="M487.87,289.62a32.31,32.31,0,0,1-6.63-.87,23,23,0,0,0-8-1c-1.86.29-6.64,2.17-9.69,3s-5.5.14-5.65,1.59,1.45,3.25,4.49,3.25c0,0-3.33,1.1-2.75,1.82s1.59,2.47,3,2.47a3.1,3.1,0,0,0,2.61,2.9s.87,2.17,5.07,3.18c0,0-.32,1.89,2.88,2.47s21.17-7.54,21.17-7.54Z" transform="translate(-4.56 -4.23)"/></g><g id="Character_1" data-name="Character 1"><path class="cls-5" d="M152.08,187.09c-2.42-2.35-6.56-.31-8.59,2.38s-3.47,6.14-6.56,7.5-7.09.18-9.68,2.34c-3.57,3-1.57,9.84-5.43,12.41-1.53,1-3.55,1-5.19,1.84-3.86,2-3.82,7.43-3.22,11.73.84,6,1.75,12.3,5.09,17.4s9.81,8.7,15.58,6.73c5.54-1.89,8.39-7.88,10.64-13.28l9.36-22.44c1.81-4.33,3.63-8.72,4.22-13.37s-.21-9.67-3.16-13.31" transform="translate(-4.56 -4.23)"/><path class="cls-5" d="M145.51,142.93c-.07-2.48,2.22-4.39,4.52-5.3s4.87-1.25,6.93-2.63c1.82-1.23,3-3.14,4.58-4.7a15.25,15.25,0,0,1,25.65,7c.88,3.53.28,7.69-2.5,10-3.23,2.72-8,2.11-12.15,1.27s-8.81-1.68-12.26.74c-2.08,1.47-3.28,3.85-4.55,6s-2.87,4.46-5.27,5.29-5.68-.6-5.77-3.15" transform="translate(-4.56 -4.23)"/><path class="cls-5" d="M145.68,144.26c.27,2.07-1.23,3.93-2.73,5.4s-3.18,3-3.45,5.09c-.3,2.43,1.47,4.82,1,7.21-.32,1.51-1.5,2.68-2.22,4.06a8.65,8.65,0,0,0-.44,6.36c.62,2.09,1.6,6.76,3,8.39a33.49,33.49,0,0,0,16.29,9.71,62.86,62.86,0,0,0,18,1c4.93-.3,10.59-.07,14.69-6.85,2.13-3.51,3.18-8.17,4.31-12.12,1-3.39,1.81-7,.8-10.41-.59-2-1.77-3.73-2.35-5.7-.73-2.47-.47-5.11-.76-7.66a17.57,17.57,0,0,0-25-13.88" transform="translate(-4.56 -4.23)"/><path class="cls-11" d="M189.46,152.8c-.46-7.07-5.17-15.73-12.21-15l-22,5.61a4.14,4.14,0,0,0-3.7,4.21l2.47,53h-.15s5,15,19.54,10.39c2.88-.91,4.2-4.06,4.77-7.3h.15V202.6a34.08,34.08,0,0,0,.09-7.28h0v-6s9-1.52,10.87-13.31C190.28,170.26,190,160.65,189.46,152.8Z" transform="translate(-4.56 -4.23)"/><path class="cls-5" d="M188.32,159.87a1.51,1.51,0,0,1-1.45,1.53,1.45,1.45,0,0,1-1.56-1.33v0a1.51,1.51,0,0,1,1.45-1.53,1.44,1.44,0,0,1,1.56,1.31Z" transform="translate(-4.56 -4.23)"/><path class="cls-5" d="M187.38,157.8c-.18.2-1.33-.65-3-.64s-2.81.82-3,.62.11-.44.62-.82a4.13,4.13,0,0,1,2.4-.74,4,4,0,0,1,2.36.75C187.31,157.35,187.48,157.71,187.38,157.8Z" transform="translate(-4.56 -4.23)"/><path class="cls-5" d="M171.87,160.43a1.52,1.52,0,0,1-1.46,1.53,1.45,1.45,0,0,1-1.56-1.33v0a1.51,1.51,0,0,1,1.45-1.53,1.45,1.45,0,0,1,1.57,1.32Z" transform="translate(-4.56 -4.23)"/><path class="cls-5" d="M171.4,158.14c-.18.19-1.33-.65-3-.64s-2.81.82-3,.62.1-.44.62-.82a4.13,4.13,0,0,1,2.4-.74,4,4,0,0,1,2.35.75C171.32,157.69,171.49,158.05,171.4,158.14Z" transform="translate(-4.56 -4.23)"/><path class="cls-5" d="M177.33,170.18a10.86,10.86,0,0,1,2.64-.48c.42,0,.81-.13.88-.41a2.19,2.19,0,0,0-.28-1.23l-1.24-3.16c-1.71-4.5-3-8.2-2.77-8.26s1.72,3.52,3.43,8c.41,1.11.81,2.16,1.18,3.17a2.42,2.42,0,0,1,.22,1.63,1,1,0,0,1-.68.61,2.75,2.75,0,0,1-.7.1A10.93,10.93,0,0,1,177.33,170.18Z" transform="translate(-4.56 -4.23)"/><path class="cls-12" d="M178.5,189.42a30,30,0,0,1-15.79-4.16s3.84,8.09,15.63,7Z" transform="translate(-4.56 -4.23)"/><path class="cls-12" d="M176.65,174.1A2.92,2.92,0,0,0,174,173a2.7,2.7,0,0,0-1.84,1,1.72,1.72,0,0,0-.13,1.94,2,2,0,0,0,2.14.54,6.17,6.17,0,0,0,2.07-1.25,1.62,1.62,0,0,0,.46-.48.53.53,0,0,0,0-.61" transform="translate(-4.56 -4.23)"/><path class="cls-5" d="M172.55,171.32c.26,0,.27,1.75,1.78,3s3.39,1.06,3.41,1.3-.42.35-1.21.37a4.43,4.43,0,0,1-2.85-1,3.84,3.84,0,0,1-1.38-2.52C172.23,171.74,172.43,171.31,172.55,171.32Z" transform="translate(-4.56 -4.23)"/><path class="cls-5" d="M172.13,155.26c-.16.44-1.78.24-3.69.47s-3.45.76-3.7.36c-.12-.19.15-.6.77-1a6.48,6.48,0,0,1,5.63-.64C171.87,154.73,172.2,155.08,172.13,155.26Z" transform="translate(-4.56 -4.23)"/><path class="cls-5" d="M186.78,153.09c-.29.37-1.41,0-2.76,0s-2.48.25-2.75-.13c-.11-.19.07-.56.56-.91a4,4,0,0,1,4.44.13C186.74,152.53,186.87,152.91,186.78,153.09Z" transform="translate(-4.56 -4.23)"/><path class="cls-5" d="M147.05,182.2a10.45,10.45,0,0,0,12.44-11.57c-.36-2.9-1.92-5.84-.92-8.58,1.33-3.62,6.4-4.73,7.75-8.35.78-2.1.08-4.55,1-6.61s2.87-3.05,4.85-3.77,4.11-1.21,5.77-2.5,2.7-3.74,1.63-5.55a112,112,0,0,0-25.75,6.26c-1.92.71-3.94,1.58-5.07,3.29s-1.15,4.14-1,6.31q.75,15.87,1.48,31.73" transform="translate(-4.56 -4.23)"/><path class="cls-6" d="M147.79,186.26l-.19-.13-.53-.39c-.45-.36-1.12-.89-1.95-1.62a21.27,21.27,0,0,1-2.77-2.92,10.89,10.89,0,0,1-2.2-4.85,7.36,7.36,0,0,1,1.52-6.19,24.45,24.45,0,0,1,2.74-2.35,6.23,6.23,0,0,0,2.14-2.92c.88-2.4.49-5.18.82-8a16.17,16.17,0,0,1,3.34-8.12,11.1,11.1,0,0,1,3.5-2.85,20.6,20.6,0,0,1,4.12-1.39,9.83,9.83,0,0,0,3.62-1.79,14.11,14.11,0,0,0,2.62-2.89c1.48-2.1,2.58-4.34,4-6.21a13.93,13.93,0,0,1,2.32-2.47,9.44,9.44,0,0,1,2.75-1.5,5.86,5.86,0,0,1,5.23.53,4.79,4.79,0,0,1,1.86,3.52,3.43,3.43,0,0,1-.71,2.43,1.75,1.75,0,0,1-.48.46l-.18.12s0-.06.15-.16a2.46,2.46,0,0,0,.43-.48,3.5,3.5,0,0,0,.59-2.35,4.59,4.59,0,0,0-1.82-3.31,5.59,5.59,0,0,0-5-.41,8.55,8.55,0,0,0-2.62,1.46,14.31,14.31,0,0,0-2.22,2.38c-1.36,1.84-2.44,4.08-3.94,6.23a14.54,14.54,0,0,1-2.7,3,10.07,10.07,0,0,1-3.79,1.88,22.76,22.76,0,0,0-4,1.37,10.69,10.69,0,0,0-3.33,2.72,15.64,15.64,0,0,0-3.23,7.85c-.35,2.75.05,5.57-.88,8.13a6.79,6.79,0,0,1-2.3,3.11,24.49,24.49,0,0,0-2.71,2.27,7,7,0,0,0-1.48,5.86,10.83,10.83,0,0,0,2.07,4.73,21.36,21.36,0,0,0,2.68,2.94c.8.75,1.45,1.3,1.88,1.69A4.79,4.79,0,0,1,147.79,186.26Z" transform="translate(-4.56 -4.23)"/><polygon class="cls-7" points="216.25 263.98 233.62 230.95 225.09 221.8 203.19 242.87 209.34 259.79 216.25 263.98"/><path class="cls-7" d="M180.93,204.78h0a29,29,0,0,1,16.42,14.95l22.38,47.62L239,275.16l-17,4.9L206.87,269Z" transform="translate(-4.56 -4.23)"/><path class="cls-2" d="M222,280.06l-8.16,6.26-40.52-41.68L150.19,202.8l2.68-7.78,18,7.46L176,209l2.67-9.06,1.15,1.63,1.87,5.06s17.58,14.63,21.38,26.23c3.16,9.69,2.17,29.69,4.1,35.12Z" transform="translate(-4.56 -4.23)"/><path class="cls-7" d="M145.87,202.26c-.27.81-17.32,7.66-18.13,13.63S140,268,140,268l20.71,18.3h53.17L197,254.73a80.18,80.18,0,0,0-13.65-18.56c-5-5.06-11-11.32-14.15-15-3.37-4.05-17.66-23-17.66-23Z" transform="translate(-4.56 -4.23)"/><path class="cls-5" d="M156.56,204.15a20.22,20.22,0,0,1,3,1.35c1.83.9,4.34,2.16,7.1,3.59l3.14,1.64-.36.24a22.68,22.68,0,0,1,.33-5.58,8.07,8.07,0,0,1,.59-2.11,19.32,19.32,0,0,1-.28,2.16,28,28,0,0,0-.15,5.49v.44l-.39-.2-3.15-1.61c-2.76-1.43-5.24-2.75-7-3.73A22.42,22.42,0,0,1,156.56,204.15Z" transform="translate(-4.56 -4.23)"/><path class="cls-5" d="M181.18,206.64a6.44,6.44,0,0,1-1,1.62l-.21.3-.11-.37c-.34-1.13-.78-2.72-1.22-4.49a1.4,1.4,0,0,0-.11-.4l.49.06c-1.6,3-2.58,5.55-2.72,5.5a21.2,21.2,0,0,1,2.26-5.74l.31-.6.17.65a2,2,0,0,0,.1.4c.45,1.77.83,3.37,1.07,4.53l-.32-.06A7.45,7.45,0,0,1,181.18,206.64Z" transform="translate(-4.56 -4.23)"/><path class="cls-5" d="M197.56,246.26a10.55,10.55,0,0,1-.85-1.35l-2.17-3.77c-1.82-3.19-4.35-7.58-7.22-12.39s-5.53-9.12-7.46-12.24l-2.28-3.7a10,10,0,0,1-.79-1.39,8.82,8.82,0,0,1,1,1.28c.58.84,1.41,2.07,2.42,3.61,2,3.07,4.72,7.36,7.6,12.18s5.35,9.24,7.09,12.47c.88,1.62,1.57,2.93,2,3.85A7.88,7.88,0,0,1,197.56,246.26Z" transform="translate(-4.56 -4.23)"/><g class="cls-10"><path d="M189.37,278.42a27.75,27.75,0,0,0,9.34.47c3.08-.53,6.1-2.53,7.06-5.51a6,6,0,0,1,1.16-2.67c1.18-1.1,3.08-.42,4.69-.57a5.84,5.84,0,0,0,4.28-3,17.06,17.06,0,0,0,1.79-5.09,7.66,7.66,0,0,0,.32-2.65,2.66,2.66,0,0,0-1.38-2.15c-1.22-.55-2.59.25-3.68,1-8.77,6.32-16.76,13.63-24.73,20.93" transform="translate(-4.56 -4.23)"/></g><path class="cls-6" d="M327,342l15.45,19.37s24.88-9.21,28.08-5.91L334,386.8l-25.32-29.18Z" transform="translate(-4.56 -4.23)"/><g class="cls-8"><path class="cls-9" d="M329.8,369.49a2,2,0,0,0,.43,2.59,1.87,1.87,0,0,0,2.56-.41,2.06,2.06,0,0,0-.46-2.73,2,2,0,0,0-2.63.71" transform="translate(-4.56 -4.23)"/></g><g class="cls-8"><path class="cls-9" d="M334,386.8l-2.43-3,35.87-28.89s2.23-.69,3,.61Z" transform="translate(-4.56 -4.23)"/></g><path class="cls-5" d="M342.87,360.69c.14.19-.68,1-1.06,2.36s-.21,2.47-.44,2.54-.84-1.18-.34-2.78S342.76,360.5,342.87,360.69Z" transform="translate(-4.56 -4.23)"/><path class="cls-5" d="M348.05,359c.19.14-.32,1.1-.28,2.38s.55,2.22.37,2.36S347,363,347,361.38,347.87,358.83,348.05,359Z" transform="translate(-4.56 -4.23)"/><path class="cls-5" d="M354.15,361.7c-.13.18-1.14-.5-1.52-1.86s.12-2.48.32-2.39.14,1.05.47,2.16S354.32,361.53,354.15,361.7Z" transform="translate(-4.56 -4.23)"/><path class="cls-5" d="M338.87,356.67c.07.23-1,.68-1.91,1.62s-1.46,1.92-1.68,1.85,0-1.36,1.12-2.44S338.87,356.46,338.87,356.67Z" transform="translate(-4.56 -4.23)"/><g class="cls-10"><polygon points="325.48 341.63 328.24 345.08 310.18 360.31 307.56 357.31 325.48 341.63"/></g><path class="cls-5" d="M335.66,352.82c.07.08-.54.79-1.83,1.56a10.65,10.65,0,0,1-2.42,1.06,11.14,11.14,0,0,1-1.52.34,2.84,2.84,0,0,1-.92,0,1,1,0,0,1-.9-.87,1.32,1.32,0,0,1,.43-1.08,3.25,3.25,0,0,1,.77-.49,8.85,8.85,0,0,1,1.47-.59,8.38,8.38,0,0,1,2.63-.34,4,4,0,0,1,2.35.56c0,.13-.92-.07-2.34,0a9.12,9.12,0,0,0-2.42.48,9.62,9.62,0,0,0-1.32.58c-.47.23-.81.51-.76.76s0,.13.22.17a2.51,2.51,0,0,0,.67,0,11.45,11.45,0,0,0,1.44-.28,13.68,13.68,0,0,0,2.35-.84A16.93,16.93,0,0,1,335.66,352.82Z" transform="translate(-4.56 -4.23)"/><path class="cls-5" d="M335.65,353.26a4.09,4.09,0,0,1-2-1.35,7.84,7.84,0,0,1-1.46-2.22,7.12,7.12,0,0,1-.49-1.5,2,2,0,0,1,.37-1.93,1.12,1.12,0,0,1,1.2-.14,2.81,2.81,0,0,1,.76.51,4.93,4.93,0,0,1,1.06,1.22,5.44,5.44,0,0,1,.84,2.56c.1,1.56-.46,2.41-.53,2.36a17.5,17.5,0,0,0,0-2.29,5.62,5.62,0,0,0-.9-2.21,4.69,4.69,0,0,0-.94-1c-.39-.34-.8-.53-.91-.36a1.41,1.41,0,0,0-.13,1.15,9,9,0,0,0,.4,1.37,8.81,8.81,0,0,0,1.21,2.13C335,352.66,335.72,353.17,335.65,353.26Z" transform="translate(-4.56 -4.23)"/><path class="cls-6" d="M310.07,397.36l-.93,24.76S334,431.39,334.26,436l-48.07-.09-.12-38.63Z" transform="translate(-4.56 -4.23)"/><g class="cls-8"><path class="cls-9" d="M294.28,420a2,2,0,0,0-1.41,2.25,1.9,1.9,0,0,0,2.21,1.37,2.06,2.06,0,0,0,1.43-2.38,2,2,0,0,0-2.45-1.17" transform="translate(-4.56 -4.23)"/></g><g class="cls-8"><path class="cls-9" d="M286.19,435.89l.14-3.9,46,1.55s2.13.94,1.89,2.44Z" transform="translate(-4.56 -4.23)"/></g><path class="cls-5" d="M309.92,421.88c0,.23-1.19.34-2.34,1.09s-1.78,1.74-2,1.64.13-1.44,1.55-2.33S310,421.66,309.92,421.88Z" transform="translate(-4.56 -4.23)"/><path class="cls-5" d="M315,424c.06.23-1,.63-1.76,1.62s-1,2-1.26,2-.39-1.34.63-2.55S315,423.75,315,424Z" transform="translate(-4.56 -4.23)"/><path class="cls-5" d="M317.81,430c-.22.05-.54-1.12.06-2.4s1.71-1.8,1.81-1.6-.59.88-1.07,1.94S318,430,317.81,430Z" transform="translate(-4.56 -4.23)"/><path class="cls-5" d="M309.5,416.26c-.09.22-1.17-.11-2.5,0s-2.36.5-2.48.3.87-1,2.44-1.12S309.62,416,309.5,416.26Z" transform="translate(-4.56 -4.23)"/><g class="cls-10"><polygon points="305.32 398.04 305.17 402.45 281.55 402.19 281.51 398.21 305.32 398.04"/></g><path class="cls-5" d="M309.6,411.26a4.48,4.48,0,0,1-2.41,0,11.23,11.23,0,0,1-2.51-.78,11.5,11.5,0,0,1-1.38-.74,2.88,2.88,0,0,1-.73-.57,1,1,0,0,1-.11-1.25,1.34,1.34,0,0,1,1-.53,3.08,3.08,0,0,1,.91.13,9.7,9.7,0,0,1,1.49.51,8.62,8.62,0,0,1,2.22,1.46c1.11,1,1.49,1.92,1.41,2s-.65-.66-1.78-1.51a9.05,9.05,0,0,0-2.14-1.22,8.26,8.26,0,0,0-1.39-.42c-.5-.14-.94-.14-1.07.08s0,.12.05.27a2.45,2.45,0,0,0,.54.42,13.43,13.43,0,0,0,1.27.73,13.06,13.06,0,0,0,2.32.89A18.39,18.39,0,0,1,309.6,411.26Z" transform="translate(-4.56 -4.23)"/><path class="cls-5" d="M309.29,411.55a3.93,3.93,0,0,1-.63-2.33,8.34,8.34,0,0,1,.34-2.63,8.84,8.84,0,0,1,.61-1.46,2,2,0,0,1,1.54-1.22,1.15,1.15,0,0,1,1,.68,3.38,3.38,0,0,1,.24.88,4.89,4.89,0,0,1,0,1.62,5.38,5.38,0,0,1-1,2.49c-.95,1.24-1.92,1.52-1.94,1.44a10.06,10.06,0,0,0,1.46-1.77,5.37,5.37,0,0,0,.76-2.26,4.63,4.63,0,0,0,0-1.39c-.07-.51-.26-.92-.45-.87a1.75,1.75,0,0,0-.85.79,10.2,10.2,0,0,0-.6,1.3,9.37,9.37,0,0,0-.47,2.4C309.17,410.63,309.42,411.51,309.29,411.55Z" transform="translate(-4.56 -4.23)"/><path class="cls-9" d="M231.33,252.64,257,193.26s-14.91,18.67-22.71,18.5c0,0-8.62,19-14.17,34.08l-8.46,21.84Z" transform="translate(-4.56 -4.23)"/><path class="cls-5" d="M231.33,252.64a1.43,1.43,0,0,1-.32.28l-1,.79-3.87,3-14.35,11.1-.5.39.23-.59c2.75-7.17,6-15.72,9.68-25.24s8-19.9,12.88-30.73l.07-.15h.17a9.59,9.59,0,0,0,4.36-1.34,48,48,0,0,0,10-8c3-3,5.69-6,8.17-9l1.14-1.4-.72,1.66c-7.48,17.17-13.93,32-18.53,42.57-2.31,5.24-4.14,9.42-5.41,12.31-.63,1.41-1.12,2.51-1.47,3.28-.16.35-.29.63-.38.84s-.14.28-.15.27l.11-.3c.09-.22.21-.5.35-.87l1.4-3.32c1.24-2.91,3-7.12,5.28-12.39,4.56-10.57,10.94-25.41,18.34-42.59l.43.25a117.72,117.72,0,0,1-8.2,9.1,47.86,47.86,0,0,1-10.1,8.1,9.94,9.94,0,0,1-4.62,1.41l.24-.16c-4.84,10.82-9.24,21.18-12.91,30.69s-7,18-9.79,25.19l-.27-.2,14.42-11,3.93-2.95,1-.76Z" transform="translate(-4.56 -4.23)"/><polygon class="cls-5" points="124.78 381.28 132.5 431.75 140.16 431.75 136.38 381.47 124.78 381.28"/><polygon class="cls-5" points="260.57 381.47 260.57 431.75 268.65 431.75 271.67 381.28 260.57 381.47"/><path class="cls-11" d="M209.8,242s3.26-7.49,5-8.53,12.37-5.88,12.37-5.88L226.08,230l10.59-6.32a5,5,0,0,1-.82,4.45c-1.65,2.26-1.1,2.06-1.1,2.06s1.79,1.07.89,2.67a34.17,34.17,0,0,1-2.42,3.55s1.65,2,1,3.9a8,8,0,0,1,.24,3.92c-.39,2.28-4.51,6.62-4.51,6.62l-20.57,9.79-8.29-14.08Z" transform="translate(-4.56 -4.23)"/><path class="cls-7" d="M164.43,230l12.34,26.34,27.36-11.89s11.35,6.63,9.78,13.87L189.26,278.6a22,22,0,0,1-16.69,4.85h0a22.1,22.1,0,0,1-15.77-9.79L139,246.51,129,230.2a15.25,15.25,0,0,1,.42-16.88,12.58,12.58,0,0,1,3.52-3.3C137.38,207.31,150.61,206.13,164.43,230Z" transform="translate(-4.56 -4.23)"/><path class="cls-12" d="M214.42,258.38l.27-.16.79-.42,3.09-1.54,11.27-5.6h-.05a31.39,31.39,0,0,0,3.5-4.46,5.54,5.54,0,0,0,1-2.77,7.89,7.89,0,0,0-.32-3.09v-.16a4.17,4.17,0,0,0-.95-3.66l-.12-.16.12-.15a35.16,35.16,0,0,0,2.06-3,2.12,2.12,0,0,0,.52-1.56,2.2,2.2,0,0,0-1-1.31h.23a.34.34,0,0,1-.4-.14.53.53,0,0,1,0-.25l.06-.23.17-.34.39-.62c.26-.4.57-.8.82-1.18a4.78,4.78,0,0,0,.76-2.65,3.74,3.74,0,0,0-.19-1.24l.38.13-10.59,6.31-.69.41.33-.73,1.1-2.39.32.33c-4.54,2.09-8.75,4-12.27,5.78a7,7,0,0,0-1.78,2.11c-.49.78-.92,1.55-1.31,2.29-.79,1.49-1.44,2.86-2,4.06h0l-4.48,2.26-1.17.58a1.94,1.94,0,0,1-.42.17,3,3,0,0,1,.38-.24l1.15-.63,4.42-2.37-.06.06c.53-1.22,1.16-2.6,1.93-4.1.38-.76.81-1.54,1.29-2.33a13.73,13.73,0,0,1,.8-1.19,3.86,3.86,0,0,1,1.1-1.07c3.56-1.89,7.73-3.77,12.27-5.89l.6-.27-.28.6c-.35.78-.72,1.58-1.09,2.39l-.35-.32,10.58-6.33.28-.17.1.3a4.9,4.9,0,0,1,.23,1.42,5.38,5.38,0,0,1-.85,2.94c-.29.44-.57.79-.83,1.19-.13.19-.25.39-.36.58l-.15.29V230h-.26c0,.14-.06-.2,0-.16h.22a2.68,2.68,0,0,1,1.23,1.66,1.87,1.87,0,0,1-.11,1.07,7.17,7.17,0,0,1-.47.86,36.22,36.22,0,0,1-2.11,3v-.14a6.37,6.37,0,0,1,1,2,3.62,3.62,0,0,1,0,2.16v-.17a8.21,8.21,0,0,1,.34,3.3,4.78,4.78,0,0,1-.36,1.58,8.43,8.43,0,0,1-.74,1.39,31.78,31.78,0,0,1-3.59,4.5h0l-11.35,5.44-3.13,1.47-.83.37A1,1,0,0,1,214.42,258.38Z" transform="translate(-4.56 -4.23)"/><path class="cls-12" d="M226.78,229.54a26.08,26.08,0,0,1-4.3,3,26.39,26.39,0,0,1-4.57,2.52,26.08,26.08,0,0,1,4.3-3A26.77,26.77,0,0,1,226.78,229.54Z" transform="translate(-4.56 -4.23)"/><path class="cls-12" d="M235,229.26a30.1,30.1,0,0,1-3.84,4.14,30.17,30.17,0,0,1-4.21,3.86,31.43,31.43,0,0,1,3.84-4.15A30.73,30.73,0,0,1,235,229.26Z" transform="translate(-4.56 -4.23)"/><path class="cls-12" d="M233.92,235.63a18.27,18.27,0,0,1-4,4.7,9.74,9.74,0,0,1,1.8-2.52A9.48,9.48,0,0,1,233.92,235.63Z" transform="translate(-4.56 -4.23)"/><path class="cls-12" d="M234.29,239.91c.11.09-.34.79-.92,1.62s-1.08,1.49-1.2,1.42.18-.87.77-1.72S234.19,239.81,234.29,239.91Z" transform="translate(-4.56 -4.23)"/><path class="cls-5" d="M185.06,281.26s0-.05.12-.12l.39-.33,1.55-1.25,5.92-4.69,21.09-16.61-.09.17a10.36,10.36,0,0,0-.77-4,16.35,16.35,0,0,0-2.27-3.7,29.14,29.14,0,0,0-7-6h.23l-14.17,6.16-13.19,5.71-.22.1-.11-.21c-3.63-7.15-7-13.87-10.38-19.71-1.69-2.93-3.36-5.64-4.94-8.17s-3-4.87-4.49-6.89a25.47,25.47,0,0,0-8.52-7.9c-.59-.35-1.14-.62-1.61-.85s-.88-.42-1.21-.56l-.75-.33a1.42,1.42,0,0,1-.25-.12,24.4,24.4,0,0,1,8.08,4.56,29.05,29.05,0,0,1,4.53,5c1.5,2,3,4.36,4.56,6.87s3.28,5.23,5,8.16c3.44,5.84,6.82,12.56,10.46,19.7l-.33-.12,13.18-5.73L204,244.26l.12,0,.11.07a29.06,29.06,0,0,1,7.12,6.14,17.43,17.43,0,0,1,2.33,3.83,11,11,0,0,1,.79,4.24v.1l-.09.07-21.2,16.39-6,4.58-1.59,1.2-.41.3Z" transform="translate(-4.56 -4.23)"/><path class="cls-5" d="M175.11,264.65c-.15-.06.61-1.94,1-4.37s.4-4.46.56-4.47a13.56,13.56,0,0,1-1.6,8.84Z" transform="translate(-4.56 -4.23)"/><polygon class="cls-7" points="282.39 282.09 327.51 342.05 306.42 360.18 284.69 331.77 282.39 282.09"/><path class="cls-7" d="M191.41,289.18s72.6-22.11,79.25-21.83,19.27,24.29,19.27,24.29l-20.38-.74-25.77,39.36-41.67-2Z" transform="translate(-4.56 -4.23)"/><path class="cls-5" d="M250.75,271.71c0,.14-7.42,2.48-16.66,5.23s-16.77,4.86-16.81,4.72,7.42-2.48,16.66-5.22S250.71,271.57,250.75,271.71Z" transform="translate(-4.56 -4.23)"/><path class="cls-7" d="M267.62,290.51H288a24,24,0,0,1,22.62,16h0a36.86,36.86,0,0,1,2.05,14.08l-1.58,82.92H283.65l-.5-26.5-3.47-50.37-23.75,1-13.46-.84Z" transform="translate(-4.56 -4.23)"/><path class="cls-5" d="M268.23,290.1a13,13,0,0,1-.39,1.75,42.17,42.17,0,0,1-1.44,4.68,47.22,47.22,0,0,1-3,6.6,53.54,53.54,0,0,1-5,7.39,130.67,130.67,0,0,1-11.07,11.74l-3.52,3.39a10.85,10.85,0,0,1-1.34,1.19,15.18,15.18,0,0,1,1.19-1.34c.79-.84,2-2,3.41-3.5A159,159,0,0,0,258,310.22a53.87,53.87,0,0,0,8.05-13.79c.72-1.92,1.28-3.5,1.59-4.6A11.72,11.72,0,0,1,268.23,290.1Z" transform="translate(-4.56 -4.23)"/><path class="cls-5" d="M293.16,291.07c-1.24,0-2.47-.06-3.71-.18-2.28-.13-5.44-.22-8.92-.15s-6.64.28-8.93.43a28.57,28.57,0,0,1-3.7.19,3.43,3.43,0,0,1,1-.21c.63-.1,1.55-.22,2.69-.35,2.28-.25,5.44-.51,9-.58a77.19,77.19,0,0,1,9,.31c1.14.1,2.07.22,2.7.33A4.57,4.57,0,0,1,293.16,291.07Z" transform="translate(-4.56 -4.23)"/><path class="cls-5" d="M283.53,388.37a4,4,0,0,1-.07-.69c0-.51-.07-1.17-.11-2-.08-1.79-.2-4.27-.33-7.3-.27-6.16-.64-14.67-1.23-24.06s-1.29-17.89-1.8-24c-.24-3-.45-5.5-.59-7.28-.06-.82-.1-1.48-.14-2a2.66,2.66,0,0,1,0-.69,2.62,2.62,0,0,1,.12.68c.06.51.13,1.16.23,2,.19,1.77.44,4.24.76,7.26.6,6.14,1.35,14.63,1.95,24s.9,17.92,1.08,24.09c.06,3,.12,5.51.16,7.3v2A2.66,2.66,0,0,1,283.53,388.37Z" transform="translate(-4.56 -4.23)"/><path class="cls-5" d="M312.72,317.41c.14,0,0,19-.22,42.43s-.63,42.42-.74,42.42-.05-19,.22-42.44S312.57,317.41,312.72,317.41Z" transform="translate(-4.56 -4.23)"/><path class="cls-5" d="M290.33,314.31a48.9,48.9,0,0,0-5.86,2.76,46.86,46.86,0,0,0-5.11,4,5.67,5.67,0,0,1,1.2-1.51,19.11,19.11,0,0,1,7.88-4.83A5.58,5.58,0,0,1,290.33,314.31Z" transform="translate(-4.56 -4.23)"/><g class="cls-10"><path class="cls-14" d="M242.47,326.81c5.54,1.05,11.61-.69,16.35-3.73a22.54,22.54,0,0,0,9.6-13.42c.61-2.45.79-5,1.4-7.46a11.27,11.27,0,0,1,3.71-6.45c2.32-1.78,8-2.91,9.74-5.29,0-.36-6.78.45-9,.57-2.48.14-6.63.79-6.54.49a63.7,63.7,0,0,1-2.39,7.27c-4.95,8.73-15.8,21.56-22.82,28" transform="translate(-4.56 -4.23)"/></g><path class="cls-6" d="M128,229.53s-10.8.43-14.12,5c-5.83,8-2.55,14.92-2.88,17.28s18.37,133.73,18.37,133.73H137l139.18,1.29,6.65-16.27-3.22-43.91-37.21.16s-15.2-43.74-28.57-46.66c-9-2-30.21-1.28-43-.62A17.79,17.79,0,0,1,155,271.42Z" transform="translate(-4.56 -4.23)"/><path class="cls-5" d="M251.33,380.35s-.77.1-2.25.17-3.66.11-6.48.14c-5.64.08-13.84.1-24,.09-20.41,0-48.86-.18-81-.45h-.2l-.05-.2c-.58-2.75-1.17-5.58-1.77-8.45s-1.17-5.81-1.76-8.76c-7-35.62-11.08-68.26-13.28-91.93-1.11-11.83-1.77-21.43-2.19-28.07-.18-3.3-.32-5.87-.42-7.64,0-.86-.07-1.52-.1-2a3.71,3.71,0,0,1,0-.68,5,5,0,0,0,.07.68c.07.45.08,1.12.14,2,.12,1.76.3,4.33.52,7.63.48,6.63,1.2,16.22,2.35,28.05,2.3,23.65,6.45,56.26,13.43,91.86.6,2.95,1.18,5.87,1.76,8.75s1.17,5.7,1.77,8.45l-.25-.2,81,.63,24,.06h6.48c.74,0,1.29-.06,1.67-.07Z" transform="translate(-4.56 -4.23)"/><path class="cls-5" d="M249.87,386.56a3.36,3.36,0,0,1,.06-.63c.07-.46.15-1.05.26-1.77s.28-1.71.4-2.81.32-2.34.42-3.73.26-2.89.32-4.53.12-3.37.14-5.21a103.75,103.75,0,0,0-2.76-23.68c-.84-3.58-1.74-6.76-2.61-9.41-.39-1.33-.84-2.5-1.2-3.55s-.69-1.94-1-2.66l-.62-1.68a3,3,0,0,1-.18-.6,3.25,3.25,0,0,1,.28.56l.71,1.64c.31.72.68,1.6,1.06,2.64s.85,2.21,1.27,3.54c.91,2.63,1.86,5.82,2.73,9.41a107.79,107.79,0,0,1,2.11,11.81,104.66,104.66,0,0,1,.66,12c0,1.85-.06,3.6-.19,5.24s-.24,3.16-.39,4.54-.34,2.64-.49,3.73-.33,2-.49,2.8-.26,1.3-.36,1.76A2.4,2.4,0,0,1,249.87,386.56Z" transform="translate(-4.56 -4.23)"/><path class="cls-5" d="M147.87,292.44a3.64,3.64,0,0,1,.56-.48l1.68-1.28,1.23-.92c.47-.3,1-.6,1.55-.94a35.7,35.7,0,0,1,3.87-2.16l2.32-1.13c.8-.4,1.69-.69,2.58-1.06s1.82-.75,2.8-1.06l3-1a87,87,0,0,1,13.82-2.87,100.58,100.58,0,0,1,14.09-.86c2.17,0,4.23.14,6.16.21a50.78,50.78,0,0,1,5.34.53,70.79,70.79,0,0,1,7.64,1.41l2,.56a3.38,3.38,0,0,1,.7.23,3.73,3.73,0,0,1-.73-.13l-2.06-.47c-1.78-.37-4.39-.86-7.64-1.23-1.62-.21-3.41-.31-5.32-.47a58.12,58.12,0,0,0-6.13-.16,107.42,107.42,0,0,0-14,.89,90.76,90.76,0,0,0-13.74,2.82l-3,.93c-1,.3-1.89.7-2.79,1s-1.78.64-2.58,1-1.58.74-2.32,1.09A36.16,36.16,0,0,0,153,289c-.56.32-1.09.61-1.57.9l-1.24.88-1.73,1.2A4.09,4.09,0,0,1,147.87,292.44Z" transform="translate(-4.56 -4.23)"/></g><g id="Speech_Bubble" data-name="Speech Bubble"><path class="cls-5" d="M417.48,124.83a3.11,3.11,0,1,0,3.11-3.11h0A3.13,3.13,0,0,0,417.48,124.83Z" transform="translate(-4.56 -4.23)"/><circle class="cls-5" cx="403.58" cy="120.6" r="3.11"/><path class="cls-5" d="M392.6,123.26a3.11,3.11,0,1,0,4.25-1.14,3.12,3.12,0,0,0-4.25,1.14Z" transform="translate(-4.56 -4.23)"/><path class="cls-5" d="M407.94,88.48a3.31,3.31,0,0,0-.63,0l-1.85,0a11.1,11.1,0,0,0-1.36.06l-1.63.23-1.91.28-2.12.52a34.73,34.73,0,0,0-10.31,4.5,36.13,36.13,0,0,0-16.81,32.34,20,20,0,0,0,.16,2.55c.16.85.26,1.7.39,2.57a36.75,36.75,0,0,0,3.46,10.14,39.15,39.15,0,0,0,6.63,9.12,38.44,38.44,0,0,0,9.54,6.86,34.73,34.73,0,0,0,11.64,3.56,23,23,0,0,0,3.1.26,27.47,27.47,0,0,0,3.14.06,38,38,0,0,0,6.29-.79,37.06,37.06,0,0,0,12.51-5.27h-.38l12.74,5.11.75.31-.21-.79c-1.29-4.67-2.54-9.22-3.75-13.62l-.06.34a36.79,36.79,0,0,0,6.8-15.57,33,33,0,0,0,.49-8,24.69,24.69,0,0,0-.36-3.83c-.09-.62-.19-1.24-.29-1.86s-.3-1.21-.44-1.81a36.42,36.42,0,0,0-14.22-20.72,35.15,35.15,0,0,0-8.46-4.47l-1.91-.68-1.81-.46-1.65-.41c-.53-.1-1-.15-1.52-.23-1-.12-1.81-.29-2.56-.32l-1.87-.07h-1.53a1.28,1.28,0,0,0,.39,0l1.14.09,1.86.13c.73.06,1.57.24,2.52.38a36.27,36.27,0,0,1,29,26.88c.14.59.32,1.18.43,1.78s.18,1.21.27,1.83a23.68,23.68,0,0,1,.34,3.76,31.53,31.53,0,0,1-.52,7.82,35.84,35.84,0,0,1-6.7,15.23l-.12.15v.19c1.2,4.4,2.45,9,3.72,13.63l.54-.48-12.74-5.13-.2-.08-.18.12a35.77,35.77,0,0,1-18.37,5.91,26.2,26.2,0,0,1-3.07,0,21.7,21.7,0,0,1-3-.26A33.72,33.72,0,0,1,391.87,157a37.67,37.67,0,0,1-9.35-6.69,38.56,38.56,0,0,1-6.51-8.91,36,36,0,0,1-3.43-9.93l-.39-2.51c-.12-.83-.11-1.68-.17-2.5a38,38,0,0,1,.08-4.89,36,36,0,0,1,16.28-27,34.75,34.75,0,0,1,10.14-4.58l2.1-.55,1.88-.31,1.62-.27c.5-.06.95-.07,1.35-.1l1.84-.13A2.59,2.59,0,0,0,407.94,88.48Z" transform="translate(-4.56 -4.23)"/></g><g id="Plants"><rect class="cls-5" x="31.01" y="373.93" width="67.19" height="9.23"/><path class="cls-5" d="M102.87,387.51H35.45v-9.46h67.42Zm-67.19-.25h67v-9h-67Z" transform="translate(-4.56 -4.23)"/><polygon class="cls-5" points="37.23 380.09 46.91 427.8 82.69 427.8 92.03 383.16 37.23 380.09"/><polygon class="cls-6" points="37.23 423.29 42.4 430.38 85.89 430.38 92.03 423.29 37.23 423.29"/><path class="cls-5" d="M66.63,385.72c-.13,0-.3-22.11-.37-49.37s0-49.36.1-49.36.3,22.09.37,49.36S66.77,385.72,66.63,385.72Z" transform="translate(-4.56 -4.23)"/><path class="cls-5" d="M81.6,330.4a1.61,1.61,0,0,1-.18.52c-.16.37-.36.85-.6,1.43l-.44,1-.45,1.25L79.42,336c-.18.51-.32,1.07-.5,1.64A68.08,68.08,0,0,0,77,345.91a101.49,101.49,0,0,0-1,10.29A138.64,138.64,0,0,0,76.57,375c.22,2.4.44,4.33.59,5.67.07.63.13,1.14.17,1.55a1.63,1.63,0,0,1,0,.54,2.4,2.4,0,0,1-.12-.53c-.07-.4-.15-.91-.26-1.53-.22-1.33-.49-3.27-.75-5.67a125,125,0,0,1-.67-18.85,94.2,94.2,0,0,1,1.09-10.33,62.91,62.91,0,0,1,2-8.26c.18-.57.34-1.13.53-1.64l.55-1.43.49-1.25c.17-.37.34-.71.48-1l.68-1.39A4.23,4.23,0,0,1,81.6,330.4Z" transform="translate(-4.56 -4.23)"/><path class="cls-5" d="M79.87,312.53a4.68,4.68,0,0,1-.21.73c-.18.51-.41,1.19-.7,2.05-.16.45-.33.94-.51,1.48s-.35,1.15-.54,1.79c-.4,1.28-.85,2.73-1.26,4.36-.21.82-.44,1.67-.67,2.56s-.41,1.83-.63,2.79c-.47,1.93-.81,4-1.24,6.2-.74,4.39-1.4,9.24-1.85,14.36s-.6,10-.67,14.47,0,8.47.23,11.84c.06,1.68.16,3.2.25,4.54s.16,2.48.25,3.42.12,1.63.16,2.17a4.7,4.7,0,0,1,0,.75,4.57,4.57,0,0,1-.12-.74c-.07-.54-.15-1.26-.26-2.16s-.22-2.09-.33-3.42-.24-2.86-.32-4.55c-.23-3.36-.32-7.38-.33-11.85s.21-9.37.64-14.51,1.12-10,1.88-14.4c.45-2.18.8-4.28,1.29-6.2l.66-2.8c.24-.89.48-1.74.71-2.56.42-1.63.9-3.08,1.32-4.35l.58-1.78c.2-.54.39-1,.55-1.47l.79-2A4.69,4.69,0,0,1,79.87,312.53Z" transform="translate(-4.56 -4.23)"/><path class="cls-5" d="M62.38,389.63v-.26a3.23,3.23,0,0,0-.07-.76c0-.71-.11-1.69-.19-2.93-.17-2.58-.4-6.25-.68-10.77-.58-9.08-1.42-21.64-3-35.45-.79-6.9-1.69-13.46-2.63-19.41-.51-3-1-5.79-1.47-8.41s-1-5.08-1.46-7.31-.93-4.23-1.33-6-.76-3.28-1.08-4.51-.53-2.17-.69-2.85c-.07-.31-.13-.55-.17-.75l0-.25a.57.57,0,0,0,.09.24l.22.73.78,2.83c.35,1.23.75,2.73,1.17,4.49s.93,3.76,1.4,6,1,4.67,1.51,7.3,1,5.45,1.51,8.42c1,5.95,1.89,12.52,2.67,19.43,1.53,13.82,2.32,26.39,2.82,35.48.25,4.55.42,8.23.52,10.78,0,1.25.08,2.23.11,2.93v.76A.82.82,0,0,1,62.38,389.63Z" transform="translate(-4.56 -4.23)"/><path class="cls-7" d="M66.09,297.61c-.3-3.13-3.46-5.49-6.61-5.52a10.37,10.37,0,0,0-8,4.34A25.15,25.15,0,0,0,47.62,305c-2.11,7.37-3.27,15.12-2.37,22.75s4,15.12,9.47,20.51c.89.87,2,1.75,3.26,1.49a3.92,3.92,0,0,0,1.72-1.07A50.85,50.85,0,0,0,76.23,310c-.09-2.9-.47-5.91-2.08-8.33s-5.34-5-8.07-4" transform="translate(-4.56 -4.23)"/><path class="cls-7" d="M42.6,272.53l-4.43,8c-.1.19-.24.4-.45.42s-.4-.2-.53-.4l-11.71-18,2.7-1.53Z" transform="translate(-4.56 -4.23)"/><path class="cls-14" d="M42.6,272.53l-4.43,8c-.1.19-.24.4-.45.42s-.4-.2-.53-.4l-11.71-18,2.7-1.53Z" transform="translate(-4.56 -4.23)"/><path class="cls-7" d="M66.36,287,26.41,263.41a1.82,1.82,0,0,1-1-1c-.16-.59.28-1.16.71-1.6a27.51,27.51,0,0,1,21.35-8.38,24.36,24.36,0,0,1,19.3,12c3.85,6.89,4,16-.44,22.54" transform="translate(-4.56 -4.23)"/><path class="cls-5" d="M32.17,255.89a2.31,2.31,0,0,1,.52-.06c.35,0,.85-.08,1.51-.08a31.13,31.13,0,0,1,5.54.44,32.22,32.22,0,0,1,25.86,23.4,29.92,29.92,0,0,1,1,5.47c.07.65,0,.82.06,1.16a1.83,1.83,0,0,1-.31.87,6.39,6.39,0,0,0,.06-2,32.76,32.76,0,0,0-26.72-28.55,32.46,32.46,0,0,0-5.48-.59C32.87,255.91,32.17,255.93,32.17,255.89Z" transform="translate(-4.56 -4.23)"/><path class="cls-5" d="M61,270.72a9.75,9.75,0,0,1-2,.91c-1.27.51-3,1.15-5,1.78s-3.81,1.13-5.14,1.46a8.93,8.93,0,0,1-2.18.41,11.79,11.79,0,0,1,2.09-.74L53.81,273l5.06-1.63A10.76,10.76,0,0,1,61,270.72Z" transform="translate(-4.56 -4.23)"/><path class="cls-5" d="M54.66,253.82a28.27,28.27,0,0,1,.23,8.93,27.73,27.73,0,0,1-.24-4.46A27.8,27.8,0,0,1,54.66,253.82Z" transform="translate(-4.56 -4.23)"/><path class="cls-5" d="M26.06,263a18.75,18.75,0,0,1,2.9-1c1.82-.56,4.35-1.27,7.16-2s5.4-1.2,7.27-1.53a17.89,17.89,0,0,1,3-.41,20.53,20.53,0,0,1-3,.74c-1.85.42-4.4,1-7.21,1.66s-5.31,1.32-7.12,1.78A21.81,21.81,0,0,1,26.06,263Z" transform="translate(-4.56 -4.23)"/><path class="cls-7" d="M49.51,290.82c-3.44-2.61-7.07-3.12-11.38-2.95a35,35,0,0,0-12.45,3.21c-6.74,2.95-13.07,7.3-17.09,13.45s-5.43,14.31-2.41,21a3.06,3.06,0,0,0,1.36,1.66A3.32,3.32,0,0,0,9.8,327c7.66-2.5,15.37-5,22.41-8.94s13.46-9.35,17.24-16.47a13.88,13.88,0,0,0,1.81-5.46,6.76,6.76,0,0,0-1.75-5.34" transform="translate(-4.56 -4.23)"/><path class="cls-5" d="M49.58,290a3.83,3.83,0,0,1-.56.22l-1.6.55-1.16.39c-.43.15-.87.34-1.36.53-1,.39-2.1.79-3.28,1.36l-1.88.86c-.65.3-1.3.67-2,1-1.39.68-2.79,1.55-4.29,2.43a75.22,75.22,0,0,0-9.07,6.73,76.52,76.52,0,0,0-7.82,8.18c-1.07,1.37-2.11,2.66-3,3.95-.44.64-.89,1.23-1.27,1.84l-1.09,1.76c-.72,1.1-1.25,2.16-1.76,3.07-.25.46-.5.89-.7,1.28l-.49,1.1-.75,1.52a2.43,2.43,0,0,1-.3.52,5.37,5.37,0,0,1,.21-.56c.17-.4.39-.92.67-1.56.15-.34.32-.72.49-1.13s.43-.83.67-1.3c.49-.93,1-2,1.71-3.13L12,317.84c.37-.61.82-1.22,1.25-1.87a49.58,49.58,0,0,1,3-4,71.85,71.85,0,0,1,7.85-8.23A72.68,72.68,0,0,1,33.28,297c1.51-.88,2.93-1.74,4.34-2.42.69-.34,1.35-.7,2-1l1.9-.83c1.2-.56,2.34-.93,3.33-1.3.49-.18.94-.35,1.37-.49l1.18-.35,1.64-.47A2.65,2.65,0,0,1,49.58,290Z" transform="translate(-4.56 -4.23)"/><path class="cls-5" d="M22.74,304.54a78.41,78.41,0,0,1-8.36,2.72,82.39,82.39,0,0,1-8.51,2.21,82,82,0,0,1,8.35-2.7A80.82,80.82,0,0,1,22.74,304.54Z" transform="translate(-4.56 -4.23)"/><path class="cls-5" d="M22.39,323a14.15,14.15,0,0,1-.18-2.6c-.05-1.61-.05-3.84,0-6.29s.2-4.68.33-6.29a13.59,13.59,0,0,1,.33-2.54,14.22,14.22,0,0,1,0,2.61c-.06,1.77-.12,3.91-.2,6.28s-.11,4.51-.15,6.28A14.49,14.49,0,0,1,22.39,323Z" transform="translate(-4.56 -4.23)"/><path class="cls-5" d="M38.19,314.93c-.13,0-.55-4.51-.94-10.09s-.59-10.13-.46-10.14.55,4.52.94,10.1S38.32,314.93,38.19,314.93Z" transform="translate(-4.56 -4.23)"/><path class="cls-5" d="M18.52,294.26a15,15,0,0,1,2.68-.09c1.66,0,3.94.06,6.45.15s4.8.18,6.45.28a13.87,13.87,0,0,1,2.66.26,15.86,15.86,0,0,1-2.67.08c-1.65,0-3.93-.06-6.45-.14s-4.8-.19-6.45-.29A16,16,0,0,1,18.52,294.26Z" transform="translate(-4.56 -4.23)"/><path class="cls-5" d="M56.44,349.26a4.86,4.86,0,0,1,0-.54,13.16,13.16,0,0,0-.07-1.54c-.06-1.33-.08-3.26,0-5.65s.21-5.23.5-8.38.76-6.59,1.4-10.19,1.46-7,2.28-10,1.69-5.78,2.49-8,1.49-4.06,2-5.3l.61-1.41a4.44,4.44,0,0,1,.24-.49,1.56,1.56,0,0,1-.15.52c-.13.38-.31.86-.52,1.45-.47,1.25-1.12,3.07-1.87,5.34s-1.57,5-2.39,8-1.57,6.44-2.23,10-1.1,7-1.43,10.15-.51,6-.6,8.35-.13,4.31-.13,5.64v1.54A1.74,1.74,0,0,1,56.44,349.26Z" transform="translate(-4.56 -4.23)"/><path class="cls-5" d="M58.55,323.13A10.15,10.15,0,0,1,57,324.88c-1,1-2.5,2.42-4.18,3.88s-3.24,2.75-4.39,3.63a11,11,0,0,1-2,1.36,12.62,12.62,0,0,1,1.73-1.62l4.3-3.73,4.26-3.77A12.81,12.81,0,0,1,58.55,323.13Z" transform="translate(-4.56 -4.23)"/><path class="cls-5" d="M71.19,333.32A21.86,21.86,0,0,1,69.5,331c-1.09-1.6-2.45-3.58-4-5.76l-4-5.71a16.75,16.75,0,0,1-1.68-2.41,16.47,16.47,0,0,1,1.92,2.17c1.11,1.41,2.59,3.39,4.15,5.63s2.91,4.33,3.84,5.85A14.37,14.37,0,0,1,71.19,333.32Z" transform="translate(-4.56 -4.23)"/><path class="cls-5" d="M64.57,301.26c.07.11-4.13,2.94-9.38,6.31s-9.57,6-9.64,5.91,4.13-2.93,9.38-6.31S64.5,301.18,64.57,301.26Z" transform="translate(-4.56 -4.23)"/><path class="cls-5" d="M76.41,314.07a81.88,81.88,0,0,1-6.35-5.87,80,80,0,0,1-6-6.21,73.57,73.57,0,0,1,6.36,5.87A73.13,73.13,0,0,1,76.41,314.07Z" transform="translate(-4.56 -4.23)"/><path class="cls-7" d="M79.39,313.81l3.61-.3a17.76,17.76,0,0,0,7.28-2.23,29,29,0,0,1,3.39-1.7c4.46-1.79,9.43-1.47,14.23-1.71a58.54,58.54,0,0,0,22.63-5.79,2.16,2.16,0,0,0,1-.89c.74-1.35-.63-2.55-1.82-3.28-6.07-3.74-12.25-7.54-19.14-9.39S95.86,287,90,291c-6.9,4.75-9.41,14.5-10.58,22.79" transform="translate(-4.56 -4.23)"/><path class="cls-5" d="M131.6,300.74a2.8,2.8,0,0,1-.61-.28l-1.71-.89c-1.48-.78-3.61-1.93-6.31-3.23a59,59,0,0,0-9.77-3.76,32.2,32.2,0,0,0-12.66-1,21.71,21.71,0,0,0-11.55,5A25.82,25.82,0,0,0,83,305a67.67,67.67,0,0,0-2.61,6.58c-.27.75-.48,1.35-.65,1.81a2.85,2.85,0,0,1-.25.63,5.28,5.28,0,0,1,.16-.66l.56-1.84a60.49,60.49,0,0,1,2.48-6.66,25.65,25.65,0,0,1,6-8.63,21.85,21.85,0,0,1,11.77-5.1,32.24,32.24,0,0,1,12.85,1.07,57.47,57.47,0,0,1,9.8,3.89c2.69,1.33,4.8,2.53,6.25,3.36l1.67,1A3.06,3.06,0,0,1,131.6,300.74Z" transform="translate(-4.56 -4.23)"/><path class="cls-5" d="M122.94,305.4c-.07.11-4.79-2.94-10.53-6.82s-10.34-7.1-10.26-7.21,4.79,2.94,10.53,6.82S123,305.26,122.94,305.4Z" transform="translate(-4.56 -4.23)"/><path class="cls-5" d="M117.87,291.13a11.4,11.4,0,0,1-3.43.61,12.07,12.07,0,0,1-3.5,0,22.31,22.31,0,0,1,3.46-.36A21.24,21.24,0,0,1,117.87,291.13Z" transform="translate(-4.56 -4.23)"/><path class="cls-5" d="M97.27,288.44a8.87,8.87,0,0,1-1.55,2.41,10.63,10.63,0,0,1-2,2.23,9,9,0,0,1,1.54-2.42A10.11,10.11,0,0,1,97.27,288.44Z" transform="translate(-4.56 -4.23)"/><path class="cls-5" d="M101.5,308.17a11.08,11.08,0,0,1-2.27-1.23c-1.36-.82-3.21-2-5.17-3.46s-3.7-2.78-5-3.77a13.91,13.91,0,0,1-2-1.68,12.93,12.93,0,0,1,2.16,1.41l5,3.65c2,1.42,3.76,2.67,5.07,3.57A17.59,17.59,0,0,1,101.5,308.17Z" transform="translate(-4.56 -4.23)"/><path class="cls-7" d="M84.7,329.13c-3.44-.91-7.54,2.44-8.25,5.92s.6,7,2.13,10.26A52.46,52.46,0,0,0,92.8,363.92a35.15,35.15,0,0,0,21.75,8c-1.46-6.76.38-13.81-.43-20.67a26.88,26.88,0,0,0-23.81-23.58c-2.19-.23-4.73-.58-5.61,1.45" transform="translate(-4.56 -4.23)"/><path class="cls-5" d="M114.55,371.93a3.12,3.12,0,0,1-.49-.23,9.12,9.12,0,0,1-1.29-.87,13.3,13.3,0,0,1-3.39-4.54c-.55-1.06-1.16-2.22-1.76-3.5l-1.85-4.09a40.29,40.29,0,0,0-2.28-4.37,33.21,33.21,0,0,0-3.13-4.25c-2.35-2.77-4.88-5.16-7.07-7.45a48.64,48.64,0,0,1-5.42-6.47,23.39,23.39,0,0,1-2.63-5c-.22-.63-.38-1.13-.46-1.47a1.93,1.93,0,0,1-.11-.53s.24.7.74,1.94a26.71,26.71,0,0,0,2.74,4.9,50.66,50.66,0,0,0,5.43,6.36c2.2,2.26,4.74,4.64,7.12,7.44a32.53,32.53,0,0,1,3.16,4.32,37.82,37.82,0,0,1,2.28,4.43l1.81,4.11c.57,1.27,1.17,2.44,1.7,3.51a13.74,13.74,0,0,0,3.21,4.55C113.87,371.56,114.58,371.88,114.55,371.93Z" transform="translate(-4.56 -4.23)"/><path class="cls-5" d="M96.77,366.31a10,10,0,0,1,.31-2.31c.27-1.42.71-3.36,1.31-5.48s1.23-4,1.74-5.36a10.38,10.38,0,0,1,.94-2.13,11.43,11.43,0,0,1-.62,2.24c-.42,1.38-1,3.27-1.6,5.38s-1.09,4-1.44,5.42A12.22,12.22,0,0,1,96.77,366.31Z" transform="translate(-4.56 -4.23)"/><path class="cls-5" d="M113.87,349.74a15.83,15.83,0,0,1-2.43-.56c-1.48-.39-3.52-.91-5.8-1.43s-4.35-.91-5.86-1.19a14.67,14.67,0,0,1-2.43-.54,12.19,12.19,0,0,1,2.49.2c1.52.2,3.62.55,5.9,1.06s4.34,1.1,5.8,1.58A11.89,11.89,0,0,1,113.87,349.74Z" transform="translate(-4.56 -4.23)"/><path class="cls-5" d="M84,354.55a14.2,14.2,0,0,1,.38-2.67c.3-1.65.78-3.9,1.42-6.37s1.33-4.67,1.87-6.25a15.2,15.2,0,0,1,1-2.52,14.79,14.79,0,0,1-.66,2.62c-.45,1.6-1.08,3.82-1.72,6.27s-1.18,4.7-1.56,6.32A14.54,14.54,0,0,1,84,354.55Z" transform="translate(-4.56 -4.23)"/><path class="cls-5" d="M106,335.26c-3.2-.1-6.41-.35-9.59-.77-5.28-.56-9.55-1.12-9.54-1.25a93.18,93.18,0,0,1,9.59.77C101.75,334.6,106,335.16,106,335.26Z" transform="translate(-4.56 -4.23)"/><path class="cls-6" d="M102.87,387.36c0,.13-15.09.24-33.7.24s-33.71-.11-33.71-.24,15.09-.24,33.71-.24S102.87,387.26,102.87,387.36Z" transform="translate(-4.56 -4.23)"/><path class="cls-6" d="M92.36,406.78c0,.13-10.17.24-22.71.24s-22.71-.11-22.71-.24,10.17-.24,22.71-.24S92.36,406.64,92.36,406.78Z" transform="translate(-4.56 -4.23)"/><path class="cls-6" d="M92,409.55c0,.14-10,.24-22.31.24s-22.32-.1-22.32-.24,10-.24,22.32-.24S92,409.42,92,409.55Z" transform="translate(-4.56 -4.23)"/><path class="cls-6" d="M92.76,404.49c0,.13-10.52.24-23.49.24s-23.49-.11-23.49-.24,10.51-.23,23.49-.23S92.76,404.36,92.76,404.49Z" transform="translate(-4.56 -4.23)"/><rect class="cls-6" x="553.33" y="132.57" width="115.61" height="5.95"/><path class="cls-1" d="M652.2,76.58a.35.35,0,0,0-.08-.18c-.08-.11-.16-.31-.28-.52A21.28,21.28,0,0,0,650.62,74a20.48,20.48,0,0,0-6-5.69,14.92,14.92,0,0,0-5.41-2,13.48,13.48,0,0,0-6.57.69,10.71,10.71,0,0,0-5.62,4.6c-1.29,2.26-1.71,4.91-2.47,7.44A13.17,13.17,0,0,1,623,82.55a10.94,10.94,0,0,1-2.67,2.63c-1,.74-2.06,1.41-3,2.19A12.84,12.84,0,0,0,614.87,90a16.41,16.41,0,0,0-2.5,6.12,22.17,22.17,0,0,0-.34,5.75,44.45,44.45,0,0,0,1.47,8.17c.25,1,.46,1.68.61,2.18q.1.39.24.75a5,5,0,0,0-.15-.77c-.13-.54-.31-1.28-.52-2.2a47.77,47.77,0,0,1-1.33-8.15,22.4,22.4,0,0,1,.39-5.66,16.17,16.17,0,0,1,2.48-5.95,12.75,12.75,0,0,1,2.37-2.55c.93-.76,2-1.42,3-2.17a10.81,10.81,0,0,0,2.78-2.74A13.66,13.66,0,0,0,625,79.14c.77-2.58,1.18-5.19,2.42-7.34a10.32,10.32,0,0,1,5.38-4.44,13,13,0,0,1,6.37-.7,14.47,14.47,0,0,1,5.29,1.89,20.85,20.85,0,0,1,6,5.52c.59.78,1,1.41,1.28,1.85A7.31,7.31,0,0,0,652.2,76.58Z" transform="translate(-4.56 -4.23)"/><path class="cls-1" d="M619.12,85.86c.69-.65,1-.2,2,0a5.87,5.87,0,0,1,2.53,1.26,10.66,10.66,0,0,1,3.42,11.14,8.32,8.32,0,0,1-7.64-12.5" transform="translate(-4.56 -4.23)"/><path class="cls-1" d="M647.74,72.83c.35-.89.85-.62,1.77-.87a5.85,5.85,0,0,1,2.82,0,10.65,10.65,0,0,1,7.93,8.61,8.33,8.33,0,0,1-12.27-8" transform="translate(-4.56 -4.23)"/><path class="cls-1" d="M612.81,103.49a9.61,9.61,0,0,1,13.55-.91,9.26,9.26,0,0,1,1.51,1.68,11.94,11.94,0,0,1-7.83,3.08,12.1,12.1,0,0,1-7.88-3.19" transform="translate(-4.56 -4.23)"/><path class="cls-1" d="M615.16,90.32a9.72,9.72,0,0,1-9.82-11.6,8.71,8.71,0,0,1,10.14,11.54" transform="translate(-4.56 -4.23)"/><path class="cls-1" d="M625.24,74.84a9.73,9.73,0,0,1-12.58-5.58,10,10,0,0,1-.55-2.1,8.73,8.73,0,0,1,13.4,7.49" transform="translate(-4.56 -4.23)"/><path class="cls-1" d="M628.61,69.79a9.71,9.71,0,0,1,13.12,7.68A8.73,8.73,0,0,1,628.34,70" transform="translate(-4.56 -4.23)"/><path class="cls-1" d="M632.64,67.07a9.73,9.73,0,0,1-6.1-12.33,9.55,9.55,0,0,1,.92-2A8.71,8.71,0,0,1,633,67.09" transform="translate(-4.56 -4.23)"/><path class="cls-1" d="M643,67.56a9.73,9.73,0,0,1,5.8-12.48,9.92,9.92,0,0,1,2.15-.52,8.74,8.74,0,0,1-7.75,13.25" transform="translate(-4.56 -4.23)"/><polyline class="cls-5" points="596.82 133.07 591.32 98.57 633.43 99.08 629.28 132.62"/><path class="cls-7" d="M619.54,96.5a7.2,7.2,0,0,0,7,.59,7.57,7.57,0,0,0,3.83-6,8.09,8.09,0,0,0-11.62,4.84" transform="translate(-4.56 -4.23)"/><path class="cls-7" d="M638.8,103.93a7.2,7.2,0,0,0,7,.59,7.59,7.59,0,0,0,3.82-6A8.09,8.09,0,0,0,638,103.36" transform="translate(-4.56 -4.23)"/><path class="cls-7" d="M628,87.33a7.19,7.19,0,0,0,5.51,4.34A7.57,7.57,0,0,0,640,88.73a8.07,8.07,0,0,0-12.36-2.35" transform="translate(-4.56 -4.23)"/><path class="cls-7" d="M635,95.93A7.18,7.18,0,0,0,628.73,99a7.58,7.58,0,0,0-.15,7.15A8.07,8.07,0,0,0,636,96" transform="translate(-4.56 -4.23)"/><path class="cls-7" d="M641.8,109.51a7.18,7.18,0,0,0,.17,7,7.57,7.57,0,0,0,6.42,3.15,8.56,8.56,0,0,0-.4-7c-1.11-2-3.1-3-5.6-3.58" transform="translate(-4.56 -4.23)"/><path class="cls-7" d="M653,111.11a5.05,5.05,0,0,0-1.67-1.06,7.06,7.06,0,0,0-2.28-.4,26.9,26.9,0,0,0-3.11.18,8.88,8.88,0,0,1-3.83-.33,5.86,5.86,0,0,1-3.16-3,18,18,0,0,1-1.36-4.66A13.35,13.35,0,0,0,636,97a16.52,16.52,0,0,0-3.56-3.62A17.47,17.47,0,0,1,629,89.93,11.42,11.42,0,0,1,627.3,82a11.16,11.16,0,0,1,2.07-5.1,8.8,8.8,0,0,1,1-1.11,2.18,2.18,0,0,1,.4-.34,2.51,2.51,0,0,1-.33.4A11.62,11.62,0,0,0,629.5,77a11.43,11.43,0,0,0-1.89,5,11.15,11.15,0,0,0,1.73,7.65A17.37,17.37,0,0,0,632.68,93a17.22,17.22,0,0,1,3.66,3.72,13.35,13.35,0,0,1,1.68,4.94,17.24,17.24,0,0,0,1.3,4.56,5.54,5.54,0,0,0,2.91,2.88,9,9,0,0,0,3.68.37,27.47,27.47,0,0,1,3.14-.12,7.25,7.25,0,0,1,2.34.49,3.92,3.92,0,0,1,1.26.82,2.35,2.35,0,0,1,.26.29A.24.24,0,0,1,653,111.11Z" transform="translate(-4.56 -4.23)"/><path class="cls-7" d="M653,111.11a5.05,5.05,0,0,0-1.67-1.06,7.06,7.06,0,0,0-2.28-.4,26.9,26.9,0,0,0-3.11.18,8.88,8.88,0,0,1-3.83-.33,5.86,5.86,0,0,1-3.16-3,18,18,0,0,1-1.36-4.66A13.35,13.35,0,0,0,636,97a16.52,16.52,0,0,0-3.56-3.62A17.47,17.47,0,0,1,629,89.93,11.42,11.42,0,0,1,627.3,82a11.16,11.16,0,0,1,2.07-5.1,8.8,8.8,0,0,1,1-1.11,2.18,2.18,0,0,1,.4-.34,2.51,2.51,0,0,1-.33.4A11.62,11.62,0,0,0,629.5,77a11.43,11.43,0,0,0-1.89,5,11.15,11.15,0,0,0,1.73,7.65A17.37,17.37,0,0,0,632.68,93a17.22,17.22,0,0,1,3.66,3.72,13.35,13.35,0,0,1,1.68,4.94,17.24,17.24,0,0,0,1.3,4.56,5.54,5.54,0,0,0,2.91,2.88,9,9,0,0,0,3.68.37,27.47,27.47,0,0,1,3.14-.12,7.25,7.25,0,0,1,2.34.49,3.92,3.92,0,0,1,1.26.82,2.35,2.35,0,0,1,.26.29A.24.24,0,0,1,653,111.11Z" transform="translate(-4.56 -4.23)"/><path class="cls-7" d="M572.59,114.64a10.65,10.65,0,0,0-14.42-10.5,17.81,17.81,0,0,0,14,10.37" transform="translate(-4.56 -4.23)"/><path class="cls-7" d="M569.81,116.11c-2.06,2.26-1.93,5.9-.46,8.58s4,4.59,6.56,6.29a13.83,13.83,0,0,0-6-15.69" transform="translate(-4.56 -4.23)"/><path class="cls-7" d="M579.79,105.5a12.3,12.3,0,0,0,13.42,11.07l.58-.07c-.8-3.31-2.13-6.65-4.68-8.9s-6.59-3.08-9.43-1.19" transform="translate(-4.56 -4.23)"/><path class="cls-7" d="M579.72,102.12c-.52-3-3.49-5.19-6.53-5.48a12.63,12.63,0,0,0-8.5,2.86A11,11,0,0,0,579.75,101" transform="translate(-4.56 -4.23)"/><path class="cls-7" d="M564,127.76c-2.89,2.47-3.62,6.87-2.42,10.48s4,6.48,7.18,8.59a22.72,22.72,0,0,0,1.34-11.13c-.64-3.73-2.88-7.32-6.34-8.84" transform="translate(-4.56 -4.23)"/><path class="cls-7" d="M579.25,93.67a8.89,8.89,0,0,1,12.35-2.36,8.76,8.76,0,0,1,1.73,1.54,7.68,7.68,0,0,1-13.86.35" transform="translate(-4.56 -4.23)"/><path class="cls-7" d="M582.8,85a11.57,11.57,0,0,1-14.43-7.71c-.12-.43-.23-.86-.31-1.29a26.89,26.89,0,0,1,7,.11,11.3,11.3,0,0,1,6.16,3,6.12,6.12,0,0,1,1.62,5.9" transform="translate(-4.56 -4.23)"/><path class="cls-7" d="M589.48,82.73a9.44,9.44,0,0,1-1.35-13.27,9.9,9.9,0,0,1,1.29-1.3,19.75,19.75,0,0,1,4.13,8.8,7.51,7.51,0,0,1,0,3.65A3.36,3.36,0,0,1,591,83" transform="translate(-4.56 -4.23)"/><g class="cls-15"><path d="M572.59,114.64a10.65,10.65,0,0,0-14.42-10.5,17.81,17.81,0,0,0,14,10.37" transform="translate(-4.56 -4.23)"/></g><g class="cls-15"><path d="M569.81,116.11c-2.06,2.26-1.93,5.9-.46,8.58s4,4.59,6.56,6.29a13.83,13.83,0,0,0-6-15.69" transform="translate(-4.56 -4.23)"/></g><g class="cls-15"><path d="M579.79,105.5a12.3,12.3,0,0,0,13.42,11.07l.58-.07c-.8-3.31-2.13-6.65-4.68-8.9s-6.59-3.08-9.43-1.19" transform="translate(-4.56 -4.23)"/></g><g class="cls-15"><path d="M579.72,102.12c-.52-3-3.49-5.19-6.53-5.48a12.63,12.63,0,0,0-8.5,2.86A11,11,0,0,0,579.75,101" transform="translate(-4.56 -4.23)"/></g><g class="cls-15"><path d="M564,127.76c-2.89,2.47-3.62,6.87-2.42,10.48s4,6.48,7.18,8.59a22.72,22.72,0,0,0,1.34-11.13c-.64-3.73-2.88-7.32-6.34-8.84" transform="translate(-4.56 -4.23)"/></g><g class="cls-15"><path d="M579.25,93.67a8.89,8.89,0,0,1,12.35-2.36,8.76,8.76,0,0,1,1.73,1.54,7.68,7.68,0,0,1-13.86.35" transform="translate(-4.56 -4.23)"/></g><g class="cls-15"><path d="M582.8,85a11.57,11.57,0,0,1-14.43-7.71c-.12-.43-.23-.86-.31-1.29a26.89,26.89,0,0,1,7,.11,11.3,11.3,0,0,1,6.16,3,6.12,6.12,0,0,1,1.62,5.9" transform="translate(-4.56 -4.23)"/></g><g class="cls-15"><path d="M589.48,82.73a9.44,9.44,0,0,1-1.35-13.27,9.9,9.9,0,0,1,1.29-1.3,19.75,19.75,0,0,1,4.13,8.8,7.51,7.51,0,0,1,0,3.65A3.36,3.36,0,0,1,591,83" transform="translate(-4.56 -4.23)"/></g><path class="cls-7" d="M601,103.91a1,1,0,0,1,0-.24V103c0-.61.1-1.51.12-2.67a23.71,23.71,0,0,0-1.57-9.57,14.52,14.52,0,0,0-3.84-5.42,10.35,10.35,0,0,0-7-2.57,8.8,8.8,0,0,0-4,1,7.83,7.83,0,0,0-3,2.91,15.65,15.65,0,0,0-1.77,8.8c.11,3.14.55,6.24.21,9.26A14.21,14.21,0,0,1,579,109a8.8,8.8,0,0,1-2.59,3.39,12.84,12.84,0,0,1-3.56,1.85,18.57,18.57,0,0,0-3.4,1.54,12.4,12.4,0,0,0-4.47,4.87,12,12,0,0,0-1.29,5.32,12.8,12.8,0,0,0,.68,4.12,15.91,15.91,0,0,0,1.59,3.2l-.15-.18a5.89,5.89,0,0,1-.41-.57,11.15,11.15,0,0,1-1.2-2.39,12.41,12.41,0,0,1-.76-4.18,11.93,11.93,0,0,1,1.26-5.47,12.6,12.6,0,0,1,4.55-5c2.08-1.39,4.83-1.73,7-3.4s3.24-4.51,3.56-7.41-.11-6-.22-9.19a16.09,16.09,0,0,1,1.85-9,8.36,8.36,0,0,1,3.23-3.07,9.16,9.16,0,0,1,4.14-1,10.55,10.55,0,0,1,7.26,2.71,14.74,14.74,0,0,1,3.9,5.58,19.83,19.83,0,0,1,1.33,5.46,30,30,0,0,1,.12,4.24,22.75,22.75,0,0,1-.2,2.66l-.09.69A.34.34,0,0,1,601,103.91Z" transform="translate(-4.56 -4.23)"/><g class="cls-15"><path d="M601,103.91a1,1,0,0,1,0-.24V103c0-.61.1-1.51.12-2.67a23.71,23.71,0,0,0-1.57-9.57,14.52,14.52,0,0,0-3.84-5.42,10.35,10.35,0,0,0-7-2.57,8.8,8.8,0,0,0-4,1,7.83,7.83,0,0,0-3,2.91,15.65,15.65,0,0,0-1.77,8.8c.11,3.14.55,6.24.21,9.26A14.21,14.21,0,0,1,579,109a8.8,8.8,0,0,1-2.59,3.39,12.84,12.84,0,0,1-3.56,1.85,18.57,18.57,0,0,0-3.4,1.54,12.4,12.4,0,0,0-4.47,4.87,12,12,0,0,0-1.29,5.32,12.8,12.8,0,0,0,.68,4.12,15.91,15.91,0,0,0,1.59,3.2l-.15-.18a5.89,5.89,0,0,1-.41-.57,11.15,11.15,0,0,1-1.2-2.39,12.41,12.41,0,0,1-.76-4.18,11.93,11.93,0,0,1,1.26-5.47,12.6,12.6,0,0,1,4.55-5c2.08-1.39,4.83-1.73,7-3.4s3.24-4.51,3.56-7.41-.11-6-.22-9.19a16.09,16.09,0,0,1,1.85-9,8.36,8.36,0,0,1,3.23-3.07,9.16,9.16,0,0,1,4.14-1,10.55,10.55,0,0,1,7.26,2.71,14.74,14.74,0,0,1,3.9,5.58,19.83,19.83,0,0,1,1.33,5.46,30,30,0,0,1,.12,4.24,22.75,22.75,0,0,1-.2,2.66l-.09.69A.34.34,0,0,1,601,103.91Z" transform="translate(-4.56 -4.23)"/></g><path class="cls-7" d="M662.36,96.38a8.61,8.61,0,0,0,.63-3.09,7.4,7.4,0,0,0-7-7.56,9,9,0,0,0-3,.36c-2.06.54-4.1,1.71-6.54,2.2a7.76,7.76,0,0,1-3.8-.1,5.65,5.65,0,0,1-3.09-2.47c-1.47-2.28-1.89-5.14-3.66-7.24a7.24,7.24,0,0,0-3.33-2.18,9.15,9.15,0,0,0-3.89-.39,10.05,10.05,0,0,0-6.47,3.36,15.4,15.4,0,0,0-3.2,5.94,18,18,0,0,0-.72,5.88,65.58,65.58,0,0,0,1.09,8.61c.17,1,.31,1.76.4,2.33a4.2,4.2,0,0,0,.09.61.47.47,0,0,1,0,.21.66.66,0,0,1-.06-.2,3,3,0,0,0-.14-.6c-.12-.57-.28-1.34-.48-2.32A57,57,0,0,1,618,91.1a18.16,18.16,0,0,1,.67-6A15.73,15.73,0,0,1,621.92,79a11.85,11.85,0,0,1,3-2.37,10,10,0,0,1,3.77-1.16,9.87,9.87,0,0,1,4.08.41,7.55,7.55,0,0,1,3.53,2.31c1.88,2.25,2.28,5.14,3.69,7.3a5.31,5.31,0,0,0,2.85,2.3,7.28,7.28,0,0,0,3.59.09c2.35-.45,4.4-1.6,6.52-2.15a9.39,9.39,0,0,1,3.16-.34,7.92,7.92,0,0,1,2.82.79,7.61,7.61,0,0,1,4.29,7.18,6.85,6.85,0,0,1-.46,2.33A3.25,3.25,0,0,1,662.36,96.38Z" transform="translate(-4.56 -4.23)"/><path class="cls-7" d="M637.73,81.09a8.15,8.15,0,0,0,7.51.5,7.56,7.56,0,0,0,3.82-6,8.1,8.1,0,0,0-11,3.25,8.34,8.34,0,0,0-.65,1.58" transform="translate(-4.56 -4.23)"/><path class="cls-7" d="M645.71,88.34A8.23,8.23,0,0,0,649.2,95a7.55,7.55,0,0,0,7.15.12,8.09,8.09,0,0,0-8.5-7.67,7.94,7.94,0,0,0-1.68.26" transform="translate(-4.56 -4.23)"/><path class="cls-7" d="M659.57,86.73a8.16,8.16,0,0,0,7.52-.31A7.55,7.55,0,0,0,670.25,80a8.08,8.08,0,0,0-11.06,6" transform="translate(-4.56 -4.23)"/><path class="cls-7" d="M626.09,76.26c-2-1.74-3.37-4.8-3-7.09a7.56,7.56,0,0,1,4.64-5.44,8.59,8.59,0,0,1,2.41,6.56,8.5,8.5,0,0,1-3.59,6" transform="translate(-4.56 -4.23)"/><path class="cls-7" d="M572,66.38a.35.35,0,0,1,.08-.18c.08-.11.16-.31.28-.52.38-.66.78-1.29,1.22-1.91a20.6,20.6,0,0,1,6-5.69,15.06,15.06,0,0,1,5.41-2,13.47,13.47,0,0,1,6.57.69,10.67,10.67,0,0,1,5.62,4.6c1.29,2.26,1.71,4.91,2.47,7.44a13.49,13.49,0,0,0,1.56,3.54A11.12,11.12,0,0,0,603.89,75c1,.74,2.06,1.41,3,2.19a12.58,12.58,0,0,1,2.45,2.65,16.09,16.09,0,0,1,2.5,6.12,21.33,21.33,0,0,1,.34,5.75,43.63,43.63,0,0,1-1.47,8.17c-.25,1-.46,1.68-.61,2.18a4.69,4.69,0,0,1-.24.75A5,5,0,0,1,610,102c.13-.54.31-1.28.52-2.2a46.8,46.8,0,0,0,1.33-8.15,21.51,21.51,0,0,0-.39-5.66A16,16,0,0,0,609,80a12.2,12.2,0,0,0-2.37-2.55c-.93-.76-2-1.42-3-2.17a11.13,11.13,0,0,1-2.78-2.74,13.66,13.66,0,0,1-1.63-3.66c-.77-2.58-1.18-5.19-2.42-7.34a10.18,10.18,0,0,0-5.38-4.43,13,13,0,0,0-6.37-.71,14.47,14.47,0,0,0-5.29,1.89,21.07,21.07,0,0,0-6,5.52c-.59.78-1,1.41-1.29,1.85A4.73,4.73,0,0,1,572,66.38Z" transform="translate(-4.56 -4.23)"/><path class="cls-7" d="M605.09,75.66c-.69-.65-1-.2-2,0a5.92,5.92,0,0,0-2.53,1.26,10.69,10.69,0,0,0-3.45,11.19,8.31,8.31,0,0,0,7.64-12.49" transform="translate(-4.56 -4.23)"/><path class="cls-7" d="M576.47,62.63c-.35-.89-.85-.62-1.77-.87a5.85,5.85,0,0,0-2.82,0A10.67,10.67,0,0,0,564,70.37a8.32,8.32,0,0,0,12.27-8" transform="translate(-4.56 -4.23)"/><path class="cls-7" d="M611.4,93.26a9.6,9.6,0,0,0-13.54-1A10.07,10.07,0,0,0,596.31,94,11.41,11.41,0,0,0,612,93.89" transform="translate(-4.56 -4.23)"/><path class="cls-7" d="M609.05,80.12a9.71,9.71,0,0,0,10-9.43,9.84,9.84,0,0,0-.18-2.17A8.72,8.72,0,0,0,608.73,80" transform="translate(-4.56 -4.23)"/><path class="cls-7" d="M599,64.64a9.73,9.73,0,0,0,12.58-5.58,9.41,9.41,0,0,0,.55-2.1,8.74,8.74,0,0,0-13.4,7.49" transform="translate(-4.56 -4.23)"/><path class="cls-7" d="M595.6,59.59A9.73,9.73,0,0,0,583,65.16a10.15,10.15,0,0,0-.55,2.1,8.72,8.72,0,0,0,13.39-7.47" transform="translate(-4.56 -4.23)"/><path class="cls-7" d="M591.57,56.87a9.73,9.73,0,0,0,6.1-12.33,9.55,9.55,0,0,0-.92-2,8.73,8.73,0,0,0-5.51,14.32" transform="translate(-4.56 -4.23)"/><path class="cls-7" d="M581.26,57.36a9.73,9.73,0,0,0-5.79-12.48,10,10,0,0,0-2.16-.52,8.74,8.74,0,0,0,7.75,13.25" transform="translate(-4.56 -4.23)"/><polygon class="cls-5" points="590.77 129.07 594 133.07 633.64 133.07 636.35 129.07 590.77 129.07"/><path class="cls-6" d="M640,133.26c0,.13-9.74.23-21.76.23s-21.75-.1-21.75-.23,9.74-.23,21.75-.23S640,133.14,640,133.26Z" transform="translate(-4.56 -4.23)"/><path class="cls-6" d="M635.57,118.26a1.31,1.31,0,0,1-.25.33,9.15,9.15,0,0,1-.8.85,14.92,14.92,0,0,1-3.54,2.45,15.67,15.67,0,0,1-6.19,1.59,14.65,14.65,0,0,1-3.79-.32,22.11,22.11,0,0,1-3.86-1.28,76.73,76.73,0,0,0-7.14-3,12.3,12.3,0,0,0-6.16-.6,8.16,8.16,0,0,0-3.79,1.76c-.75.66-1,1.15-1.08,1.12a2.08,2.08,0,0,1,.2-.36,6.49,6.49,0,0,1,.76-.89,7.94,7.94,0,0,1,3.84-1.94,12.39,12.39,0,0,1,6.36.51c2.32.71,4.67,2,7.19,3a22.1,22.1,0,0,0,3.78,1.27,15.11,15.11,0,0,0,3.67.33,15.55,15.55,0,0,0,6.07-1.46A18.33,18.33,0,0,0,635.57,118.26Z" transform="translate(-4.56 -4.23)"/><path class="cls-6" d="M636,115.12a2.89,2.89,0,0,1-.27.3,8.05,8.05,0,0,1-.86.79,16.2,16.2,0,0,1-3.67,2.28,17.19,17.19,0,0,1-6.23,1.49,16.73,16.73,0,0,1-3.8-.26,25.66,25.66,0,0,1-3.92-1.1c-2.61-1-5-2-7.31-2.69a14.72,14.72,0,0,0-6.22-.56,9.35,9.35,0,0,0-3.93,1.5,11.44,11.44,0,0,0-1.21,1,1.55,1.55,0,0,1,.24-.33,7.3,7.3,0,0,1,.87-.8,9,9,0,0,1,4-1.68,14.49,14.49,0,0,1,6.38.48c2.34.63,4.77,1.72,7.35,2.66a27.24,27.24,0,0,0,3.85,1.1,16.4,16.4,0,0,0,3.7.27,17.85,17.85,0,0,0,6.12-1.36A21.27,21.27,0,0,0,636,115.12Z" transform="translate(-4.56 -4.23)"/><rect class="cls-6" x="584.64" y="136.96" width="3.47" height="9.68"/><rect class="cls-6" x="634.16" y="136.96" width="3.47" height="9.68"/></g></svg>