<svg xmlns="http://www.w3.org/2000/svg" width="90.913" height="88.001" viewBox="0 0 90.913 88.001">
  <g id="Group_148" data-name="Group 148" transform="translate(10975.899 -10570)">
    <path id="Path_502" data-name="Path 502" d="M153.49,457.33h9.316v3.626H153.49Z" transform="translate(-11119.071 10188.38)" fill="#76736c"/>
    <path id="Path_503" data-name="Path 503" d="M150.195,331.995l-3.11-4.4,4.749-4.749h-52.3a3.733,3.733,0,0,0-3.732,3.747v13.519a3.733,3.733,0,0,0,3.732,3.747h44.94v-9.968l5.325-.91c.122-.334.258-.652.395-.986Zm-21.59,4.172h-26.34v-5.614H128.6Zm10.468,0a2.807,2.807,0,1,1,2.807-2.807A2.81,2.81,0,0,1,139.073,336.167Z" transform="translate(-11071.7 10298.815)" fill="#76736c"/>
    <path id="Path_504" data-name="Path 504" d="M424.021,329.463v-6.251l-4.612-.789a14.82,14.82,0,0,0-1.623-3.914l2.7-3.824-4.431-4.431-3.824,2.7a15.326,15.326,0,0,0-3.914-1.623l-.789-4.612h-6.251l-.789,4.612a14.62,14.62,0,0,0-3.914,1.623l-3.824-2.7-4.431,4.431,2.7,3.824a15.324,15.324,0,0,0-1.623,3.914l-4.612.789v6.251l4.612.789a14.62,14.62,0,0,0,1.623,3.914l-2.7,3.824,4.431,4.431,3.824-2.7a15.111,15.111,0,0,0,3.914,1.623l.8,4.6h6.251l.789-4.612a14.819,14.819,0,0,0,3.914-1.623l3.824,2.7,4.431-4.431-2.7-3.824a15.113,15.113,0,0,0,1.623-3.914Zm-19.6,3.308a6.433,6.433,0,1,1,6.433-6.433A6.436,6.436,0,0,1,404.42,332.771Z" transform="translate(-11309.008 10312.061)" fill="#76736c"/>
    <path id="Path_505" data-name="Path 505" d="M99.525,54.948h8.481v1.79h5.523v-1.79h45.82v1.79h5.523v-1.79h2.776A3.756,3.756,0,0,0,171.4,51.2V37.667a3.743,3.743,0,0,0-3.747-3.733H99.525a3.73,3.73,0,0,0-3.733,3.733V51.2a3.743,3.743,0,0,0,3.733,3.747Zm62.586-13.321a2.807,2.807,0,1,1-2.807,2.807A2.81,2.81,0,0,1,162.111,41.627Zm-11.531,0a2.807,2.807,0,1,1-2.807,2.807A2.8,2.8,0,0,1,150.58,41.627Zm-11.516,0a2.807,2.807,0,1,1-2.807,2.807A2.81,2.81,0,0,1,139.064,41.627Zm-36.808,0H128.6v5.614h-26.34Z" transform="translate(-11071.691 10536.066)" fill="#76736c"/>
    <path id="Path_506" data-name="Path 506" d="M99.529,199.448h8.481v1.775h5.523v-1.775h45.82v1.775h1.578l.485-2.867h8.876A3.726,3.726,0,0,0,171.4,195.7V182.181a3.746,3.746,0,0,0-3.747-3.747H99.528a3.733,3.733,0,0,0-3.732,3.747V195.7a3.742,3.742,0,0,0,3.732,3.747Zm62.586-13.306a2.807,2.807,0,1,1-2.807,2.807A2.81,2.81,0,0,1,162.115,186.141Zm-11.531,0a2.807,2.807,0,1,1-2.807,2.807A2.8,2.8,0,0,1,150.584,186.141Zm-11.516,0a2.807,2.807,0,1,1-2.807,2.807A2.81,2.81,0,0,1,139.068,186.141Zm-36.808,0H128.6v5.614H102.26Z" transform="translate(-11071.695 10417.405)" fill="#76736c"/>
  </g>
</svg>
