<svg xmlns="http://www.w3.org/2000/svg" width="85.128" height="88" viewBox="0 0 85.128 88">
  <g id="Group_147" data-name="Group 147" transform="translate(10937.692 -10827.229)">
    <path id="Path_498" data-name="Path 498" d="M370.4,153.972v-8.488l-6.485-1.2a20.464,20.464,0,0,0-1.882-4.522l3.737-5.429-6-6-5.442,3.737a20.147,20.147,0,0,0-4.522-1.882l-1.2-6.485h-8.475l-1.205,6.485a20.157,20.157,0,0,0-4.522,1.882l-5.442-3.737-4.834,4.834h.487a6.523,6.523,0,0,1,6.512,6.512v19.441a6.535,6.535,0,0,1-5.794,6.5,7.017,7.017,0,0,1-.718.027H323.48l5.483,5.483,5.442-3.737a20.148,20.148,0,0,0,4.522,1.882l1.205,6.485h8.475l1.2-6.485a20.216,20.216,0,0,0,4.522-1.882l5.442,3.737,6-6-3.737-5.429a20.452,20.452,0,0,0,1.882-4.522ZM344.369,160.9a11.176,11.176,0,1,1,11.169-11.169A11.172,11.172,0,0,1,344.369,160.9Z" transform="translate(-11222.969 10721.835)" fill="#76736c"/>
    <path id="Path_499" data-name="Path 499" d="M147.611,87.272H93.8V28.285h49.835l.068-.338h6.621c0-10.736-.027-9.653-.135-10.181a6.8,6.8,0,0,0-6.647-5.415H97.885a6.8,6.8,0,0,0-6.8,6.783V93.568a6.867,6.867,0,0,0,6.8,6.783h45.652a6.8,6.8,0,0,0,6.783-6.783v-8.15h-2.707Zm-26.9-69.343a2.389,2.389,0,1,1-2.4,2.4A2.389,2.389,0,0,1,120.71,17.928Zm-.216,76.56h-3.7a.677.677,0,0,1,0-1.354h3.7a.677.677,0,0,1,0,1.354Zm4.129,0h-1.571a.677.677,0,0,1,0-1.354h1.571a.677.677,0,0,1,0,1.354Z" transform="translate(-11028.781 10814.879)" fill="#76736c"/>
    <path id="Path_500" data-name="Path 500" d="M236.795,238.74a6.783,6.783,0,1,0,6.783,6.783,6.786,6.786,0,0,0-6.783-6.783Zm0,9.828a3.039,3.039,0,1,1,0-6.079h.027a1.863,1.863,0,0,0-.176.785,1.883,1.883,0,0,0,1.882,1.868,1.8,1.8,0,0,0,1.191-.447,2.763,2.763,0,0,1,.122.826,3.05,3.05,0,0,1-3.046,3.046Z" transform="translate(-11144.866 10625.707)" fill="#76736c"/>
    <path id="Path_501" data-name="Path 501" d="M212.176,197.73H192.735a3.819,3.819,0,0,0-3.818,3.8v19.441a3.831,3.831,0,0,0,3.818,3.818h19.441c.135,0,.271,0,.42-.013a3.824,3.824,0,0,0,3.385-3.8V201.534a3.807,3.807,0,0,0-3.8-3.8Zm-9.721,21.661a8.137,8.137,0,1,1,8.137-8.137A8.136,8.136,0,0,1,202.456,219.391Z" transform="translate(-11110.526 10659.976)" fill="#76736c"/>
  </g>
</svg>
