<svg xmlns="http://www.w3.org/2000/svg" width="83.528" height="88" viewBox="0 0 83.528 88">
  <g id="Group_146" data-name="Group 146" transform="translate(11844.414 -11426.608)">
    <path id="Path_493" data-name="Path 493" d="M106.631,419.931a1.045,1.045,0,0,0-1.586-.138l-5.1,5.1a3.115,3.115,0,0,0,1.772,5.3l6.8.9a1.029,1.029,0,0,1,.884.883l.905,6.8a3.114,3.114,0,0,0,5.3,1.773l4.944-4.944a1.046,1.046,0,0,0-.114-1.568,61.308,61.308,0,0,1-13.807-14.11Z" transform="translate(-11941.381 11073.134)"/>
    <path id="Path_494" data-name="Path 494" d="M484.665,428.094a3.113,3.113,0,0,0-.757-3.218l-5.1-5.1a1.046,1.046,0,0,0-1.586.138,61.331,61.331,0,0,1-13.807,14.11,1.045,1.045,0,0,0-.114,1.568l4.943,4.944a3.114,3.114,0,0,0,5.3-1.773l.905-6.8h0a1.028,1.028,0,0,1,.884-.882l6.8-.905a3.085,3.085,0,0,0,2.529-2.079Z" transform="translate(-12247.776 11073.146)"/>
    <path id="Path_495" data-name="Path 495" d="M129.79,89.671c16.3-7.03,27.731-17.875,33.964-32.238,4.593-10.583,6.421-22.945,5.587-37.791h0a5.2,5.2,0,0,0-6.065-4.8c-14.9,2.708-28.03-7.266-32.977-11.681a3.8,3.8,0,0,0-5.053,0c-4.95,4.415-18.074,14.389-32.982,11.68a5.2,5.2,0,0,0-6.062,4.8c-.831,14.846.993,27.207,5.586,37.791,6.233,14.362,17.66,25.208,33.964,32.238h0a5.126,5.126,0,0,0,4.038,0ZM95.033,24.218c.779.048,1.562.069,2.337.069,13.237,0,24.5-7.017,30.4-11.558,5.9,4.54,17.169,11.558,30.406,11.558.779,0,1.561-.025,2.335-.074.569,28.088-9.857,46.073-32.744,56.509C104.883,70.286,94.458,52.3,95.032,24.217Z" transform="translate(-11930.422 11424.414)"/>
    <path id="Path_496" data-name="Path 496" d="M228.365,174.146l.041-1.211a20.994,20.994,0,0,0,4.8-1.987l.886.824h0a2.754,2.754,0,0,0,3.849-.069l3.759-3.759h0a2.754,2.754,0,0,0,.069-3.849l-.831-.886h0a20.668,20.668,0,0,0,1.994-4.8l1.211-.041a2.758,2.758,0,0,0,2.671-2.769v-5.316a2.758,2.758,0,0,0-2.671-2.769l-1.211-.041a20.992,20.992,0,0,0-1.987-4.8l.824-.886h0a2.754,2.754,0,0,0-.069-3.849l-3.759-3.759h0a2.754,2.754,0,0,0-3.849-.069l-.886.831h0a20.566,20.566,0,0,0-4.8-1.994l-.041-1.211a2.758,2.758,0,0,0-2.769-2.671h-5.316a2.758,2.758,0,0,0-2.769,2.671l-.041,1.211a20.993,20.993,0,0,0-4.8,1.987l-.886-.824h0a2.761,2.761,0,0,0-3.849.069l-3.759,3.759h0a2.754,2.754,0,0,0-.069,3.849l.831.886h0a20.566,20.566,0,0,0-1.994,4.8l-1.211.041a2.758,2.758,0,0,0-2.671,2.769V155.6a2.758,2.758,0,0,0,2.671,2.769l1.211.041a20.836,20.836,0,0,0,1.987,4.8l-.824.886h0a2.754,2.754,0,0,0,.069,3.849l3.759,3.759h0a2.754,2.754,0,0,0,3.849.069l.886-.831h0a20.669,20.669,0,0,0,4.8,1.994l.041,1.211a2.758,2.758,0,0,0,2.769,2.671H225.6a2.758,2.758,0,0,0,2.769-2.671ZM209.74,152.939a13.208,13.208,0,1,1,3.868,9.33A13.2,13.2,0,0,1,209.74,152.939Z" transform="translate(-12025.59 11317.618)"/>
    <path id="Path_497" data-name="Path 497" d="M303.243,229.993a3.775,3.775,0,0,0-5.295-.146l-6.562,6.222-1.909-1.91a3.739,3.739,0,1,0-5.288,5.288l4.485,4.485h0a3.726,3.726,0,0,0,5.219.077l9.205-8.728h0a3.751,3.751,0,0,0,.145-5.287Z" transform="translate(-12096.329 11233.628)"/>
  </g>
</svg>
