<svg xmlns="http://www.w3.org/2000/svg" xmlns:xlink="http://www.w3.org/1999/xlink" width="147" height="165" viewBox="0 0 147 165">
  <defs>
    <clipPath id="clip-path">
      <rect id="Rectangle_196" data-name="Rectangle 196" width="147" height="165" transform="translate(1028 4613)" fill="#fff" stroke="#707070" stroke-width="1"/>
    </clipPath>
  </defs>
  <g id="Mask_Group_29" data-name="Mask Group 29" transform="translate(-1028 -4613)" clip-path="url(#clip-path)">
    <g id="Polygon_21" data-name="Polygon 21" transform="translate(1065.165 4590.354) rotate(30)" fill="none">
      <path d="M119.927,0a10,10,0,0,1,8.66,5l36.125,62.549a10,10,0,0,1,0,10L128.587,140.1a10,10,0,0,1-8.66,5H47.672a10,10,0,0,1-8.66-5L2.888,77.55a10,10,0,0,1,0-10L39.013,5a10,10,0,0,1,8.66-5Z" stroke="none"/>
      <path d="M 47.67250061035156 2.999984741210938 C 45.18006896972656 2.999984741210938 42.85738372802734 4.340774536132812 41.61083221435547 6.499130249023438 L 5.486282348632812 69.04808807373047 C 4.2391357421875 71.20751190185547 4.2391357421875 73.89041900634766 5.48626708984375 76.04979705810547 L 41.61080932617188 138.5987701416016 C 42.85733032226562 140.7571258544922 45.18004608154297 142.0979156494141 47.67247772216797 142.0979156494141 L 119.9272613525391 142.0979156494141 C 122.4197158813477 142.0979156494141 124.742431640625 140.7571258544922 125.9889526367188 138.5987701416016 L 162.1134796142578 76.04984283447266 C 163.3606262207031 73.89041900634766 163.3606262207031 71.20751190185547 162.1134948730469 69.04811096191406 L 125.9889526367188 6.499130249023438 C 124.7424011230469 4.340774536132812 122.4196929931641 2.999984741210938 119.9272613525391 2.999984741210938 L 47.67250061035156 2.999984741210938 M 47.67250061035156 -1.52587890625e-05 L 119.9272613525391 -1.52587890625e-05 C 123.4994049072266 -1.52587890625e-05 126.8002853393555 1.905471801757812 128.5868072509766 4.998748779296875 L 164.7113647460938 67.5477294921875 C 166.4986267089844 70.64237213134766 166.4986267089844 74.45555877685547 164.7113647460938 77.55020141601562 L 128.5868072509766 140.0991516113281 C 126.8002853393555 143.1924896240234 123.4994049072266 145.0979156494141 119.9272613525391 145.0979156494141 L 47.67247772216797 145.0979156494141 C 44.10033416748047 145.0979156494141 40.79947662353516 143.1924896240234 39.01295471191406 140.0991516113281 L 2.888397216796875 77.55017852783203 C 1.101150512695312 74.45555877685547 1.101150512695312 70.64237213134766 2.888397216796875 67.5477294921875 L 39.01296997070312 4.998748779296875 C 40.79947662353516 1.905471801757812 44.10035705566406 -1.52587890625e-05 47.67250061035156 -1.52587890625e-05 Z" stroke="none" fill="#181515"/>
    </g>
    <g id="Group_125" data-name="Group 125" transform="translate(1056.067 4644.564)">
      <path id="Path_358" data-name="Path 358" d="M297.287,448.041a1.682,1.682,0,0,1-.928-.276,1.727,1.727,0,0,1-.8-1.46V428.5a1.106,1.106,0,0,1,2.212,0V445.51l9.2-4.267h0a3.216,3.216,0,0,1,2.708,0l9.2,4.267V429.126a1.105,1.105,0,0,1,2.211,0v17.179a1.736,1.736,0,0,1-2.465,1.57l-9.949-4.6a.961.961,0,0,0-.818,0l-9.949,4.6a1.7,1.7,0,0,1-.619.166Z" transform="translate(-265.566 -348.556)" fill="#d4a437"/>
      <path id="Path_359" data-name="Path 359" d="M355.867,458.655a1.1,1.1,0,0,1-1.105-1.105v-4.356a1.105,1.105,0,0,1,2.211,0v4.334a1.106,1.106,0,0,1-1.106,1.127Z" transform="translate(-313.08 -368.379)" fill="#d4a437"/>
      <path id="Path_360" data-name="Path 360" d="M210.992,138.26a17.434,17.434,0,0,1-10.446-3.471l-5.66-4.245a15.22,15.22,0,0,0-3.46-1.946l-6.555-2.62h0a17.425,17.425,0,0,1-10.823-18.241l.841-7.02a1.113,1.113,0,1,1,2.211.265l-.841,7.02h0a15.2,15.2,0,0,0,9.429,15.9l6.555,2.62h0a17.417,17.417,0,0,1,3.98,2.211l5.671,4.29a15.177,15.177,0,0,0,18.472-.221l5.527-4.422a17.133,17.133,0,0,1,3.913-2.333l6.511-2.742a15.188,15.188,0,0,0,9.054-16.117l-.984-7a17.453,17.453,0,0,1,0-4.555l.774-7.02a15.19,15.19,0,0,0-9.418-15.9l-6.567-2.62a17.376,17.376,0,0,1-3.98-2.211l-5.649-4.245a15.188,15.188,0,0,0-18.484.221l-5.527,4.421a17.57,17.57,0,0,1-3.924,2.333L185.1,73.324a15.425,15.425,0,0,0-2.951,1.692,1.116,1.116,0,1,1-1.316-1.8,16.944,16.944,0,0,1,3.427-1.956l6.5-2.775h0a15,15,0,0,0,3.416-2.034l5.527-4.421a17.434,17.434,0,0,1,21.2-.255l5.66,4.245a15.461,15.461,0,0,0,3.448,2l6.567,2.62a17.454,17.454,0,0,1,10.789,18.24l-.851,7.02h0a14.929,14.929,0,0,0,0,3.968l1.006,7a17.443,17.443,0,0,1-10.391,18.494l-6.5,2.775a15.02,15.02,0,0,0-3.416,2.034l-5.527,4.421h0a17.42,17.42,0,0,1-10.7,3.67Z" transform="translate(-167.941 -52.329)" fill="#d4a437"/>
      <path id="Path_361" data-name="Path 361" d="M174.512,186.17a1.1,1.1,0,0,1-1.105-.962l-.652-4.554a17.431,17.431,0,0,1,.829-8.346,1.121,1.121,0,1,1,2.111.752,15.2,15.2,0,0,0-.729,7.274l.663,4.554a1.1,1.1,0,0,1-.951,1.272Z" transform="translate(-166.857 -143.231)" fill="#d4a437"/>
      <path id="Path_362" data-name="Path 362" d="M444.5,345.8a28.1,28.1,0,0,1-7.307,6.831" transform="translate(-379.239 -283.073)" fill="#d4a437"/>
      <path id="Path_363" data-name="Path 363" d="M432.412,349.178a1.105,1.105,0,0,1-.63-2.056,26.968,26.968,0,0,0,7.02-6.555,1.118,1.118,0,1,1,1.791,1.337A29.012,29.012,0,0,1,433,349,1.106,1.106,0,0,1,432.412,349.178Z" transform="translate(-374.459 -278.503)" fill="#d4a437"/>
      <path id="Path_364" data-name="Path 364" d="M241.949,171.94a29.13,29.13,0,1,1,26.112-16.207,1.12,1.12,0,0,1-2-1.006,26.919,26.919,0,1,0-14.812,13.287,1.119,1.119,0,0,1,.773,2.1,28.916,28.916,0,0,1-10.071,1.824Z" transform="translate(-199.162 -96.775)" fill="#d4a437"/>
      <path id="Path_365" data-name="Path 365" d="M293.089,220.918a2.214,2.214,0,0,1-1.57-.652l-8.38-8.368a4.842,4.842,0,0,1,6.843-6.843l3.317,3.317,11.608-11.74a4.742,4.742,0,1,1,6.7,6.7l-4.632,4.62h0a1.138,1.138,0,0,1-1.581-1.636l4.632-4.62a2.523,2.523,0,0,0,0-3.527,2.576,2.576,0,0,0-3.538,0l-12.47,12.569a1.159,1.159,0,0,1-1.592,0l-4.057-4.057h0a2.6,2.6,0,1,0-3.67,3.671l8.391,8.335,9.01-9.054a1.118,1.118,0,1,1,1.581,1.581l-9.054,9.032h0a2.212,2.212,0,0,1-1.537.675Z" transform="translate(-254.558 -162.104)" fill="#d4a437"/>
      <path id="Path_366" data-name="Path 366" d="M487.566,42.667a1.271,1.271,0,0,1-1.238-1.028l-.8-4.256-2.963-3.162a1.238,1.238,0,0,1-.277-1.249,1.262,1.262,0,0,1,.962-.84l4.256-.785,3.162-2.963a1.238,1.238,0,0,1,2.078.686l.8,4.256,2.973,3.162h0a1.238,1.238,0,0,1-.686,2.078l-4.256.8-3.162,2.973h0a1.238,1.238,0,0,1-.851.332Zm.962-1.448M485.432,34l1.935,2.056a1.585,1.585,0,0,1,.32.641l.52,2.764,2.045-1.935h0a1.358,1.358,0,0,1,.642-.321l2.764-.52-1.935-2.023a1.361,1.361,0,0,1-.321-.642l-.52-2.764-2.045,1.912a1.6,1.6,0,0,1-.641.321Z" transform="translate(-415.383 -28.039)" fill="#d4a437"/>
      <path id="Path_367" data-name="Path 367" d="M154.507,124.709a1.3,1.3,0,0,1-1.039-.531l-3.526-4.765-5.527-2.111a1.294,1.294,0,0,1-.309-2.212l4.765-3.516,2.111-5.527h0a1.269,1.269,0,0,1,1.028-.818,1.325,1.325,0,0,1,1.227.508l3.516,4.765,5.527,2.111a1.294,1.294,0,0,1,.3,2.211l-4.753,3.516-2.111,5.527h0a1.336,1.336,0,0,1-1.039.829Zm.752-1.868-8.446-7.02,4.19,1.6h0a1.364,1.364,0,0,1,.586.443l2.653,3.593,1.592-4.179a1.332,1.332,0,0,1,.431-.575l3.615-2.664-4.179-1.6h0a1.27,1.27,0,0,1-.564-.431l-2.675-3.6-1.592,4.179h0a1.361,1.361,0,0,1-.453.6Z" transform="translate(-143.612 -89.984)" fill="#d4a437"/>
      <path id="Path_368" data-name="Path 368" d="M486.19,459.31l5.859,5.859" transform="translate(-418.564 -374.175)" fill="#d4a437"/>
      <path id="Path_369" data-name="Path 369" d="M487.463,461.769a1.11,1.11,0,0,1-.785-.332l-5.87-5.859A1.106,1.106,0,1,1,482.355,454l5.859,5.859a1.105,1.105,0,0,1-.8,1.912Z" transform="translate(-413.976 -369.657)" fill="#d4a437"/>
      <path id="Path_370" data-name="Path 370" d="M467.99,441.05l.763.774" transform="translate(-403.956 -359.519)" fill="#d4a437"/>
      <path id="Path_371" data-name="Path 371" d="M464.169,438.4a1.107,1.107,0,0,1-.8-.332l-.763-.763a1.118,1.118,0,1,1,1.581-1.582l.774.763h0a1.105,1.105,0,0,1-.8,1.912Z" transform="translate(-399.371 -354.978)" fill="#d4a437"/>
      <path id="Path_372" data-name="Path 372" d="M215.65,483.34l-1.117,1.117" transform="translate(-200.533 -393.461)" fill="#d4a437"/>
      <path id="Path_373" data-name="Path 373" d="M209.924,481.028a1.105,1.105,0,0,1-.785-1.912l1.106-1.106a1.106,1.106,0,1,1,1.581,1.548l-1.106,1.106a1.1,1.1,0,0,1-.8.365Z" transform="translate(-195.923 -388.916)" fill="#d4a437"/>
      <path id="Path_374" data-name="Path 374" d="M239.5,441.05l-5.649,5.66" transform="translate(-216.039 -359.519)" fill="#d4a437"/>
      <path id="Path_375" data-name="Path 375" d="M229.273,443.306a1.117,1.117,0,0,1-.8-1.912l5.649-5.649a1.118,1.118,0,1,1,1.581,1.582l-5.616,5.648a1.1,1.1,0,0,1-.818.332Z" transform="translate(-211.458 -354.999)" fill="#d4a437"/>
    </g>
  </g>
</svg>
