<svg xmlns="http://www.w3.org/2000/svg" xmlns:xlink="http://www.w3.org/1999/xlink" width="146" height="165" viewBox="0 0 146 165">
  <defs>
    <clipPath id="clip-path">
      <rect id="Rectangle_195" data-name="Rectangle 195" width="146" height="165" transform="translate(751 4613)" fill="#fff" stroke="#707070" stroke-width="1"/>
    </clipPath>
  </defs>
  <g id="Mask_Group_28" data-name="Mask Group 28" transform="translate(-751 -4613)" clip-path="url(#clip-path)">
    <g id="Polygon_20" data-name="Polygon 20" transform="translate(787.938 4590.354) rotate(30)" fill="none">
      <path d="M119.927,0a10,10,0,0,1,8.66,5l36.125,62.549a10,10,0,0,1,0,10L128.587,140.1a10,10,0,0,1-8.66,5H47.672a10,10,0,0,1-8.66-5L2.888,77.55a10,10,0,0,1,0-10L39.013,5a10,10,0,0,1,8.66-5Z" stroke="none"/>
      <path d="M 47.67250061035156 2.999984741210938 C 45.18006896972656 2.999984741210938 42.85738372802734 4.340774536132812 41.61083221435547 6.499130249023438 L 5.486282348632812 69.04808807373047 C 4.2391357421875 71.20751190185547 4.2391357421875 73.89041900634766 5.48626708984375 76.04979705810547 L 41.61080932617188 138.5987701416016 C 42.85733032226562 140.7571258544922 45.18004608154297 142.0979156494141 47.67247772216797 142.0979156494141 L 119.9272613525391 142.0979156494141 C 122.4197158813477 142.0979156494141 124.742431640625 140.7571258544922 125.9889526367188 138.5987701416016 L 162.1134796142578 76.04984283447266 C 163.3606262207031 73.89041900634766 163.3606262207031 71.20751190185547 162.1134948730469 69.04811096191406 L 125.9889526367188 6.499130249023438 C 124.7424011230469 4.340774536132812 122.4196929931641 2.999984741210938 119.9272613525391 2.999984741210938 L 47.67250061035156 2.999984741210938 M 47.67250061035156 -1.52587890625e-05 L 119.9272613525391 -1.52587890625e-05 C 123.4994049072266 -1.52587890625e-05 126.8002853393555 1.905471801757812 128.5868072509766 4.998748779296875 L 164.7113647460938 67.5477294921875 C 166.4986267089844 70.64237213134766 166.4986267089844 74.45555877685547 164.7113647460938 77.55020141601562 L 128.5868072509766 140.0991516113281 C 126.8002853393555 143.1924896240234 123.4994049072266 145.0979156494141 119.9272613525391 145.0979156494141 L 47.67247772216797 145.0979156494141 C 44.10033416748047 145.0979156494141 40.79947662353516 143.1924896240234 39.01295471191406 140.0991516113281 L 2.888397216796875 77.55017852783203 C 1.101150512695312 74.45555877685547 1.101150512695312 70.64237213134766 2.888397216796875 67.5477294921875 L 39.01296997070312 4.998748779296875 C 40.79947662353516 1.905471801757812 44.10035705566406 -1.52587890625e-05 47.67250061035156 -1.52587890625e-05 Z" stroke="none" fill="#181515"/>
    </g>
    <g id="Group_129" data-name="Group 129" transform="translate(782.217 4646.695)">
      <path id="Path_386" data-name="Path 386" d="M172.891,23.688a10.619,10.619,0,0,0-6.013,1.9,162.81,162.81,0,0,1-36.007,18.395c.118,23.882,4.617,41.677,13.735,54.424,7.42,10.363,16.945,16.4,26.137,22.24L172.89,122l2.148-1.353c9.214-5.831,18.739-11.866,26.158-22.24C210.3,85.661,214.77,67.856,214.91,43.984A162.723,162.723,0,0,1,178.9,25.589a10.619,10.619,0,0,0-6.013-1.9Zm26.536,73.464c-7.205,10.051-16.516,15.947-25.558,21.681l-.978.612-.978-.622c-9.041-5.724-18.352-11.62-25.558-21.671-8.666-12.1-13.026-28.994-13.316-51.685a163.666,163.666,0,0,0,35.052-18.148,8.492,8.492,0,0,1,9.59,0,163.6,163.6,0,0,0,35.071,18.148c-.29,22.658-4.649,39.581-13.327,51.685Z" transform="translate(-130.871 -23.688)" fill="#d4a437"/>
      <path id="Path_387" data-name="Path 387" d="M257.27,154.864a17.772,17.772,0,0,0,8.59,15.217l-.7,18.621h0a1.589,1.589,0,0,0,.955,1.471,1.552,1.552,0,0,0,.613.129,1.473,1.473,0,0,0,1.02-.4l7.3-6.24,7.205,6.207h0a1.537,1.537,0,0,0,1.665.3,1.61,1.61,0,0,0,.955-1.514l-.7-18.578h0a17.772,17.772,0,1,0-26.911-15.217ZM282.688,187.4l-6.561-5.648a1.525,1.525,0,0,0-2.094,0l-6.615,5.691.612-16.215h0a17.709,17.709,0,0,0,14.057,0Zm7.99-32.538a15.627,15.627,0,0,1-7.721,13.467,1.073,1.073,0,0,0-.7.4,15.515,15.515,0,0,1-14.4,0,1.069,1.069,0,0,0-.7-.4,15.625,15.625,0,1,1,23.528-13.467Z" transform="translate(-233.032 -115.324)" fill="#d4a437"/>
      <path id="Path_388" data-name="Path 388" d="M317.04,213.444a1.074,1.074,0,0,0-1.471,1.514l3.834,3.834a1.074,1.074,0,0,0,1.461.054l7.593-6.562a1.074,1.074,0,0,0-1.4-1.632l-6.883,5.917Z" transform="translate(-279.993 -174.591)" fill="#d4a437"/>
    </g>
  </g>
</svg>
