<svg xmlns="http://www.w3.org/2000/svg" xmlns:xlink="http://www.w3.org/1999/xlink" width="146" height="165" viewBox="0 0 146 165">
  <defs>
    <clipPath id="clip-path">
      <rect id="Rectangle_197" data-name="Rectangle 197" width="146" height="165" transform="translate(1306 4613)" fill="#fff" stroke="#707070" stroke-width="1"/>
    </clipPath>
  </defs>
  <g id="Mask_Group_30" data-name="Mask Group 30" transform="translate(-1306 -4613)" clip-path="url(#clip-path)">
    <g id="Polygon_22" data-name="Polygon 22" transform="translate(1342.393 4590.354) rotate(30)" fill="none">
      <path d="M119.927,0a10,10,0,0,1,8.66,5l36.125,62.549a10,10,0,0,1,0,10L128.587,140.1a10,10,0,0,1-8.66,5H47.672a10,10,0,0,1-8.66-5L2.888,77.55a10,10,0,0,1,0-10L39.013,5a10,10,0,0,1,8.66-5Z" stroke="none"/>
      <path d="M 47.67250061035156 2.999984741210938 C 45.18006896972656 2.999984741210938 42.85738372802734 4.340774536132812 41.61083221435547 6.499130249023438 L 5.486282348632812 69.04808807373047 C 4.2391357421875 71.20751190185547 4.2391357421875 73.89041900634766 5.48626708984375 76.04979705810547 L 41.61080932617188 138.5987701416016 C 42.85733032226562 140.7571258544922 45.18004608154297 142.0979156494141 47.67247772216797 142.0979156494141 L 119.9272613525391 142.0979156494141 C 122.4197158813477 142.0979156494141 124.742431640625 140.7571258544922 125.9889526367188 138.5987701416016 L 162.1134796142578 76.04984283447266 C 163.3606262207031 73.89041900634766 163.3606262207031 71.20751190185547 162.1134948730469 69.04811096191406 L 125.9889526367188 6.499130249023438 C 124.7424011230469 4.340774536132812 122.4196929931641 2.999984741210938 119.9272613525391 2.999984741210938 L 47.67250061035156 2.999984741210938 M 47.67250061035156 -1.52587890625e-05 L 119.9272613525391 -1.52587890625e-05 C 123.4994049072266 -1.52587890625e-05 126.8002853393555 1.905471801757812 128.5868072509766 4.998748779296875 L 164.7113647460938 67.5477294921875 C 166.4986267089844 70.64237213134766 166.4986267089844 74.45555877685547 164.7113647460938 77.55020141601562 L 128.5868072509766 140.0991516113281 C 126.8002853393555 143.1924896240234 123.4994049072266 145.0979156494141 119.9272613525391 145.0979156494141 L 47.67247772216797 145.0979156494141 C 44.10033416748047 145.0979156494141 40.79947662353516 143.1924896240234 39.01295471191406 140.0991516113281 L 2.888397216796875 77.55017852783203 C 1.101150512695312 74.45555877685547 1.101150512695312 70.64237213134766 2.888397216796875 67.5477294921875 L 39.01296997070312 4.998748779296875 C 40.79947662353516 1.905471801757812 44.10035705566406 -1.52587890625e-05 47.67250061035156 -1.52587890625e-05 Z" stroke="none" fill="#181515"/>
    </g>
    <g id="Group_128" data-name="Group 128" transform="translate(1334.66 4650.389)">
      <g id="Group_127" data-name="Group 127" transform="translate(0 0)">
        <path id="Path_376" data-name="Path 376" d="M309.62,190.994a6.982,6.982,0,1,0,6.982-6.982A6.989,6.989,0,0,0,309.62,190.994Zm6.972,5a5.01,5.01,0,1,1,5.01-5.01A5.017,5.017,0,0,1,316.592,195.994Z" transform="translate(-271.367 -155.689)" fill="#d4a437"/>
        <path id="Path_377" data-name="Path 377" d="M276.79,298.662a.99.99,0,0,0,.986-.986c0-9.211,4.921-16.706,10.966-16.706s10.966,7.495,10.966,16.706a.986.986,0,1,0,1.973,0c0-10.306-5.8-18.677-12.939-18.677S275.8,287.381,275.8,297.676a.982.982,0,0,0,.985.986Z" transform="translate(-243.507 -233.948)" fill="#d4a437"/>
        <path id="Path_378" data-name="Path 378" d="M108.8,240.74H92.4v16.4h16.4Zm-1.972,14.438H94.374V242.713h12.455Z" transform="translate(-92.401 -202.427)" fill="#d4a437"/>
        <path id="Path_379" data-name="Path 379" d="M522.621,240.74a8.205,8.205,0,1,0,8.205,8.205,8.212,8.212,0,0,0-8.205-8.205Zm0,14.438a6.232,6.232,0,1,1,6.232-6.232A6.239,6.239,0,0,1,522.621,255.178Z" transform="translate(-440.098 -202.427)" fill="#d4a437"/>
        <path id="Path_380" data-name="Path 380" d="M294.34,452.474h19.329L304,435.739Zm3.422-1.973,6.243-10.819,6.243,10.819Z" transform="translate(-258.778 -363.086)" fill="#d4a437"/>
        <path id="Path_381" data-name="Path 381" d="M169.19,374.144a36.323,36.323,0,0,1-24.054-23.057.986.986,0,0,0-1.864.641,38.321,38.321,0,0,0,25.364,24.309.888.888,0,0,0,.276.039.986.986,0,0,0,.277-1.932Z" transform="translate(-134.269 -292.793)" fill="#d4a437"/>
        <path id="Path_382" data-name="Path 382" d="M433.308,349.1a1,1,0,0,0-1.253.621,36.383,36.383,0,0,1-23.4,23.066.99.99,0,0,0,.3,1.933,1.033,1.033,0,0,0,.3-.05,38.4,38.4,0,0,0,24.674-24.32.975.975,0,0,0-.612-1.252Z" transform="translate(-352.392 -291.664)" fill="#d4a437"/>
        <path id="Path_383" data-name="Path 383" d="M422.2,86.635a36.492,36.492,0,0,1,20.463,20.532.991.991,0,0,0,.917.631.917.917,0,0,0,.355-.069,1,1,0,0,0,.562-1.282A38.442,38.442,0,0,0,422.928,84.8a.987.987,0,1,0-.729,1.834Z" transform="translate(-363.609 -73.893)" fill="#d4a437"/>
        <path id="Path_384" data-name="Path 384" d="M146.959,108.12a.9.9,0,0,0,.355.069.976.976,0,0,0,.917-.631A36.5,36.5,0,0,1,168.486,87.1a.984.984,0,0,0-.74-1.824,38.448,38.448,0,0,0-21.351,21.557.989.989,0,0,0,.563,1.283Z" transform="translate(-136.831 -74.283)" fill="#d4a437"/>
        <path id="Path_385" data-name="Path 385" d="M305.839,41.718l3.274-6,6-3.274-6-3.274-3.274-6-3.274,6-6,3.274,6,3.274Zm-1.824-11.094,1.824-3.334,1.824,3.334L311,32.448l-3.334,1.824-1.824,3.334-1.824-3.334-3.334-1.824Z" transform="translate(-260.615 -23.178)" fill="#d4a437"/>
      </g>
    </g>
  </g>
</svg>
